G04 EAGLE Gerber RS-274X export*
G75*
%MOMM*%
%FSLAX34Y34*%
%LPD*%
%INTop Copper*%
%IPPOS*%
%AMOC8*
5,1,8,0,0,1.08239X$1,22.5*%
G01*
%ADD10R,0.300000X0.520000*%
%ADD11R,0.300000X0.490000*%
%ADD12R,1.000000X1.100000*%
%ADD13R,0.950000X1.000000*%
%ADD14R,1.524000X1.524000*%
%ADD15P,1.649562X8X22.500000*%
%ADD16C,1.498600*%
%ADD17C,0.800000*%
%ADD18C,1.422400*%
%ADD19C,3.327400*%
%ADD20C,1.320800*%
%ADD21C,1.790700*%
%ADD22C,1.219200*%
%ADD23C,1.016000*%
%ADD24C,1.943100*%
%ADD25R,1.270000X0.635000*%
%ADD26R,0.762000X1.270000*%
%ADD27C,0.304800*%
%ADD28C,0.152400*%
%ADD29C,0.525000*%
%ADD30C,0.203200*%
%ADD31C,0.406400*%
%ADD32C,0.406400*%

G36*
X100513Y2541D02*
X100513Y2541D01*
X100514Y2541D01*
X101852Y2544D01*
X101883Y2541D01*
X1173760Y2541D01*
X1173841Y2554D01*
X1173923Y2558D01*
X1173951Y2569D01*
X1175103Y2541D01*
X1175110Y2542D01*
X1175121Y2541D01*
X1175215Y2541D01*
X1175220Y2542D01*
X1175229Y2541D01*
X1183835Y2703D01*
X1183866Y2709D01*
X1183934Y2712D01*
X1201044Y5294D01*
X1201074Y5303D01*
X1201173Y5325D01*
X1202068Y5625D01*
X1204332Y6387D01*
X1211126Y8670D01*
X1211126Y8671D01*
X1217575Y10838D01*
X1217602Y10853D01*
X1217696Y10892D01*
X1232892Y19170D01*
X1232916Y19189D01*
X1233002Y19243D01*
X1246529Y30034D01*
X1246550Y30057D01*
X1246625Y30126D01*
X1258073Y43102D01*
X1258089Y43128D01*
X1258151Y43208D01*
X1267172Y57975D01*
X1267184Y58004D01*
X1267231Y58094D01*
X1273550Y74203D01*
X1273557Y74233D01*
X1273587Y74330D01*
X1277013Y91291D01*
X1277015Y91323D01*
X1277027Y91390D01*
X1277617Y100015D01*
X1277616Y100035D01*
X1277619Y100067D01*
X1277619Y255622D01*
X1277616Y255642D01*
X1277617Y255675D01*
X1277023Y264295D01*
X1277016Y264326D01*
X1277010Y264394D01*
X1273578Y281346D01*
X1273567Y281375D01*
X1273540Y281473D01*
X1267217Y297572D01*
X1267201Y297599D01*
X1267158Y297691D01*
X1258135Y312447D01*
X1258114Y312471D01*
X1258056Y312554D01*
X1246607Y325519D01*
X1246583Y325539D01*
X1246511Y325610D01*
X1232986Y336390D01*
X1232958Y336406D01*
X1232875Y336464D01*
X1217683Y344731D01*
X1217653Y344742D01*
X1217561Y344784D01*
X1201164Y350288D01*
X1201133Y350293D01*
X1201035Y350319D01*
X1190245Y351943D01*
X1190169Y351942D01*
X1190093Y351950D01*
X1190046Y351940D01*
X1189999Y351939D01*
X1189927Y351914D01*
X1189852Y351898D01*
X1189812Y351874D01*
X1189767Y351858D01*
X1189707Y351811D01*
X1189641Y351772D01*
X1189610Y351736D01*
X1189573Y351707D01*
X1189531Y351643D01*
X1189481Y351585D01*
X1189463Y351541D01*
X1189438Y351502D01*
X1189418Y351428D01*
X1189389Y351357D01*
X1189382Y351293D01*
X1189374Y351264D01*
X1189376Y351238D01*
X1189371Y351190D01*
X1189371Y325877D01*
X1189390Y325763D01*
X1189407Y325646D01*
X1189409Y325641D01*
X1189410Y325635D01*
X1189465Y325532D01*
X1189518Y325427D01*
X1189523Y325423D01*
X1189526Y325417D01*
X1189610Y325337D01*
X1189694Y325255D01*
X1189700Y325251D01*
X1189704Y325248D01*
X1189721Y325240D01*
X1189841Y325174D01*
X1196971Y322220D01*
X1202330Y316861D01*
X1205231Y309859D01*
X1205231Y302281D01*
X1202330Y295279D01*
X1196971Y289920D01*
X1189969Y287019D01*
X1182391Y287019D01*
X1175389Y289920D01*
X1170030Y295279D01*
X1167129Y302281D01*
X1167129Y309859D01*
X1170030Y316861D01*
X1175389Y322220D01*
X1182519Y325174D01*
X1182619Y325236D01*
X1182719Y325296D01*
X1182723Y325300D01*
X1182728Y325304D01*
X1182803Y325394D01*
X1182879Y325482D01*
X1182881Y325488D01*
X1182885Y325493D01*
X1182927Y325602D01*
X1182971Y325711D01*
X1182972Y325718D01*
X1182973Y325723D01*
X1182974Y325741D01*
X1182989Y325877D01*
X1182989Y352169D01*
X1182987Y352182D01*
X1182989Y352194D01*
X1182967Y352303D01*
X1182950Y352412D01*
X1182944Y352423D01*
X1182941Y352436D01*
X1182886Y352532D01*
X1182834Y352629D01*
X1182825Y352638D01*
X1182819Y352649D01*
X1182736Y352722D01*
X1182656Y352798D01*
X1182644Y352804D01*
X1182635Y352812D01*
X1182533Y352855D01*
X1182433Y352902D01*
X1182420Y352903D01*
X1182408Y352909D01*
X1182242Y352930D01*
X1175235Y353059D01*
X1175229Y353058D01*
X1175221Y353059D01*
X1175121Y353059D01*
X1175114Y353058D01*
X1175102Y353059D01*
X1173954Y353030D01*
X1173928Y353041D01*
X1173873Y353047D01*
X1173845Y353055D01*
X1173817Y353053D01*
X1173761Y353059D01*
X686562Y353059D01*
X686491Y353048D01*
X686419Y353046D01*
X686370Y353028D01*
X686319Y353020D01*
X686256Y352986D01*
X686188Y352961D01*
X686148Y352929D01*
X686102Y352904D01*
X686052Y352852D01*
X685996Y352808D01*
X685968Y352764D01*
X685932Y352726D01*
X685902Y352661D01*
X685863Y352601D01*
X685851Y352550D01*
X685829Y352503D01*
X685821Y352432D01*
X685803Y352362D01*
X685807Y352310D01*
X685801Y352259D01*
X685817Y352188D01*
X685822Y352117D01*
X685843Y352069D01*
X685854Y352018D01*
X685891Y351957D01*
X685919Y351891D01*
X685963Y351835D01*
X685980Y351807D01*
X685998Y351792D01*
X686023Y351760D01*
X686674Y351110D01*
X687515Y349079D01*
X687515Y346881D01*
X686674Y344850D01*
X685769Y343946D01*
X685728Y343888D01*
X685678Y343836D01*
X685656Y343789D01*
X685626Y343747D01*
X685605Y343678D01*
X685575Y343613D01*
X685569Y343561D01*
X685554Y343511D01*
X685555Y343440D01*
X685547Y343369D01*
X685559Y343318D01*
X685560Y343266D01*
X685585Y343198D01*
X685600Y343128D01*
X685626Y343083D01*
X685644Y343035D01*
X685689Y342979D01*
X685726Y342917D01*
X685765Y342883D01*
X685798Y342843D01*
X685858Y342804D01*
X685913Y342757D01*
X685961Y342738D01*
X686005Y342710D01*
X686074Y342692D01*
X686141Y342665D01*
X686212Y342657D01*
X686243Y342649D01*
X686267Y342651D01*
X686308Y342647D01*
X696769Y342647D01*
X696883Y342666D01*
X697000Y342683D01*
X697005Y342685D01*
X697011Y342686D01*
X697114Y342741D01*
X697219Y342794D01*
X697223Y342799D01*
X697229Y342802D01*
X697309Y342886D01*
X697391Y342970D01*
X697395Y342976D01*
X697398Y342980D01*
X697406Y342997D01*
X697472Y343117D01*
X697626Y343490D01*
X699180Y345044D01*
X701211Y345885D01*
X703409Y345885D01*
X705440Y345044D01*
X706994Y343490D01*
X707835Y341459D01*
X707835Y339261D01*
X706994Y337230D01*
X705440Y335676D01*
X703409Y334835D01*
X701211Y334835D01*
X699180Y335676D01*
X697626Y337230D01*
X697472Y337603D01*
X697410Y337703D01*
X697350Y337803D01*
X697346Y337807D01*
X697342Y337812D01*
X697252Y337887D01*
X697163Y337963D01*
X697158Y337965D01*
X697153Y337969D01*
X697044Y338011D01*
X696935Y338055D01*
X696928Y338056D01*
X696923Y338057D01*
X696905Y338058D01*
X696769Y338073D01*
X491483Y338073D01*
X491392Y338059D01*
X491302Y338051D01*
X491272Y338039D01*
X491240Y338034D01*
X491159Y337991D01*
X491075Y337955D01*
X491043Y337929D01*
X491022Y337918D01*
X491000Y337895D01*
X490944Y337850D01*
X481907Y328813D01*
X481895Y328796D01*
X481879Y328784D01*
X481823Y328697D01*
X481763Y328613D01*
X481757Y328594D01*
X481746Y328577D01*
X481721Y328477D01*
X481691Y328378D01*
X481691Y328358D01*
X481686Y328339D01*
X481694Y328236D01*
X481697Y328132D01*
X481704Y328113D01*
X481705Y328093D01*
X481746Y327998D01*
X481781Y327901D01*
X481794Y327885D01*
X481802Y327867D01*
X481907Y327736D01*
X487345Y322298D01*
X487345Y314722D01*
X481988Y309365D01*
X474412Y309365D01*
X469055Y314722D01*
X469055Y322298D01*
X474412Y327655D01*
X475152Y327655D01*
X475172Y327658D01*
X475191Y327656D01*
X475293Y327678D01*
X475395Y327694D01*
X475412Y327704D01*
X475432Y327708D01*
X475521Y327761D01*
X475612Y327810D01*
X475626Y327824D01*
X475643Y327834D01*
X475710Y327913D01*
X475782Y327988D01*
X475790Y328006D01*
X475803Y328021D01*
X475842Y328117D01*
X475885Y328211D01*
X475887Y328231D01*
X475895Y328249D01*
X475913Y328416D01*
X475913Y329287D01*
X489273Y342647D01*
X677672Y342647D01*
X677743Y342658D01*
X677815Y342660D01*
X677864Y342678D01*
X677915Y342686D01*
X677978Y342720D01*
X678046Y342745D01*
X678086Y342777D01*
X678132Y342802D01*
X678182Y342854D01*
X678238Y342898D01*
X678266Y342942D01*
X678302Y342980D01*
X678332Y343045D01*
X678371Y343105D01*
X678383Y343156D01*
X678405Y343203D01*
X678413Y343274D01*
X678431Y343344D01*
X678427Y343396D01*
X678433Y343447D01*
X678417Y343518D01*
X678412Y343589D01*
X678391Y343637D01*
X678380Y343688D01*
X678343Y343749D01*
X678315Y343815D01*
X678271Y343871D01*
X678254Y343899D01*
X678236Y343914D01*
X678211Y343946D01*
X677306Y344850D01*
X677152Y345223D01*
X677090Y345323D01*
X677030Y345423D01*
X677026Y345427D01*
X677022Y345432D01*
X676932Y345507D01*
X676843Y345583D01*
X676838Y345585D01*
X676833Y345589D01*
X676724Y345631D01*
X676615Y345675D01*
X676608Y345676D01*
X676603Y345677D01*
X676585Y345678D01*
X676449Y345693D01*
X471163Y345693D01*
X471072Y345679D01*
X470982Y345671D01*
X470952Y345659D01*
X470920Y345654D01*
X470839Y345611D01*
X470755Y345575D01*
X470723Y345549D01*
X470702Y345538D01*
X470680Y345515D01*
X470624Y345470D01*
X455310Y330156D01*
X455257Y330082D01*
X455197Y330012D01*
X455185Y329982D01*
X455166Y329956D01*
X455139Y329869D01*
X455105Y329784D01*
X455101Y329743D01*
X455094Y329721D01*
X455095Y329689D01*
X455087Y329617D01*
X455087Y328416D01*
X455090Y328396D01*
X455088Y328377D01*
X455110Y328275D01*
X455126Y328173D01*
X455136Y328156D01*
X455140Y328136D01*
X455193Y328047D01*
X455242Y327956D01*
X455256Y327942D01*
X455266Y327925D01*
X455345Y327858D01*
X455420Y327786D01*
X455438Y327778D01*
X455453Y327765D01*
X455549Y327726D01*
X455643Y327683D01*
X455663Y327681D01*
X455681Y327673D01*
X455848Y327655D01*
X456588Y327655D01*
X461945Y322298D01*
X461945Y314722D01*
X456588Y309365D01*
X449012Y309365D01*
X443655Y314722D01*
X443655Y322298D01*
X449012Y327655D01*
X449752Y327655D01*
X449772Y327658D01*
X449791Y327656D01*
X449893Y327678D01*
X449995Y327694D01*
X450012Y327704D01*
X450032Y327708D01*
X450121Y327761D01*
X450212Y327810D01*
X450226Y327824D01*
X450243Y327834D01*
X450310Y327913D01*
X450382Y327988D01*
X450390Y328006D01*
X450403Y328021D01*
X450442Y328117D01*
X450485Y328211D01*
X450487Y328231D01*
X450495Y328249D01*
X450513Y328416D01*
X450513Y331827D01*
X468953Y350267D01*
X676449Y350267D01*
X676563Y350286D01*
X676680Y350303D01*
X676685Y350305D01*
X676691Y350306D01*
X676794Y350361D01*
X676899Y350414D01*
X676903Y350419D01*
X676909Y350422D01*
X676989Y350506D01*
X677071Y350590D01*
X677075Y350596D01*
X677078Y350600D01*
X677086Y350617D01*
X677152Y350737D01*
X677306Y351110D01*
X677957Y351760D01*
X677998Y351818D01*
X678048Y351870D01*
X678070Y351917D01*
X678100Y351959D01*
X678121Y352028D01*
X678151Y352093D01*
X678157Y352145D01*
X678172Y352195D01*
X678171Y352266D01*
X678179Y352337D01*
X678167Y352388D01*
X678166Y352440D01*
X678141Y352508D01*
X678126Y352578D01*
X678100Y352623D01*
X678082Y352671D01*
X678037Y352727D01*
X678000Y352789D01*
X677961Y352823D01*
X677928Y352863D01*
X677868Y352902D01*
X677813Y352949D01*
X677765Y352968D01*
X677721Y352996D01*
X677652Y353014D01*
X677585Y353041D01*
X677514Y353049D01*
X677483Y353057D01*
X677459Y353055D01*
X677418Y353059D01*
X100530Y353059D01*
X100516Y353057D01*
X100494Y353058D01*
X91994Y352659D01*
X91964Y352653D01*
X91896Y352648D01*
X75160Y349641D01*
X75130Y349630D01*
X75032Y349606D01*
X69729Y347656D01*
X69721Y347652D01*
X69712Y347650D01*
X69615Y347592D01*
X69515Y347535D01*
X69509Y347528D01*
X69501Y347524D01*
X69427Y347437D01*
X69351Y347352D01*
X69347Y347344D01*
X69341Y347337D01*
X69298Y347231D01*
X69253Y347127D01*
X69253Y347117D01*
X69249Y347109D01*
X69231Y346942D01*
X69231Y325877D01*
X69250Y325763D01*
X69267Y325646D01*
X69269Y325641D01*
X69270Y325635D01*
X69325Y325532D01*
X69378Y325427D01*
X69383Y325423D01*
X69386Y325417D01*
X69470Y325337D01*
X69554Y325255D01*
X69560Y325251D01*
X69564Y325248D01*
X69581Y325240D01*
X69701Y325174D01*
X76831Y322220D01*
X82190Y316861D01*
X85091Y309859D01*
X85091Y302281D01*
X82190Y295279D01*
X76831Y289920D01*
X69829Y287019D01*
X62251Y287019D01*
X55249Y289920D01*
X49890Y295279D01*
X46989Y302281D01*
X46989Y309859D01*
X49890Y316861D01*
X55249Y322220D01*
X62379Y325174D01*
X62479Y325236D01*
X62579Y325296D01*
X62583Y325300D01*
X62588Y325304D01*
X62663Y325394D01*
X62739Y325482D01*
X62741Y325488D01*
X62745Y325493D01*
X62787Y325602D01*
X62831Y325711D01*
X62832Y325718D01*
X62833Y325723D01*
X62834Y325741D01*
X62849Y325877D01*
X62849Y344036D01*
X62844Y344066D01*
X62847Y344096D01*
X62825Y344187D01*
X62810Y344279D01*
X62795Y344306D01*
X62788Y344335D01*
X62738Y344414D01*
X62694Y344496D01*
X62672Y344517D01*
X62656Y344543D01*
X62583Y344601D01*
X62516Y344665D01*
X62488Y344678D01*
X62465Y344697D01*
X62377Y344730D01*
X62293Y344769D01*
X62263Y344772D01*
X62234Y344783D01*
X62141Y344786D01*
X62049Y344796D01*
X62019Y344790D01*
X61988Y344791D01*
X61825Y344750D01*
X59072Y343738D01*
X59045Y343723D01*
X58952Y343682D01*
X44255Y335132D01*
X44230Y335112D01*
X44146Y335055D01*
X31156Y324083D01*
X31136Y324059D01*
X31063Y323989D01*
X20175Y310927D01*
X20160Y310900D01*
X20100Y310818D01*
X11646Y296065D01*
X11635Y296035D01*
X11590Y295944D01*
X5827Y279947D01*
X5821Y279916D01*
X5793Y279819D01*
X2895Y263064D01*
X2895Y263032D01*
X2885Y262965D01*
X2541Y254462D01*
X2543Y254450D01*
X2541Y254431D01*
X2541Y254423D01*
X2541Y254422D01*
X2541Y254420D01*
X2545Y253098D01*
X2541Y253059D01*
X2541Y100009D01*
X2543Y99995D01*
X2542Y99973D01*
X2932Y91524D01*
X2939Y91493D01*
X2943Y91425D01*
X5921Y74788D01*
X5932Y74759D01*
X5956Y74660D01*
X11778Y58794D01*
X11793Y58766D01*
X11834Y58674D01*
X20323Y44059D01*
X20343Y44035D01*
X20399Y43950D01*
X31296Y31032D01*
X31320Y31011D01*
X31390Y30938D01*
X44365Y20108D01*
X44392Y20092D01*
X44474Y20032D01*
X59133Y11620D01*
X59162Y11609D01*
X59253Y11564D01*
X75150Y5825D01*
X75180Y5819D01*
X75278Y5791D01*
X91930Y2899D01*
X91962Y2899D01*
X92029Y2888D01*
X100480Y2541D01*
X100492Y2543D01*
X100511Y2541D01*
X100512Y2541D01*
X100513Y2541D01*
G37*
%LPC*%
G36*
X745661Y10985D02*
X745661Y10985D01*
X743630Y11826D01*
X742076Y13380D01*
X741235Y15411D01*
X741235Y17609D01*
X742076Y19640D01*
X743630Y21194D01*
X745661Y22035D01*
X747859Y22035D01*
X749890Y21194D01*
X751444Y19640D01*
X751598Y19267D01*
X751660Y19167D01*
X751720Y19067D01*
X751724Y19063D01*
X751728Y19058D01*
X751818Y18983D01*
X751907Y18907D01*
X751912Y18905D01*
X751917Y18901D01*
X752026Y18859D01*
X752135Y18815D01*
X752142Y18814D01*
X752147Y18813D01*
X752165Y18812D01*
X752301Y18797D01*
X838369Y18797D01*
X838389Y18800D01*
X838408Y18798D01*
X838510Y18820D01*
X838612Y18836D01*
X838629Y18846D01*
X838649Y18850D01*
X838738Y18903D01*
X838829Y18952D01*
X838843Y18966D01*
X838860Y18976D01*
X838927Y19055D01*
X838999Y19130D01*
X839007Y19148D01*
X839020Y19163D01*
X839059Y19259D01*
X839102Y19353D01*
X839104Y19373D01*
X839112Y19391D01*
X839130Y19558D01*
X839130Y20769D01*
X840937Y22576D01*
X840979Y22634D01*
X841028Y22686D01*
X841050Y22733D01*
X841081Y22775D01*
X841102Y22844D01*
X841132Y22909D01*
X841138Y22961D01*
X841153Y23011D01*
X841151Y23082D01*
X841159Y23153D01*
X841148Y23204D01*
X841147Y23256D01*
X841122Y23324D01*
X841107Y23394D01*
X841080Y23439D01*
X841062Y23487D01*
X841017Y23543D01*
X840981Y23605D01*
X840941Y23639D01*
X840909Y23679D01*
X840848Y23718D01*
X840794Y23765D01*
X840745Y23784D01*
X840702Y23812D01*
X840632Y23830D01*
X840566Y23857D01*
X840494Y23865D01*
X840463Y23873D01*
X840440Y23871D01*
X840399Y23875D01*
X800931Y23875D01*
X776516Y48290D01*
X776442Y48343D01*
X776372Y48403D01*
X776342Y48415D01*
X776316Y48434D01*
X776229Y48461D01*
X776144Y48495D01*
X776103Y48499D01*
X776081Y48506D01*
X776049Y48505D01*
X775978Y48513D01*
X775803Y48513D01*
X775732Y48502D01*
X775661Y48500D01*
X775612Y48482D01*
X775560Y48474D01*
X775497Y48440D01*
X775430Y48415D01*
X775389Y48383D01*
X775343Y48358D01*
X775294Y48306D01*
X775238Y48262D01*
X775209Y48218D01*
X775174Y48180D01*
X775143Y48115D01*
X775105Y48055D01*
X775092Y48004D01*
X775070Y47957D01*
X775062Y47886D01*
X775045Y47816D01*
X775049Y47764D01*
X775043Y47713D01*
X775058Y47642D01*
X775064Y47571D01*
X775084Y47523D01*
X775095Y47472D01*
X775132Y47411D01*
X775160Y47345D01*
X775205Y47289D01*
X775221Y47261D01*
X775239Y47246D01*
X775265Y47214D01*
X777580Y44899D01*
X777580Y41461D01*
X775149Y39030D01*
X771711Y39030D01*
X770071Y40670D01*
X769997Y40723D01*
X769928Y40783D01*
X769898Y40795D01*
X769871Y40814D01*
X769784Y40841D01*
X769700Y40875D01*
X769659Y40879D01*
X769636Y40886D01*
X769604Y40885D01*
X769533Y40893D01*
X755643Y40893D01*
X755552Y40879D01*
X755462Y40871D01*
X755432Y40859D01*
X755400Y40854D01*
X755319Y40811D01*
X755235Y40775D01*
X755203Y40749D01*
X755182Y40738D01*
X755160Y40715D01*
X755104Y40670D01*
X752295Y37861D01*
X752227Y37767D01*
X752157Y37673D01*
X752155Y37667D01*
X752152Y37662D01*
X752117Y37550D01*
X752081Y37439D01*
X752081Y37433D01*
X752079Y37427D01*
X752082Y37310D01*
X752084Y37193D01*
X752086Y37186D01*
X752086Y37181D01*
X752092Y37163D01*
X752130Y37032D01*
X752285Y36659D01*
X752285Y34461D01*
X751444Y32430D01*
X749890Y30876D01*
X747859Y30035D01*
X745661Y30035D01*
X743630Y30876D01*
X742076Y32430D01*
X741235Y34461D01*
X741235Y36659D01*
X742076Y38690D01*
X743630Y40244D01*
X745661Y41085D01*
X747859Y41085D01*
X748232Y40930D01*
X748345Y40904D01*
X748459Y40875D01*
X748465Y40876D01*
X748471Y40874D01*
X748588Y40885D01*
X748704Y40894D01*
X748710Y40897D01*
X748716Y40897D01*
X748824Y40945D01*
X748930Y40990D01*
X748936Y40995D01*
X748941Y40997D01*
X748955Y41010D01*
X749061Y41095D01*
X751870Y43904D01*
X753433Y45467D01*
X769533Y45467D01*
X769623Y45481D01*
X769714Y45489D01*
X769744Y45501D01*
X769776Y45506D01*
X769856Y45549D01*
X769940Y45585D01*
X769972Y45611D01*
X769993Y45622D01*
X770015Y45645D01*
X770071Y45690D01*
X771595Y47214D01*
X771637Y47272D01*
X771686Y47324D01*
X771708Y47371D01*
X771739Y47413D01*
X771760Y47482D01*
X771790Y47547D01*
X771796Y47599D01*
X771811Y47649D01*
X771809Y47720D01*
X771817Y47791D01*
X771806Y47842D01*
X771805Y47894D01*
X771780Y47962D01*
X771765Y48032D01*
X771738Y48077D01*
X771720Y48125D01*
X771675Y48181D01*
X771639Y48243D01*
X771599Y48277D01*
X771567Y48317D01*
X771506Y48356D01*
X771452Y48403D01*
X771403Y48422D01*
X771360Y48450D01*
X771290Y48468D01*
X771224Y48495D01*
X771152Y48503D01*
X771121Y48511D01*
X771098Y48509D01*
X771057Y48513D01*
X717873Y48513D01*
X713767Y52619D01*
X713767Y74491D01*
X713770Y74494D01*
X713823Y74568D01*
X713883Y74638D01*
X713895Y74668D01*
X713914Y74694D01*
X713941Y74781D01*
X713975Y74866D01*
X713979Y74907D01*
X713986Y74929D01*
X713985Y74961D01*
X713993Y75032D01*
X713993Y78061D01*
X713979Y78151D01*
X713971Y78242D01*
X713959Y78272D01*
X713954Y78304D01*
X713911Y78384D01*
X713875Y78468D01*
X713849Y78500D01*
X713838Y78521D01*
X713815Y78543D01*
X713770Y78599D01*
X712246Y80123D01*
X712188Y80165D01*
X712136Y80214D01*
X712089Y80236D01*
X712047Y80267D01*
X711978Y80288D01*
X711913Y80318D01*
X711861Y80324D01*
X711811Y80339D01*
X711740Y80337D01*
X711669Y80345D01*
X711618Y80334D01*
X711566Y80333D01*
X711498Y80308D01*
X711428Y80293D01*
X711383Y80266D01*
X711335Y80248D01*
X711279Y80203D01*
X711217Y80167D01*
X711183Y80127D01*
X711143Y80095D01*
X711104Y80034D01*
X711057Y79980D01*
X711038Y79931D01*
X711010Y79888D01*
X710992Y79818D01*
X710965Y79752D01*
X710957Y79680D01*
X710949Y79649D01*
X710951Y79626D01*
X710947Y79585D01*
X710947Y29533D01*
X701010Y19596D01*
X699447Y18033D01*
X641673Y18033D01*
X629964Y29742D01*
X629890Y29795D01*
X629820Y29855D01*
X629790Y29867D01*
X629764Y29886D01*
X629677Y29913D01*
X629592Y29947D01*
X629551Y29951D01*
X629529Y29958D01*
X629497Y29957D01*
X629426Y29965D01*
X626812Y29965D01*
X621455Y35322D01*
X621455Y41402D01*
X621452Y41422D01*
X621454Y41441D01*
X621432Y41543D01*
X621416Y41645D01*
X621406Y41662D01*
X621402Y41682D01*
X621349Y41771D01*
X621300Y41862D01*
X621286Y41876D01*
X621276Y41893D01*
X621197Y41960D01*
X621122Y42032D01*
X621104Y42040D01*
X621089Y42053D01*
X620993Y42092D01*
X620899Y42135D01*
X620879Y42137D01*
X620861Y42145D01*
X620694Y42163D01*
X615106Y42163D01*
X615086Y42160D01*
X615067Y42162D01*
X614965Y42140D01*
X614863Y42124D01*
X614846Y42114D01*
X614826Y42110D01*
X614737Y42057D01*
X614646Y42008D01*
X614632Y41994D01*
X614615Y41984D01*
X614548Y41905D01*
X614476Y41830D01*
X614468Y41812D01*
X614455Y41797D01*
X614416Y41701D01*
X614373Y41607D01*
X614371Y41587D01*
X614363Y41569D01*
X614345Y41402D01*
X614345Y35322D01*
X608988Y29965D01*
X601412Y29965D01*
X596055Y35322D01*
X596055Y38903D01*
X596044Y38974D01*
X596042Y39045D01*
X596024Y39094D01*
X596016Y39146D01*
X595982Y39209D01*
X595957Y39276D01*
X595925Y39317D01*
X595900Y39363D01*
X595848Y39412D01*
X595804Y39468D01*
X595760Y39496D01*
X595722Y39532D01*
X595657Y39562D01*
X595597Y39601D01*
X595546Y39614D01*
X595499Y39636D01*
X595428Y39644D01*
X595358Y39661D01*
X595306Y39657D01*
X595255Y39663D01*
X595184Y39648D01*
X595113Y39642D01*
X595065Y39622D01*
X595014Y39611D01*
X594953Y39574D01*
X594887Y39546D01*
X594831Y39501D01*
X594803Y39485D01*
X594788Y39467D01*
X594756Y39441D01*
X592138Y36823D01*
X589706Y36823D01*
X589686Y36820D01*
X589667Y36822D01*
X589565Y36800D01*
X589463Y36784D01*
X589446Y36774D01*
X589426Y36770D01*
X589337Y36717D01*
X589246Y36668D01*
X589232Y36654D01*
X589215Y36644D01*
X589148Y36565D01*
X589076Y36490D01*
X589068Y36472D01*
X589055Y36457D01*
X589016Y36361D01*
X588973Y36267D01*
X588971Y36247D01*
X588963Y36229D01*
X588945Y36062D01*
X588945Y35322D01*
X583588Y29965D01*
X576012Y29965D01*
X570655Y35322D01*
X570655Y42898D01*
X576012Y48255D01*
X583588Y48255D01*
X588945Y42898D01*
X588945Y42158D01*
X588948Y42138D01*
X588946Y42119D01*
X588968Y42017D01*
X588984Y41915D01*
X588994Y41898D01*
X588998Y41878D01*
X589051Y41789D01*
X589100Y41698D01*
X589114Y41684D01*
X589124Y41667D01*
X589203Y41600D01*
X589278Y41528D01*
X589296Y41520D01*
X589311Y41507D01*
X589407Y41468D01*
X589501Y41425D01*
X589521Y41423D01*
X589539Y41415D01*
X589706Y41397D01*
X589928Y41397D01*
X590018Y41411D01*
X590109Y41419D01*
X590139Y41431D01*
X590171Y41436D01*
X590252Y41479D01*
X590336Y41515D01*
X590368Y41541D01*
X590388Y41552D01*
X590411Y41575D01*
X590467Y41620D01*
X602913Y54066D01*
X602954Y54124D01*
X603004Y54176D01*
X603026Y54223D01*
X603056Y54265D01*
X603077Y54334D01*
X603107Y54399D01*
X603113Y54451D01*
X603128Y54501D01*
X603127Y54572D01*
X603135Y54643D01*
X603123Y54694D01*
X603122Y54746D01*
X603097Y54814D01*
X603082Y54884D01*
X603056Y54929D01*
X603038Y54977D01*
X602993Y55033D01*
X602956Y55095D01*
X602917Y55129D01*
X602884Y55169D01*
X602824Y55208D01*
X602769Y55255D01*
X602721Y55274D01*
X602677Y55302D01*
X602608Y55320D01*
X602541Y55347D01*
X602470Y55355D01*
X602439Y55363D01*
X602415Y55361D01*
X602374Y55365D01*
X601412Y55365D01*
X596055Y60722D01*
X596055Y68298D01*
X601412Y73655D01*
X608988Y73655D01*
X614345Y68298D01*
X614345Y60722D01*
X609273Y55650D01*
X609231Y55592D01*
X609182Y55540D01*
X609160Y55493D01*
X609129Y55451D01*
X609108Y55382D01*
X609078Y55317D01*
X609072Y55265D01*
X609057Y55215D01*
X609059Y55144D01*
X609051Y55073D01*
X609062Y55022D01*
X609063Y54970D01*
X609088Y54902D01*
X609103Y54832D01*
X609130Y54787D01*
X609148Y54739D01*
X609193Y54683D01*
X609229Y54621D01*
X609269Y54587D01*
X609301Y54547D01*
X609362Y54508D01*
X609416Y54461D01*
X609465Y54442D01*
X609508Y54414D01*
X609578Y54396D01*
X609644Y54369D01*
X609716Y54361D01*
X609747Y54353D01*
X609770Y54355D01*
X609811Y54351D01*
X625989Y54351D01*
X626060Y54362D01*
X626131Y54364D01*
X626180Y54382D01*
X626232Y54390D01*
X626295Y54424D01*
X626362Y54449D01*
X626403Y54481D01*
X626449Y54506D01*
X626498Y54558D01*
X626554Y54602D01*
X626583Y54646D01*
X626618Y54684D01*
X626649Y54749D01*
X626687Y54809D01*
X626700Y54860D01*
X626722Y54907D01*
X626730Y54978D01*
X626747Y55048D01*
X626743Y55100D01*
X626749Y55151D01*
X626734Y55222D01*
X626728Y55293D01*
X626708Y55341D01*
X626697Y55392D01*
X626660Y55453D01*
X626632Y55519D01*
X626587Y55575D01*
X626571Y55603D01*
X626553Y55618D01*
X626527Y55650D01*
X621455Y60722D01*
X621455Y68298D01*
X626812Y73655D01*
X634388Y73655D01*
X639745Y68298D01*
X639745Y60722D01*
X634673Y55650D01*
X634631Y55592D01*
X634582Y55540D01*
X634560Y55493D01*
X634529Y55451D01*
X634508Y55382D01*
X634478Y55317D01*
X634472Y55265D01*
X634457Y55215D01*
X634459Y55144D01*
X634451Y55073D01*
X634462Y55022D01*
X634463Y54970D01*
X634488Y54902D01*
X634503Y54832D01*
X634530Y54787D01*
X634548Y54739D01*
X634593Y54683D01*
X634629Y54621D01*
X634669Y54587D01*
X634701Y54547D01*
X634762Y54508D01*
X634816Y54461D01*
X634865Y54442D01*
X634908Y54414D01*
X634978Y54396D01*
X635044Y54369D01*
X635116Y54361D01*
X635147Y54353D01*
X635170Y54355D01*
X635211Y54351D01*
X651389Y54351D01*
X651460Y54362D01*
X651531Y54364D01*
X651580Y54382D01*
X651632Y54390D01*
X651695Y54424D01*
X651762Y54449D01*
X651803Y54481D01*
X651849Y54506D01*
X651898Y54558D01*
X651954Y54602D01*
X651983Y54646D01*
X652018Y54684D01*
X652049Y54749D01*
X652087Y54809D01*
X652100Y54860D01*
X652122Y54907D01*
X652130Y54978D01*
X652147Y55048D01*
X652143Y55100D01*
X652149Y55151D01*
X652134Y55222D01*
X652128Y55293D01*
X652108Y55341D01*
X652097Y55392D01*
X652060Y55453D01*
X652032Y55519D01*
X651987Y55575D01*
X651971Y55603D01*
X651953Y55618D01*
X651927Y55650D01*
X646855Y60722D01*
X646855Y68298D01*
X652212Y73655D01*
X659788Y73655D01*
X665145Y68298D01*
X665145Y60722D01*
X660073Y55650D01*
X660031Y55592D01*
X659982Y55540D01*
X659960Y55493D01*
X659929Y55451D01*
X659908Y55382D01*
X659878Y55317D01*
X659872Y55265D01*
X659857Y55215D01*
X659859Y55144D01*
X659851Y55073D01*
X659862Y55022D01*
X659863Y54970D01*
X659888Y54902D01*
X659903Y54832D01*
X659930Y54787D01*
X659948Y54739D01*
X659993Y54683D01*
X660029Y54621D01*
X660069Y54587D01*
X660101Y54547D01*
X660162Y54508D01*
X660216Y54461D01*
X660265Y54442D01*
X660308Y54414D01*
X660378Y54396D01*
X660444Y54369D01*
X660516Y54361D01*
X660547Y54353D01*
X660570Y54355D01*
X660611Y54351D01*
X691651Y54351D01*
X691741Y54365D01*
X691832Y54373D01*
X691862Y54385D01*
X691894Y54390D01*
X691974Y54433D01*
X692058Y54469D01*
X692090Y54495D01*
X692111Y54506D01*
X692133Y54529D01*
X692189Y54574D01*
X699800Y62185D01*
X699853Y62259D01*
X699913Y62328D01*
X699925Y62358D01*
X699944Y62385D01*
X699971Y62471D01*
X700005Y62556D01*
X700009Y62597D01*
X700016Y62620D01*
X700015Y62652D01*
X700023Y62723D01*
X700023Y206480D01*
X700009Y206570D01*
X700001Y206661D01*
X699989Y206691D01*
X699984Y206723D01*
X699941Y206804D01*
X699905Y206888D01*
X699879Y206920D01*
X699868Y206940D01*
X699845Y206963D01*
X699800Y207019D01*
X698735Y208084D01*
X698661Y208137D01*
X698592Y208196D01*
X698562Y208208D01*
X698535Y208227D01*
X698449Y208254D01*
X698364Y208288D01*
X698323Y208293D01*
X698300Y208300D01*
X698268Y208299D01*
X698197Y208307D01*
X695878Y208307D01*
X693447Y210738D01*
X693447Y214175D01*
X695878Y216606D01*
X696437Y216606D01*
X696508Y216618D01*
X696580Y216620D01*
X696629Y216638D01*
X696680Y216646D01*
X696743Y216679D01*
X696811Y216704D01*
X696852Y216737D01*
X696898Y216761D01*
X696947Y216813D01*
X697003Y216858D01*
X697031Y216902D01*
X697067Y216939D01*
X697097Y217004D01*
X697136Y217065D01*
X697149Y217115D01*
X697171Y217162D01*
X697178Y217234D01*
X697196Y217303D01*
X697192Y217355D01*
X697198Y217407D01*
X697182Y217477D01*
X697177Y217548D01*
X697156Y217596D01*
X697145Y217647D01*
X697109Y217709D01*
X697081Y217775D01*
X697036Y217831D01*
X697019Y217858D01*
X697001Y217874D01*
X696976Y217906D01*
X696890Y217991D01*
X696890Y221429D01*
X699321Y223860D01*
X702759Y223860D01*
X705190Y221429D01*
X705190Y219110D01*
X705204Y219019D01*
X705212Y218929D01*
X705224Y218899D01*
X705229Y218867D01*
X705272Y218786D01*
X705308Y218702D01*
X705334Y218670D01*
X705345Y218649D01*
X705368Y218627D01*
X705413Y218571D01*
X705641Y218343D01*
X705641Y218047D01*
X705652Y217976D01*
X705654Y217905D01*
X705672Y217856D01*
X705680Y217804D01*
X705714Y217741D01*
X705739Y217674D01*
X705771Y217633D01*
X705796Y217587D01*
X705847Y217538D01*
X705892Y217482D01*
X705936Y217453D01*
X705974Y217418D01*
X706039Y217387D01*
X706099Y217349D01*
X706150Y217336D01*
X706197Y217314D01*
X706268Y217306D01*
X706338Y217289D01*
X706390Y217293D01*
X706441Y217287D01*
X706512Y217302D01*
X706583Y217308D01*
X706631Y217328D01*
X706682Y217339D01*
X706743Y217376D01*
X706809Y217404D01*
X706865Y217449D01*
X706893Y217465D01*
X706908Y217483D01*
X706940Y217509D01*
X706941Y217510D01*
X710379Y217510D01*
X712810Y215079D01*
X712810Y211641D01*
X711170Y210001D01*
X711117Y209927D01*
X711057Y209858D01*
X711045Y209828D01*
X711026Y209801D01*
X710999Y209714D01*
X710965Y209630D01*
X710961Y209589D01*
X710954Y209566D01*
X710955Y209534D01*
X710947Y209463D01*
X710947Y84331D01*
X710958Y84260D01*
X710960Y84189D01*
X710978Y84140D01*
X710986Y84088D01*
X711020Y84025D01*
X711045Y83958D01*
X711077Y83917D01*
X711102Y83871D01*
X711154Y83822D01*
X711198Y83766D01*
X711242Y83737D01*
X711280Y83702D01*
X711345Y83671D01*
X711405Y83633D01*
X711456Y83620D01*
X711503Y83598D01*
X711574Y83590D01*
X711644Y83573D01*
X711696Y83577D01*
X711747Y83571D01*
X711818Y83586D01*
X711889Y83592D01*
X711937Y83612D01*
X711988Y83623D01*
X712049Y83660D01*
X712115Y83688D01*
X712171Y83733D01*
X712199Y83749D01*
X712214Y83767D01*
X712246Y83793D01*
X714561Y86108D01*
X717999Y86108D01*
X720430Y83677D01*
X720430Y80239D01*
X718790Y78599D01*
X718737Y78525D01*
X718677Y78456D01*
X718665Y78426D01*
X718646Y78399D01*
X718619Y78312D01*
X718585Y78228D01*
X718581Y78187D01*
X718574Y78164D01*
X718575Y78132D01*
X718567Y78061D01*
X718567Y76257D01*
X718570Y76237D01*
X718568Y76218D01*
X718590Y76116D01*
X718606Y76014D01*
X718616Y75997D01*
X718620Y75977D01*
X718673Y75888D01*
X718722Y75797D01*
X718736Y75783D01*
X718746Y75766D01*
X718825Y75699D01*
X718900Y75627D01*
X718918Y75619D01*
X718933Y75606D01*
X719029Y75567D01*
X719123Y75524D01*
X719143Y75522D01*
X719161Y75514D01*
X719328Y75496D01*
X723079Y75496D01*
X725510Y73065D01*
X725510Y70746D01*
X725524Y70655D01*
X725532Y70565D01*
X725544Y70535D01*
X725549Y70503D01*
X725592Y70422D01*
X725628Y70338D01*
X725654Y70306D01*
X725665Y70285D01*
X725688Y70263D01*
X725733Y70207D01*
X736280Y59660D01*
X736354Y59607D01*
X736424Y59547D01*
X736454Y59535D01*
X736480Y59516D01*
X736567Y59489D01*
X736652Y59455D01*
X736693Y59451D01*
X736715Y59444D01*
X736747Y59445D01*
X736818Y59437D01*
X772648Y59437D01*
X772718Y59448D01*
X772790Y59450D01*
X772839Y59468D01*
X772890Y59476D01*
X772954Y59510D01*
X773021Y59535D01*
X773062Y59567D01*
X773108Y59592D01*
X773157Y59644D01*
X773213Y59688D01*
X773241Y59732D01*
X773277Y59770D01*
X773307Y59835D01*
X773346Y59895D01*
X773359Y59946D01*
X773381Y59993D01*
X773389Y60064D01*
X773406Y60134D01*
X773402Y60186D01*
X773408Y60237D01*
X773393Y60308D01*
X773387Y60379D01*
X773367Y60427D01*
X773356Y60478D01*
X773319Y60539D01*
X773291Y60605D01*
X773246Y60661D01*
X773229Y60689D01*
X773212Y60704D01*
X773186Y60736D01*
X772029Y61893D01*
X771955Y61946D01*
X771885Y62006D01*
X771855Y62018D01*
X771829Y62037D01*
X771742Y62064D01*
X771657Y62098D01*
X771616Y62102D01*
X771594Y62109D01*
X771562Y62108D01*
X771490Y62116D01*
X769171Y62116D01*
X766740Y64547D01*
X766740Y67985D01*
X767630Y68875D01*
X767642Y68891D01*
X767657Y68903D01*
X767713Y68991D01*
X767774Y69074D01*
X767779Y69093D01*
X767790Y69110D01*
X767816Y69211D01*
X767846Y69310D01*
X767845Y69329D01*
X767850Y69349D01*
X767842Y69452D01*
X767840Y69555D01*
X767833Y69574D01*
X767831Y69594D01*
X767791Y69689D01*
X767755Y69786D01*
X767743Y69802D01*
X767735Y69820D01*
X767630Y69951D01*
X765470Y72111D01*
X765470Y75549D01*
X767901Y77980D01*
X771339Y77980D01*
X772979Y76340D01*
X773053Y76287D01*
X773122Y76227D01*
X773152Y76215D01*
X773179Y76196D01*
X773266Y76169D01*
X773350Y76135D01*
X773391Y76131D01*
X773414Y76124D01*
X773446Y76125D01*
X773517Y76117D01*
X777237Y76117D01*
X777308Y76128D01*
X777379Y76130D01*
X777428Y76148D01*
X777480Y76156D01*
X777543Y76190D01*
X777610Y76215D01*
X777651Y76247D01*
X777697Y76272D01*
X777746Y76324D01*
X777802Y76368D01*
X777830Y76412D01*
X777866Y76450D01*
X777897Y76515D01*
X777935Y76575D01*
X777948Y76626D01*
X777970Y76673D01*
X777978Y76744D01*
X777995Y76814D01*
X777991Y76866D01*
X777997Y76917D01*
X777982Y76988D01*
X777976Y77059D01*
X777956Y77107D01*
X777945Y77158D01*
X777908Y77219D01*
X777880Y77285D01*
X777835Y77341D01*
X777819Y77369D01*
X777801Y77384D01*
X777775Y77416D01*
X776900Y78291D01*
X776900Y81729D01*
X779331Y84160D01*
X782769Y84160D01*
X784409Y82520D01*
X784483Y82467D01*
X784552Y82407D01*
X784582Y82395D01*
X784609Y82376D01*
X784696Y82349D01*
X784780Y82315D01*
X784821Y82311D01*
X784844Y82304D01*
X784876Y82305D01*
X784947Y82297D01*
X879787Y82297D01*
X889105Y72979D01*
X889200Y72911D01*
X889294Y72841D01*
X889300Y72839D01*
X889305Y72835D01*
X889416Y72801D01*
X889528Y72765D01*
X889534Y72765D01*
X889540Y72763D01*
X889657Y72766D01*
X889774Y72767D01*
X889781Y72769D01*
X889786Y72769D01*
X889803Y72776D01*
X889935Y72814D01*
X891323Y73389D01*
X891423Y73450D01*
X891490Y73490D01*
X891492Y73492D01*
X891493Y73492D01*
X891523Y73510D01*
X891527Y73515D01*
X891532Y73518D01*
X891607Y73609D01*
X891643Y73650D01*
X891662Y73670D01*
X891664Y73675D01*
X891683Y73697D01*
X891685Y73703D01*
X891689Y73708D01*
X891731Y73816D01*
X891740Y73839D01*
X891765Y73893D01*
X891766Y73905D01*
X891775Y73925D01*
X891776Y73933D01*
X891777Y73938D01*
X891778Y73956D01*
X891793Y74092D01*
X891793Y93657D01*
X909555Y111419D01*
X909582Y111457D01*
X909616Y111488D01*
X909653Y111556D01*
X909699Y111619D01*
X909712Y111663D01*
X909734Y111703D01*
X909748Y111780D01*
X909771Y111854D01*
X909770Y111900D01*
X909778Y111945D01*
X909767Y112022D01*
X909765Y112100D01*
X909749Y112143D01*
X909742Y112189D01*
X909707Y112258D01*
X909680Y112331D01*
X909652Y112367D01*
X909631Y112408D01*
X909575Y112462D01*
X909527Y112523D01*
X909488Y112548D01*
X909455Y112580D01*
X909335Y112646D01*
X909320Y112656D01*
X909315Y112657D01*
X909308Y112661D01*
X907460Y113426D01*
X905906Y114980D01*
X905752Y115353D01*
X905690Y115453D01*
X905630Y115553D01*
X905626Y115557D01*
X905622Y115562D01*
X905532Y115637D01*
X905443Y115713D01*
X905438Y115715D01*
X905433Y115719D01*
X905324Y115761D01*
X905215Y115805D01*
X905208Y115806D01*
X905203Y115807D01*
X905185Y115808D01*
X905049Y115823D01*
X890263Y115823D01*
X890172Y115809D01*
X890082Y115801D01*
X890052Y115789D01*
X890020Y115784D01*
X889939Y115741D01*
X889855Y115705D01*
X889823Y115679D01*
X889802Y115668D01*
X889780Y115645D01*
X889724Y115600D01*
X883890Y109766D01*
X883837Y109692D01*
X883777Y109622D01*
X883765Y109592D01*
X883746Y109566D01*
X883719Y109479D01*
X883685Y109394D01*
X883681Y109353D01*
X883674Y109331D01*
X883675Y109299D01*
X883667Y109227D01*
X883667Y95337D01*
X883681Y95247D01*
X883689Y95156D01*
X883701Y95126D01*
X883706Y95094D01*
X883749Y95014D01*
X883785Y94930D01*
X883811Y94898D01*
X883822Y94877D01*
X883845Y94855D01*
X883890Y94799D01*
X885530Y93159D01*
X885530Y89721D01*
X883099Y87290D01*
X879661Y87290D01*
X877230Y89721D01*
X877230Y93159D01*
X878870Y94799D01*
X878923Y94873D01*
X878983Y94942D01*
X878995Y94972D01*
X879014Y94999D01*
X879041Y95086D01*
X879075Y95170D01*
X879079Y95211D01*
X879086Y95234D01*
X879085Y95266D01*
X879093Y95337D01*
X879093Y111437D01*
X888053Y120397D01*
X905049Y120397D01*
X905163Y120416D01*
X905280Y120433D01*
X905285Y120435D01*
X905291Y120436D01*
X905394Y120491D01*
X905499Y120544D01*
X905503Y120549D01*
X905509Y120552D01*
X905589Y120636D01*
X905671Y120720D01*
X905675Y120726D01*
X905678Y120730D01*
X905686Y120747D01*
X905752Y120867D01*
X905906Y121240D01*
X907460Y122794D01*
X909491Y123635D01*
X911689Y123635D01*
X913858Y122736D01*
X913971Y122710D01*
X914085Y122681D01*
X914091Y122682D01*
X914097Y122680D01*
X914214Y122691D01*
X914330Y122700D01*
X914336Y122703D01*
X914342Y122703D01*
X914449Y122751D01*
X914557Y122797D01*
X914562Y122801D01*
X914567Y122803D01*
X914581Y122816D01*
X914687Y122901D01*
X916152Y124366D01*
X925539Y133753D01*
X925566Y133791D01*
X925600Y133822D01*
X925638Y133890D01*
X925683Y133953D01*
X925696Y133997D01*
X925719Y134037D01*
X925732Y134114D01*
X925755Y134188D01*
X925754Y134234D01*
X925762Y134279D01*
X925751Y134356D01*
X925749Y134434D01*
X925733Y134477D01*
X925726Y134523D01*
X925691Y134592D01*
X925664Y134665D01*
X925636Y134701D01*
X925615Y134742D01*
X925559Y134796D01*
X925511Y134857D01*
X925472Y134882D01*
X925439Y134914D01*
X925320Y134980D01*
X925304Y134990D01*
X925299Y134991D01*
X925292Y134995D01*
X925240Y135016D01*
X923686Y136570D01*
X922845Y138601D01*
X922845Y140799D01*
X923686Y142830D01*
X925240Y144384D01*
X927271Y145225D01*
X929469Y145225D01*
X931500Y144384D01*
X933054Y142830D01*
X933895Y140799D01*
X933895Y138601D01*
X933054Y136570D01*
X931500Y135016D01*
X931127Y134862D01*
X931027Y134800D01*
X930927Y134740D01*
X930923Y134736D01*
X930918Y134732D01*
X930843Y134642D01*
X930767Y134553D01*
X930765Y134548D01*
X930761Y134543D01*
X930719Y134434D01*
X930675Y134325D01*
X930674Y134318D01*
X930673Y134313D01*
X930672Y134295D01*
X930657Y134159D01*
X930657Y132403D01*
X929094Y130840D01*
X919386Y121132D01*
X919333Y121058D01*
X919273Y120988D01*
X919261Y120958D01*
X919242Y120932D01*
X919215Y120845D01*
X919181Y120760D01*
X919177Y120719D01*
X919170Y120697D01*
X919171Y120665D01*
X919163Y120594D01*
X919163Y119888D01*
X919166Y119868D01*
X919164Y119849D01*
X919186Y119747D01*
X919202Y119645D01*
X919212Y119628D01*
X919216Y119608D01*
X919269Y119519D01*
X919318Y119428D01*
X919332Y119414D01*
X919342Y119397D01*
X919421Y119330D01*
X919496Y119258D01*
X919514Y119250D01*
X919529Y119237D01*
X919625Y119198D01*
X919719Y119155D01*
X919739Y119153D01*
X919757Y119145D01*
X919924Y119127D01*
X922303Y119127D01*
X922417Y119146D01*
X922534Y119163D01*
X922539Y119165D01*
X922545Y119166D01*
X922648Y119221D01*
X922753Y119274D01*
X922757Y119279D01*
X922763Y119282D01*
X922843Y119366D01*
X922925Y119450D01*
X922929Y119456D01*
X922932Y119460D01*
X922940Y119477D01*
X923006Y119597D01*
X923686Y121240D01*
X925240Y122794D01*
X927271Y123635D01*
X929469Y123635D01*
X931500Y122794D01*
X933054Y121240D01*
X933895Y119209D01*
X933895Y117011D01*
X933054Y114980D01*
X931500Y113426D01*
X929469Y112585D01*
X927271Y112585D01*
X925240Y113426D01*
X924337Y114330D01*
X924263Y114383D01*
X924193Y114443D01*
X924163Y114455D01*
X924137Y114474D01*
X924050Y114501D01*
X923965Y114535D01*
X923924Y114539D01*
X923902Y114546D01*
X923870Y114545D01*
X923798Y114553D01*
X922972Y114553D01*
X922952Y114550D01*
X922933Y114552D01*
X922831Y114530D01*
X922729Y114514D01*
X922712Y114504D01*
X922692Y114500D01*
X922603Y114447D01*
X922512Y114398D01*
X922498Y114384D01*
X922481Y114374D01*
X922414Y114295D01*
X922342Y114220D01*
X922334Y114202D01*
X922321Y114187D01*
X922282Y114091D01*
X922239Y113997D01*
X922237Y113977D01*
X922229Y113959D01*
X922211Y113792D01*
X922211Y113296D01*
X906369Y97454D01*
X906324Y97392D01*
X906297Y97364D01*
X906292Y97353D01*
X906256Y97311D01*
X906244Y97281D01*
X906225Y97255D01*
X906198Y97168D01*
X906164Y97083D01*
X906160Y97042D01*
X906153Y97020D01*
X906154Y96987D01*
X906146Y96916D01*
X906146Y59772D01*
X896590Y50216D01*
X896537Y50142D01*
X896477Y50073D01*
X896465Y50043D01*
X896446Y50016D01*
X896419Y49929D01*
X896385Y49845D01*
X896381Y49804D01*
X896374Y49781D01*
X896375Y49749D01*
X896367Y49678D01*
X896367Y48692D01*
X896386Y48577D01*
X896403Y48461D01*
X896405Y48456D01*
X896406Y48449D01*
X896461Y48347D01*
X896514Y48242D01*
X896519Y48238D01*
X896522Y48232D01*
X896606Y48152D01*
X896690Y48070D01*
X896696Y48066D01*
X896700Y48063D01*
X896717Y48055D01*
X896837Y47989D01*
X899188Y47015D01*
X901725Y44478D01*
X903098Y41164D01*
X903098Y37576D01*
X901725Y34262D01*
X899188Y31725D01*
X895874Y30352D01*
X892286Y30352D01*
X888972Y31725D01*
X886435Y34262D01*
X885461Y36613D01*
X885399Y36713D01*
X885340Y36813D01*
X885335Y36817D01*
X885332Y36822D01*
X885241Y36897D01*
X885153Y36973D01*
X885147Y36975D01*
X885142Y36979D01*
X885034Y37021D01*
X884925Y37065D01*
X884917Y37066D01*
X884912Y37067D01*
X884894Y37068D01*
X884758Y37083D01*
X883772Y37083D01*
X883682Y37069D01*
X883591Y37061D01*
X883561Y37049D01*
X883529Y37044D01*
X883449Y37001D01*
X883365Y36965D01*
X883333Y36939D01*
X883312Y36928D01*
X883290Y36905D01*
X883234Y36860D01*
X870249Y23875D01*
X846161Y23875D01*
X846090Y23864D01*
X846019Y23862D01*
X845970Y23844D01*
X845918Y23836D01*
X845855Y23802D01*
X845788Y23777D01*
X845747Y23745D01*
X845701Y23720D01*
X845652Y23668D01*
X845596Y23624D01*
X845567Y23580D01*
X845532Y23542D01*
X845501Y23477D01*
X845463Y23417D01*
X845450Y23366D01*
X845428Y23319D01*
X845420Y23248D01*
X845403Y23178D01*
X845407Y23126D01*
X845401Y23075D01*
X845416Y23004D01*
X845422Y22933D01*
X845442Y22885D01*
X845453Y22834D01*
X845490Y22773D01*
X845518Y22707D01*
X845563Y22651D01*
X845579Y22623D01*
X845596Y22609D01*
X845599Y22604D01*
X845604Y22599D01*
X845623Y22576D01*
X847430Y20769D01*
X847430Y17331D01*
X844999Y14900D01*
X842680Y14900D01*
X842589Y14886D01*
X842499Y14878D01*
X842469Y14866D01*
X842437Y14861D01*
X842356Y14818D01*
X842272Y14782D01*
X842240Y14756D01*
X842219Y14745D01*
X842197Y14722D01*
X842141Y14677D01*
X841687Y14223D01*
X752301Y14223D01*
X752187Y14204D01*
X752070Y14187D01*
X752065Y14185D01*
X752059Y14184D01*
X751956Y14129D01*
X751851Y14076D01*
X751847Y14071D01*
X751841Y14068D01*
X751761Y13984D01*
X751679Y13900D01*
X751675Y13894D01*
X751672Y13890D01*
X751664Y13873D01*
X751598Y13753D01*
X751444Y13380D01*
X749890Y11826D01*
X747859Y10985D01*
X745661Y10985D01*
G37*
%LPD*%
%LPC*%
G36*
X54232Y21335D02*
X54232Y21335D01*
X53339Y22228D01*
X53339Y29918D01*
X53325Y30008D01*
X53317Y30099D01*
X53305Y30129D01*
X53300Y30161D01*
X53257Y30241D01*
X53221Y30325D01*
X53195Y30357D01*
X53184Y30378D01*
X53161Y30400D01*
X53132Y30436D01*
X53132Y30437D01*
X53116Y30456D01*
X37971Y45601D01*
X37971Y52404D01*
X37968Y52424D01*
X37970Y52443D01*
X37948Y52545D01*
X37932Y52647D01*
X37922Y52664D01*
X37918Y52684D01*
X37865Y52773D01*
X37816Y52864D01*
X37802Y52878D01*
X37792Y52895D01*
X37713Y52962D01*
X37638Y53034D01*
X37620Y53042D01*
X37605Y53055D01*
X37509Y53094D01*
X37415Y53137D01*
X37395Y53139D01*
X37377Y53147D01*
X37210Y53165D01*
X35638Y53165D01*
X34745Y54058D01*
X34745Y65322D01*
X35638Y66215D01*
X36702Y66215D01*
X36722Y66218D01*
X36741Y66216D01*
X36843Y66238D01*
X36945Y66254D01*
X36962Y66264D01*
X36982Y66268D01*
X37071Y66321D01*
X37162Y66370D01*
X37176Y66384D01*
X37193Y66394D01*
X37260Y66473D01*
X37332Y66548D01*
X37340Y66566D01*
X37353Y66581D01*
X37392Y66677D01*
X37435Y66771D01*
X37437Y66791D01*
X37445Y66809D01*
X37463Y66976D01*
X37463Y69684D01*
X37460Y69704D01*
X37462Y69723D01*
X37440Y69825D01*
X37424Y69927D01*
X37414Y69944D01*
X37410Y69964D01*
X37357Y70053D01*
X37308Y70144D01*
X37294Y70158D01*
X37284Y70175D01*
X37205Y70242D01*
X37130Y70314D01*
X37112Y70322D01*
X37097Y70335D01*
X37001Y70374D01*
X36907Y70417D01*
X36887Y70419D01*
X36869Y70427D01*
X36702Y70445D01*
X35888Y70445D01*
X34995Y71338D01*
X34995Y83602D01*
X35888Y84495D01*
X47152Y84495D01*
X48045Y83602D01*
X48045Y71338D01*
X47152Y70445D01*
X45338Y70445D01*
X45318Y70442D01*
X45299Y70444D01*
X45197Y70422D01*
X45095Y70406D01*
X45078Y70396D01*
X45058Y70392D01*
X44969Y70339D01*
X44878Y70290D01*
X44864Y70276D01*
X44847Y70266D01*
X44780Y70187D01*
X44708Y70112D01*
X44700Y70094D01*
X44687Y70079D01*
X44648Y69983D01*
X44605Y69889D01*
X44603Y69869D01*
X44595Y69851D01*
X44577Y69684D01*
X44577Y66976D01*
X44580Y66956D01*
X44578Y66937D01*
X44600Y66835D01*
X44616Y66733D01*
X44626Y66716D01*
X44630Y66696D01*
X44683Y66607D01*
X44732Y66516D01*
X44746Y66502D01*
X44756Y66485D01*
X44835Y66418D01*
X44910Y66346D01*
X44928Y66338D01*
X44943Y66325D01*
X45039Y66286D01*
X45133Y66243D01*
X45153Y66241D01*
X45171Y66233D01*
X45338Y66215D01*
X46402Y66215D01*
X47295Y65322D01*
X47295Y62738D01*
X47298Y62718D01*
X47296Y62699D01*
X47318Y62597D01*
X47334Y62495D01*
X47344Y62478D01*
X47348Y62458D01*
X47401Y62369D01*
X47450Y62278D01*
X47464Y62264D01*
X47474Y62247D01*
X47553Y62180D01*
X47628Y62108D01*
X47646Y62100D01*
X47661Y62087D01*
X47757Y62048D01*
X47851Y62005D01*
X47871Y62003D01*
X47889Y61995D01*
X48056Y61977D01*
X73860Y61977D01*
X73950Y61991D01*
X74041Y61999D01*
X74071Y62011D01*
X74103Y62016D01*
X74183Y62059D01*
X74267Y62095D01*
X74299Y62121D01*
X74320Y62132D01*
X74342Y62155D01*
X74398Y62200D01*
X75564Y63366D01*
X75606Y63424D01*
X75655Y63476D01*
X75677Y63523D01*
X75708Y63565D01*
X75729Y63634D01*
X75759Y63699D01*
X75765Y63751D01*
X75780Y63801D01*
X75778Y63872D01*
X75786Y63943D01*
X75775Y63994D01*
X75774Y64046D01*
X75749Y64114D01*
X75734Y64184D01*
X75707Y64229D01*
X75689Y64277D01*
X75644Y64333D01*
X75608Y64395D01*
X75568Y64429D01*
X75536Y64469D01*
X75475Y64508D01*
X75421Y64555D01*
X75372Y64574D01*
X75329Y64602D01*
X75259Y64620D01*
X75193Y64647D01*
X75121Y64655D01*
X75090Y64663D01*
X75067Y64661D01*
X75026Y64665D01*
X73814Y64665D01*
X73724Y64651D01*
X73633Y64643D01*
X73603Y64631D01*
X73571Y64626D01*
X73490Y64583D01*
X73406Y64547D01*
X73374Y64521D01*
X73354Y64510D01*
X73331Y64487D01*
X73275Y64442D01*
X72990Y64157D01*
X72411Y63822D01*
X71764Y63649D01*
X70691Y63649D01*
X70691Y68640D01*
X70688Y68659D01*
X70690Y68679D01*
X70668Y68780D01*
X70652Y68882D01*
X70642Y68900D01*
X70638Y68919D01*
X70585Y69009D01*
X70537Y69100D01*
X70536Y69100D01*
X70522Y69114D01*
X70512Y69131D01*
X70511Y69131D01*
X70433Y69198D01*
X70358Y69270D01*
X70340Y69278D01*
X70325Y69291D01*
X70228Y69330D01*
X70135Y69373D01*
X70115Y69375D01*
X70096Y69383D01*
X69930Y69401D01*
X65889Y69401D01*
X65889Y71424D01*
X66062Y72071D01*
X66397Y72650D01*
X66682Y72935D01*
X66735Y73009D01*
X66795Y73079D01*
X66807Y73109D01*
X66826Y73135D01*
X66853Y73222D01*
X66887Y73307D01*
X66891Y73348D01*
X66898Y73370D01*
X66897Y73402D01*
X66905Y73474D01*
X66905Y79222D01*
X67798Y80115D01*
X71882Y80115D01*
X71902Y80118D01*
X71921Y80116D01*
X72023Y80138D01*
X72125Y80154D01*
X72142Y80164D01*
X72162Y80168D01*
X72251Y80221D01*
X72342Y80270D01*
X72356Y80284D01*
X72373Y80294D01*
X72440Y80373D01*
X72512Y80448D01*
X72520Y80466D01*
X72533Y80481D01*
X72572Y80577D01*
X72615Y80671D01*
X72617Y80691D01*
X72625Y80709D01*
X72643Y80876D01*
X72643Y84582D01*
X72640Y84602D01*
X72642Y84621D01*
X72620Y84723D01*
X72604Y84825D01*
X72594Y84842D01*
X72590Y84862D01*
X72537Y84951D01*
X72488Y85042D01*
X72474Y85056D01*
X72464Y85073D01*
X72412Y85117D01*
X72410Y85120D01*
X70103Y87427D01*
X70103Y90373D01*
X71150Y91420D01*
X71203Y91494D01*
X71263Y91564D01*
X71275Y91594D01*
X71294Y91620D01*
X71321Y91707D01*
X71355Y91792D01*
X71359Y91833D01*
X71366Y91855D01*
X71365Y91887D01*
X71373Y91959D01*
X71373Y151137D01*
X71359Y151228D01*
X71351Y151318D01*
X71339Y151348D01*
X71334Y151380D01*
X71291Y151461D01*
X71255Y151545D01*
X71229Y151577D01*
X71218Y151598D01*
X71195Y151620D01*
X71150Y151676D01*
X32550Y190276D01*
X32476Y190329D01*
X32406Y190389D01*
X32376Y190401D01*
X32350Y190420D01*
X32263Y190447D01*
X32178Y190481D01*
X32137Y190485D01*
X32115Y190492D01*
X32083Y190491D01*
X32011Y190499D01*
X26690Y190499D01*
X26575Y190480D01*
X26459Y190463D01*
X26453Y190461D01*
X26447Y190460D01*
X26344Y190405D01*
X26240Y190352D01*
X26235Y190347D01*
X26230Y190344D01*
X26150Y190260D01*
X26067Y190176D01*
X26064Y190170D01*
X26060Y190166D01*
X26052Y190149D01*
X25986Y190029D01*
X25102Y187894D01*
X22672Y185464D01*
X19498Y184149D01*
X16062Y184149D01*
X12888Y185464D01*
X10458Y187894D01*
X9143Y191068D01*
X9143Y194504D01*
X10458Y197678D01*
X12888Y200108D01*
X16062Y201423D01*
X19498Y201423D01*
X22672Y200108D01*
X25102Y197678D01*
X25986Y195543D01*
X26048Y195443D01*
X26108Y195343D01*
X26113Y195339D01*
X26116Y195334D01*
X26206Y195259D01*
X26295Y195183D01*
X26301Y195181D01*
X26306Y195177D01*
X26414Y195135D01*
X26523Y195091D01*
X26531Y195090D01*
X26535Y195089D01*
X26553Y195088D01*
X26690Y195073D01*
X34221Y195073D01*
X74384Y154910D01*
X74743Y154550D01*
X74802Y154509D01*
X74854Y154459D01*
X74901Y154437D01*
X74943Y154407D01*
X75012Y154386D01*
X75077Y154356D01*
X75128Y154350D01*
X75178Y154335D01*
X75250Y154336D01*
X75321Y154328D01*
X75372Y154340D01*
X75424Y154341D01*
X75491Y154365D01*
X75562Y154381D01*
X75606Y154407D01*
X75655Y154425D01*
X75711Y154470D01*
X75773Y154507D01*
X75807Y154546D01*
X75847Y154579D01*
X75886Y154639D01*
X75933Y154694D01*
X75952Y154742D01*
X75980Y154786D01*
X75998Y154855D01*
X76025Y154922D01*
X76032Y154993D01*
X76040Y155024D01*
X76038Y155048D01*
X76043Y155089D01*
X76043Y158347D01*
X76028Y158437D01*
X76021Y158528D01*
X76009Y158558D01*
X76003Y158590D01*
X75961Y158671D01*
X75925Y158755D01*
X75899Y158787D01*
X75888Y158807D01*
X75865Y158830D01*
X75820Y158886D01*
X26463Y208242D01*
X26426Y208269D01*
X26395Y208303D01*
X26327Y208340D01*
X26264Y208386D01*
X26220Y208399D01*
X26180Y208421D01*
X26103Y208435D01*
X26029Y208458D01*
X25983Y208457D01*
X25937Y208465D01*
X25860Y208454D01*
X25783Y208452D01*
X25740Y208436D01*
X25694Y208429D01*
X25625Y208394D01*
X25552Y208367D01*
X25516Y208339D01*
X25475Y208318D01*
X25420Y208262D01*
X25360Y208214D01*
X25335Y208175D01*
X25303Y208142D01*
X25237Y208023D01*
X25227Y208007D01*
X25225Y208002D01*
X25222Y207995D01*
X25102Y207706D01*
X22672Y205276D01*
X19498Y203961D01*
X16062Y203961D01*
X12888Y205276D01*
X10458Y207706D01*
X9143Y210880D01*
X9143Y214316D01*
X10458Y217490D01*
X12888Y219920D01*
X16062Y221235D01*
X19498Y221235D01*
X22672Y219920D01*
X25102Y217490D01*
X26047Y215208D01*
X26082Y215152D01*
X26107Y215092D01*
X26159Y215027D01*
X26177Y214999D01*
X26192Y214987D01*
X26212Y214961D01*
X80616Y160557D01*
X80616Y96628D01*
X80631Y96538D01*
X80638Y96447D01*
X80651Y96418D01*
X80656Y96386D01*
X80699Y96305D01*
X80735Y96221D01*
X80760Y96189D01*
X80771Y96168D01*
X80795Y96146D01*
X80839Y96090D01*
X81886Y95043D01*
X81886Y93562D01*
X81901Y93472D01*
X81908Y93381D01*
X81921Y93351D01*
X81926Y93320D01*
X81969Y93239D01*
X82005Y93155D01*
X82030Y93123D01*
X82041Y93102D01*
X82065Y93080D01*
X82109Y93024D01*
X82217Y92917D01*
X82217Y80475D01*
X82231Y80385D01*
X82239Y80294D01*
X82251Y80264D01*
X82256Y80232D01*
X82299Y80151D01*
X82335Y80068D01*
X82361Y80035D01*
X82372Y80015D01*
X82395Y79993D01*
X82440Y79937D01*
X82955Y79422D01*
X82955Y72958D01*
X82875Y72878D01*
X82863Y72862D01*
X82847Y72850D01*
X82791Y72762D01*
X82731Y72679D01*
X82725Y72660D01*
X82714Y72643D01*
X82689Y72542D01*
X82659Y72443D01*
X82659Y72423D01*
X82654Y72404D01*
X82662Y72301D01*
X82665Y72198D01*
X82672Y72179D01*
X82673Y72159D01*
X82714Y72064D01*
X82749Y71967D01*
X82762Y71951D01*
X82770Y71933D01*
X82875Y71802D01*
X82955Y71722D01*
X82955Y70242D01*
X82969Y70152D01*
X82977Y70061D01*
X82979Y70056D01*
X82979Y64015D01*
X82990Y63944D01*
X82992Y63873D01*
X83010Y63824D01*
X83018Y63772D01*
X83052Y63709D01*
X83077Y63642D01*
X83109Y63601D01*
X83134Y63555D01*
X83186Y63506D01*
X83230Y63450D01*
X83274Y63422D01*
X83312Y63386D01*
X83377Y63355D01*
X83437Y63317D01*
X83488Y63304D01*
X83535Y63282D01*
X83606Y63274D01*
X83676Y63257D01*
X83728Y63261D01*
X83779Y63255D01*
X83850Y63270D01*
X83921Y63276D01*
X83969Y63296D01*
X84020Y63307D01*
X84081Y63344D01*
X84147Y63372D01*
X84203Y63417D01*
X84231Y63433D01*
X84246Y63451D01*
X84278Y63477D01*
X84641Y63840D01*
X88079Y63840D01*
X90510Y61409D01*
X90510Y57971D01*
X88079Y55540D01*
X86837Y55540D01*
X86747Y55526D01*
X86656Y55518D01*
X86626Y55506D01*
X86594Y55501D01*
X86514Y55458D01*
X86430Y55422D01*
X86398Y55396D01*
X86377Y55385D01*
X86364Y55371D01*
X79795Y55371D01*
X79705Y55357D01*
X79614Y55349D01*
X79585Y55337D01*
X79553Y55332D01*
X79472Y55289D01*
X79388Y55253D01*
X79356Y55227D01*
X79335Y55216D01*
X79313Y55193D01*
X79257Y55148D01*
X78972Y54863D01*
X48056Y54863D01*
X48036Y54860D01*
X48017Y54862D01*
X47915Y54840D01*
X47813Y54824D01*
X47796Y54814D01*
X47776Y54810D01*
X47687Y54757D01*
X47596Y54708D01*
X47582Y54694D01*
X47565Y54684D01*
X47498Y54605D01*
X47426Y54530D01*
X47418Y54512D01*
X47405Y54497D01*
X47366Y54401D01*
X47323Y54307D01*
X47321Y54287D01*
X47313Y54269D01*
X47295Y54102D01*
X47295Y54058D01*
X46402Y53165D01*
X44830Y53165D01*
X44810Y53162D01*
X44791Y53164D01*
X44689Y53142D01*
X44587Y53126D01*
X44570Y53116D01*
X44550Y53112D01*
X44461Y53059D01*
X44370Y53010D01*
X44356Y52996D01*
X44339Y52986D01*
X44272Y52907D01*
X44200Y52832D01*
X44192Y52814D01*
X44179Y52799D01*
X44140Y52703D01*
X44097Y52609D01*
X44095Y52589D01*
X44087Y52571D01*
X44069Y52404D01*
X44069Y48442D01*
X44083Y48352D01*
X44091Y48261D01*
X44103Y48231D01*
X44108Y48199D01*
X44151Y48119D01*
X44187Y48035D01*
X44213Y48003D01*
X44224Y47982D01*
X44247Y47960D01*
X44292Y47904D01*
X54888Y37308D01*
X54962Y37255D01*
X55031Y37195D01*
X55061Y37183D01*
X55088Y37164D01*
X55175Y37137D01*
X55259Y37103D01*
X55300Y37099D01*
X55323Y37092D01*
X55355Y37093D01*
X55426Y37085D01*
X63187Y37085D01*
X63197Y37078D01*
X63298Y37053D01*
X63397Y37023D01*
X63417Y37023D01*
X63436Y37018D01*
X63539Y37026D01*
X63642Y37029D01*
X63661Y37036D01*
X63681Y37037D01*
X63776Y37078D01*
X63795Y37085D01*
X72768Y37085D01*
X73661Y36192D01*
X73661Y33020D01*
X73664Y33000D01*
X73662Y32981D01*
X73684Y32879D01*
X73700Y32777D01*
X73710Y32760D01*
X73714Y32740D01*
X73767Y32651D01*
X73816Y32560D01*
X73830Y32546D01*
X73840Y32529D01*
X73919Y32462D01*
X73994Y32390D01*
X74012Y32382D01*
X74027Y32369D01*
X74123Y32330D01*
X74217Y32287D01*
X74237Y32285D01*
X74255Y32277D01*
X74422Y32259D01*
X214294Y32259D01*
X214314Y32262D01*
X214333Y32260D01*
X214435Y32282D01*
X214537Y32298D01*
X214554Y32308D01*
X214574Y32312D01*
X214663Y32365D01*
X214754Y32414D01*
X214768Y32428D01*
X214785Y32438D01*
X214852Y32517D01*
X214924Y32592D01*
X214932Y32610D01*
X214945Y32625D01*
X214984Y32721D01*
X215027Y32815D01*
X215029Y32835D01*
X215037Y32853D01*
X215055Y33020D01*
X215055Y35300D01*
X215054Y35309D01*
X215054Y35314D01*
X215052Y35323D01*
X215054Y35339D01*
X215032Y35441D01*
X215016Y35543D01*
X215006Y35560D01*
X215002Y35580D01*
X214949Y35669D01*
X214900Y35760D01*
X214886Y35774D01*
X214876Y35791D01*
X214797Y35858D01*
X214722Y35930D01*
X214704Y35938D01*
X214689Y35951D01*
X214593Y35990D01*
X214499Y36033D01*
X214479Y36035D01*
X214461Y36043D01*
X214294Y36061D01*
X213627Y36061D01*
X200721Y48967D01*
X200647Y49020D01*
X200578Y49080D01*
X200548Y49092D01*
X200521Y49111D01*
X200434Y49138D01*
X200350Y49172D01*
X200309Y49176D01*
X200286Y49183D01*
X200254Y49182D01*
X200183Y49190D01*
X198941Y49190D01*
X196510Y51621D01*
X196510Y55059D01*
X198941Y57490D01*
X202379Y57490D01*
X204810Y55059D01*
X204810Y53817D01*
X204824Y53727D01*
X204832Y53636D01*
X204844Y53606D01*
X204849Y53574D01*
X204892Y53494D01*
X204928Y53410D01*
X204954Y53378D01*
X204965Y53357D01*
X204988Y53335D01*
X205033Y53279D01*
X213756Y44556D01*
X213814Y44514D01*
X213866Y44465D01*
X213913Y44443D01*
X213955Y44412D01*
X214024Y44391D01*
X214089Y44361D01*
X214141Y44355D01*
X214191Y44340D01*
X214262Y44342D01*
X214333Y44334D01*
X214384Y44345D01*
X214436Y44346D01*
X214504Y44371D01*
X214574Y44386D01*
X214619Y44413D01*
X214667Y44431D01*
X214723Y44476D01*
X214785Y44512D01*
X214819Y44552D01*
X214859Y44584D01*
X214898Y44645D01*
X214945Y44699D01*
X214964Y44748D01*
X214992Y44791D01*
X215010Y44861D01*
X215037Y44927D01*
X215045Y44999D01*
X215053Y45030D01*
X215051Y45053D01*
X215055Y45094D01*
X215055Y47362D01*
X215948Y48255D01*
X232452Y48255D01*
X233345Y47362D01*
X233345Y32252D01*
X233348Y32232D01*
X233346Y32213D01*
X233368Y32111D01*
X233384Y32009D01*
X233394Y31992D01*
X233398Y31972D01*
X233451Y31883D01*
X233500Y31792D01*
X233514Y31778D01*
X233524Y31761D01*
X233603Y31694D01*
X233678Y31622D01*
X233696Y31614D01*
X233711Y31601D01*
X233807Y31562D01*
X233901Y31519D01*
X233921Y31517D01*
X233939Y31509D01*
X234106Y31491D01*
X242449Y31491D01*
X242520Y31502D01*
X242591Y31504D01*
X242640Y31522D01*
X242692Y31530D01*
X242755Y31564D01*
X242822Y31589D01*
X242863Y31621D01*
X242909Y31646D01*
X242958Y31698D01*
X243014Y31742D01*
X243043Y31786D01*
X243078Y31824D01*
X243109Y31889D01*
X243147Y31949D01*
X243160Y32000D01*
X243182Y32047D01*
X243190Y32118D01*
X243207Y32188D01*
X243203Y32240D01*
X243209Y32291D01*
X243194Y32362D01*
X243188Y32433D01*
X243168Y32481D01*
X243157Y32532D01*
X243120Y32593D01*
X243092Y32659D01*
X243047Y32715D01*
X243031Y32743D01*
X243013Y32758D01*
X242987Y32790D01*
X240455Y35322D01*
X240455Y42898D01*
X245812Y48255D01*
X253388Y48255D01*
X258745Y42898D01*
X258745Y35322D01*
X256213Y32790D01*
X256171Y32732D01*
X256122Y32680D01*
X256100Y32633D01*
X256069Y32591D01*
X256048Y32522D01*
X256018Y32457D01*
X256012Y32405D01*
X255997Y32355D01*
X255999Y32284D01*
X255991Y32213D01*
X256002Y32162D01*
X256003Y32110D01*
X256028Y32042D01*
X256043Y31972D01*
X256070Y31927D01*
X256088Y31879D01*
X256133Y31823D01*
X256169Y31761D01*
X256209Y31727D01*
X256241Y31687D01*
X256302Y31648D01*
X256356Y31601D01*
X256405Y31582D01*
X256448Y31554D01*
X256518Y31536D01*
X256584Y31509D01*
X256656Y31501D01*
X256687Y31493D01*
X256710Y31495D01*
X256751Y31491D01*
X267849Y31491D01*
X267920Y31502D01*
X267991Y31504D01*
X268040Y31522D01*
X268092Y31530D01*
X268155Y31564D01*
X268222Y31589D01*
X268263Y31621D01*
X268309Y31646D01*
X268358Y31698D01*
X268414Y31742D01*
X268443Y31786D01*
X268478Y31824D01*
X268509Y31889D01*
X268547Y31949D01*
X268560Y32000D01*
X268582Y32047D01*
X268590Y32118D01*
X268607Y32188D01*
X268603Y32240D01*
X268609Y32291D01*
X268594Y32362D01*
X268588Y32433D01*
X268568Y32481D01*
X268557Y32532D01*
X268520Y32593D01*
X268492Y32659D01*
X268447Y32715D01*
X268431Y32743D01*
X268413Y32758D01*
X268387Y32790D01*
X265855Y35322D01*
X265855Y42898D01*
X271212Y48255D01*
X278788Y48255D01*
X284145Y42898D01*
X284145Y35322D01*
X281613Y32790D01*
X281571Y32732D01*
X281522Y32680D01*
X281500Y32633D01*
X281469Y32591D01*
X281448Y32522D01*
X281418Y32457D01*
X281412Y32405D01*
X281397Y32355D01*
X281399Y32284D01*
X281391Y32213D01*
X281402Y32162D01*
X281403Y32110D01*
X281428Y32042D01*
X281443Y31972D01*
X281470Y31927D01*
X281488Y31879D01*
X281533Y31823D01*
X281569Y31761D01*
X281609Y31727D01*
X281641Y31687D01*
X281702Y31648D01*
X281756Y31601D01*
X281805Y31582D01*
X281848Y31554D01*
X281918Y31536D01*
X281984Y31509D01*
X282056Y31501D01*
X282087Y31493D01*
X282110Y31495D01*
X282151Y31491D01*
X288154Y31491D01*
X288244Y31505D01*
X288335Y31513D01*
X288365Y31525D01*
X288397Y31530D01*
X288477Y31573D01*
X288561Y31609D01*
X288593Y31635D01*
X288614Y31646D01*
X288636Y31669D01*
X288692Y31714D01*
X291240Y34261D01*
X291251Y34277D01*
X291267Y34290D01*
X291323Y34377D01*
X291383Y34461D01*
X291389Y34480D01*
X291400Y34497D01*
X291425Y34597D01*
X291456Y34696D01*
X291455Y34716D01*
X291460Y34735D01*
X291452Y34838D01*
X291449Y34942D01*
X291442Y34961D01*
X291441Y34980D01*
X291400Y35075D01*
X291365Y35173D01*
X291352Y35189D01*
X291344Y35207D01*
X291255Y35318D01*
X291255Y42898D01*
X296612Y48255D01*
X304188Y48255D01*
X309545Y42898D01*
X309545Y35322D01*
X304188Y29965D01*
X296608Y29965D01*
X296599Y29977D01*
X296512Y30033D01*
X296428Y30093D01*
X296409Y30099D01*
X296392Y30110D01*
X296292Y30135D01*
X296193Y30166D01*
X296173Y30165D01*
X296154Y30170D01*
X296051Y30162D01*
X295947Y30159D01*
X295928Y30152D01*
X295908Y30151D01*
X295814Y30110D01*
X295716Y30075D01*
X295700Y30062D01*
X295682Y30054D01*
X295551Y29950D01*
X290995Y25393D01*
X214055Y25393D01*
X213510Y25938D01*
X213436Y25991D01*
X213366Y26051D01*
X213336Y26063D01*
X213310Y26082D01*
X213223Y26109D01*
X213138Y26143D01*
X213097Y26147D01*
X213075Y26154D01*
X213043Y26153D01*
X212971Y26161D01*
X74422Y26161D01*
X74402Y26158D01*
X74383Y26160D01*
X74281Y26138D01*
X74179Y26122D01*
X74162Y26112D01*
X74142Y26108D01*
X74053Y26055D01*
X73962Y26006D01*
X73948Y25992D01*
X73931Y25982D01*
X73864Y25903D01*
X73792Y25828D01*
X73784Y25810D01*
X73771Y25795D01*
X73732Y25699D01*
X73689Y25605D01*
X73687Y25585D01*
X73679Y25567D01*
X73661Y25400D01*
X73661Y22228D01*
X72768Y21335D01*
X63813Y21335D01*
X63803Y21342D01*
X63702Y21367D01*
X63604Y21397D01*
X63584Y21397D01*
X63564Y21402D01*
X63461Y21394D01*
X63358Y21391D01*
X63339Y21384D01*
X63319Y21383D01*
X63224Y21342D01*
X63205Y21335D01*
X54232Y21335D01*
G37*
%LPD*%
%LPC*%
G36*
X1007931Y23790D02*
X1007931Y23790D01*
X1005500Y26221D01*
X1005500Y29659D01*
X1007140Y31299D01*
X1007193Y31373D01*
X1007253Y31442D01*
X1007265Y31472D01*
X1007284Y31499D01*
X1007311Y31586D01*
X1007345Y31670D01*
X1007349Y31711D01*
X1007356Y31734D01*
X1007355Y31766D01*
X1007363Y31837D01*
X1007363Y122044D01*
X1007349Y122134D01*
X1007341Y122225D01*
X1007329Y122254D01*
X1007324Y122286D01*
X1007281Y122367D01*
X1007245Y122451D01*
X1007219Y122483D01*
X1007208Y122504D01*
X1007185Y122526D01*
X1007179Y122533D01*
X1007170Y122548D01*
X1007161Y122556D01*
X1007140Y122582D01*
X985547Y144175D01*
X985547Y150465D01*
X999040Y163958D01*
X1014984Y163958D01*
X1015004Y163961D01*
X1015023Y163959D01*
X1015125Y163981D01*
X1015227Y163997D01*
X1015244Y164007D01*
X1015264Y164011D01*
X1015353Y164064D01*
X1015444Y164113D01*
X1015458Y164127D01*
X1015475Y164137D01*
X1015542Y164216D01*
X1015614Y164291D01*
X1015622Y164309D01*
X1015635Y164324D01*
X1015674Y164420D01*
X1015717Y164514D01*
X1015719Y164534D01*
X1015727Y164552D01*
X1015745Y164719D01*
X1015745Y168145D01*
X1016638Y169038D01*
X1030602Y169038D01*
X1031495Y168145D01*
X1031495Y159258D01*
X1031498Y159238D01*
X1031496Y159219D01*
X1031518Y159117D01*
X1031534Y159015D01*
X1031544Y158998D01*
X1031548Y158978D01*
X1031601Y158889D01*
X1031650Y158798D01*
X1031664Y158784D01*
X1031674Y158767D01*
X1031753Y158700D01*
X1031828Y158628D01*
X1031846Y158620D01*
X1031861Y158607D01*
X1031957Y158568D01*
X1032051Y158525D01*
X1032071Y158523D01*
X1032089Y158515D01*
X1032256Y158497D01*
X1092113Y158497D01*
X1092203Y158511D01*
X1092294Y158519D01*
X1092324Y158531D01*
X1092356Y158536D01*
X1092436Y158579D01*
X1092520Y158615D01*
X1092552Y158641D01*
X1092573Y158652D01*
X1092595Y158675D01*
X1092651Y158720D01*
X1094291Y160360D01*
X1097729Y160360D01*
X1098365Y159724D01*
X1098423Y159682D01*
X1098475Y159633D01*
X1098522Y159611D01*
X1098564Y159580D01*
X1098633Y159559D01*
X1098698Y159529D01*
X1098750Y159523D01*
X1098800Y159508D01*
X1098871Y159510D01*
X1098942Y159502D01*
X1098993Y159513D01*
X1099045Y159514D01*
X1099113Y159539D01*
X1099183Y159554D01*
X1099228Y159581D01*
X1099276Y159599D01*
X1099332Y159644D01*
X1099394Y159680D01*
X1099428Y159720D01*
X1099468Y159752D01*
X1099507Y159813D01*
X1099554Y159867D01*
X1099573Y159916D01*
X1099601Y159959D01*
X1099619Y160029D01*
X1099646Y160095D01*
X1099654Y160167D01*
X1099662Y160198D01*
X1099660Y160221D01*
X1099664Y160262D01*
X1099664Y165516D01*
X1099650Y165607D01*
X1099642Y165697D01*
X1099630Y165727D01*
X1099625Y165759D01*
X1099582Y165840D01*
X1099546Y165924D01*
X1099520Y165956D01*
X1099509Y165977D01*
X1099486Y165999D01*
X1099441Y166055D01*
X1022896Y242600D01*
X1022822Y242653D01*
X1022752Y242713D01*
X1022722Y242725D01*
X1022696Y242744D01*
X1022609Y242771D01*
X1022524Y242805D01*
X1022483Y242809D01*
X1022461Y242816D01*
X1022429Y242815D01*
X1022357Y242823D01*
X816441Y242823D01*
X816421Y242820D01*
X816402Y242822D01*
X816300Y242800D01*
X816198Y242784D01*
X816181Y242774D01*
X816161Y242770D01*
X816072Y242717D01*
X815981Y242668D01*
X815967Y242654D01*
X815950Y242644D01*
X815883Y242565D01*
X815811Y242490D01*
X815803Y242472D01*
X815790Y242457D01*
X815751Y242361D01*
X815708Y242267D01*
X815706Y242247D01*
X815698Y242229D01*
X815687Y242128D01*
X813249Y239690D01*
X809811Y239690D01*
X807380Y242121D01*
X807380Y245559D01*
X809811Y247990D01*
X813249Y247990D01*
X813619Y247620D01*
X813693Y247567D01*
X813762Y247507D01*
X813792Y247495D01*
X813819Y247476D01*
X813906Y247449D01*
X813990Y247415D01*
X814031Y247411D01*
X814054Y247404D01*
X814086Y247405D01*
X814157Y247397D01*
X1024567Y247397D01*
X1104238Y167726D01*
X1104238Y147816D01*
X1104252Y147726D01*
X1104260Y147635D01*
X1104272Y147605D01*
X1104277Y147573D01*
X1104320Y147493D01*
X1104356Y147409D01*
X1104382Y147377D01*
X1104393Y147356D01*
X1104416Y147334D01*
X1104461Y147278D01*
X1106510Y145229D01*
X1106510Y141791D01*
X1104079Y139360D01*
X1100641Y139360D01*
X1098210Y141791D01*
X1098210Y145229D01*
X1099441Y146460D01*
X1099494Y146534D01*
X1099554Y146603D01*
X1099566Y146633D01*
X1099585Y146660D01*
X1099612Y146747D01*
X1099646Y146831D01*
X1099650Y146872D01*
X1099657Y146895D01*
X1099656Y146927D01*
X1099664Y146998D01*
X1099664Y152158D01*
X1099653Y152229D01*
X1099651Y152300D01*
X1099633Y152349D01*
X1099625Y152401D01*
X1099591Y152464D01*
X1099566Y152531D01*
X1099534Y152572D01*
X1099509Y152618D01*
X1099457Y152667D01*
X1099413Y152723D01*
X1099369Y152751D01*
X1099331Y152787D01*
X1099266Y152818D01*
X1099206Y152856D01*
X1099155Y152869D01*
X1099108Y152891D01*
X1099037Y152899D01*
X1098967Y152916D01*
X1098915Y152912D01*
X1098864Y152918D01*
X1098793Y152903D01*
X1098722Y152897D01*
X1098674Y152877D01*
X1098623Y152866D01*
X1098562Y152829D01*
X1098496Y152801D01*
X1098440Y152756D01*
X1098412Y152740D01*
X1098397Y152722D01*
X1098365Y152696D01*
X1097729Y152060D01*
X1094291Y152060D01*
X1092651Y153700D01*
X1092577Y153753D01*
X1092508Y153813D01*
X1092478Y153825D01*
X1092451Y153844D01*
X1092364Y153871D01*
X1092280Y153905D01*
X1092239Y153909D01*
X1092216Y153916D01*
X1092184Y153915D01*
X1092113Y153923D01*
X1032256Y153923D01*
X1032236Y153920D01*
X1032217Y153922D01*
X1032115Y153900D01*
X1032013Y153884D01*
X1031996Y153874D01*
X1031976Y153870D01*
X1031887Y153817D01*
X1031796Y153768D01*
X1031782Y153754D01*
X1031765Y153744D01*
X1031698Y153665D01*
X1031626Y153590D01*
X1031618Y153572D01*
X1031605Y153557D01*
X1031566Y153461D01*
X1031523Y153367D01*
X1031521Y153347D01*
X1031513Y153329D01*
X1031495Y153162D01*
X1031495Y144275D01*
X1030602Y143382D01*
X1016638Y143382D01*
X1015745Y144275D01*
X1015745Y145034D01*
X1015742Y145054D01*
X1015744Y145073D01*
X1015722Y145175D01*
X1015706Y145277D01*
X1015696Y145294D01*
X1015692Y145314D01*
X1015639Y145403D01*
X1015590Y145494D01*
X1015576Y145508D01*
X1015566Y145525D01*
X1015487Y145592D01*
X1015412Y145664D01*
X1015394Y145672D01*
X1015379Y145685D01*
X1015283Y145724D01*
X1015189Y145767D01*
X1015169Y145769D01*
X1015151Y145777D01*
X1014984Y145795D01*
X997799Y145795D01*
X997709Y145781D01*
X997618Y145773D01*
X997588Y145761D01*
X997556Y145756D01*
X997476Y145713D01*
X997392Y145677D01*
X997360Y145651D01*
X997339Y145640D01*
X997317Y145617D01*
X997261Y145572D01*
X994859Y143170D01*
X994858Y143170D01*
X994787Y143159D01*
X994715Y143157D01*
X994666Y143139D01*
X994615Y143131D01*
X994551Y143097D01*
X994484Y143072D01*
X994443Y143040D01*
X994397Y143015D01*
X994348Y142963D01*
X994292Y142919D01*
X994264Y142875D01*
X994228Y142837D01*
X994198Y142772D01*
X994159Y142712D01*
X994146Y142661D01*
X994124Y142614D01*
X994117Y142543D01*
X994099Y142473D01*
X994103Y142421D01*
X994097Y142370D01*
X994113Y142299D01*
X994118Y142228D01*
X994139Y142180D01*
X994150Y142129D01*
X994186Y142068D01*
X994214Y142002D01*
X994259Y141946D01*
X994276Y141918D01*
X994294Y141903D01*
X994319Y141871D01*
X1010374Y125816D01*
X1011937Y124253D01*
X1011937Y31837D01*
X1011951Y31747D01*
X1011959Y31656D01*
X1011971Y31626D01*
X1011976Y31594D01*
X1012019Y31514D01*
X1012055Y31430D01*
X1012081Y31398D01*
X1012092Y31377D01*
X1012115Y31355D01*
X1012160Y31299D01*
X1013800Y29659D01*
X1013800Y26221D01*
X1011369Y23790D01*
X1007931Y23790D01*
G37*
%LPD*%
%LPC*%
G36*
X772020Y109189D02*
X772020Y109189D01*
X769589Y111620D01*
X769589Y115057D01*
X772020Y117488D01*
X772700Y117488D01*
X772746Y117496D01*
X772792Y117494D01*
X772866Y117515D01*
X772943Y117528D01*
X772984Y117549D01*
X773028Y117562D01*
X773092Y117607D01*
X773161Y117643D01*
X773192Y117676D01*
X773230Y117702D01*
X773276Y117765D01*
X773330Y117821D01*
X773349Y117863D01*
X773377Y117900D01*
X773401Y117974D01*
X773434Y118044D01*
X773439Y118090D01*
X773453Y118134D01*
X773452Y118212D01*
X773461Y118289D01*
X773451Y118334D01*
X773450Y118380D01*
X773412Y118511D01*
X773408Y118529D01*
X773408Y118530D01*
X773408Y118531D01*
X773406Y118534D01*
X773404Y118541D01*
X772985Y119551D01*
X772985Y121749D01*
X773826Y123780D01*
X775380Y125334D01*
X775753Y125488D01*
X775853Y125550D01*
X775953Y125610D01*
X775957Y125614D01*
X775962Y125618D01*
X776037Y125708D01*
X776113Y125797D01*
X776115Y125802D01*
X776119Y125807D01*
X776161Y125916D01*
X776205Y126025D01*
X776206Y126032D01*
X776207Y126037D01*
X776208Y126055D01*
X776223Y126191D01*
X776223Y199303D01*
X776209Y199393D01*
X776201Y199484D01*
X776189Y199514D01*
X776184Y199546D01*
X776141Y199626D01*
X776105Y199710D01*
X776079Y199742D01*
X776068Y199763D01*
X776045Y199785D01*
X776000Y199841D01*
X774476Y201365D01*
X774418Y201407D01*
X774366Y201456D01*
X774319Y201478D01*
X774277Y201509D01*
X774208Y201530D01*
X774143Y201560D01*
X774091Y201566D01*
X774041Y201581D01*
X773970Y201579D01*
X773899Y201587D01*
X773848Y201576D01*
X773796Y201575D01*
X773728Y201550D01*
X773658Y201535D01*
X773613Y201508D01*
X773565Y201490D01*
X773509Y201445D01*
X773447Y201409D01*
X773413Y201369D01*
X773373Y201337D01*
X773334Y201276D01*
X773287Y201222D01*
X773268Y201173D01*
X773240Y201130D01*
X773222Y201060D01*
X773195Y200994D01*
X773187Y200922D01*
X773179Y200891D01*
X773181Y200868D01*
X773177Y200827D01*
X773177Y137483D01*
X772615Y136921D01*
X772547Y136827D01*
X772477Y136733D01*
X772475Y136727D01*
X772472Y136722D01*
X772437Y136610D01*
X772401Y136499D01*
X772401Y136493D01*
X772399Y136487D01*
X772402Y136370D01*
X772404Y136253D01*
X772406Y136246D01*
X772406Y136241D01*
X772412Y136223D01*
X772450Y136092D01*
X772605Y135719D01*
X772605Y133521D01*
X771764Y131490D01*
X770210Y129936D01*
X768179Y129095D01*
X765981Y129095D01*
X763950Y129936D01*
X762396Y131490D01*
X761555Y133521D01*
X761555Y135719D01*
X762396Y137750D01*
X763950Y139304D01*
X765981Y140145D01*
X767842Y140145D01*
X767862Y140148D01*
X767881Y140146D01*
X767983Y140168D01*
X768085Y140184D01*
X768102Y140194D01*
X768122Y140198D01*
X768211Y140251D01*
X768302Y140300D01*
X768316Y140314D01*
X768333Y140324D01*
X768400Y140403D01*
X768472Y140478D01*
X768480Y140496D01*
X768493Y140511D01*
X768532Y140607D01*
X768575Y140701D01*
X768577Y140721D01*
X768585Y140739D01*
X768603Y140906D01*
X768603Y203113D01*
X768589Y203203D01*
X768581Y203294D01*
X768569Y203324D01*
X768564Y203356D01*
X768521Y203436D01*
X768485Y203520D01*
X768459Y203552D01*
X768448Y203573D01*
X768425Y203595D01*
X768380Y203651D01*
X766740Y205291D01*
X766740Y208729D01*
X769171Y211160D01*
X772609Y211160D01*
X775040Y208729D01*
X775040Y207436D01*
X775051Y207365D01*
X775053Y207294D01*
X775071Y207245D01*
X775079Y207193D01*
X775113Y207130D01*
X775138Y207063D01*
X775170Y207022D01*
X775195Y206976D01*
X775246Y206927D01*
X775291Y206871D01*
X775335Y206843D01*
X775373Y206807D01*
X775438Y206776D01*
X775498Y206738D01*
X775549Y206725D01*
X775596Y206703D01*
X775667Y206695D01*
X775737Y206678D01*
X775789Y206682D01*
X775840Y206676D01*
X775911Y206691D01*
X775982Y206697D01*
X776030Y206717D01*
X776081Y206728D01*
X776142Y206765D01*
X776208Y206793D01*
X776264Y206838D01*
X776292Y206854D01*
X776307Y206872D01*
X776339Y206898D01*
X776791Y207350D01*
X780229Y207350D01*
X782660Y204919D01*
X782660Y201481D01*
X781020Y199841D01*
X780967Y199767D01*
X780907Y199698D01*
X780895Y199668D01*
X780876Y199641D01*
X780849Y199554D01*
X780815Y199470D01*
X780811Y199429D01*
X780804Y199406D01*
X780805Y199374D01*
X780797Y199303D01*
X780797Y126191D01*
X780816Y126077D01*
X780833Y125960D01*
X780835Y125955D01*
X780836Y125949D01*
X780891Y125846D01*
X780944Y125741D01*
X780949Y125737D01*
X780952Y125731D01*
X781036Y125651D01*
X781120Y125569D01*
X781126Y125565D01*
X781130Y125562D01*
X781147Y125554D01*
X781267Y125488D01*
X781640Y125334D01*
X783194Y123780D01*
X784035Y121749D01*
X784035Y119551D01*
X783269Y117703D01*
X783259Y117659D01*
X783240Y117617D01*
X783231Y117540D01*
X783213Y117464D01*
X783218Y117418D01*
X783212Y117373D01*
X783229Y117296D01*
X783236Y117219D01*
X783255Y117177D01*
X783265Y117132D01*
X783305Y117065D01*
X783336Y116994D01*
X783367Y116960D01*
X783391Y116921D01*
X783450Y116870D01*
X783503Y116813D01*
X783543Y116791D01*
X783578Y116761D01*
X783650Y116732D01*
X783718Y116695D01*
X783763Y116686D01*
X783806Y116669D01*
X783942Y116654D01*
X783960Y116651D01*
X783965Y116652D01*
X783973Y116651D01*
X800055Y116651D01*
X800145Y116665D01*
X800236Y116673D01*
X800266Y116685D01*
X800298Y116690D01*
X800379Y116733D01*
X800463Y116769D01*
X800495Y116795D01*
X800515Y116806D01*
X800538Y116829D01*
X800594Y116874D01*
X825591Y141871D01*
X825632Y141929D01*
X825682Y141981D01*
X825704Y142028D01*
X825734Y142070D01*
X825755Y142139D01*
X825786Y142204D01*
X825791Y142256D01*
X825807Y142306D01*
X825805Y142377D01*
X825813Y142448D01*
X825802Y142499D01*
X825800Y142551D01*
X825776Y142619D01*
X825760Y142689D01*
X825734Y142734D01*
X825716Y142782D01*
X825671Y142838D01*
X825634Y142900D01*
X825595Y142934D01*
X825562Y142974D01*
X825502Y143013D01*
X825447Y143060D01*
X825399Y143079D01*
X825355Y143107D01*
X825286Y143125D01*
X825219Y143152D01*
X825148Y143160D01*
X825117Y143168D01*
X825093Y143166D01*
X825052Y143170D01*
X825051Y143170D01*
X822620Y145601D01*
X822620Y149039D01*
X825051Y151470D01*
X827370Y151470D01*
X827461Y151484D01*
X827551Y151492D01*
X827581Y151504D01*
X827613Y151509D01*
X827694Y151552D01*
X827778Y151588D01*
X827810Y151614D01*
X827831Y151625D01*
X827853Y151648D01*
X827909Y151693D01*
X853763Y177547D01*
X880919Y177547D01*
X881033Y177566D01*
X881150Y177583D01*
X881155Y177585D01*
X881161Y177586D01*
X881264Y177641D01*
X881369Y177694D01*
X881373Y177699D01*
X881379Y177702D01*
X881459Y177786D01*
X881541Y177870D01*
X881545Y177876D01*
X881548Y177880D01*
X881556Y177897D01*
X881622Y178017D01*
X881776Y178390D01*
X883330Y179944D01*
X885361Y180785D01*
X887559Y180785D01*
X889407Y180019D01*
X889451Y180009D01*
X889493Y179990D01*
X889570Y179981D01*
X889646Y179963D01*
X889692Y179968D01*
X889737Y179962D01*
X889814Y179979D01*
X889891Y179986D01*
X889933Y180005D01*
X889978Y180015D01*
X890045Y180055D01*
X890116Y180086D01*
X890150Y180117D01*
X890189Y180141D01*
X890240Y180200D01*
X890297Y180253D01*
X890319Y180293D01*
X890349Y180328D01*
X890378Y180400D01*
X890415Y180468D01*
X890424Y180513D01*
X890441Y180556D01*
X890456Y180692D01*
X890459Y180710D01*
X890458Y180715D01*
X890459Y180723D01*
X890459Y186111D01*
X892468Y188120D01*
X893040Y188692D01*
X893082Y188750D01*
X893131Y188802D01*
X893153Y188849D01*
X893184Y188891D01*
X893205Y188960D01*
X893235Y189025D01*
X893241Y189077D01*
X893256Y189127D01*
X893254Y189198D01*
X893262Y189269D01*
X893251Y189320D01*
X893250Y189372D01*
X893225Y189440D01*
X893210Y189510D01*
X893183Y189555D01*
X893165Y189603D01*
X893120Y189659D01*
X893084Y189721D01*
X893044Y189755D01*
X893012Y189795D01*
X892951Y189834D01*
X892897Y189881D01*
X892848Y189900D01*
X892805Y189928D01*
X892735Y189946D01*
X892669Y189973D01*
X892597Y189981D01*
X892566Y189989D01*
X892543Y189987D01*
X892502Y189991D01*
X848191Y189991D01*
X848171Y189988D01*
X848152Y189990D01*
X848050Y189968D01*
X847948Y189952D01*
X847931Y189942D01*
X847911Y189938D01*
X847822Y189885D01*
X847731Y189836D01*
X847717Y189822D01*
X847700Y189812D01*
X847633Y189733D01*
X847561Y189658D01*
X847553Y189640D01*
X847540Y189625D01*
X847501Y189528D01*
X847458Y189435D01*
X847456Y189415D01*
X847448Y189397D01*
X847430Y189230D01*
X847430Y188781D01*
X844999Y186350D01*
X841561Y186350D01*
X839130Y188781D01*
X839130Y192219D01*
X841561Y194650D01*
X842803Y194650D01*
X842893Y194664D01*
X842984Y194672D01*
X843014Y194684D01*
X843046Y194689D01*
X843126Y194732D01*
X843210Y194768D01*
X843242Y194794D01*
X843263Y194805D01*
X843285Y194828D01*
X843341Y194873D01*
X844557Y196089D01*
X917615Y196089D01*
X917705Y196103D01*
X917796Y196111D01*
X917826Y196123D01*
X917858Y196128D01*
X917938Y196171D01*
X918022Y196207D01*
X918054Y196233D01*
X918075Y196244D01*
X918097Y196267D01*
X918153Y196312D01*
X919031Y197190D01*
X922469Y197190D01*
X924900Y194759D01*
X924900Y191321D01*
X922469Y188890D01*
X919031Y188890D01*
X918153Y189768D01*
X918079Y189821D01*
X918010Y189881D01*
X917980Y189893D01*
X917953Y189912D01*
X917866Y189939D01*
X917782Y189973D01*
X917741Y189977D01*
X917718Y189984D01*
X917686Y189983D01*
X917615Y189991D01*
X903278Y189991D01*
X903188Y189977D01*
X903097Y189969D01*
X903067Y189957D01*
X903035Y189952D01*
X902955Y189909D01*
X902871Y189873D01*
X902839Y189847D01*
X902818Y189836D01*
X902796Y189813D01*
X902740Y189768D01*
X896780Y183808D01*
X896727Y183734D01*
X896667Y183665D01*
X896655Y183635D01*
X896636Y183608D01*
X896609Y183521D01*
X896575Y183437D01*
X896571Y183396D01*
X896564Y183373D01*
X896565Y183341D01*
X896557Y183270D01*
X896557Y171078D01*
X886260Y160781D01*
X853440Y160781D01*
X853350Y160767D01*
X853259Y160759D01*
X853229Y160747D01*
X853197Y160742D01*
X853116Y160699D01*
X853032Y160663D01*
X853000Y160637D01*
X852980Y160626D01*
X852957Y160603D01*
X852901Y160558D01*
X802896Y110553D01*
X777137Y110553D01*
X777047Y110539D01*
X776956Y110531D01*
X776926Y110519D01*
X776894Y110514D01*
X776814Y110471D01*
X776730Y110435D01*
X776698Y110409D01*
X776677Y110398D01*
X776655Y110375D01*
X776599Y110330D01*
X775457Y109189D01*
X772020Y109189D01*
G37*
%LPD*%
%LPC*%
G36*
X110661Y285305D02*
X110661Y285305D01*
X108630Y286146D01*
X107076Y287700D01*
X106235Y289731D01*
X106235Y291929D01*
X107076Y293960D01*
X108630Y295514D01*
X110661Y296355D01*
X112859Y296355D01*
X113232Y296200D01*
X113345Y296174D01*
X113459Y296145D01*
X113465Y296146D01*
X113471Y296144D01*
X113588Y296155D01*
X113704Y296164D01*
X113710Y296167D01*
X113716Y296167D01*
X113824Y296215D01*
X113930Y296260D01*
X113936Y296265D01*
X113941Y296267D01*
X113955Y296280D01*
X114061Y296365D01*
X138493Y320797D01*
X214294Y320797D01*
X214314Y320800D01*
X214333Y320798D01*
X214435Y320820D01*
X214537Y320836D01*
X214554Y320846D01*
X214574Y320850D01*
X214663Y320903D01*
X214754Y320952D01*
X214768Y320966D01*
X214785Y320976D01*
X214852Y321055D01*
X214924Y321130D01*
X214932Y321148D01*
X214945Y321163D01*
X214984Y321259D01*
X215027Y321353D01*
X215029Y321373D01*
X215037Y321391D01*
X215055Y321558D01*
X215055Y322298D01*
X219371Y326614D01*
X219413Y326672D01*
X219462Y326724D01*
X219484Y326771D01*
X219515Y326813D01*
X219536Y326882D01*
X219566Y326947D01*
X219572Y326999D01*
X219587Y327049D01*
X219585Y327120D01*
X219593Y327191D01*
X219582Y327242D01*
X219581Y327294D01*
X219556Y327362D01*
X219541Y327432D01*
X219514Y327477D01*
X219496Y327525D01*
X219451Y327581D01*
X219415Y327643D01*
X219375Y327677D01*
X219343Y327717D01*
X219282Y327756D01*
X219228Y327803D01*
X219179Y327822D01*
X219136Y327850D01*
X219066Y327868D01*
X219000Y327895D01*
X218928Y327903D01*
X218897Y327911D01*
X218874Y327909D01*
X218833Y327913D01*
X135882Y327913D01*
X135792Y327899D01*
X135701Y327891D01*
X135672Y327879D01*
X135640Y327874D01*
X135559Y327831D01*
X135475Y327795D01*
X135443Y327769D01*
X135422Y327758D01*
X135400Y327735D01*
X135344Y327690D01*
X117295Y309641D01*
X117228Y309547D01*
X117157Y309453D01*
X117155Y309447D01*
X117152Y309442D01*
X117117Y309330D01*
X117081Y309219D01*
X117081Y309213D01*
X117079Y309207D01*
X117082Y309090D01*
X117084Y308973D01*
X117086Y308966D01*
X117086Y308961D01*
X117092Y308943D01*
X117130Y308812D01*
X117285Y308439D01*
X117285Y306241D01*
X116444Y304210D01*
X114890Y302656D01*
X112859Y301815D01*
X110661Y301815D01*
X108630Y302656D01*
X107076Y304210D01*
X106235Y306241D01*
X106235Y308439D01*
X107076Y310470D01*
X108630Y312024D01*
X110661Y312865D01*
X112859Y312865D01*
X113232Y312710D01*
X113345Y312684D01*
X113459Y312655D01*
X113465Y312656D01*
X113471Y312654D01*
X113588Y312665D01*
X113704Y312674D01*
X113710Y312677D01*
X113716Y312677D01*
X113824Y312725D01*
X113930Y312770D01*
X113936Y312775D01*
X113941Y312777D01*
X113955Y312790D01*
X114061Y312875D01*
X132110Y330924D01*
X132880Y331694D01*
X132922Y331752D01*
X132971Y331804D01*
X132993Y331851D01*
X133023Y331893D01*
X133044Y331962D01*
X133075Y332027D01*
X133080Y332079D01*
X133096Y332129D01*
X133094Y332200D01*
X133102Y332271D01*
X133091Y332322D01*
X133089Y332374D01*
X133065Y332442D01*
X133050Y332512D01*
X133023Y332557D01*
X133005Y332605D01*
X132960Y332661D01*
X132923Y332723D01*
X132884Y332757D01*
X132851Y332797D01*
X132791Y332836D01*
X132736Y332883D01*
X132688Y332902D01*
X132644Y332930D01*
X132575Y332948D01*
X132508Y332975D01*
X132437Y332983D01*
X132406Y332991D01*
X132382Y332989D01*
X132342Y332993D01*
X121913Y332993D01*
X121822Y332979D01*
X121732Y332971D01*
X121702Y332959D01*
X121670Y332954D01*
X121589Y332911D01*
X121505Y332875D01*
X121473Y332849D01*
X121452Y332838D01*
X121430Y332815D01*
X121374Y332770D01*
X116025Y327421D01*
X115957Y327327D01*
X115887Y327233D01*
X115885Y327227D01*
X115882Y327222D01*
X115847Y327110D01*
X115811Y326999D01*
X115811Y326993D01*
X115809Y326987D01*
X115812Y326870D01*
X115814Y326753D01*
X115816Y326746D01*
X115816Y326741D01*
X115822Y326723D01*
X115860Y326592D01*
X116015Y326219D01*
X116015Y324021D01*
X115174Y321990D01*
X113620Y320436D01*
X111589Y319595D01*
X109391Y319595D01*
X107360Y320436D01*
X105806Y321990D01*
X104965Y324021D01*
X104965Y326219D01*
X105806Y328250D01*
X107360Y329804D01*
X109391Y330645D01*
X111589Y330645D01*
X111962Y330490D01*
X112075Y330464D01*
X112189Y330435D01*
X112195Y330436D01*
X112201Y330434D01*
X112318Y330445D01*
X112434Y330454D01*
X112440Y330457D01*
X112446Y330457D01*
X112554Y330505D01*
X112660Y330550D01*
X112666Y330555D01*
X112671Y330557D01*
X112685Y330570D01*
X112791Y330655D01*
X118140Y336004D01*
X119703Y337567D01*
X259177Y337567D01*
X260740Y336004D01*
X269612Y327132D01*
X269629Y327120D01*
X269641Y327104D01*
X269728Y327048D01*
X269812Y326988D01*
X269831Y326982D01*
X269848Y326971D01*
X269948Y326946D01*
X270047Y326916D01*
X270067Y326916D01*
X270086Y326911D01*
X270189Y326919D01*
X270293Y326922D01*
X270312Y326929D01*
X270332Y326930D01*
X270427Y326971D01*
X270524Y327006D01*
X270540Y327019D01*
X270558Y327027D01*
X270689Y327132D01*
X271212Y327655D01*
X278788Y327655D01*
X284145Y322298D01*
X284145Y314722D01*
X278788Y309365D01*
X271212Y309365D01*
X265855Y314722D01*
X265855Y322298D01*
X266378Y322821D01*
X266390Y322837D01*
X266406Y322850D01*
X266462Y322937D01*
X266522Y323021D01*
X266528Y323040D01*
X266539Y323057D01*
X266564Y323157D01*
X266594Y323256D01*
X266594Y323276D01*
X266599Y323295D01*
X266591Y323398D01*
X266588Y323502D01*
X266581Y323521D01*
X266580Y323540D01*
X266539Y323635D01*
X266504Y323733D01*
X266491Y323748D01*
X266483Y323767D01*
X266378Y323898D01*
X257506Y332770D01*
X257432Y332823D01*
X257362Y332883D01*
X257332Y332895D01*
X257306Y332914D01*
X257219Y332941D01*
X257134Y332975D01*
X257093Y332979D01*
X257071Y332986D01*
X257039Y332985D01*
X256967Y332993D01*
X240188Y332993D01*
X240118Y332982D01*
X240046Y332980D01*
X239997Y332962D01*
X239946Y332954D01*
X239882Y332920D01*
X239815Y332895D01*
X239774Y332863D01*
X239728Y332838D01*
X239679Y332786D01*
X239623Y332742D01*
X239595Y332698D01*
X239559Y332660D01*
X239529Y332595D01*
X239490Y332535D01*
X239477Y332484D01*
X239455Y332437D01*
X239447Y332366D01*
X239430Y332296D01*
X239434Y332244D01*
X239428Y332193D01*
X239443Y332122D01*
X239449Y332051D01*
X239469Y332003D01*
X239480Y331952D01*
X239517Y331891D01*
X239545Y331825D01*
X239590Y331769D01*
X239607Y331741D01*
X239624Y331726D01*
X239650Y331694D01*
X240420Y330924D01*
X244212Y327132D01*
X244229Y327120D01*
X244241Y327104D01*
X244328Y327048D01*
X244412Y326988D01*
X244431Y326982D01*
X244448Y326971D01*
X244548Y326946D01*
X244647Y326916D01*
X244667Y326916D01*
X244686Y326911D01*
X244789Y326919D01*
X244893Y326922D01*
X244912Y326929D01*
X244932Y326930D01*
X245027Y326971D01*
X245124Y327006D01*
X245140Y327019D01*
X245158Y327027D01*
X245289Y327132D01*
X245812Y327655D01*
X253388Y327655D01*
X258745Y322298D01*
X258745Y314722D01*
X253388Y309365D01*
X245812Y309365D01*
X240455Y314722D01*
X240455Y322298D01*
X240978Y322821D01*
X240990Y322837D01*
X241006Y322850D01*
X241062Y322937D01*
X241122Y323021D01*
X241128Y323040D01*
X241139Y323057D01*
X241164Y323157D01*
X241194Y323256D01*
X241194Y323276D01*
X241199Y323295D01*
X241191Y323398D01*
X241188Y323502D01*
X241181Y323521D01*
X241180Y323540D01*
X241139Y323635D01*
X241104Y323733D01*
X241091Y323748D01*
X241083Y323767D01*
X240978Y323898D01*
X237186Y327690D01*
X237112Y327743D01*
X237042Y327803D01*
X237012Y327815D01*
X236986Y327834D01*
X236899Y327861D01*
X236814Y327895D01*
X236773Y327899D01*
X236751Y327906D01*
X236719Y327905D01*
X236648Y327913D01*
X229567Y327913D01*
X229496Y327902D01*
X229425Y327900D01*
X229376Y327882D01*
X229324Y327874D01*
X229261Y327840D01*
X229194Y327815D01*
X229153Y327783D01*
X229107Y327758D01*
X229058Y327706D01*
X229002Y327662D01*
X228973Y327618D01*
X228938Y327580D01*
X228907Y327515D01*
X228869Y327455D01*
X228856Y327404D01*
X228834Y327357D01*
X228826Y327286D01*
X228809Y327216D01*
X228813Y327164D01*
X228807Y327113D01*
X228822Y327042D01*
X228828Y326971D01*
X228848Y326923D01*
X228859Y326872D01*
X228896Y326811D01*
X228924Y326745D01*
X228969Y326689D01*
X228985Y326661D01*
X229003Y326646D01*
X229029Y326614D01*
X233345Y322298D01*
X233345Y314722D01*
X227988Y309365D01*
X220412Y309365D01*
X215055Y314722D01*
X215055Y315462D01*
X215052Y315482D01*
X215054Y315501D01*
X215032Y315603D01*
X215016Y315705D01*
X215006Y315722D01*
X215002Y315742D01*
X214949Y315831D01*
X214900Y315922D01*
X214886Y315936D01*
X214876Y315953D01*
X214797Y316020D01*
X214722Y316092D01*
X214704Y316100D01*
X214689Y316113D01*
X214593Y316152D01*
X214499Y316195D01*
X214479Y316197D01*
X214461Y316205D01*
X214294Y316223D01*
X140703Y316223D01*
X140612Y316209D01*
X140522Y316201D01*
X140492Y316189D01*
X140460Y316184D01*
X140379Y316141D01*
X140295Y316105D01*
X140263Y316079D01*
X140242Y316068D01*
X140220Y316045D01*
X140164Y316000D01*
X117295Y293131D01*
X117228Y293037D01*
X117157Y292943D01*
X117155Y292937D01*
X117152Y292932D01*
X117117Y292820D01*
X117081Y292709D01*
X117081Y292703D01*
X117079Y292697D01*
X117082Y292580D01*
X117083Y292561D01*
X117080Y292538D01*
X117083Y292524D01*
X117084Y292463D01*
X117086Y292456D01*
X117086Y292451D01*
X117092Y292433D01*
X117130Y292302D01*
X117285Y291929D01*
X117285Y289731D01*
X116444Y287700D01*
X114890Y286146D01*
X112859Y285305D01*
X110661Y285305D01*
G37*
%LPD*%
%LPC*%
G36*
X730421Y120205D02*
X730421Y120205D01*
X728390Y121046D01*
X726836Y122600D01*
X725995Y124631D01*
X725995Y126829D01*
X726836Y128860D01*
X728390Y130414D01*
X730421Y131255D01*
X732619Y131255D01*
X732992Y131100D01*
X733105Y131074D01*
X733219Y131045D01*
X733225Y131046D01*
X733231Y131044D01*
X733348Y131055D01*
X733464Y131064D01*
X733470Y131067D01*
X733476Y131067D01*
X733584Y131115D01*
X733690Y131160D01*
X733696Y131165D01*
X733701Y131167D01*
X733715Y131180D01*
X733821Y131265D01*
X748060Y145504D01*
X748113Y145578D01*
X748173Y145648D01*
X748185Y145678D01*
X748204Y145704D01*
X748231Y145791D01*
X748265Y145876D01*
X748269Y145917D01*
X748276Y145939D01*
X748275Y145971D01*
X748283Y146043D01*
X748283Y155202D01*
X748272Y155272D01*
X748270Y155344D01*
X748252Y155393D01*
X748244Y155444D01*
X748210Y155508D01*
X748185Y155575D01*
X748153Y155616D01*
X748128Y155662D01*
X748076Y155711D01*
X748032Y155767D01*
X747988Y155795D01*
X747950Y155831D01*
X747885Y155861D01*
X747825Y155900D01*
X747774Y155913D01*
X747727Y155935D01*
X747656Y155943D01*
X747586Y155960D01*
X747534Y155956D01*
X747483Y155962D01*
X747412Y155947D01*
X747341Y155941D01*
X747293Y155921D01*
X747242Y155910D01*
X747181Y155873D01*
X747115Y155845D01*
X747059Y155800D01*
X747031Y155783D01*
X747016Y155766D01*
X746984Y155740D01*
X746440Y155196D01*
X737055Y145811D01*
X736987Y145717D01*
X736917Y145623D01*
X736915Y145617D01*
X736912Y145612D01*
X736877Y145500D01*
X736841Y145389D01*
X736841Y145383D01*
X736839Y145377D01*
X736842Y145260D01*
X736844Y145143D01*
X736846Y145136D01*
X736846Y145131D01*
X736852Y145113D01*
X736890Y144982D01*
X737045Y144609D01*
X737045Y142411D01*
X736204Y140380D01*
X734650Y138826D01*
X732619Y137985D01*
X730421Y137985D01*
X728390Y138826D01*
X726836Y140380D01*
X725995Y142411D01*
X725995Y144609D01*
X726836Y146640D01*
X728390Y148194D01*
X730421Y149035D01*
X732619Y149035D01*
X732992Y148880D01*
X733105Y148854D01*
X733219Y148825D01*
X733225Y148826D01*
X733231Y148824D01*
X733348Y148835D01*
X733464Y148844D01*
X733470Y148847D01*
X733476Y148847D01*
X733584Y148895D01*
X733690Y148940D01*
X733696Y148945D01*
X733701Y148947D01*
X733715Y148960D01*
X733821Y149045D01*
X743206Y158430D01*
X743259Y158504D01*
X743319Y158574D01*
X743331Y158604D01*
X743350Y158630D01*
X743377Y158717D01*
X743411Y158802D01*
X743415Y158843D01*
X743422Y158865D01*
X743421Y158897D01*
X743429Y158969D01*
X743429Y165493D01*
X743418Y165564D01*
X743416Y165635D01*
X743398Y165684D01*
X743390Y165736D01*
X743356Y165799D01*
X743331Y165866D01*
X743299Y165907D01*
X743274Y165953D01*
X743223Y166002D01*
X743178Y166058D01*
X743134Y166087D01*
X743096Y166122D01*
X743031Y166153D01*
X742971Y166191D01*
X742920Y166204D01*
X742873Y166226D01*
X742802Y166234D01*
X742732Y166251D01*
X742680Y166247D01*
X742629Y166253D01*
X742558Y166238D01*
X742487Y166232D01*
X742439Y166212D01*
X742388Y166201D01*
X742327Y166164D01*
X742261Y166136D01*
X742205Y166091D01*
X742177Y166075D01*
X742162Y166057D01*
X742130Y166031D01*
X742129Y166030D01*
X739810Y166030D01*
X739719Y166016D01*
X739629Y166008D01*
X739599Y165996D01*
X739567Y165991D01*
X739486Y165948D01*
X739402Y165912D01*
X739370Y165886D01*
X739349Y165875D01*
X739327Y165852D01*
X739271Y165807D01*
X737055Y163591D01*
X736987Y163497D01*
X736917Y163403D01*
X736915Y163397D01*
X736912Y163392D01*
X736877Y163280D01*
X736841Y163169D01*
X736841Y163163D01*
X736839Y163157D01*
X736842Y163040D01*
X736844Y162923D01*
X736846Y162916D01*
X736846Y162911D01*
X736852Y162893D01*
X736890Y162762D01*
X737045Y162389D01*
X737045Y160191D01*
X736204Y158160D01*
X734650Y156606D01*
X732619Y155765D01*
X730421Y155765D01*
X728390Y156606D01*
X726836Y158160D01*
X725995Y160191D01*
X725995Y162389D01*
X726836Y164420D01*
X728390Y165974D01*
X730421Y166815D01*
X732619Y166815D01*
X732992Y166660D01*
X733105Y166634D01*
X733219Y166605D01*
X733225Y166606D01*
X733231Y166604D01*
X733348Y166615D01*
X733464Y166624D01*
X733470Y166627D01*
X733476Y166627D01*
X733583Y166675D01*
X733690Y166720D01*
X733696Y166725D01*
X733701Y166727D01*
X733715Y166740D01*
X733821Y166825D01*
X736037Y169041D01*
X736090Y169115D01*
X736150Y169185D01*
X736162Y169215D01*
X736181Y169241D01*
X736208Y169328D01*
X736242Y169413D01*
X736246Y169454D01*
X736253Y169476D01*
X736252Y169508D01*
X736260Y169580D01*
X736260Y171899D01*
X738691Y174330D01*
X741172Y174330D01*
X741192Y174333D01*
X741211Y174331D01*
X741313Y174353D01*
X741415Y174369D01*
X741432Y174379D01*
X741452Y174383D01*
X741541Y174436D01*
X741632Y174485D01*
X741646Y174499D01*
X741663Y174509D01*
X741730Y174588D01*
X741802Y174663D01*
X741810Y174681D01*
X741823Y174696D01*
X741862Y174792D01*
X741905Y174886D01*
X741907Y174906D01*
X741915Y174924D01*
X741933Y175091D01*
X741933Y198033D01*
X741919Y198123D01*
X741911Y198214D01*
X741899Y198244D01*
X741894Y198276D01*
X741851Y198356D01*
X741815Y198440D01*
X741789Y198472D01*
X741778Y198493D01*
X741755Y198515D01*
X741710Y198571D01*
X740070Y200211D01*
X740070Y203649D01*
X742501Y206080D01*
X745939Y206080D01*
X747210Y204809D01*
X747268Y204767D01*
X747320Y204718D01*
X747367Y204696D01*
X747409Y204665D01*
X747478Y204644D01*
X747543Y204614D01*
X747595Y204608D01*
X747645Y204593D01*
X747716Y204595D01*
X747787Y204587D01*
X747838Y204598D01*
X747890Y204599D01*
X747958Y204624D01*
X748028Y204639D01*
X748073Y204666D01*
X748121Y204684D01*
X748177Y204729D01*
X748239Y204765D01*
X748273Y204805D01*
X748313Y204837D01*
X748352Y204898D01*
X748399Y204952D01*
X748418Y205001D01*
X748446Y205044D01*
X748464Y205114D01*
X748491Y205180D01*
X748499Y205252D01*
X748507Y205283D01*
X748505Y205306D01*
X748509Y205347D01*
X748509Y207450D01*
X749372Y208313D01*
X749416Y208374D01*
X749451Y208411D01*
X749458Y208425D01*
X749485Y208457D01*
X749497Y208487D01*
X749516Y208513D01*
X749543Y208600D01*
X749577Y208685D01*
X749581Y208726D01*
X749588Y208748D01*
X749587Y208780D01*
X749595Y208852D01*
X749595Y211171D01*
X752026Y213602D01*
X755464Y213602D01*
X757895Y211171D01*
X757895Y207733D01*
X755464Y205302D01*
X753844Y205302D01*
X753824Y205299D01*
X753805Y205301D01*
X753703Y205279D01*
X753601Y205263D01*
X753584Y205253D01*
X753564Y205249D01*
X753475Y205196D01*
X753384Y205148D01*
X753370Y205133D01*
X753353Y205123D01*
X753286Y205044D01*
X753214Y204969D01*
X753206Y204951D01*
X753193Y204936D01*
X753154Y204840D01*
X753111Y204746D01*
X753109Y204726D01*
X753101Y204708D01*
X753083Y204541D01*
X753083Y196245D01*
X753080Y196242D01*
X753027Y196168D01*
X752967Y196098D01*
X752955Y196068D01*
X752936Y196042D01*
X752909Y195955D01*
X752875Y195870D01*
X752871Y195829D01*
X752864Y195807D01*
X752865Y195775D01*
X752857Y195704D01*
X752857Y154026D01*
X752860Y154008D01*
X752858Y153990D01*
X752863Y153964D01*
X752862Y153935D01*
X752884Y153860D01*
X752896Y153783D01*
X752907Y153764D01*
X752910Y153750D01*
X752922Y153730D01*
X752931Y153699D01*
X752975Y153635D01*
X753012Y153566D01*
X753031Y153548D01*
X753036Y153539D01*
X753050Y153526D01*
X753071Y153497D01*
X753134Y153450D01*
X753190Y153397D01*
X753217Y153384D01*
X753223Y153379D01*
X753238Y153373D01*
X753268Y153350D01*
X753342Y153326D01*
X753413Y153293D01*
X753444Y153290D01*
X753451Y153287D01*
X753468Y153285D01*
X753502Y153274D01*
X753563Y153274D01*
X753618Y153268D01*
X753626Y153268D01*
X753630Y153269D01*
X753657Y153266D01*
X753702Y153276D01*
X753748Y153276D01*
X753844Y153304D01*
X753869Y153308D01*
X753881Y153315D01*
X753898Y153318D01*
X753902Y153321D01*
X753909Y153323D01*
X754163Y153428D01*
X754263Y153490D01*
X754363Y153550D01*
X754367Y153554D01*
X754372Y153558D01*
X754446Y153647D01*
X754523Y153737D01*
X754525Y153742D01*
X754529Y153747D01*
X754571Y153855D01*
X754615Y153965D01*
X754616Y153972D01*
X754617Y153977D01*
X754618Y153995D01*
X754633Y154131D01*
X754633Y197797D01*
X757627Y200791D01*
X757680Y200865D01*
X757740Y200935D01*
X757752Y200965D01*
X757771Y200991D01*
X757798Y201078D01*
X757832Y201163D01*
X757836Y201204D01*
X757843Y201226D01*
X757842Y201258D01*
X757850Y201330D01*
X757850Y203649D01*
X760281Y206080D01*
X763719Y206080D01*
X766150Y203649D01*
X766150Y200211D01*
X763719Y197780D01*
X761400Y197780D01*
X761309Y197766D01*
X761219Y197758D01*
X761189Y197746D01*
X761157Y197741D01*
X761076Y197698D01*
X760992Y197662D01*
X760960Y197636D01*
X760939Y197625D01*
X760917Y197602D01*
X760861Y197557D01*
X759430Y196126D01*
X759377Y196052D01*
X759317Y195982D01*
X759305Y195952D01*
X759286Y195926D01*
X759259Y195839D01*
X759225Y195754D01*
X759221Y195713D01*
X759214Y195691D01*
X759215Y195659D01*
X759207Y195587D01*
X759207Y154131D01*
X759226Y154016D01*
X759243Y153900D01*
X759245Y153895D01*
X759246Y153889D01*
X759301Y153786D01*
X759354Y153681D01*
X759359Y153677D01*
X759362Y153671D01*
X759446Y153591D01*
X759530Y153509D01*
X759536Y153505D01*
X759540Y153502D01*
X759557Y153494D01*
X759677Y153428D01*
X760050Y153274D01*
X761604Y151720D01*
X762445Y149689D01*
X762445Y147491D01*
X761604Y145460D01*
X760050Y143906D01*
X758019Y143065D01*
X755821Y143065D01*
X753652Y143964D01*
X753539Y143990D01*
X753425Y144019D01*
X753419Y144018D01*
X753413Y144020D01*
X753296Y144009D01*
X753180Y144000D01*
X753174Y143997D01*
X753168Y143997D01*
X753061Y143949D01*
X752953Y143903D01*
X752948Y143899D01*
X752943Y143897D01*
X752929Y143884D01*
X752823Y143799D01*
X751294Y142270D01*
X737055Y128031D01*
X736988Y127937D01*
X736917Y127843D01*
X736915Y127837D01*
X736912Y127832D01*
X736877Y127719D01*
X736841Y127609D01*
X736841Y127603D01*
X736839Y127597D01*
X736842Y127480D01*
X736844Y127363D01*
X736846Y127356D01*
X736846Y127351D01*
X736852Y127333D01*
X736890Y127202D01*
X737045Y126829D01*
X737045Y124631D01*
X736204Y122600D01*
X734650Y121046D01*
X732619Y120205D01*
X730421Y120205D01*
G37*
%LPD*%
%LPC*%
G36*
X48080Y95083D02*
X48080Y95083D01*
X47187Y95976D01*
X47187Y104006D01*
X47173Y104096D01*
X47165Y104187D01*
X47153Y104217D01*
X47148Y104249D01*
X47105Y104329D01*
X47069Y104413D01*
X47043Y104445D01*
X47032Y104466D01*
X47009Y104488D01*
X46964Y104544D01*
X45552Y105956D01*
X45494Y105998D01*
X45442Y106047D01*
X45395Y106069D01*
X45353Y106100D01*
X45284Y106121D01*
X45219Y106151D01*
X45167Y106157D01*
X45117Y106172D01*
X45046Y106170D01*
X44975Y106178D01*
X44924Y106167D01*
X44872Y106166D01*
X44804Y106141D01*
X44734Y106126D01*
X44690Y106099D01*
X44641Y106081D01*
X44585Y106036D01*
X44523Y106000D01*
X44489Y105960D01*
X44449Y105928D01*
X44410Y105867D01*
X44363Y105813D01*
X44344Y105764D01*
X44316Y105721D01*
X44298Y105651D01*
X44271Y105585D01*
X44263Y105513D01*
X44255Y105482D01*
X44257Y105459D01*
X44253Y105418D01*
X44253Y103631D01*
X38235Y103631D01*
X38235Y110149D01*
X41148Y110149D01*
X41168Y110152D01*
X41187Y110150D01*
X41289Y110172D01*
X41391Y110188D01*
X41408Y110198D01*
X41428Y110202D01*
X41517Y110255D01*
X41608Y110304D01*
X41622Y110318D01*
X41639Y110328D01*
X41706Y110407D01*
X41778Y110482D01*
X41786Y110500D01*
X41799Y110515D01*
X41838Y110611D01*
X41881Y110705D01*
X41883Y110725D01*
X41891Y110743D01*
X41909Y110910D01*
X41909Y118002D01*
X41890Y118117D01*
X41873Y118233D01*
X41871Y118239D01*
X41870Y118245D01*
X41815Y118347D01*
X41762Y118452D01*
X41757Y118457D01*
X41754Y118462D01*
X41670Y118542D01*
X41586Y118624D01*
X41580Y118628D01*
X41576Y118632D01*
X41559Y118639D01*
X41439Y118705D01*
X34670Y121509D01*
X29561Y126618D01*
X26796Y133293D01*
X26796Y140519D01*
X29561Y147194D01*
X34670Y152303D01*
X41345Y155068D01*
X48571Y155068D01*
X55246Y152303D01*
X60355Y147194D01*
X63120Y140519D01*
X63120Y133293D01*
X60355Y126618D01*
X55246Y121509D01*
X48477Y118705D01*
X48377Y118644D01*
X48277Y118584D01*
X48273Y118579D01*
X48268Y118576D01*
X48193Y118486D01*
X48117Y118397D01*
X48115Y118391D01*
X48111Y118386D01*
X48069Y118278D01*
X48025Y118169D01*
X48024Y118161D01*
X48023Y118157D01*
X48022Y118138D01*
X48007Y118002D01*
X48007Y112440D01*
X48021Y112350D01*
X48029Y112259D01*
X48041Y112229D01*
X48046Y112197D01*
X48089Y112117D01*
X48125Y112033D01*
X48151Y112001D01*
X48162Y111980D01*
X48185Y111958D01*
X48230Y111902D01*
X50776Y109356D01*
X50850Y109303D01*
X50919Y109243D01*
X50949Y109231D01*
X50976Y109212D01*
X51063Y109185D01*
X51147Y109151D01*
X51188Y109147D01*
X51211Y109140D01*
X51243Y109141D01*
X51314Y109133D01*
X59344Y109133D01*
X60237Y108240D01*
X60237Y95976D01*
X59344Y95083D01*
X48080Y95083D01*
G37*
%LPD*%
%LPC*%
G36*
X296612Y309365D02*
X296612Y309365D01*
X291255Y314722D01*
X291255Y322298D01*
X291778Y322821D01*
X291790Y322837D01*
X291806Y322850D01*
X291862Y322937D01*
X291922Y323021D01*
X291928Y323040D01*
X291939Y323057D01*
X291964Y323157D01*
X291994Y323256D01*
X291994Y323276D01*
X291999Y323295D01*
X291991Y323398D01*
X291988Y323502D01*
X291981Y323521D01*
X291980Y323540D01*
X291939Y323635D01*
X291904Y323733D01*
X291891Y323748D01*
X291883Y323767D01*
X291778Y323898D01*
X276556Y339120D01*
X276482Y339173D01*
X276412Y339233D01*
X276382Y339245D01*
X276356Y339264D01*
X276269Y339291D01*
X276184Y339325D01*
X276143Y339329D01*
X276121Y339336D01*
X276089Y339335D01*
X276017Y339343D01*
X116031Y339343D01*
X115917Y339324D01*
X115800Y339307D01*
X115795Y339305D01*
X115789Y339304D01*
X115686Y339249D01*
X115581Y339196D01*
X115577Y339191D01*
X115571Y339188D01*
X115491Y339104D01*
X115409Y339020D01*
X115405Y339014D01*
X115402Y339010D01*
X115394Y338993D01*
X115328Y338873D01*
X115174Y338500D01*
X113620Y336946D01*
X111589Y336105D01*
X109391Y336105D01*
X107360Y336946D01*
X105806Y338500D01*
X104965Y340531D01*
X104965Y342729D01*
X105806Y344760D01*
X107360Y346314D01*
X109391Y347155D01*
X111589Y347155D01*
X113620Y346314D01*
X115174Y344760D01*
X115328Y344387D01*
X115390Y344287D01*
X115450Y344187D01*
X115454Y344183D01*
X115458Y344178D01*
X115548Y344103D01*
X115637Y344027D01*
X115642Y344025D01*
X115647Y344021D01*
X115756Y343979D01*
X115865Y343935D01*
X115872Y343934D01*
X115877Y343933D01*
X115895Y343932D01*
X116031Y343917D01*
X278227Y343917D01*
X295012Y327132D01*
X295029Y327120D01*
X295041Y327104D01*
X295128Y327048D01*
X295212Y326988D01*
X295231Y326982D01*
X295248Y326971D01*
X295348Y326946D01*
X295447Y326916D01*
X295467Y326916D01*
X295486Y326911D01*
X295589Y326919D01*
X295693Y326922D01*
X295712Y326929D01*
X295732Y326930D01*
X295827Y326971D01*
X295924Y327006D01*
X295940Y327019D01*
X295958Y327027D01*
X296089Y327132D01*
X296612Y327655D01*
X304188Y327655D01*
X309545Y322298D01*
X309545Y314722D01*
X304188Y309365D01*
X296612Y309365D01*
G37*
%LPD*%
%LPC*%
G36*
X1239098Y150647D02*
X1239098Y150647D01*
X1236110Y151884D01*
X1233824Y154171D01*
X1232586Y157159D01*
X1232586Y160392D01*
X1233824Y163380D01*
X1236110Y165667D01*
X1239098Y166904D01*
X1241096Y166904D01*
X1241116Y166907D01*
X1241135Y166905D01*
X1241237Y166927D01*
X1241339Y166944D01*
X1241356Y166953D01*
X1241376Y166957D01*
X1241465Y167011D01*
X1241556Y167059D01*
X1241570Y167073D01*
X1241587Y167084D01*
X1241654Y167162D01*
X1241726Y167237D01*
X1241734Y167255D01*
X1241747Y167271D01*
X1241786Y167367D01*
X1241829Y167460D01*
X1241831Y167480D01*
X1241839Y167499D01*
X1241857Y167665D01*
X1241857Y215875D01*
X1241854Y215894D01*
X1241856Y215914D01*
X1241834Y216015D01*
X1241818Y216117D01*
X1241808Y216135D01*
X1241804Y216154D01*
X1241751Y216243D01*
X1241702Y216335D01*
X1241688Y216348D01*
X1241678Y216366D01*
X1241599Y216433D01*
X1241524Y216504D01*
X1241506Y216512D01*
X1241491Y216525D01*
X1241395Y216564D01*
X1241301Y216608D01*
X1241281Y216610D01*
X1241263Y216617D01*
X1241096Y216636D01*
X1239098Y216636D01*
X1236110Y217873D01*
X1233824Y220160D01*
X1233164Y221754D01*
X1233102Y221854D01*
X1233042Y221954D01*
X1233037Y221958D01*
X1233034Y221963D01*
X1232943Y222038D01*
X1232855Y222113D01*
X1232849Y222116D01*
X1232845Y222120D01*
X1232736Y222161D01*
X1232627Y222205D01*
X1232619Y222206D01*
X1232615Y222208D01*
X1232597Y222209D01*
X1232460Y222224D01*
X1232143Y222224D01*
X1230655Y223712D01*
X1230655Y223756D01*
X1230640Y223846D01*
X1230633Y223937D01*
X1230620Y223967D01*
X1230615Y223999D01*
X1230572Y224080D01*
X1230537Y224163D01*
X1230511Y224196D01*
X1230500Y224216D01*
X1230476Y224238D01*
X1230432Y224294D01*
X1221016Y233710D01*
X1220942Y233763D01*
X1220872Y233823D01*
X1220842Y233835D01*
X1220816Y233854D01*
X1220729Y233881D01*
X1220644Y233915D01*
X1220603Y233919D01*
X1220581Y233926D01*
X1220549Y233925D01*
X1220477Y233933D01*
X1204047Y233933D01*
X1203957Y233919D01*
X1203866Y233911D01*
X1203836Y233899D01*
X1203804Y233894D01*
X1203724Y233851D01*
X1203640Y233815D01*
X1203608Y233789D01*
X1203587Y233778D01*
X1203565Y233755D01*
X1203509Y233710D01*
X1201869Y232070D01*
X1198431Y232070D01*
X1196000Y234501D01*
X1196000Y237939D01*
X1198431Y240370D01*
X1201869Y240370D01*
X1203509Y238730D01*
X1203583Y238677D01*
X1203652Y238617D01*
X1203682Y238605D01*
X1203709Y238586D01*
X1203796Y238559D01*
X1203880Y238525D01*
X1203921Y238521D01*
X1203944Y238514D01*
X1203976Y238515D01*
X1204047Y238507D01*
X1222687Y238507D01*
X1232433Y228761D01*
X1232470Y228734D01*
X1232501Y228701D01*
X1232569Y228663D01*
X1232632Y228618D01*
X1232676Y228604D01*
X1232717Y228582D01*
X1232793Y228568D01*
X1232868Y228545D01*
X1232913Y228547D01*
X1232959Y228538D01*
X1233036Y228550D01*
X1233113Y228552D01*
X1233157Y228567D01*
X1233202Y228574D01*
X1233271Y228609D01*
X1233344Y228636D01*
X1233380Y228665D01*
X1233421Y228686D01*
X1233476Y228741D01*
X1233536Y228790D01*
X1233561Y228829D01*
X1233593Y228861D01*
X1233659Y228981D01*
X1233669Y228997D01*
X1233671Y229002D01*
X1233674Y229008D01*
X1233824Y229369D01*
X1236110Y231656D01*
X1239098Y232893D01*
X1249190Y232893D01*
X1252178Y231656D01*
X1254464Y229369D01*
X1255702Y226381D01*
X1255702Y223148D01*
X1254464Y220160D01*
X1252178Y217873D01*
X1249190Y216636D01*
X1247192Y216636D01*
X1247172Y216633D01*
X1247153Y216635D01*
X1247051Y216613D01*
X1246949Y216596D01*
X1246932Y216587D01*
X1246912Y216583D01*
X1246823Y216529D01*
X1246732Y216481D01*
X1246718Y216467D01*
X1246701Y216456D01*
X1246634Y216378D01*
X1246562Y216303D01*
X1246554Y216285D01*
X1246541Y216269D01*
X1246502Y216173D01*
X1246459Y216080D01*
X1246457Y216060D01*
X1246449Y216041D01*
X1246431Y215875D01*
X1246431Y167665D01*
X1246434Y167646D01*
X1246432Y167626D01*
X1246454Y167525D01*
X1246470Y167423D01*
X1246480Y167405D01*
X1246484Y167386D01*
X1246537Y167297D01*
X1246586Y167205D01*
X1246600Y167192D01*
X1246610Y167174D01*
X1246689Y167107D01*
X1246764Y167036D01*
X1246782Y167028D01*
X1246797Y167015D01*
X1246893Y166976D01*
X1246987Y166932D01*
X1247007Y166930D01*
X1247025Y166923D01*
X1247192Y166904D01*
X1249190Y166904D01*
X1252178Y165667D01*
X1254464Y163380D01*
X1255702Y160392D01*
X1255702Y157159D01*
X1254464Y154171D01*
X1252178Y151884D01*
X1249190Y150647D01*
X1239098Y150647D01*
G37*
%LPD*%
%LPC*%
G36*
X41345Y250316D02*
X41345Y250316D01*
X34670Y253081D01*
X29561Y258190D01*
X26796Y264865D01*
X26796Y272091D01*
X29561Y278766D01*
X34670Y283875D01*
X41345Y286640D01*
X48571Y286640D01*
X55246Y283875D01*
X60355Y278766D01*
X63120Y272091D01*
X63120Y264865D01*
X60355Y258190D01*
X55246Y253081D01*
X48571Y250316D01*
X41345Y250316D01*
G37*
%LPD*%
%LPC*%
G36*
X18888Y70445D02*
X18888Y70445D01*
X17995Y71338D01*
X17995Y78649D01*
X17981Y78740D01*
X17973Y78830D01*
X17961Y78860D01*
X17956Y78892D01*
X17913Y78973D01*
X17877Y79057D01*
X17851Y79089D01*
X17840Y79110D01*
X17817Y79132D01*
X17806Y79145D01*
X17799Y79157D01*
X17792Y79163D01*
X17772Y79188D01*
X14223Y82737D01*
X14223Y164336D01*
X14204Y164451D01*
X14187Y164567D01*
X14185Y164573D01*
X14184Y164579D01*
X14129Y164681D01*
X14076Y164786D01*
X14071Y164791D01*
X14068Y164796D01*
X13984Y164876D01*
X13900Y164959D01*
X13894Y164962D01*
X13890Y164966D01*
X13873Y164974D01*
X13753Y165040D01*
X12888Y165398D01*
X10458Y167828D01*
X9143Y171002D01*
X9143Y174438D01*
X10458Y177612D01*
X12888Y180042D01*
X16062Y181357D01*
X19498Y181357D01*
X22672Y180042D01*
X25102Y177612D01*
X26417Y174438D01*
X26417Y171002D01*
X25102Y167828D01*
X22672Y165398D01*
X21807Y165040D01*
X21707Y164978D01*
X21607Y164918D01*
X21603Y164913D01*
X21598Y164910D01*
X21523Y164819D01*
X21447Y164731D01*
X21445Y164725D01*
X21441Y164720D01*
X21399Y164612D01*
X21355Y164503D01*
X21354Y164495D01*
X21353Y164491D01*
X21352Y164473D01*
X21337Y164336D01*
X21337Y85999D01*
X21351Y85908D01*
X21359Y85818D01*
X21371Y85788D01*
X21376Y85756D01*
X21419Y85675D01*
X21455Y85591D01*
X21481Y85559D01*
X21492Y85538D01*
X21515Y85516D01*
X21560Y85460D01*
X22302Y84718D01*
X22376Y84665D01*
X22446Y84605D01*
X22476Y84593D01*
X22502Y84574D01*
X22589Y84547D01*
X22674Y84513D01*
X22715Y84509D01*
X22737Y84502D01*
X22769Y84503D01*
X22841Y84495D01*
X30152Y84495D01*
X31045Y83602D01*
X31045Y71338D01*
X30152Y70445D01*
X18888Y70445D01*
G37*
%LPD*%
%LPC*%
G36*
X744773Y266629D02*
X744773Y266629D01*
X742342Y269060D01*
X742342Y270028D01*
X742330Y270099D01*
X742328Y270170D01*
X742310Y270219D01*
X742302Y270271D01*
X742268Y270334D01*
X742244Y270401D01*
X742211Y270442D01*
X742187Y270488D01*
X742135Y270537D01*
X742090Y270593D01*
X742046Y270622D01*
X742009Y270657D01*
X741944Y270688D01*
X741883Y270726D01*
X741833Y270739D01*
X741785Y270761D01*
X741714Y270769D01*
X741645Y270786D01*
X741593Y270782D01*
X741541Y270788D01*
X741471Y270773D01*
X741399Y270767D01*
X741352Y270747D01*
X741301Y270736D01*
X741239Y270699D01*
X741173Y270671D01*
X741117Y270626D01*
X741090Y270610D01*
X741074Y270592D01*
X741042Y270566D01*
X739376Y268900D01*
X735939Y268900D01*
X733508Y271331D01*
X733508Y274769D01*
X735148Y276409D01*
X735201Y276483D01*
X735260Y276552D01*
X735272Y276582D01*
X735291Y276609D01*
X735318Y276696D01*
X735352Y276780D01*
X735357Y276821D01*
X735364Y276844D01*
X735363Y276876D01*
X735371Y276947D01*
X735371Y280890D01*
X735356Y280980D01*
X735349Y281071D01*
X735336Y281101D01*
X735331Y281133D01*
X735288Y281214D01*
X735253Y281298D01*
X735227Y281330D01*
X735216Y281350D01*
X735193Y281373D01*
X735148Y281429D01*
X726757Y289819D01*
X726757Y296921D01*
X727026Y297189D01*
X727067Y297247D01*
X727117Y297299D01*
X727139Y297347D01*
X727169Y297389D01*
X727190Y297457D01*
X727220Y297522D01*
X727226Y297574D01*
X727241Y297624D01*
X727240Y297696D01*
X727247Y297767D01*
X727236Y297818D01*
X727235Y297870D01*
X727210Y297937D01*
X727195Y298007D01*
X727168Y298052D01*
X727151Y298101D01*
X727106Y298157D01*
X727069Y298218D01*
X727029Y298252D01*
X726997Y298293D01*
X726937Y298332D01*
X726882Y298378D01*
X726834Y298398D01*
X726790Y298426D01*
X726721Y298443D01*
X726654Y298470D01*
X726583Y298478D01*
X726551Y298486D01*
X726528Y298484D01*
X726487Y298489D01*
X725100Y298489D01*
X722669Y300920D01*
X722669Y304357D01*
X725100Y306788D01*
X725996Y306788D01*
X726016Y306791D01*
X726035Y306789D01*
X726137Y306811D01*
X726239Y306828D01*
X726256Y306837D01*
X726276Y306841D01*
X726365Y306895D01*
X726456Y306943D01*
X726470Y306957D01*
X726487Y306968D01*
X726554Y307046D01*
X726626Y307121D01*
X726634Y307139D01*
X726647Y307155D01*
X726686Y307251D01*
X726729Y307344D01*
X726731Y307364D01*
X726739Y307383D01*
X726757Y307549D01*
X726757Y315971D01*
X731550Y320764D01*
X731603Y320838D01*
X731663Y320907D01*
X731675Y320938D01*
X731694Y320964D01*
X731721Y321051D01*
X731755Y321136D01*
X731759Y321176D01*
X731766Y321199D01*
X731765Y321231D01*
X731773Y321302D01*
X731773Y333549D01*
X731754Y333663D01*
X731737Y333780D01*
X731735Y333785D01*
X731734Y333791D01*
X731679Y333894D01*
X731626Y333999D01*
X731621Y334003D01*
X731618Y334009D01*
X731534Y334089D01*
X731450Y334171D01*
X731444Y334175D01*
X731440Y334178D01*
X731423Y334186D01*
X731303Y334252D01*
X730930Y334406D01*
X729376Y335960D01*
X728535Y337991D01*
X728535Y340189D01*
X729376Y342220D01*
X730930Y343774D01*
X732961Y344615D01*
X735159Y344615D01*
X737190Y343774D01*
X738744Y342220D01*
X739585Y340189D01*
X739585Y337991D01*
X738744Y335960D01*
X737190Y334406D01*
X736817Y334252D01*
X736717Y334190D01*
X736617Y334130D01*
X736613Y334126D01*
X736608Y334122D01*
X736533Y334032D01*
X736457Y333943D01*
X736455Y333938D01*
X736451Y333933D01*
X736409Y333824D01*
X736365Y333715D01*
X736364Y333708D01*
X736363Y333703D01*
X736362Y333685D01*
X736347Y333549D01*
X736347Y319086D01*
X736338Y319073D01*
X736304Y319042D01*
X736267Y318974D01*
X736221Y318911D01*
X736208Y318867D01*
X736186Y318827D01*
X736172Y318750D01*
X736149Y318676D01*
X736150Y318630D01*
X736142Y318585D01*
X736153Y318508D01*
X736155Y318430D01*
X736171Y318387D01*
X736178Y318341D01*
X736213Y318272D01*
X736240Y318199D01*
X736268Y318163D01*
X736289Y318122D01*
X736345Y318068D01*
X736393Y318007D01*
X736432Y317982D01*
X736465Y317950D01*
X736585Y317884D01*
X736600Y317874D01*
X736605Y317873D01*
X736612Y317869D01*
X738460Y317104D01*
X740014Y315550D01*
X740855Y313519D01*
X740855Y311321D01*
X740014Y309290D01*
X738460Y307736D01*
X738087Y307582D01*
X737987Y307520D01*
X737887Y307460D01*
X737883Y307456D01*
X737878Y307452D01*
X737803Y307362D01*
X737727Y307273D01*
X737725Y307268D01*
X737721Y307263D01*
X737679Y307154D01*
X737635Y307045D01*
X737634Y307038D01*
X737633Y307033D01*
X737632Y307015D01*
X737617Y306879D01*
X737617Y301313D01*
X736365Y300061D01*
X736338Y300023D01*
X736304Y299992D01*
X736267Y299924D01*
X736221Y299861D01*
X736208Y299817D01*
X736186Y299777D01*
X736172Y299700D01*
X736149Y299626D01*
X736150Y299580D01*
X736142Y299535D01*
X736153Y299458D01*
X736155Y299380D01*
X736171Y299337D01*
X736178Y299291D01*
X736213Y299222D01*
X736240Y299149D01*
X736268Y299113D01*
X736289Y299072D01*
X736345Y299018D01*
X736393Y298957D01*
X736432Y298932D01*
X736465Y298900D01*
X736585Y298834D01*
X736600Y298824D01*
X736605Y298823D01*
X736612Y298819D01*
X738460Y298054D01*
X740014Y296500D01*
X740855Y294469D01*
X740855Y292271D01*
X740700Y291898D01*
X740674Y291785D01*
X740645Y291671D01*
X740646Y291665D01*
X740644Y291659D01*
X740655Y291542D01*
X740664Y291426D01*
X740667Y291420D01*
X740667Y291414D01*
X740715Y291306D01*
X740760Y291200D01*
X740765Y291194D01*
X740767Y291189D01*
X740780Y291175D01*
X740865Y291069D01*
X747484Y284450D01*
X749047Y282887D01*
X749047Y274407D01*
X749061Y274317D01*
X749069Y274226D01*
X749081Y274196D01*
X749086Y274164D01*
X749129Y274084D01*
X749165Y274000D01*
X749191Y273968D01*
X749202Y273947D01*
X749225Y273925D01*
X749270Y273869D01*
X750641Y272497D01*
X750641Y269060D01*
X748210Y266629D01*
X744773Y266629D01*
G37*
%LPD*%
%LPC*%
G36*
X766591Y267053D02*
X766591Y267053D01*
X764160Y269484D01*
X764160Y272922D01*
X765800Y274562D01*
X765847Y274627D01*
X765860Y274640D01*
X765863Y274646D01*
X765913Y274705D01*
X765925Y274735D01*
X765944Y274762D01*
X765971Y274849D01*
X766005Y274933D01*
X766009Y274974D01*
X766016Y274997D01*
X766015Y275029D01*
X766023Y275100D01*
X766023Y275717D01*
X766012Y275788D01*
X766010Y275859D01*
X765992Y275908D01*
X765984Y275960D01*
X765950Y276023D01*
X765925Y276090D01*
X765893Y276131D01*
X765869Y276177D01*
X765817Y276226D01*
X765772Y276282D01*
X765728Y276311D01*
X765690Y276346D01*
X765625Y276377D01*
X765565Y276415D01*
X765514Y276428D01*
X765467Y276450D01*
X765396Y276458D01*
X765326Y276475D01*
X765274Y276471D01*
X765223Y276477D01*
X765152Y276462D01*
X765081Y276456D01*
X765033Y276436D01*
X764982Y276425D01*
X764921Y276388D01*
X764855Y276360D01*
X764799Y276315D01*
X764771Y276299D01*
X764756Y276281D01*
X764724Y276255D01*
X762140Y273672D01*
X758703Y273672D01*
X756272Y276103D01*
X756272Y279540D01*
X758703Y281971D01*
X758952Y281971D01*
X758972Y281974D01*
X758991Y281972D01*
X759093Y281994D01*
X759195Y282011D01*
X759212Y282020D01*
X759232Y282025D01*
X759321Y282078D01*
X759412Y282126D01*
X759426Y282140D01*
X759443Y282151D01*
X759510Y282229D01*
X759582Y282304D01*
X759590Y282322D01*
X759603Y282338D01*
X759642Y282434D01*
X759685Y282527D01*
X759687Y282547D01*
X759695Y282566D01*
X759713Y282732D01*
X759713Y309419D01*
X759694Y309533D01*
X759677Y309650D01*
X759675Y309655D01*
X759674Y309661D01*
X759620Y309763D01*
X759566Y309869D01*
X759561Y309873D01*
X759558Y309879D01*
X759474Y309959D01*
X759390Y310041D01*
X759384Y310045D01*
X759380Y310048D01*
X759363Y310056D01*
X759243Y310122D01*
X758870Y310276D01*
X757316Y311830D01*
X756861Y312929D01*
X756810Y313012D01*
X756764Y313098D01*
X756745Y313116D01*
X756732Y313138D01*
X756657Y313200D01*
X756586Y313267D01*
X756562Y313278D01*
X756542Y313295D01*
X756451Y313330D01*
X756363Y313371D01*
X756337Y313374D01*
X756313Y313383D01*
X756215Y313387D01*
X756119Y313398D01*
X756093Y313393D01*
X756067Y313394D01*
X755973Y313367D01*
X755878Y313346D01*
X755856Y313332D01*
X755831Y313325D01*
X755751Y313270D01*
X755667Y313220D01*
X755650Y313200D01*
X755629Y313185D01*
X755570Y313107D01*
X755507Y313033D01*
X755497Y313008D01*
X755482Y312987D01*
X755452Y312895D01*
X755415Y312805D01*
X755412Y312772D01*
X755406Y312754D01*
X755406Y312721D01*
X755397Y312638D01*
X755397Y292187D01*
X755411Y292097D01*
X755419Y292006D01*
X755431Y291976D01*
X755436Y291944D01*
X755479Y291864D01*
X755515Y291780D01*
X755541Y291748D01*
X755552Y291727D01*
X755575Y291705D01*
X755620Y291649D01*
X757260Y290009D01*
X757260Y286571D01*
X754829Y284140D01*
X751391Y284140D01*
X748960Y286571D01*
X748960Y290009D01*
X750600Y291649D01*
X750653Y291723D01*
X750713Y291792D01*
X750725Y291822D01*
X750744Y291849D01*
X750771Y291936D01*
X750805Y292020D01*
X750809Y292061D01*
X750816Y292084D01*
X750815Y292116D01*
X750823Y292187D01*
X750823Y322644D01*
X750820Y322664D01*
X750822Y322683D01*
X750800Y322785D01*
X750784Y322887D01*
X750774Y322904D01*
X750770Y322924D01*
X750717Y323013D01*
X750668Y323104D01*
X750654Y323118D01*
X750644Y323135D01*
X750565Y323202D01*
X750490Y323274D01*
X750472Y323282D01*
X750457Y323295D01*
X750361Y323334D01*
X750267Y323377D01*
X750247Y323379D01*
X750229Y323387D01*
X750062Y323405D01*
X748201Y323405D01*
X746170Y324246D01*
X744616Y325800D01*
X743775Y327831D01*
X743775Y330029D01*
X744616Y332060D01*
X746170Y333614D01*
X748201Y334455D01*
X750399Y334455D01*
X752430Y333614D01*
X753984Y332060D01*
X754825Y330029D01*
X754825Y327831D01*
X754670Y327458D01*
X754644Y327345D01*
X754615Y327231D01*
X754616Y327225D01*
X754614Y327219D01*
X754625Y327102D01*
X754634Y326986D01*
X754637Y326980D01*
X754637Y326974D01*
X754685Y326866D01*
X754730Y326760D01*
X754735Y326754D01*
X754737Y326749D01*
X754750Y326735D01*
X754835Y326629D01*
X755397Y326067D01*
X755397Y317282D01*
X755412Y317186D01*
X755422Y317089D01*
X755432Y317065D01*
X755436Y317039D01*
X755482Y316954D01*
X755522Y316864D01*
X755539Y316845D01*
X755552Y316822D01*
X755622Y316755D01*
X755688Y316683D01*
X755711Y316671D01*
X755730Y316653D01*
X755818Y316612D01*
X755904Y316565D01*
X755929Y316560D01*
X755953Y316549D01*
X756050Y316538D01*
X756146Y316521D01*
X756172Y316525D01*
X756197Y316522D01*
X756293Y316543D01*
X756389Y316557D01*
X756412Y316569D01*
X756438Y316574D01*
X756521Y316624D01*
X756608Y316668D01*
X756627Y316687D01*
X756649Y316700D01*
X756712Y316774D01*
X756780Y316844D01*
X756796Y316872D01*
X756809Y316887D01*
X756821Y316918D01*
X756861Y316991D01*
X757316Y318090D01*
X758870Y319644D01*
X760901Y320485D01*
X763099Y320485D01*
X765130Y319644D01*
X766684Y318090D01*
X767525Y316059D01*
X767525Y313861D01*
X766684Y311830D01*
X765130Y310276D01*
X764757Y310122D01*
X764657Y310060D01*
X764557Y310000D01*
X764553Y309996D01*
X764548Y309992D01*
X764473Y309902D01*
X764397Y309813D01*
X764395Y309808D01*
X764391Y309803D01*
X764349Y309694D01*
X764305Y309585D01*
X764304Y309578D01*
X764303Y309573D01*
X764302Y309555D01*
X764287Y309419D01*
X764287Y280140D01*
X764301Y280050D01*
X764309Y279959D01*
X764321Y279929D01*
X764326Y279897D01*
X764369Y279817D01*
X764405Y279733D01*
X764431Y279701D01*
X764442Y279680D01*
X764465Y279658D01*
X764510Y279602D01*
X764724Y279388D01*
X764782Y279346D01*
X764834Y279297D01*
X764881Y279275D01*
X764923Y279244D01*
X764992Y279223D01*
X765057Y279193D01*
X765109Y279187D01*
X765159Y279172D01*
X765230Y279174D01*
X765302Y279166D01*
X765352Y279177D01*
X765404Y279178D01*
X765472Y279203D01*
X765542Y279218D01*
X765587Y279245D01*
X765635Y279263D01*
X765691Y279307D01*
X765753Y279344D01*
X765787Y279384D01*
X765828Y279416D01*
X765866Y279477D01*
X765913Y279531D01*
X765932Y279580D01*
X765961Y279623D01*
X765978Y279693D01*
X766005Y279759D01*
X766013Y279831D01*
X766021Y279862D01*
X766019Y279885D01*
X766023Y279926D01*
X766023Y294277D01*
X767586Y295840D01*
X769165Y297419D01*
X769233Y297513D01*
X769303Y297607D01*
X769305Y297613D01*
X769308Y297618D01*
X769343Y297730D01*
X769379Y297841D01*
X769379Y297847D01*
X769381Y297853D01*
X769378Y297970D01*
X769376Y298087D01*
X769374Y298094D01*
X769374Y298099D01*
X769368Y298117D01*
X769330Y298248D01*
X769175Y298621D01*
X769175Y300819D01*
X770016Y302850D01*
X771570Y304404D01*
X773601Y305245D01*
X775799Y305245D01*
X777830Y304404D01*
X779384Y302850D01*
X780225Y300819D01*
X780225Y298621D01*
X779384Y296590D01*
X777830Y295036D01*
X775799Y294195D01*
X773601Y294195D01*
X773228Y294350D01*
X773115Y294376D01*
X773001Y294405D01*
X772995Y294404D01*
X772989Y294406D01*
X772872Y294395D01*
X772756Y294386D01*
X772750Y294383D01*
X772744Y294383D01*
X772636Y294335D01*
X772530Y294290D01*
X772524Y294285D01*
X772519Y294283D01*
X772505Y294270D01*
X772399Y294185D01*
X770820Y292606D01*
X770767Y292532D01*
X770707Y292462D01*
X770695Y292432D01*
X770676Y292406D01*
X770649Y292319D01*
X770615Y292234D01*
X770611Y292193D01*
X770604Y292171D01*
X770605Y292139D01*
X770597Y292068D01*
X770597Y275100D01*
X770612Y275010D01*
X770619Y274919D01*
X770631Y274889D01*
X770637Y274857D01*
X770679Y274777D01*
X770715Y274693D01*
X770741Y274661D01*
X770752Y274640D01*
X770775Y274618D01*
X770820Y274562D01*
X772460Y272922D01*
X772460Y269484D01*
X770029Y267053D01*
X766591Y267053D01*
G37*
%LPD*%
%LPC*%
G36*
X323236Y17174D02*
X323236Y17174D01*
X321153Y19257D01*
X321153Y22352D01*
X321151Y22364D01*
X321152Y22373D01*
X321151Y22379D01*
X321152Y22391D01*
X321130Y22493D01*
X321113Y22595D01*
X321104Y22612D01*
X321100Y22632D01*
X321047Y22721D01*
X320998Y22812D01*
X320984Y22826D01*
X320974Y22843D01*
X320895Y22910D01*
X320820Y22982D01*
X320802Y22990D01*
X320787Y23003D01*
X320690Y23042D01*
X320597Y23085D01*
X320577Y23087D01*
X320558Y23095D01*
X320392Y23113D01*
X318567Y23113D01*
X316483Y25197D01*
X316483Y28143D01*
X318567Y30227D01*
X319913Y30227D01*
X319984Y30238D01*
X320055Y30240D01*
X320104Y30258D01*
X320156Y30266D01*
X320219Y30300D01*
X320286Y30325D01*
X320327Y30357D01*
X320373Y30382D01*
X320422Y30434D01*
X320478Y30478D01*
X320507Y30522D01*
X320542Y30560D01*
X320573Y30625D01*
X320611Y30685D01*
X320624Y30736D01*
X320646Y30783D01*
X320654Y30854D01*
X320671Y30924D01*
X320667Y30976D01*
X320673Y31027D01*
X320658Y31098D01*
X320652Y31169D01*
X320632Y31217D01*
X320621Y31268D01*
X320584Y31329D01*
X320556Y31395D01*
X320511Y31451D01*
X320495Y31479D01*
X320477Y31494D01*
X320451Y31526D01*
X316655Y35322D01*
X316655Y42898D01*
X322012Y48255D01*
X329588Y48255D01*
X334945Y42898D01*
X334945Y35322D01*
X329879Y30256D01*
X329837Y30198D01*
X329788Y30146D01*
X329766Y30099D01*
X329735Y30057D01*
X329714Y29988D01*
X329684Y29923D01*
X329678Y29871D01*
X329663Y29821D01*
X329665Y29750D01*
X329657Y29679D01*
X329668Y29628D01*
X329669Y29576D01*
X329694Y29508D01*
X329709Y29438D01*
X329736Y29393D01*
X329754Y29345D01*
X329799Y29289D01*
X329835Y29227D01*
X329875Y29193D01*
X329907Y29153D01*
X329968Y29114D01*
X330022Y29067D01*
X330071Y29048D01*
X330114Y29020D01*
X330184Y29002D01*
X330250Y28975D01*
X330322Y28967D01*
X330353Y28959D01*
X330376Y28961D01*
X330417Y28957D01*
X337497Y28957D01*
X337588Y28971D01*
X337678Y28979D01*
X337708Y28991D01*
X337740Y28996D01*
X337821Y29039D01*
X337905Y29075D01*
X337937Y29101D01*
X337958Y29112D01*
X337980Y29135D01*
X338036Y29180D01*
X342578Y33722D01*
X342590Y33739D01*
X342606Y33751D01*
X342662Y33838D01*
X342722Y33922D01*
X342728Y33941D01*
X342739Y33958D01*
X342764Y34058D01*
X342794Y34157D01*
X342794Y34177D01*
X342799Y34196D01*
X342791Y34299D01*
X342788Y34403D01*
X342781Y34422D01*
X342780Y34442D01*
X342739Y34537D01*
X342704Y34634D01*
X342691Y34650D01*
X342683Y34668D01*
X342578Y34799D01*
X342055Y35322D01*
X342055Y42898D01*
X347412Y48255D01*
X354988Y48255D01*
X360345Y42898D01*
X360345Y35322D01*
X354988Y29965D01*
X347412Y29965D01*
X346889Y30488D01*
X346873Y30500D01*
X346860Y30516D01*
X346797Y30556D01*
X346750Y30597D01*
X346724Y30607D01*
X346689Y30632D01*
X346670Y30638D01*
X346653Y30649D01*
X346566Y30671D01*
X346522Y30689D01*
X346497Y30691D01*
X346454Y30704D01*
X346434Y30704D01*
X346415Y30709D01*
X346371Y30705D01*
X346355Y30707D01*
X346346Y30707D01*
X346307Y30701D01*
X346208Y30698D01*
X346189Y30691D01*
X346170Y30690D01*
X346126Y30671D01*
X346103Y30667D01*
X346058Y30643D01*
X345977Y30614D01*
X345962Y30601D01*
X345943Y30593D01*
X345903Y30561D01*
X345886Y30552D01*
X345867Y30533D01*
X345812Y30488D01*
X341270Y25946D01*
X339707Y24383D01*
X327925Y24383D01*
X327854Y24372D01*
X327782Y24370D01*
X327733Y24352D01*
X327682Y24344D01*
X327618Y24310D01*
X327551Y24285D01*
X327510Y24253D01*
X327464Y24228D01*
X327415Y24176D01*
X327359Y24132D01*
X327331Y24088D01*
X327295Y24050D01*
X327265Y23985D01*
X327226Y23925D01*
X327213Y23874D01*
X327191Y23827D01*
X327183Y23756D01*
X327166Y23686D01*
X327170Y23634D01*
X327164Y23583D01*
X327180Y23512D01*
X327185Y23441D01*
X327205Y23393D01*
X327217Y23342D01*
X327253Y23281D01*
X327281Y23215D01*
X327326Y23159D01*
X327343Y23131D01*
X327361Y23116D01*
X327386Y23084D01*
X328266Y22204D01*
X328266Y19257D01*
X326183Y17174D01*
X323236Y17174D01*
G37*
%LPD*%
%LPC*%
G36*
X868231Y86020D02*
X868231Y86020D01*
X865800Y88451D01*
X865800Y91889D01*
X867440Y93529D01*
X867493Y93603D01*
X867553Y93672D01*
X867565Y93702D01*
X867584Y93729D01*
X867611Y93816D01*
X867645Y93900D01*
X867649Y93941D01*
X867656Y93964D01*
X867655Y93996D01*
X867663Y94067D01*
X867663Y136837D01*
X872813Y141987D01*
X905049Y141987D01*
X905163Y142006D01*
X905280Y142023D01*
X905285Y142025D01*
X905291Y142026D01*
X905394Y142081D01*
X905499Y142134D01*
X905503Y142139D01*
X905509Y142142D01*
X905589Y142226D01*
X905671Y142310D01*
X905675Y142316D01*
X905678Y142320D01*
X905686Y142337D01*
X905752Y142457D01*
X905906Y142830D01*
X907460Y144384D01*
X909491Y145225D01*
X911689Y145225D01*
X913720Y144384D01*
X915274Y142830D01*
X916115Y140799D01*
X916115Y138601D01*
X915274Y136570D01*
X913720Y135016D01*
X911689Y134175D01*
X909491Y134175D01*
X907460Y135016D01*
X905906Y136570D01*
X905752Y136943D01*
X905690Y137043D01*
X905630Y137143D01*
X905626Y137147D01*
X905622Y137152D01*
X905532Y137227D01*
X905443Y137303D01*
X905438Y137305D01*
X905433Y137309D01*
X905324Y137351D01*
X905215Y137395D01*
X905208Y137396D01*
X905203Y137397D01*
X905185Y137398D01*
X905049Y137413D01*
X875023Y137413D01*
X874932Y137399D01*
X874842Y137391D01*
X874812Y137379D01*
X874780Y137374D01*
X874699Y137331D01*
X874615Y137295D01*
X874583Y137269D01*
X874562Y137258D01*
X874540Y137235D01*
X874484Y137190D01*
X872460Y135166D01*
X872407Y135092D01*
X872347Y135022D01*
X872335Y134992D01*
X872316Y134966D01*
X872289Y134879D01*
X872255Y134794D01*
X872251Y134753D01*
X872244Y134731D01*
X872245Y134699D01*
X872237Y134627D01*
X872237Y94067D01*
X872251Y93977D01*
X872259Y93886D01*
X872271Y93856D01*
X872276Y93824D01*
X872319Y93744D01*
X872355Y93660D01*
X872381Y93628D01*
X872392Y93607D01*
X872415Y93585D01*
X872460Y93529D01*
X874100Y91889D01*
X874100Y88451D01*
X871669Y86020D01*
X868231Y86020D01*
G37*
%LPD*%
%LPC*%
G36*
X924864Y292290D02*
X924864Y292290D01*
X920733Y294001D01*
X917571Y297163D01*
X915860Y301294D01*
X915860Y305766D01*
X917571Y309897D01*
X920733Y313059D01*
X924864Y314770D01*
X929336Y314770D01*
X933467Y313059D01*
X936629Y309897D01*
X938340Y305766D01*
X938340Y301294D01*
X936629Y297163D01*
X933467Y294001D01*
X929336Y292290D01*
X924864Y292290D01*
G37*
%LPD*%
%LPC*%
G36*
X1159100Y212140D02*
X1159100Y212140D01*
X1156112Y213378D01*
X1153825Y215664D01*
X1153060Y217512D01*
X1152998Y217612D01*
X1152938Y217712D01*
X1152934Y217716D01*
X1152930Y217721D01*
X1152840Y217796D01*
X1152751Y217872D01*
X1152746Y217874D01*
X1152741Y217878D01*
X1152632Y217920D01*
X1152523Y217964D01*
X1152516Y217964D01*
X1152511Y217966D01*
X1152493Y217967D01*
X1152357Y217982D01*
X1150278Y217982D01*
X1150188Y217967D01*
X1150097Y217960D01*
X1150067Y217948D01*
X1150035Y217942D01*
X1149955Y217900D01*
X1149871Y217864D01*
X1149838Y217838D01*
X1149818Y217827D01*
X1149811Y217820D01*
X1149810Y217820D01*
X1149794Y217803D01*
X1149740Y217759D01*
X1147541Y215560D01*
X1144103Y215560D01*
X1141672Y217991D01*
X1141672Y221429D01*
X1144103Y223860D01*
X1147541Y223860D01*
X1148622Y222779D01*
X1148696Y222725D01*
X1148765Y222666D01*
X1148796Y222654D01*
X1148822Y222635D01*
X1148909Y222608D01*
X1148994Y222574D01*
X1149035Y222569D01*
X1149057Y222563D01*
X1149089Y222563D01*
X1149160Y222556D01*
X1152357Y222556D01*
X1152471Y222574D01*
X1152588Y222591D01*
X1152593Y222594D01*
X1152599Y222595D01*
X1152702Y222650D01*
X1152807Y222703D01*
X1152811Y222707D01*
X1152817Y222710D01*
X1152897Y222794D01*
X1152979Y222879D01*
X1152983Y222885D01*
X1152986Y222889D01*
X1152994Y222906D01*
X1153060Y223025D01*
X1153825Y224873D01*
X1156112Y227160D01*
X1159100Y228398D01*
X1169191Y228398D01*
X1172179Y227160D01*
X1174466Y224873D01*
X1175703Y221886D01*
X1175703Y218652D01*
X1174466Y215664D01*
X1172179Y213378D01*
X1169191Y212140D01*
X1159100Y212140D01*
G37*
%LPD*%
%LPC*%
G36*
X1157668Y179832D02*
X1157668Y179832D01*
X1157664Y179852D01*
X1157667Y179871D01*
X1157645Y179973D01*
X1157628Y180075D01*
X1157619Y180092D01*
X1157614Y180112D01*
X1157561Y180201D01*
X1157513Y180292D01*
X1157498Y180306D01*
X1157488Y180323D01*
X1157409Y180390D01*
X1157334Y180462D01*
X1157316Y180470D01*
X1157301Y180483D01*
X1157205Y180522D01*
X1157111Y180565D01*
X1157092Y180567D01*
X1157073Y180575D01*
X1156906Y180593D01*
X1155383Y180593D01*
X1155363Y180590D01*
X1155343Y180592D01*
X1155242Y180570D01*
X1155140Y180554D01*
X1155122Y180544D01*
X1155103Y180540D01*
X1155014Y180487D01*
X1154922Y180438D01*
X1154909Y180424D01*
X1154892Y180414D01*
X1154824Y180335D01*
X1154753Y180260D01*
X1154745Y180242D01*
X1154732Y180227D01*
X1154693Y180131D01*
X1154649Y180037D01*
X1154647Y180017D01*
X1154640Y179999D01*
X1154621Y179832D01*
X1154621Y179320D01*
X1153477Y179548D01*
X1151813Y180237D01*
X1150315Y181238D01*
X1149041Y182511D01*
X1148041Y184009D01*
X1147351Y185674D01*
X1147000Y187440D01*
X1147000Y190247D01*
X1148293Y190247D01*
X1148408Y190266D01*
X1148524Y190283D01*
X1148529Y190286D01*
X1148535Y190287D01*
X1148639Y190341D01*
X1148743Y190394D01*
X1148747Y190399D01*
X1148753Y190402D01*
X1148834Y190487D01*
X1148915Y190570D01*
X1148919Y190576D01*
X1148922Y190580D01*
X1148930Y190597D01*
X1148996Y190717D01*
X1149312Y191479D01*
X1149332Y191567D01*
X1149361Y191654D01*
X1149360Y191687D01*
X1149368Y191718D01*
X1149359Y191809D01*
X1149358Y191900D01*
X1149347Y191940D01*
X1149345Y191963D01*
X1149332Y191992D01*
X1149312Y192061D01*
X1148996Y192823D01*
X1148934Y192923D01*
X1148875Y193023D01*
X1148870Y193027D01*
X1148866Y193032D01*
X1148776Y193107D01*
X1148688Y193183D01*
X1148682Y193185D01*
X1148677Y193189D01*
X1148569Y193231D01*
X1148459Y193275D01*
X1148452Y193276D01*
X1148447Y193277D01*
X1148429Y193278D01*
X1148293Y193293D01*
X1147000Y193293D01*
X1147000Y196100D01*
X1147351Y197866D01*
X1148041Y199531D01*
X1149041Y201029D01*
X1150315Y202302D01*
X1151813Y203303D01*
X1153477Y203992D01*
X1154621Y204220D01*
X1154621Y203708D01*
X1154625Y203688D01*
X1154622Y203669D01*
X1154644Y203567D01*
X1154661Y203465D01*
X1154670Y203448D01*
X1154675Y203428D01*
X1154728Y203339D01*
X1154776Y203248D01*
X1154791Y203234D01*
X1154801Y203217D01*
X1154879Y203150D01*
X1154954Y203078D01*
X1154973Y203070D01*
X1154988Y203057D01*
X1155084Y203018D01*
X1155178Y202975D01*
X1155197Y202973D01*
X1155216Y202965D01*
X1155383Y202947D01*
X1156906Y202947D01*
X1156926Y202950D01*
X1156946Y202948D01*
X1157047Y202970D01*
X1157149Y202986D01*
X1157167Y202996D01*
X1157186Y203000D01*
X1157275Y203053D01*
X1157367Y203102D01*
X1157380Y203116D01*
X1157397Y203126D01*
X1157465Y203205D01*
X1157536Y203280D01*
X1157544Y203298D01*
X1157557Y203313D01*
X1157596Y203409D01*
X1157640Y203503D01*
X1157642Y203523D01*
X1157649Y203541D01*
X1157668Y203708D01*
X1157668Y204220D01*
X1158812Y203992D01*
X1160476Y203303D01*
X1161974Y202302D01*
X1163248Y201029D01*
X1164248Y199531D01*
X1164938Y197866D01*
X1165289Y196100D01*
X1165289Y193293D01*
X1164123Y193293D01*
X1164008Y193274D01*
X1163892Y193257D01*
X1163887Y193254D01*
X1163880Y193253D01*
X1163778Y193199D01*
X1163673Y193146D01*
X1163669Y193141D01*
X1163663Y193138D01*
X1163583Y193054D01*
X1163501Y192970D01*
X1163497Y192964D01*
X1163494Y192960D01*
X1163486Y192943D01*
X1163420Y192823D01*
X1163104Y192061D01*
X1163083Y191972D01*
X1163055Y191886D01*
X1163056Y191853D01*
X1163048Y191822D01*
X1163057Y191731D01*
X1163058Y191640D01*
X1163069Y191600D01*
X1163071Y191577D01*
X1163084Y191547D01*
X1163104Y191479D01*
X1163420Y190717D01*
X1163481Y190618D01*
X1163541Y190517D01*
X1163546Y190513D01*
X1163550Y190508D01*
X1163639Y190433D01*
X1163728Y190357D01*
X1163734Y190355D01*
X1163739Y190351D01*
X1163848Y190309D01*
X1163957Y190265D01*
X1163964Y190264D01*
X1163969Y190263D01*
X1163987Y190262D01*
X1164123Y190247D01*
X1165289Y190247D01*
X1165289Y187440D01*
X1164938Y185674D01*
X1164248Y184009D01*
X1163248Y182511D01*
X1161974Y181238D01*
X1160476Y180237D01*
X1158812Y179548D01*
X1157668Y179320D01*
X1157668Y179832D01*
G37*
%LPD*%
%LPC*%
G36*
X1159816Y154126D02*
X1159816Y154126D01*
X1158049Y154478D01*
X1156385Y155167D01*
X1154887Y156168D01*
X1153613Y157442D01*
X1152613Y158940D01*
X1151923Y160604D01*
X1151696Y161748D01*
X1152398Y161748D01*
X1152418Y161751D01*
X1152437Y161749D01*
X1152539Y161771D01*
X1152641Y161788D01*
X1152658Y161797D01*
X1152678Y161801D01*
X1152767Y161854D01*
X1152858Y161903D01*
X1152872Y161917D01*
X1152889Y161927D01*
X1152956Y162006D01*
X1153028Y162081D01*
X1153036Y162099D01*
X1153049Y162114D01*
X1153088Y162211D01*
X1153131Y162304D01*
X1153133Y162324D01*
X1153141Y162343D01*
X1153159Y162509D01*
X1153159Y164033D01*
X1153156Y164053D01*
X1153158Y164073D01*
X1153136Y164174D01*
X1153120Y164276D01*
X1153110Y164293D01*
X1153106Y164313D01*
X1153053Y164402D01*
X1153004Y164493D01*
X1152990Y164507D01*
X1152980Y164524D01*
X1152901Y164591D01*
X1152826Y164663D01*
X1152808Y164671D01*
X1152793Y164684D01*
X1152697Y164723D01*
X1152603Y164766D01*
X1152583Y164768D01*
X1152565Y164776D01*
X1152398Y164794D01*
X1151696Y164794D01*
X1151923Y165939D01*
X1152613Y167603D01*
X1153613Y169101D01*
X1154887Y170374D01*
X1156385Y171375D01*
X1158049Y172064D01*
X1159816Y172416D01*
X1162622Y172416D01*
X1162622Y171316D01*
X1162641Y171201D01*
X1162658Y171085D01*
X1162661Y171080D01*
X1162662Y171073D01*
X1162716Y170971D01*
X1162770Y170866D01*
X1162774Y170862D01*
X1162777Y170856D01*
X1162862Y170776D01*
X1162945Y170694D01*
X1162952Y170690D01*
X1162955Y170687D01*
X1162973Y170679D01*
X1163092Y170613D01*
X1163918Y170271D01*
X1164007Y170250D01*
X1164093Y170222D01*
X1164126Y170222D01*
X1164157Y170215D01*
X1164248Y170223D01*
X1164339Y170224D01*
X1164379Y170236D01*
X1164402Y170238D01*
X1164431Y170251D01*
X1164500Y170271D01*
X1165199Y170560D01*
X1165298Y170622D01*
X1165398Y170682D01*
X1165402Y170687D01*
X1165408Y170690D01*
X1165482Y170779D01*
X1165558Y170869D01*
X1165561Y170875D01*
X1165565Y170879D01*
X1165606Y170988D01*
X1165650Y171097D01*
X1165651Y171104D01*
X1165653Y171109D01*
X1165654Y171128D01*
X1165669Y171264D01*
X1165669Y172416D01*
X1168475Y172416D01*
X1170242Y172064D01*
X1171906Y171375D01*
X1173404Y170374D01*
X1174678Y169101D01*
X1175678Y167603D01*
X1176368Y165939D01*
X1176595Y164794D01*
X1176020Y164794D01*
X1176000Y164791D01*
X1175981Y164793D01*
X1175879Y164771D01*
X1175777Y164755D01*
X1175760Y164745D01*
X1175740Y164741D01*
X1175651Y164688D01*
X1175560Y164640D01*
X1175546Y164625D01*
X1175529Y164615D01*
X1175462Y164536D01*
X1175390Y164461D01*
X1175382Y164443D01*
X1175369Y164428D01*
X1175330Y164332D01*
X1175287Y164238D01*
X1175285Y164218D01*
X1175277Y164200D01*
X1175259Y164033D01*
X1175259Y162509D01*
X1175262Y162490D01*
X1175260Y162470D01*
X1175282Y162369D01*
X1175298Y162266D01*
X1175308Y162249D01*
X1175312Y162229D01*
X1175365Y162140D01*
X1175414Y162049D01*
X1175428Y162035D01*
X1175438Y162018D01*
X1175517Y161951D01*
X1175592Y161880D01*
X1175610Y161871D01*
X1175625Y161858D01*
X1175721Y161820D01*
X1175815Y161776D01*
X1175835Y161774D01*
X1175853Y161766D01*
X1176020Y161748D01*
X1176595Y161748D01*
X1176368Y160604D01*
X1175678Y158940D01*
X1174678Y157442D01*
X1173404Y156168D01*
X1171906Y155167D01*
X1170242Y154478D01*
X1168475Y154126D01*
X1165669Y154126D01*
X1165669Y155380D01*
X1165650Y155495D01*
X1165633Y155611D01*
X1165630Y155617D01*
X1165629Y155623D01*
X1165575Y155726D01*
X1165521Y155831D01*
X1165517Y155835D01*
X1165514Y155841D01*
X1165429Y155921D01*
X1165346Y156003D01*
X1165339Y156006D01*
X1165335Y156010D01*
X1165318Y156018D01*
X1165199Y156084D01*
X1164500Y156373D01*
X1164412Y156394D01*
X1164325Y156422D01*
X1164292Y156422D01*
X1164261Y156429D01*
X1164170Y156421D01*
X1164079Y156420D01*
X1164039Y156408D01*
X1164016Y156406D01*
X1163987Y156393D01*
X1163918Y156373D01*
X1163092Y156031D01*
X1162993Y155969D01*
X1162893Y155910D01*
X1162889Y155905D01*
X1162883Y155902D01*
X1162809Y155812D01*
X1162733Y155723D01*
X1162730Y155717D01*
X1162726Y155712D01*
X1162685Y155604D01*
X1162641Y155495D01*
X1162640Y155487D01*
X1162638Y155482D01*
X1162637Y155464D01*
X1162622Y155328D01*
X1162622Y154126D01*
X1159816Y154126D01*
G37*
%LPD*%
%LPC*%
G36*
X1187144Y181292D02*
X1187144Y181292D01*
X1183293Y182887D01*
X1180345Y185835D01*
X1178750Y189686D01*
X1178750Y193854D01*
X1180345Y197705D01*
X1183293Y200653D01*
X1187144Y202248D01*
X1191312Y202248D01*
X1195163Y200653D01*
X1198111Y197705D01*
X1199706Y193854D01*
X1199706Y189686D01*
X1198111Y185835D01*
X1195163Y182887D01*
X1191312Y181292D01*
X1187144Y181292D01*
G37*
%LPD*%
%LPC*%
G36*
X1256994Y181292D02*
X1256994Y181292D01*
X1253143Y182887D01*
X1250195Y185835D01*
X1248600Y189686D01*
X1248600Y193854D01*
X1250195Y197705D01*
X1253143Y200653D01*
X1256994Y202248D01*
X1261162Y202248D01*
X1265013Y200653D01*
X1267961Y197705D01*
X1269556Y193854D01*
X1269556Y189686D01*
X1267961Y185835D01*
X1265013Y182887D01*
X1261162Y181292D01*
X1256994Y181292D01*
G37*
%LPD*%
%LPC*%
G36*
X215948Y283965D02*
X215948Y283965D01*
X215055Y284858D01*
X215055Y301362D01*
X215948Y302255D01*
X232452Y302255D01*
X233345Y301362D01*
X233345Y284858D01*
X232452Y283965D01*
X215948Y283965D01*
G37*
%LPD*%
%LPC*%
G36*
X832021Y268795D02*
X832021Y268795D01*
X829990Y269636D01*
X828436Y271190D01*
X827595Y273221D01*
X827595Y275419D01*
X827750Y275792D01*
X827776Y275905D01*
X827805Y276019D01*
X827804Y276025D01*
X827806Y276031D01*
X827795Y276148D01*
X827786Y276264D01*
X827783Y276270D01*
X827783Y276276D01*
X827735Y276384D01*
X827690Y276490D01*
X827685Y276496D01*
X827683Y276501D01*
X827670Y276515D01*
X827585Y276621D01*
X806996Y297210D01*
X806922Y297263D01*
X806852Y297323D01*
X806822Y297335D01*
X806796Y297354D01*
X806709Y297381D01*
X806624Y297415D01*
X806583Y297419D01*
X806561Y297426D01*
X806529Y297425D01*
X806457Y297433D01*
X803997Y297433D01*
X803907Y297419D01*
X803816Y297411D01*
X803786Y297399D01*
X803754Y297394D01*
X803674Y297351D01*
X803590Y297315D01*
X803558Y297289D01*
X803537Y297278D01*
X803515Y297255D01*
X803459Y297210D01*
X801819Y295570D01*
X798381Y295570D01*
X795950Y298001D01*
X795950Y301439D01*
X798381Y303870D01*
X801819Y303870D01*
X803459Y302230D01*
X803533Y302177D01*
X803602Y302117D01*
X803632Y302105D01*
X803659Y302086D01*
X803746Y302059D01*
X803830Y302025D01*
X803871Y302021D01*
X803894Y302014D01*
X803926Y302015D01*
X803997Y302007D01*
X808667Y302007D01*
X810230Y300444D01*
X830819Y279855D01*
X830896Y279799D01*
X830959Y279746D01*
X830980Y279737D01*
X831007Y279717D01*
X831013Y279715D01*
X831018Y279712D01*
X831127Y279678D01*
X831187Y279654D01*
X831209Y279652D01*
X831241Y279641D01*
X831247Y279641D01*
X831253Y279639D01*
X831308Y279641D01*
X831354Y279636D01*
X831365Y279636D01*
X831408Y279643D01*
X831487Y279644D01*
X831494Y279646D01*
X831499Y279646D01*
X831517Y279652D01*
X831583Y279671D01*
X831608Y279675D01*
X831621Y279682D01*
X831648Y279690D01*
X832021Y279845D01*
X834219Y279845D01*
X836250Y279004D01*
X837804Y277450D01*
X838645Y275419D01*
X838645Y273221D01*
X837804Y271190D01*
X836250Y269636D01*
X834219Y268795D01*
X832021Y268795D01*
G37*
%LPD*%
%LPC*%
G36*
X708211Y289220D02*
X708211Y289220D01*
X705780Y291651D01*
X705780Y295089D01*
X707420Y296729D01*
X707473Y296803D01*
X707533Y296872D01*
X707545Y296902D01*
X707564Y296929D01*
X707591Y297016D01*
X707625Y297100D01*
X707629Y297141D01*
X707636Y297164D01*
X707635Y297196D01*
X707643Y297267D01*
X707643Y332417D01*
X713177Y337951D01*
X713230Y338025D01*
X713290Y338095D01*
X713302Y338125D01*
X713321Y338151D01*
X713348Y338238D01*
X713382Y338323D01*
X713386Y338364D01*
X713393Y338386D01*
X713392Y338418D01*
X713400Y338490D01*
X713400Y340809D01*
X715831Y343240D01*
X719269Y343240D01*
X721700Y340809D01*
X721700Y337371D01*
X719269Y334940D01*
X716950Y334940D01*
X716859Y334926D01*
X716769Y334918D01*
X716739Y334906D01*
X716707Y334901D01*
X716626Y334858D01*
X716542Y334822D01*
X716510Y334796D01*
X716489Y334785D01*
X716467Y334762D01*
X716411Y334717D01*
X712440Y330746D01*
X712387Y330672D01*
X712327Y330602D01*
X712315Y330572D01*
X712296Y330546D01*
X712269Y330459D01*
X712235Y330374D01*
X712231Y330333D01*
X712224Y330311D01*
X712225Y330279D01*
X712217Y330207D01*
X712217Y297267D01*
X712231Y297177D01*
X712239Y297086D01*
X712251Y297056D01*
X712256Y297024D01*
X712299Y296944D01*
X712335Y296860D01*
X712361Y296828D01*
X712372Y296807D01*
X712395Y296785D01*
X712440Y296729D01*
X714080Y295089D01*
X714080Y291651D01*
X711649Y289220D01*
X708211Y289220D01*
G37*
%LPD*%
%LPC*%
G36*
X473261Y249850D02*
X473261Y249850D01*
X470830Y252281D01*
X470830Y255719D01*
X473261Y258150D01*
X476699Y258150D01*
X476843Y258006D01*
X476917Y257953D01*
X476986Y257893D01*
X477016Y257881D01*
X477043Y257862D01*
X477130Y257835D01*
X477214Y257801D01*
X477255Y257797D01*
X477278Y257790D01*
X477310Y257791D01*
X477381Y257783D01*
X518073Y257783D01*
X518163Y257797D01*
X518254Y257805D01*
X518284Y257817D01*
X518316Y257822D01*
X518396Y257865D01*
X518480Y257901D01*
X518512Y257927D01*
X518533Y257938D01*
X518555Y257961D01*
X518611Y258006D01*
X520251Y259646D01*
X523689Y259646D01*
X526120Y257215D01*
X526120Y253777D01*
X523689Y251346D01*
X520251Y251346D01*
X518611Y252986D01*
X518537Y253039D01*
X518468Y253099D01*
X518438Y253111D01*
X518411Y253130D01*
X518324Y253157D01*
X518240Y253191D01*
X518199Y253195D01*
X518176Y253202D01*
X518144Y253201D01*
X518073Y253209D01*
X479891Y253209D01*
X479871Y253206D01*
X479852Y253208D01*
X479750Y253186D01*
X479648Y253170D01*
X479631Y253160D01*
X479611Y253156D01*
X479522Y253103D01*
X479431Y253054D01*
X479417Y253040D01*
X479400Y253030D01*
X479333Y252951D01*
X479261Y252876D01*
X479253Y252858D01*
X479240Y252843D01*
X479201Y252747D01*
X479158Y252653D01*
X479156Y252633D01*
X479148Y252615D01*
X479130Y252448D01*
X479130Y252281D01*
X476699Y249850D01*
X473261Y249850D01*
G37*
%LPD*%
%LPC*%
G36*
X550612Y29965D02*
X550612Y29965D01*
X545255Y35322D01*
X545255Y42898D01*
X550612Y48255D01*
X558188Y48255D01*
X563545Y42898D01*
X563545Y35322D01*
X558188Y29965D01*
X550612Y29965D01*
G37*
%LPD*%
%LPC*%
G36*
X271212Y283965D02*
X271212Y283965D01*
X265855Y289322D01*
X265855Y296898D01*
X271212Y302255D01*
X278788Y302255D01*
X284145Y296898D01*
X284145Y289322D01*
X278788Y283965D01*
X271212Y283965D01*
G37*
%LPD*%
%LPC*%
G36*
X601412Y283965D02*
X601412Y283965D01*
X596055Y289322D01*
X596055Y296898D01*
X601412Y302255D01*
X608988Y302255D01*
X614345Y296898D01*
X614345Y289322D01*
X608988Y283965D01*
X601412Y283965D01*
G37*
%LPD*%
%LPC*%
G36*
X626812Y283965D02*
X626812Y283965D01*
X621455Y289322D01*
X621455Y296898D01*
X626812Y302255D01*
X634388Y302255D01*
X639745Y296898D01*
X639745Y289322D01*
X634388Y283965D01*
X626812Y283965D01*
G37*
%LPD*%
%LPC*%
G36*
X652212Y283965D02*
X652212Y283965D01*
X646855Y289322D01*
X646855Y296898D01*
X652212Y302255D01*
X659788Y302255D01*
X665145Y296898D01*
X665145Y289322D01*
X659788Y283965D01*
X652212Y283965D01*
G37*
%LPD*%
%LPC*%
G36*
X576012Y283965D02*
X576012Y283965D01*
X570655Y289322D01*
X570655Y296898D01*
X576012Y302255D01*
X583588Y302255D01*
X588945Y296898D01*
X588945Y289322D01*
X583588Y283965D01*
X576012Y283965D01*
G37*
%LPD*%
%LPC*%
G36*
X550612Y283965D02*
X550612Y283965D01*
X545255Y289322D01*
X545255Y296898D01*
X550612Y302255D01*
X558188Y302255D01*
X563545Y296898D01*
X563545Y289322D01*
X558188Y283965D01*
X550612Y283965D01*
G37*
%LPD*%
%LPC*%
G36*
X499812Y283965D02*
X499812Y283965D01*
X494455Y289322D01*
X494455Y296898D01*
X499812Y302255D01*
X507388Y302255D01*
X512745Y296898D01*
X512745Y289322D01*
X507388Y283965D01*
X499812Y283965D01*
G37*
%LPD*%
%LPC*%
G36*
X449012Y283965D02*
X449012Y283965D01*
X443655Y289322D01*
X443655Y296898D01*
X449012Y302255D01*
X456588Y302255D01*
X461945Y296898D01*
X461945Y289322D01*
X456588Y283965D01*
X449012Y283965D01*
G37*
%LPD*%
%LPC*%
G36*
X423612Y283965D02*
X423612Y283965D01*
X418255Y289322D01*
X418255Y296898D01*
X423612Y302255D01*
X431188Y302255D01*
X436545Y296898D01*
X436545Y289322D01*
X431188Y283965D01*
X423612Y283965D01*
G37*
%LPD*%
%LPC*%
G36*
X372812Y283965D02*
X372812Y283965D01*
X367455Y289322D01*
X367455Y296898D01*
X372812Y302255D01*
X380388Y302255D01*
X385745Y296898D01*
X385745Y289322D01*
X380388Y283965D01*
X372812Y283965D01*
G37*
%LPD*%
%LPC*%
G36*
X347412Y283965D02*
X347412Y283965D01*
X342055Y289322D01*
X342055Y296898D01*
X347412Y302255D01*
X354988Y302255D01*
X360345Y296898D01*
X360345Y289322D01*
X354988Y283965D01*
X347412Y283965D01*
G37*
%LPD*%
%LPC*%
G36*
X322012Y283965D02*
X322012Y283965D01*
X316655Y289322D01*
X316655Y296898D01*
X322012Y302255D01*
X329588Y302255D01*
X334945Y296898D01*
X334945Y289322D01*
X329588Y283965D01*
X322012Y283965D01*
G37*
%LPD*%
%LPC*%
G36*
X296612Y283965D02*
X296612Y283965D01*
X291255Y289322D01*
X291255Y296898D01*
X296612Y302255D01*
X304188Y302255D01*
X309545Y296898D01*
X309545Y289322D01*
X304188Y283965D01*
X296612Y283965D01*
G37*
%LPD*%
%LPC*%
G36*
X245812Y283965D02*
X245812Y283965D01*
X240455Y289322D01*
X240455Y296898D01*
X245812Y302255D01*
X253388Y302255D01*
X258745Y296898D01*
X258745Y289322D01*
X253388Y283965D01*
X245812Y283965D01*
G37*
%LPD*%
%LPC*%
G36*
X525212Y283965D02*
X525212Y283965D01*
X519855Y289322D01*
X519855Y296898D01*
X525212Y302255D01*
X532788Y302255D01*
X538145Y296898D01*
X538145Y289322D01*
X532788Y283965D01*
X525212Y283965D01*
G37*
%LPD*%
%LPC*%
G36*
X322012Y55365D02*
X322012Y55365D01*
X316655Y60722D01*
X316655Y68298D01*
X322012Y73655D01*
X329588Y73655D01*
X334945Y68298D01*
X334945Y60722D01*
X329588Y55365D01*
X322012Y55365D01*
G37*
%LPD*%
%LPC*%
G36*
X449012Y55365D02*
X449012Y55365D01*
X443655Y60722D01*
X443655Y68298D01*
X449012Y73655D01*
X456588Y73655D01*
X461945Y68298D01*
X461945Y60722D01*
X456588Y55365D01*
X449012Y55365D01*
G37*
%LPD*%
%LPC*%
G36*
X499812Y55365D02*
X499812Y55365D01*
X494455Y60722D01*
X494455Y68298D01*
X499812Y73655D01*
X507388Y73655D01*
X512745Y68298D01*
X512745Y60722D01*
X507388Y55365D01*
X499812Y55365D01*
G37*
%LPD*%
%LPC*%
G36*
X296612Y55365D02*
X296612Y55365D01*
X291255Y60722D01*
X291255Y68298D01*
X296612Y73655D01*
X304188Y73655D01*
X309545Y68298D01*
X309545Y60722D01*
X304188Y55365D01*
X296612Y55365D01*
G37*
%LPD*%
%LPC*%
G36*
X525212Y29965D02*
X525212Y29965D01*
X519855Y35322D01*
X519855Y42898D01*
X525212Y48255D01*
X532788Y48255D01*
X538145Y42898D01*
X538145Y35322D01*
X532788Y29965D01*
X525212Y29965D01*
G37*
%LPD*%
%LPC*%
G36*
X499812Y29965D02*
X499812Y29965D01*
X494455Y35322D01*
X494455Y42898D01*
X499812Y48255D01*
X507388Y48255D01*
X512745Y42898D01*
X512745Y35322D01*
X507388Y29965D01*
X499812Y29965D01*
G37*
%LPD*%
%LPC*%
G36*
X271212Y55365D02*
X271212Y55365D01*
X265855Y60722D01*
X265855Y68298D01*
X271212Y73655D01*
X278788Y73655D01*
X284145Y68298D01*
X284145Y60722D01*
X278788Y55365D01*
X271212Y55365D01*
G37*
%LPD*%
%LPC*%
G36*
X245812Y55365D02*
X245812Y55365D01*
X240455Y60722D01*
X240455Y68298D01*
X245812Y73655D01*
X253388Y73655D01*
X258745Y68298D01*
X258745Y60722D01*
X253388Y55365D01*
X245812Y55365D01*
G37*
%LPD*%
%LPC*%
G36*
X220412Y55365D02*
X220412Y55365D01*
X215055Y60722D01*
X215055Y68298D01*
X220412Y73655D01*
X227988Y73655D01*
X233345Y68298D01*
X233345Y60722D01*
X227988Y55365D01*
X220412Y55365D01*
G37*
%LPD*%
%LPC*%
G36*
X322012Y309365D02*
X322012Y309365D01*
X316655Y314722D01*
X316655Y322298D01*
X322012Y327655D01*
X329588Y327655D01*
X334945Y322298D01*
X334945Y314722D01*
X329588Y309365D01*
X322012Y309365D01*
G37*
%LPD*%
%LPC*%
G36*
X372812Y55365D02*
X372812Y55365D01*
X367455Y60722D01*
X367455Y68298D01*
X372812Y73655D01*
X380388Y73655D01*
X385745Y68298D01*
X385745Y60722D01*
X380388Y55365D01*
X372812Y55365D01*
G37*
%LPD*%
%LPC*%
G36*
X347412Y309365D02*
X347412Y309365D01*
X342055Y314722D01*
X342055Y322298D01*
X347412Y327655D01*
X354988Y327655D01*
X360345Y322298D01*
X360345Y314722D01*
X354988Y309365D01*
X347412Y309365D01*
G37*
%LPD*%
%LPC*%
G36*
X372812Y29965D02*
X372812Y29965D01*
X367455Y35322D01*
X367455Y42898D01*
X372812Y48255D01*
X380388Y48255D01*
X385745Y42898D01*
X385745Y35322D01*
X380388Y29965D01*
X372812Y29965D01*
G37*
%LPD*%
%LPC*%
G36*
X423612Y29965D02*
X423612Y29965D01*
X418255Y35322D01*
X418255Y42898D01*
X423612Y48255D01*
X431188Y48255D01*
X436545Y42898D01*
X436545Y35322D01*
X431188Y29965D01*
X423612Y29965D01*
G37*
%LPD*%
%LPC*%
G36*
X601412Y309365D02*
X601412Y309365D01*
X596055Y314722D01*
X596055Y322298D01*
X601412Y327655D01*
X608988Y327655D01*
X614345Y322298D01*
X614345Y314722D01*
X608988Y309365D01*
X601412Y309365D01*
G37*
%LPD*%
%LPC*%
G36*
X525212Y55365D02*
X525212Y55365D01*
X519855Y60722D01*
X519855Y68298D01*
X525212Y73655D01*
X532788Y73655D01*
X538145Y68298D01*
X538145Y60722D01*
X532788Y55365D01*
X525212Y55365D01*
G37*
%LPD*%
%LPC*%
G36*
X449012Y29965D02*
X449012Y29965D01*
X443655Y35322D01*
X443655Y42898D01*
X449012Y48255D01*
X456588Y48255D01*
X461945Y42898D01*
X461945Y35322D01*
X456588Y29965D01*
X449012Y29965D01*
G37*
%LPD*%
%LPC*%
G36*
X474412Y29965D02*
X474412Y29965D01*
X469055Y35322D01*
X469055Y42898D01*
X474412Y48255D01*
X481988Y48255D01*
X487345Y42898D01*
X487345Y35322D01*
X481988Y29965D01*
X474412Y29965D01*
G37*
%LPD*%
%LPC*%
G36*
X347412Y55365D02*
X347412Y55365D01*
X342055Y60722D01*
X342055Y68298D01*
X347412Y73655D01*
X354988Y73655D01*
X360345Y68298D01*
X360345Y60722D01*
X354988Y55365D01*
X347412Y55365D01*
G37*
%LPD*%
%LPC*%
G36*
X626812Y309365D02*
X626812Y309365D01*
X621455Y314722D01*
X621455Y322298D01*
X626812Y327655D01*
X634388Y327655D01*
X639745Y322298D01*
X639745Y314722D01*
X634388Y309365D01*
X626812Y309365D01*
G37*
%LPD*%
%LPC*%
G36*
X576012Y309365D02*
X576012Y309365D01*
X570655Y314722D01*
X570655Y322298D01*
X576012Y327655D01*
X583588Y327655D01*
X588945Y322298D01*
X588945Y314722D01*
X583588Y309365D01*
X576012Y309365D01*
G37*
%LPD*%
%LPC*%
G36*
X576012Y55365D02*
X576012Y55365D01*
X570655Y60722D01*
X570655Y68298D01*
X576012Y73655D01*
X583588Y73655D01*
X588945Y68298D01*
X588945Y60722D01*
X583588Y55365D01*
X576012Y55365D01*
G37*
%LPD*%
%LPC*%
G36*
X550612Y55365D02*
X550612Y55365D01*
X545255Y60722D01*
X545255Y68298D01*
X550612Y73655D01*
X558188Y73655D01*
X563545Y68298D01*
X563545Y60722D01*
X558188Y55365D01*
X550612Y55365D01*
G37*
%LPD*%
%LPC*%
G36*
X423612Y55365D02*
X423612Y55365D01*
X418255Y60722D01*
X418255Y68298D01*
X423612Y73655D01*
X431188Y73655D01*
X436545Y68298D01*
X436545Y60722D01*
X431188Y55365D01*
X423612Y55365D01*
G37*
%LPD*%
%LPC*%
G36*
X372812Y309365D02*
X372812Y309365D01*
X367455Y314722D01*
X367455Y322298D01*
X372812Y327655D01*
X380388Y327655D01*
X385745Y322298D01*
X385745Y314722D01*
X380388Y309365D01*
X372812Y309365D01*
G37*
%LPD*%
%LPC*%
G36*
X398212Y309365D02*
X398212Y309365D01*
X392855Y314722D01*
X392855Y322298D01*
X398212Y327655D01*
X405788Y327655D01*
X411145Y322298D01*
X411145Y314722D01*
X405788Y309365D01*
X398212Y309365D01*
G37*
%LPD*%
%LPC*%
G36*
X423612Y309365D02*
X423612Y309365D01*
X418255Y314722D01*
X418255Y322298D01*
X423612Y327655D01*
X431188Y327655D01*
X436545Y322298D01*
X436545Y314722D01*
X431188Y309365D01*
X423612Y309365D01*
G37*
%LPD*%
%LPC*%
G36*
X550612Y309365D02*
X550612Y309365D01*
X545255Y314722D01*
X545255Y322298D01*
X550612Y327655D01*
X558188Y327655D01*
X563545Y322298D01*
X563545Y314722D01*
X558188Y309365D01*
X550612Y309365D01*
G37*
%LPD*%
%LPC*%
G36*
X652212Y309365D02*
X652212Y309365D01*
X646855Y314722D01*
X646855Y322298D01*
X652212Y327655D01*
X659788Y327655D01*
X665145Y322298D01*
X665145Y314722D01*
X659788Y309365D01*
X652212Y309365D01*
G37*
%LPD*%
%LPC*%
G36*
X499812Y309365D02*
X499812Y309365D01*
X494455Y314722D01*
X494455Y322298D01*
X499812Y327655D01*
X507388Y327655D01*
X512745Y322298D01*
X512745Y314722D01*
X507388Y309365D01*
X499812Y309365D01*
G37*
%LPD*%
%LPC*%
G36*
X525212Y309365D02*
X525212Y309365D01*
X519855Y314722D01*
X519855Y322298D01*
X525212Y327655D01*
X532788Y327655D01*
X538145Y322298D01*
X538145Y314722D01*
X532788Y309365D01*
X525212Y309365D01*
G37*
%LPD*%
%LPC*%
G36*
X917686Y55752D02*
X917686Y55752D01*
X914372Y57125D01*
X911835Y59662D01*
X910462Y62976D01*
X910462Y66564D01*
X911835Y69878D01*
X914372Y72415D01*
X917686Y73788D01*
X921274Y73788D01*
X924588Y72415D01*
X927125Y69878D01*
X928498Y66564D01*
X928498Y62976D01*
X927125Y59662D01*
X924588Y57125D01*
X921274Y55752D01*
X917686Y55752D01*
G37*
%LPD*%
%LPC*%
G36*
X993886Y30352D02*
X993886Y30352D01*
X990572Y31725D01*
X988035Y34262D01*
X986662Y37576D01*
X986662Y41164D01*
X988035Y44478D01*
X990572Y47015D01*
X993886Y48388D01*
X997474Y48388D01*
X1000788Y47015D01*
X1003325Y44478D01*
X1004698Y41164D01*
X1004698Y37576D01*
X1003325Y34262D01*
X1000788Y31725D01*
X997474Y30352D01*
X993886Y30352D01*
G37*
%LPD*%
%LPC*%
G36*
X943086Y30352D02*
X943086Y30352D01*
X939772Y31725D01*
X937235Y34262D01*
X935862Y37576D01*
X935862Y41164D01*
X937235Y44478D01*
X939772Y47015D01*
X943086Y48388D01*
X946674Y48388D01*
X949988Y47015D01*
X952525Y44478D01*
X953898Y41164D01*
X953898Y37576D01*
X952525Y34262D01*
X949988Y31725D01*
X946674Y30352D01*
X943086Y30352D01*
G37*
%LPD*%
%LPC*%
G36*
X993886Y55752D02*
X993886Y55752D01*
X990572Y57125D01*
X988035Y59662D01*
X986662Y62976D01*
X986662Y66564D01*
X988035Y69878D01*
X990572Y72415D01*
X993886Y73788D01*
X997474Y73788D01*
X1000788Y72415D01*
X1003325Y69878D01*
X1004698Y66564D01*
X1004698Y62976D01*
X1003325Y59662D01*
X1000788Y57125D01*
X997474Y55752D01*
X993886Y55752D01*
G37*
%LPD*%
%LPC*%
G36*
X968486Y55752D02*
X968486Y55752D01*
X965172Y57125D01*
X962635Y59662D01*
X961262Y62976D01*
X961262Y66564D01*
X962635Y69878D01*
X965172Y72415D01*
X968486Y73788D01*
X972074Y73788D01*
X975388Y72415D01*
X977925Y69878D01*
X979298Y66564D01*
X979298Y62976D01*
X977925Y59662D01*
X975388Y57125D01*
X972074Y55752D01*
X968486Y55752D01*
G37*
%LPD*%
%LPC*%
G36*
X943086Y55752D02*
X943086Y55752D01*
X939772Y57125D01*
X937235Y59662D01*
X935862Y62976D01*
X935862Y66564D01*
X937235Y69878D01*
X939772Y72415D01*
X943086Y73788D01*
X946674Y73788D01*
X949988Y72415D01*
X952525Y69878D01*
X953898Y66564D01*
X953898Y62976D01*
X952525Y59662D01*
X949988Y57125D01*
X946674Y55752D01*
X943086Y55752D01*
G37*
%LPD*%
%LPC*%
G36*
X839021Y90874D02*
X839021Y90874D01*
X836590Y93305D01*
X836590Y96743D01*
X838230Y98383D01*
X838283Y98457D01*
X838343Y98526D01*
X838355Y98556D01*
X838374Y98583D01*
X838401Y98670D01*
X838435Y98754D01*
X838439Y98795D01*
X838446Y98818D01*
X838445Y98850D01*
X838453Y98921D01*
X838453Y120563D01*
X838452Y120571D01*
X838452Y120574D01*
X838449Y120589D01*
X838439Y120653D01*
X838431Y120744D01*
X838419Y120774D01*
X838414Y120806D01*
X838371Y120886D01*
X838335Y120970D01*
X838309Y121002D01*
X838298Y121023D01*
X838275Y121045D01*
X838230Y121101D01*
X836590Y122741D01*
X836590Y126179D01*
X839021Y128610D01*
X842459Y128610D01*
X844890Y126179D01*
X844890Y122741D01*
X843250Y121101D01*
X843197Y121027D01*
X843137Y120958D01*
X843125Y120928D01*
X843106Y120901D01*
X843079Y120814D01*
X843045Y120730D01*
X843041Y120689D01*
X843034Y120666D01*
X843035Y120634D01*
X843027Y120563D01*
X843027Y98921D01*
X843041Y98831D01*
X843049Y98740D01*
X843061Y98710D01*
X843066Y98678D01*
X843109Y98598D01*
X843145Y98514D01*
X843171Y98482D01*
X843182Y98461D01*
X843205Y98439D01*
X843250Y98383D01*
X844890Y96743D01*
X844890Y93305D01*
X842459Y90874D01*
X839021Y90874D01*
G37*
%LPD*%
G36*
X809439Y31880D02*
X809439Y31880D01*
X809451Y31878D01*
X809560Y31899D01*
X809670Y31917D01*
X809680Y31923D01*
X809692Y31925D01*
X809789Y31981D01*
X809887Y32033D01*
X809895Y32041D01*
X809906Y32047D01*
X809980Y32130D01*
X810057Y32211D01*
X810062Y32222D01*
X810070Y32231D01*
X810113Y32333D01*
X810160Y32434D01*
X810161Y32446D01*
X810166Y32457D01*
X810175Y32568D01*
X810187Y32678D01*
X810185Y32690D01*
X810186Y32702D01*
X810159Y32810D01*
X810135Y32919D01*
X810129Y32929D01*
X810126Y32941D01*
X810043Y33086D01*
X809298Y34111D01*
X808581Y35518D01*
X808093Y37020D01*
X807962Y37847D01*
X817118Y37847D01*
X817138Y37850D01*
X817157Y37848D01*
X817259Y37870D01*
X817361Y37887D01*
X817378Y37896D01*
X817398Y37900D01*
X817487Y37953D01*
X817578Y38002D01*
X817592Y38016D01*
X817609Y38026D01*
X817676Y38105D01*
X817747Y38180D01*
X817756Y38198D01*
X817769Y38213D01*
X817807Y38309D01*
X817851Y38403D01*
X817853Y38423D01*
X817861Y38441D01*
X817879Y38608D01*
X817879Y40132D01*
X817876Y40152D01*
X817878Y40171D01*
X817856Y40273D01*
X817839Y40375D01*
X817830Y40392D01*
X817826Y40412D01*
X817773Y40501D01*
X817724Y40592D01*
X817710Y40606D01*
X817700Y40623D01*
X817621Y40690D01*
X817546Y40761D01*
X817528Y40770D01*
X817513Y40783D01*
X817417Y40822D01*
X817323Y40865D01*
X817303Y40867D01*
X817285Y40875D01*
X817118Y40893D01*
X807962Y40893D01*
X808093Y41720D01*
X808581Y43222D01*
X809298Y44629D01*
X810043Y45654D01*
X810048Y45664D01*
X810057Y45673D01*
X810103Y45773D01*
X810153Y45873D01*
X810155Y45885D01*
X810160Y45896D01*
X810172Y46006D01*
X810188Y46117D01*
X810186Y46129D01*
X810187Y46140D01*
X810164Y46249D01*
X810143Y46359D01*
X810138Y46369D01*
X810135Y46381D01*
X810078Y46477D01*
X810024Y46574D01*
X810015Y46582D01*
X810009Y46592D01*
X809924Y46664D01*
X809842Y46739D01*
X809831Y46744D01*
X809822Y46752D01*
X809718Y46794D01*
X809617Y46838D01*
X809605Y46839D01*
X809594Y46844D01*
X809427Y46862D01*
X791055Y46862D01*
X790984Y46851D01*
X790912Y46849D01*
X790863Y46831D01*
X790812Y46823D01*
X790749Y46789D01*
X790681Y46764D01*
X790641Y46732D01*
X790595Y46707D01*
X790545Y46655D01*
X790489Y46611D01*
X790461Y46567D01*
X790425Y46529D01*
X790395Y46464D01*
X790356Y46404D01*
X790344Y46353D01*
X790322Y46306D01*
X790314Y46235D01*
X790296Y46165D01*
X790300Y46113D01*
X790295Y46062D01*
X790310Y45991D01*
X790315Y45920D01*
X790336Y45872D01*
X790347Y45821D01*
X790384Y45760D01*
X790412Y45694D01*
X790457Y45638D01*
X790473Y45610D01*
X790491Y45595D01*
X790517Y45563D01*
X803979Y32101D01*
X804053Y32048D01*
X804122Y31988D01*
X804152Y31976D01*
X804178Y31957D01*
X804265Y31930D01*
X804350Y31896D01*
X804391Y31892D01*
X804413Y31885D01*
X804446Y31886D01*
X804517Y31878D01*
X809427Y31878D01*
X809439Y31880D01*
G37*
%LPC*%
G36*
X715831Y186350D02*
X715831Y186350D01*
X713400Y188781D01*
X713400Y192219D01*
X713770Y192589D01*
X713823Y192663D01*
X713883Y192732D01*
X713895Y192762D01*
X713914Y192789D01*
X713941Y192876D01*
X713975Y192960D01*
X713979Y193001D01*
X713986Y193024D01*
X713985Y193056D01*
X713993Y193127D01*
X713993Y199148D01*
X713979Y199238D01*
X713971Y199329D01*
X713959Y199359D01*
X713954Y199391D01*
X713911Y199471D01*
X713875Y199555D01*
X713849Y199587D01*
X713838Y199608D01*
X713815Y199630D01*
X713770Y199686D01*
X713400Y200056D01*
X713400Y203494D01*
X715831Y205925D01*
X719269Y205925D01*
X721700Y203494D01*
X721700Y200056D01*
X721330Y199686D01*
X721277Y199612D01*
X721217Y199543D01*
X721205Y199513D01*
X721186Y199486D01*
X721159Y199399D01*
X721125Y199315D01*
X721121Y199274D01*
X721114Y199251D01*
X721115Y199219D01*
X721107Y199148D01*
X721107Y193127D01*
X721121Y193037D01*
X721129Y192946D01*
X721141Y192916D01*
X721146Y192884D01*
X721189Y192804D01*
X721225Y192720D01*
X721251Y192688D01*
X721262Y192667D01*
X721285Y192645D01*
X721330Y192589D01*
X721700Y192219D01*
X721700Y188781D01*
X719269Y186350D01*
X715831Y186350D01*
G37*
%LPD*%
%LPC*%
G36*
X1188676Y54609D02*
X1188676Y54609D01*
X1186249Y55615D01*
X1184391Y57473D01*
X1183385Y59900D01*
X1183385Y62528D01*
X1184391Y64955D01*
X1186249Y66813D01*
X1188676Y67819D01*
X1191304Y67819D01*
X1193731Y66813D01*
X1195589Y64955D01*
X1196595Y62528D01*
X1196595Y59900D01*
X1195589Y57473D01*
X1193731Y55615D01*
X1191304Y54609D01*
X1188676Y54609D01*
G37*
%LPD*%
%LPC*%
G36*
X1163276Y54609D02*
X1163276Y54609D01*
X1160849Y55615D01*
X1158991Y57473D01*
X1157985Y59900D01*
X1157985Y62528D01*
X1158991Y64955D01*
X1160849Y66813D01*
X1163276Y67819D01*
X1165904Y67819D01*
X1168331Y66813D01*
X1170189Y64955D01*
X1171195Y62528D01*
X1171195Y59900D01*
X1170189Y57473D01*
X1168331Y55615D01*
X1165904Y54609D01*
X1163276Y54609D01*
G37*
%LPD*%
%LPC*%
G36*
X878585Y305053D02*
X878585Y305053D01*
X878585Y315698D01*
X879932Y315484D01*
X881767Y314888D01*
X883486Y314013D01*
X885047Y312878D01*
X886410Y311515D01*
X887545Y309954D01*
X888420Y308235D01*
X889016Y306400D01*
X889230Y305053D01*
X878585Y305053D01*
G37*
%LPD*%
%LPC*%
G36*
X878585Y302007D02*
X878585Y302007D01*
X889230Y302007D01*
X889016Y300660D01*
X888420Y298825D01*
X887545Y297106D01*
X886410Y295545D01*
X885047Y294182D01*
X883486Y293047D01*
X881767Y292172D01*
X879932Y291576D01*
X878585Y291362D01*
X878585Y302007D01*
G37*
%LPD*%
%LPC*%
G36*
X864894Y305053D02*
X864894Y305053D01*
X865108Y306400D01*
X865704Y308235D01*
X866579Y309954D01*
X867714Y311515D01*
X869077Y312878D01*
X870638Y314013D01*
X872357Y314888D01*
X874192Y315484D01*
X875539Y315698D01*
X875539Y305053D01*
X864894Y305053D01*
G37*
%LPD*%
%LPC*%
G36*
X874192Y291576D02*
X874192Y291576D01*
X872357Y292172D01*
X870638Y293047D01*
X869077Y294182D01*
X867714Y295545D01*
X866579Y297106D01*
X865704Y298825D01*
X865108Y300660D01*
X864894Y302007D01*
X875539Y302007D01*
X875539Y291362D01*
X874192Y291576D01*
G37*
%LPD*%
%LPC*%
G36*
X479723Y294633D02*
X479723Y294633D01*
X479723Y303271D01*
X482409Y303271D01*
X488361Y297319D01*
X488361Y294633D01*
X479723Y294633D01*
G37*
%LPD*%
%LPC*%
G36*
X403523Y40633D02*
X403523Y40633D01*
X403523Y49271D01*
X406209Y49271D01*
X412161Y43319D01*
X412161Y40633D01*
X403523Y40633D01*
G37*
%LPD*%
%LPC*%
G36*
X403523Y66033D02*
X403523Y66033D01*
X403523Y74671D01*
X406209Y74671D01*
X412161Y68719D01*
X412161Y66033D01*
X403523Y66033D01*
G37*
%LPD*%
%LPC*%
G36*
X403523Y294633D02*
X403523Y294633D01*
X403523Y303271D01*
X406209Y303271D01*
X412161Y297319D01*
X412161Y294633D01*
X403523Y294633D01*
G37*
%LPD*%
%LPC*%
G36*
X479723Y66033D02*
X479723Y66033D01*
X479723Y74671D01*
X482409Y74671D01*
X488361Y68719D01*
X488361Y66033D01*
X479723Y66033D01*
G37*
%LPD*%
%LPC*%
G36*
X468039Y66033D02*
X468039Y66033D01*
X468039Y68719D01*
X473991Y74671D01*
X476677Y74671D01*
X476677Y66033D01*
X468039Y66033D01*
G37*
%LPD*%
%LPC*%
G36*
X391839Y294633D02*
X391839Y294633D01*
X391839Y297319D01*
X397791Y303271D01*
X400477Y303271D01*
X400477Y294633D01*
X391839Y294633D01*
G37*
%LPD*%
%LPC*%
G36*
X391839Y66033D02*
X391839Y66033D01*
X391839Y68719D01*
X397791Y74671D01*
X400477Y74671D01*
X400477Y66033D01*
X391839Y66033D01*
G37*
%LPD*%
%LPC*%
G36*
X391839Y40633D02*
X391839Y40633D01*
X391839Y43319D01*
X397791Y49271D01*
X400477Y49271D01*
X400477Y40633D01*
X391839Y40633D01*
G37*
%LPD*%
%LPC*%
G36*
X468039Y294633D02*
X468039Y294633D01*
X468039Y297319D01*
X473991Y303271D01*
X476677Y303271D01*
X476677Y294633D01*
X468039Y294633D01*
G37*
%LPD*%
%LPC*%
G36*
X403523Y28949D02*
X403523Y28949D01*
X403523Y37587D01*
X412161Y37587D01*
X412161Y34901D01*
X406209Y28949D01*
X403523Y28949D01*
G37*
%LPD*%
%LPC*%
G36*
X403523Y54349D02*
X403523Y54349D01*
X403523Y62987D01*
X412161Y62987D01*
X412161Y60301D01*
X406209Y54349D01*
X403523Y54349D01*
G37*
%LPD*%
%LPC*%
G36*
X479723Y282949D02*
X479723Y282949D01*
X479723Y291587D01*
X488361Y291587D01*
X488361Y288901D01*
X482409Y282949D01*
X479723Y282949D01*
G37*
%LPD*%
%LPC*%
G36*
X403523Y282949D02*
X403523Y282949D01*
X403523Y291587D01*
X412161Y291587D01*
X412161Y288901D01*
X406209Y282949D01*
X403523Y282949D01*
G37*
%LPD*%
%LPC*%
G36*
X479723Y54349D02*
X479723Y54349D01*
X479723Y62987D01*
X488361Y62987D01*
X488361Y60301D01*
X482409Y54349D01*
X479723Y54349D01*
G37*
%LPD*%
%LPC*%
G36*
X397791Y28949D02*
X397791Y28949D01*
X391839Y34901D01*
X391839Y37587D01*
X400477Y37587D01*
X400477Y28949D01*
X397791Y28949D01*
G37*
%LPD*%
%LPC*%
G36*
X397791Y282949D02*
X397791Y282949D01*
X391839Y288901D01*
X391839Y291587D01*
X400477Y291587D01*
X400477Y282949D01*
X397791Y282949D01*
G37*
%LPD*%
%LPC*%
G36*
X397791Y54349D02*
X397791Y54349D01*
X391839Y60301D01*
X391839Y62987D01*
X400477Y62987D01*
X400477Y54349D01*
X397791Y54349D01*
G37*
%LPD*%
%LPC*%
G36*
X473991Y282949D02*
X473991Y282949D01*
X468039Y288901D01*
X468039Y291587D01*
X476677Y291587D01*
X476677Y282949D01*
X473991Y282949D01*
G37*
%LPD*%
%LPC*%
G36*
X473991Y54349D02*
X473991Y54349D01*
X468039Y60301D01*
X468039Y62987D01*
X476677Y62987D01*
X476677Y54349D01*
X473991Y54349D01*
G37*
%LPD*%
%LPC*%
G36*
X921003Y40893D02*
X921003Y40893D01*
X921003Y49288D01*
X921830Y49157D01*
X923332Y48669D01*
X924739Y47952D01*
X926017Y47023D01*
X927133Y45907D01*
X928062Y44629D01*
X928779Y43222D01*
X929267Y41720D01*
X929398Y40893D01*
X921003Y40893D01*
G37*
%LPD*%
%LPC*%
G36*
X971803Y40893D02*
X971803Y40893D01*
X971803Y49288D01*
X972630Y49157D01*
X974132Y48669D01*
X975539Y47952D01*
X976817Y47023D01*
X977933Y45907D01*
X978862Y44629D01*
X979579Y43222D01*
X980067Y41720D01*
X980198Y40893D01*
X971803Y40893D01*
G37*
%LPD*%
%LPC*%
G36*
X921003Y37847D02*
X921003Y37847D01*
X929398Y37847D01*
X929267Y37020D01*
X928779Y35518D01*
X928062Y34111D01*
X927133Y32833D01*
X926017Y31717D01*
X924739Y30788D01*
X923332Y30071D01*
X921830Y29583D01*
X921003Y29452D01*
X921003Y37847D01*
G37*
%LPD*%
%LPC*%
G36*
X971803Y37847D02*
X971803Y37847D01*
X980198Y37847D01*
X980067Y37020D01*
X979579Y35518D01*
X978862Y34111D01*
X977933Y32833D01*
X976817Y31717D01*
X975539Y30788D01*
X974132Y30071D01*
X972630Y29583D01*
X971803Y29452D01*
X971803Y37847D01*
G37*
%LPD*%
%LPC*%
G36*
X960362Y40893D02*
X960362Y40893D01*
X960493Y41720D01*
X960981Y43222D01*
X961698Y44629D01*
X962627Y45907D01*
X963743Y47023D01*
X965021Y47952D01*
X966428Y48669D01*
X967930Y49157D01*
X968757Y49288D01*
X968757Y40893D01*
X960362Y40893D01*
G37*
%LPD*%
%LPC*%
G36*
X909562Y40893D02*
X909562Y40893D01*
X909693Y41720D01*
X910181Y43222D01*
X910898Y44629D01*
X911827Y45907D01*
X912943Y47023D01*
X914221Y47952D01*
X915628Y48669D01*
X917130Y49157D01*
X917957Y49288D01*
X917957Y40893D01*
X909562Y40893D01*
G37*
%LPD*%
%LPC*%
G36*
X917130Y29583D02*
X917130Y29583D01*
X915628Y30071D01*
X914221Y30788D01*
X912943Y31717D01*
X911827Y32833D01*
X910898Y34111D01*
X910181Y35518D01*
X909693Y37020D01*
X909562Y37847D01*
X917957Y37847D01*
X917957Y29452D01*
X917130Y29583D01*
G37*
%LPD*%
%LPC*%
G36*
X967930Y29583D02*
X967930Y29583D01*
X966428Y30071D01*
X965021Y30788D01*
X963743Y31717D01*
X962627Y32833D01*
X961698Y34111D01*
X960981Y35518D01*
X960493Y37020D01*
X960362Y37847D01*
X968757Y37847D01*
X968757Y29452D01*
X967930Y29583D01*
G37*
%LPD*%
%LPC*%
G36*
X19303Y234187D02*
X19303Y234187D01*
X19303Y242196D01*
X20040Y242079D01*
X21485Y241610D01*
X22839Y240920D01*
X24068Y240027D01*
X25143Y238952D01*
X26036Y237723D01*
X26726Y236369D01*
X27195Y234924D01*
X27312Y234187D01*
X19303Y234187D01*
G37*
%LPD*%
%LPC*%
G36*
X19303Y231141D02*
X19303Y231141D01*
X27312Y231141D01*
X27195Y230404D01*
X26726Y228959D01*
X26036Y227605D01*
X25143Y226376D01*
X24068Y225301D01*
X22839Y224408D01*
X21485Y223718D01*
X20040Y223249D01*
X19303Y223132D01*
X19303Y231141D01*
G37*
%LPD*%
%LPC*%
G36*
X8248Y234187D02*
X8248Y234187D01*
X8365Y234924D01*
X8834Y236369D01*
X9524Y237723D01*
X10417Y238952D01*
X11492Y240027D01*
X12721Y240920D01*
X14075Y241610D01*
X15520Y242079D01*
X16257Y242196D01*
X16257Y234187D01*
X8248Y234187D01*
G37*
%LPD*%
%LPC*%
G36*
X15520Y223249D02*
X15520Y223249D01*
X14075Y223718D01*
X12721Y224408D01*
X11492Y225301D01*
X10417Y226376D01*
X9524Y227605D01*
X8834Y228959D01*
X8365Y230404D01*
X8248Y231141D01*
X16257Y231141D01*
X16257Y223132D01*
X15520Y223249D01*
G37*
%LPD*%
%LPC*%
G36*
X29171Y103631D02*
X29171Y103631D01*
X29171Y107942D01*
X29344Y108589D01*
X29679Y109168D01*
X30152Y109641D01*
X30731Y109976D01*
X31378Y110149D01*
X35189Y110149D01*
X35189Y103631D01*
X29171Y103631D01*
G37*
%LPD*%
%LPC*%
G36*
X38235Y94067D02*
X38235Y94067D01*
X38235Y100585D01*
X44253Y100585D01*
X44253Y96273D01*
X44080Y95627D01*
X43745Y95048D01*
X43272Y94575D01*
X42693Y94240D01*
X42046Y94067D01*
X38235Y94067D01*
G37*
%LPD*%
%LPC*%
G36*
X31378Y94067D02*
X31378Y94067D01*
X30731Y94240D01*
X30152Y94575D01*
X29679Y95048D01*
X29344Y95627D01*
X29171Y96274D01*
X29171Y100585D01*
X35189Y100585D01*
X35189Y94067D01*
X31378Y94067D01*
G37*
%LPD*%
%LPC*%
G36*
X26543Y61213D02*
X26543Y61213D01*
X26543Y67231D01*
X30104Y67231D01*
X30751Y67058D01*
X31330Y66723D01*
X31803Y66250D01*
X32138Y65671D01*
X32311Y65024D01*
X32311Y61213D01*
X26543Y61213D01*
G37*
%LPD*%
%LPC*%
G36*
X17729Y61213D02*
X17729Y61213D01*
X17729Y65024D01*
X17902Y65671D01*
X18237Y66250D01*
X18710Y66723D01*
X19289Y67058D01*
X19936Y67231D01*
X23497Y67231D01*
X23497Y61213D01*
X17729Y61213D01*
G37*
%LPD*%
%LPC*%
G36*
X26543Y52149D02*
X26543Y52149D01*
X26543Y58167D01*
X32311Y58167D01*
X32311Y54355D01*
X32138Y53709D01*
X31803Y53130D01*
X31330Y52657D01*
X30751Y52322D01*
X30104Y52149D01*
X26543Y52149D01*
G37*
%LPD*%
%LPC*%
G36*
X19936Y52149D02*
X19936Y52149D01*
X19289Y52322D01*
X18710Y52657D01*
X18237Y53130D01*
X17902Y53709D01*
X17729Y54355D01*
X17729Y58167D01*
X23497Y58167D01*
X23497Y52149D01*
X19936Y52149D01*
G37*
%LPD*%
%LPC*%
G36*
X68096Y63649D02*
X68096Y63649D01*
X67449Y63822D01*
X66870Y64157D01*
X66397Y64630D01*
X66062Y65209D01*
X65889Y65856D01*
X65889Y67879D01*
X69169Y67879D01*
X69169Y63649D01*
X68096Y63649D01*
G37*
%LPD*%
%LPC*%
G36*
X401999Y293109D02*
X401999Y293109D01*
X401999Y293111D01*
X402001Y293111D01*
X402001Y293109D01*
X401999Y293109D01*
G37*
%LPD*%
%LPC*%
G36*
X478199Y293109D02*
X478199Y293109D01*
X478199Y293111D01*
X478201Y293111D01*
X478201Y293109D01*
X478199Y293109D01*
G37*
%LPD*%
%LPC*%
G36*
X970279Y39369D02*
X970279Y39369D01*
X970279Y39371D01*
X970281Y39371D01*
X970281Y39369D01*
X970279Y39369D01*
G37*
%LPD*%
%LPC*%
G36*
X919479Y39369D02*
X919479Y39369D01*
X919479Y39371D01*
X919481Y39371D01*
X919481Y39369D01*
X919479Y39369D01*
G37*
%LPD*%
%LPC*%
G36*
X401999Y39109D02*
X401999Y39109D01*
X401999Y39111D01*
X402001Y39111D01*
X402001Y39109D01*
X401999Y39109D01*
G37*
%LPD*%
%LPC*%
G36*
X17779Y232663D02*
X17779Y232663D01*
X17779Y232665D01*
X17781Y232665D01*
X17781Y232663D01*
X17779Y232663D01*
G37*
%LPD*%
%LPC*%
G36*
X478199Y64509D02*
X478199Y64509D01*
X478199Y64511D01*
X478201Y64511D01*
X478201Y64509D01*
X478199Y64509D01*
G37*
%LPD*%
%LPC*%
G36*
X877061Y303529D02*
X877061Y303529D01*
X877061Y303531D01*
X877063Y303531D01*
X877063Y303529D01*
X877061Y303529D01*
G37*
%LPD*%
%LPC*%
G36*
X401999Y64509D02*
X401999Y64509D01*
X401999Y64511D01*
X402001Y64511D01*
X402001Y64509D01*
X401999Y64509D01*
G37*
%LPD*%
%LPC*%
G36*
X25019Y59689D02*
X25019Y59689D01*
X25019Y59691D01*
X25021Y59691D01*
X25021Y59689D01*
X25019Y59689D01*
G37*
%LPD*%
%LPC*%
G36*
X36711Y102107D02*
X36711Y102107D01*
X36711Y102109D01*
X36713Y102109D01*
X36713Y102107D01*
X36711Y102107D01*
G37*
%LPD*%
D10*
X79930Y76190D03*
D11*
X74930Y76140D03*
X69930Y76140D03*
X69930Y68640D03*
X74930Y68640D03*
X79930Y68640D03*
D12*
X24520Y77470D03*
X41520Y77470D03*
D13*
X41020Y59690D03*
X25020Y59690D03*
D12*
X53712Y102108D03*
X36712Y102108D03*
D14*
X224200Y39110D03*
D15*
X224200Y64510D03*
X249600Y39110D03*
X249600Y64510D03*
X275000Y39110D03*
X275000Y64510D03*
X300400Y39110D03*
X300400Y64510D03*
X325800Y39110D03*
X325800Y64510D03*
X351200Y39110D03*
X351200Y64510D03*
X376600Y39110D03*
X376600Y64510D03*
X402000Y39110D03*
X402000Y64510D03*
X427400Y39110D03*
X427400Y64510D03*
X452800Y39110D03*
X452800Y64510D03*
X478200Y39110D03*
X478200Y64510D03*
X503600Y39110D03*
X503600Y64510D03*
X529000Y39110D03*
X529000Y64510D03*
X554400Y39110D03*
X554400Y64510D03*
X579800Y39110D03*
X579800Y64510D03*
X605200Y39110D03*
X605200Y64510D03*
X630600Y39110D03*
X630600Y64510D03*
X656000Y39110D03*
X656000Y64510D03*
D14*
X224200Y293110D03*
D15*
X224200Y318510D03*
X249600Y293110D03*
X249600Y318510D03*
X275000Y293110D03*
X275000Y318510D03*
X300400Y293110D03*
X300400Y318510D03*
X325800Y293110D03*
X325800Y318510D03*
X351200Y293110D03*
X351200Y318510D03*
X376600Y293110D03*
X376600Y318510D03*
X402000Y293110D03*
X402000Y318510D03*
X427400Y293110D03*
X427400Y318510D03*
X452800Y293110D03*
X452800Y318510D03*
X478200Y293110D03*
X478200Y318510D03*
X503600Y293110D03*
X503600Y318510D03*
X529000Y293110D03*
X529000Y318510D03*
X554400Y293110D03*
X554400Y318510D03*
X579800Y293110D03*
X579800Y318510D03*
X605200Y293110D03*
X605200Y318510D03*
X630600Y293110D03*
X630600Y318510D03*
X656000Y293110D03*
X656000Y318510D03*
D16*
X995680Y64770D03*
X995680Y39370D03*
X970280Y64770D03*
X970280Y39370D03*
X944880Y64770D03*
X944880Y39370D03*
X919480Y64770D03*
X919480Y39370D03*
X894080Y64770D03*
X894080Y39370D03*
X868680Y64770D03*
X868680Y39370D03*
X843280Y64770D03*
X843280Y39370D03*
X817880Y64770D03*
X817880Y39370D03*
D17*
X928370Y139700D03*
X928370Y118110D03*
X910590Y139700D03*
X910590Y118110D03*
X746760Y16510D03*
X746760Y35560D03*
X886460Y175260D03*
X778510Y120650D03*
X767080Y134620D03*
X756920Y148590D03*
X731520Y125730D03*
X731520Y143510D03*
X731520Y161290D03*
X111760Y290830D03*
X111760Y307340D03*
X110490Y325120D03*
X110490Y341630D03*
X681990Y347980D03*
X702310Y340360D03*
X833120Y274320D03*
X774700Y299720D03*
X762000Y314960D03*
X749300Y328930D03*
X735330Y293370D03*
X735330Y312420D03*
X734060Y339090D03*
D18*
X17780Y172720D03*
X17780Y192786D03*
X17780Y212598D03*
X17780Y232664D03*
D19*
X44958Y136906D03*
X44958Y268478D03*
D20*
X1156145Y195199D02*
X1156145Y188341D01*
X1160717Y163271D02*
X1167575Y163271D01*
X1167575Y220269D02*
X1160717Y220269D01*
X1240715Y224765D02*
X1247573Y224765D01*
X1247573Y158775D02*
X1240715Y158775D01*
D21*
X1259078Y191770D03*
X1189228Y191770D03*
D22*
X1156208Y188214D03*
X1156208Y195326D03*
X1167638Y163322D03*
X1160780Y163322D03*
X1167638Y220218D03*
X1160780Y220218D03*
X1247648Y224790D03*
X1240790Y224790D03*
X1247648Y158750D03*
X1240790Y158750D03*
D23*
X1164590Y61214D03*
X1189990Y61214D03*
D24*
X927100Y303530D03*
X877062Y303530D03*
D25*
X1023620Y164338D03*
X1023620Y156210D03*
X1023620Y148082D03*
D26*
X68326Y29210D03*
X58674Y29210D03*
D27*
X36712Y87473D02*
X36712Y102108D01*
X33472Y68142D02*
X25020Y59690D01*
X33472Y84233D02*
X36712Y87473D01*
X33472Y84233D02*
X33472Y68142D01*
D28*
X1156145Y191770D02*
X1164146Y183769D01*
X1164146Y163271D01*
D29*
X229870Y193040D03*
X229870Y157480D03*
X318770Y157480D03*
X377190Y201930D03*
X453390Y203200D03*
X461010Y142240D03*
X535940Y139700D03*
X612140Y147320D03*
X656590Y147320D03*
X618490Y201930D03*
X688340Y201930D03*
X692150Y177800D03*
X727710Y104140D03*
X742950Y91440D03*
X800100Y43180D03*
X777240Y26670D03*
X889000Y16510D03*
X961390Y17780D03*
X1027430Y20320D03*
X1102360Y20320D03*
X1069340Y48260D03*
X1243330Y71120D03*
X1250950Y118110D03*
X1036320Y118110D03*
X966470Y175260D03*
X965200Y218440D03*
X1010920Y219710D03*
X1007110Y308610D03*
X1116330Y309880D03*
X1115060Y218440D03*
X1238250Y267970D03*
X1198880Y271780D03*
X1150620Y271780D03*
X1082040Y270510D03*
X831850Y308610D03*
X811530Y276860D03*
X847090Y213360D03*
X95250Y317500D03*
X92710Y204470D03*
X107950Y43180D03*
X104140Y73660D03*
X33020Y43180D03*
X60960Y49530D03*
X58420Y80010D03*
X38100Y167640D03*
X708660Y261620D03*
X722630Y269240D03*
X775970Y227330D03*
X200660Y53340D03*
D27*
X214890Y39110D01*
X224200Y39110D01*
X53712Y102108D02*
X44958Y110862D01*
X44958Y136906D01*
D30*
X41520Y80890D02*
X41520Y77470D01*
D31*
X41020Y59690D02*
X42290Y58420D01*
X74930Y58420D02*
X77499Y58420D01*
X74930Y58420D02*
X42290Y58420D01*
X41520Y77470D02*
X41020Y77970D01*
X41020Y59690D01*
D27*
X41020Y46864D02*
X58674Y29210D01*
X41020Y46864D02*
X41020Y59690D01*
D29*
X86360Y59690D03*
D27*
X85090Y58420D01*
X74930Y58420D01*
X79930Y63420D01*
X79930Y68640D01*
D28*
X275000Y318510D02*
X258230Y335280D01*
X120650Y335280D02*
X110490Y325120D01*
X120650Y335280D02*
X258230Y335280D01*
X993902Y148082D02*
X1023620Y148082D01*
X993902Y148082D02*
X993140Y147320D01*
D29*
X993140Y147320D03*
X709930Y293370D03*
D28*
X709930Y331470D02*
X717550Y339090D01*
X709930Y331470D02*
X709930Y293370D01*
D29*
X717550Y339090D03*
D28*
X702310Y340360D02*
X490220Y340360D01*
X478200Y328340D02*
X478200Y318510D01*
X478200Y328340D02*
X490220Y340360D01*
X134620Y330200D02*
X111760Y307340D01*
X237910Y330200D02*
X249600Y318510D01*
X237910Y330200D02*
X134620Y330200D01*
X139440Y318510D02*
X224200Y318510D01*
X139440Y318510D02*
X111760Y290830D01*
X110490Y341630D02*
X277280Y341630D01*
X300400Y318510D01*
D29*
X521970Y255496D03*
D28*
X476476Y255496D01*
X474980Y254000D01*
D29*
X474980Y254000D03*
D28*
X469900Y347980D02*
X681990Y347980D01*
X452800Y330880D02*
X452800Y318510D01*
X452800Y330880D02*
X469900Y347980D01*
X1020953Y161671D02*
X1023620Y164338D01*
X987834Y149518D02*
X987834Y145122D01*
X1009650Y123306D01*
X999987Y161671D02*
X1020953Y161671D01*
X999987Y161671D02*
X987834Y149518D01*
D29*
X1009650Y27940D03*
D28*
X1009650Y123306D01*
D31*
X24520Y77470D02*
X17780Y84210D01*
X17780Y172720D01*
D28*
X731520Y161290D02*
X740410Y170180D01*
D29*
X740410Y170180D03*
D28*
X756920Y148590D02*
X756920Y196850D01*
X762000Y201930D01*
D29*
X762000Y201930D03*
X716280Y81958D03*
D28*
X716280Y73770D01*
X716054Y73544D01*
X716054Y53566D01*
X718820Y50800D01*
X777240Y50800D01*
X882510Y39370D02*
X894080Y39370D01*
X882510Y39370D02*
X869302Y26162D01*
X801878Y26162D01*
X777240Y50800D01*
X927100Y116840D02*
X928370Y118110D01*
X927100Y116840D02*
X920750Y116840D01*
X919924Y116014D01*
X919924Y114244D01*
X894080Y50940D02*
X894080Y39370D01*
X894080Y50940D02*
X903859Y60719D01*
X903859Y98179D02*
X919924Y114244D01*
X903859Y98179D02*
X903859Y60719D01*
D29*
X784860Y60960D03*
D28*
X814070Y60960D01*
X817880Y64770D01*
X754380Y43180D02*
X746760Y35560D01*
X754380Y43180D02*
X773430Y43180D01*
D29*
X773430Y43180D03*
X840740Y124460D03*
D28*
X840740Y95024D01*
D29*
X840740Y95024D03*
X826770Y147320D03*
D28*
X854710Y175260D01*
X886460Y175260D01*
D29*
X769620Y73830D03*
D28*
X802810Y73830D01*
X803910Y74930D01*
X858520Y74930D01*
X868680Y64770D01*
D29*
X869950Y90170D03*
D28*
X869950Y135890D01*
X873760Y139700D02*
X910590Y139700D01*
X873760Y139700D02*
X869950Y135890D01*
D29*
X781050Y80010D03*
D28*
X878840Y80010D01*
X894080Y64770D01*
X928370Y133350D02*
X928370Y139700D01*
X916876Y121856D02*
X916876Y115506D01*
X894080Y92710D02*
X894080Y64770D01*
X894080Y92710D02*
X916876Y115506D01*
X916876Y121856D02*
X928370Y133350D01*
X745716Y172378D02*
X744220Y173874D01*
X745716Y157706D02*
X731520Y143510D01*
X745716Y157706D02*
X745716Y172378D01*
D29*
X744220Y201930D03*
D28*
X744220Y173874D01*
X750570Y144780D02*
X731520Y125730D01*
X750570Y144780D02*
X750570Y196966D01*
X750796Y197192D01*
X750796Y206503D02*
X753745Y209452D01*
D29*
X753745Y209452D03*
D28*
X750796Y206503D02*
X750796Y197192D01*
X770890Y138430D02*
X767080Y134620D01*
X770890Y138430D02*
X770890Y207010D01*
D29*
X770890Y207010D03*
D28*
X778510Y203200D02*
X778510Y120650D01*
D29*
X778510Y203200D03*
X920750Y193040D03*
X843280Y190500D03*
D27*
X901700Y193040D02*
X920750Y193040D01*
X901700Y193040D02*
X845820Y193040D01*
X843280Y190500D01*
X893508Y184848D02*
X901700Y193040D01*
X893508Y184848D02*
X893508Y172341D01*
X884997Y163830D01*
X851862Y163830D02*
X801634Y113602D01*
X774002Y113602D02*
X773738Y113338D01*
D29*
X773738Y113338D03*
D27*
X851862Y163830D02*
X884997Y163830D01*
X801634Y113602D02*
X774002Y113602D01*
D28*
X833120Y274320D02*
X807720Y299720D01*
X800100Y299720D01*
D29*
X800100Y299720D03*
X708660Y213360D03*
D28*
X708660Y30480D01*
X698500Y20320D01*
X642620Y20320D01*
X630600Y32340D01*
X630600Y39110D01*
X768310Y293330D02*
X774700Y299720D01*
X768310Y293330D02*
X768310Y271203D01*
D29*
X768310Y271203D03*
X701040Y219710D03*
D28*
X703354Y211162D02*
X705543Y208973D01*
X703354Y217396D02*
X701040Y219710D01*
X703354Y217396D02*
X703354Y211162D01*
X705543Y208973D02*
X705543Y60383D01*
X626497Y49016D02*
X621931Y44450D01*
X626497Y49016D02*
X694176Y49016D01*
X610540Y44450D02*
X605200Y39110D01*
X694176Y49016D02*
X705543Y60383D01*
X621931Y44450D02*
X610540Y44450D01*
X762000Y277822D02*
X762000Y314960D01*
X762000Y277822D02*
X760422Y277822D01*
D29*
X760422Y277822D03*
X697596Y212456D03*
D28*
X702310Y207743D01*
X591191Y39110D02*
X579800Y39110D01*
X604145Y52064D02*
X692913Y52064D01*
X604145Y52064D02*
X591191Y39110D01*
X702310Y61461D02*
X702310Y207743D01*
X702310Y61461D02*
X692913Y52064D01*
X753110Y325120D02*
X749300Y328930D01*
X753110Y325120D02*
X753110Y288290D01*
D29*
X753110Y288290D03*
D28*
X746760Y281940D02*
X735330Y293370D01*
D29*
X746491Y270779D03*
D28*
X746760Y271047D02*
X746760Y281940D01*
X746760Y271047D02*
X746491Y270779D01*
D29*
X737657Y273050D03*
D28*
X729044Y290766D02*
X729044Y295974D01*
X735330Y302260D02*
X735330Y312420D01*
X735330Y302260D02*
X729044Y295974D01*
X737657Y282153D02*
X737657Y273050D01*
X737657Y282153D02*
X729044Y290766D01*
X734060Y320040D02*
X734060Y339090D01*
X729044Y304864D02*
X726818Y302638D01*
X729044Y315024D02*
X734060Y320040D01*
X729044Y315024D02*
X729044Y304864D01*
D29*
X726818Y302638D03*
X721360Y71346D03*
D28*
X735556Y57150D01*
X846709Y29591D02*
X847090Y29210D01*
X803254Y29591D02*
X775695Y57150D01*
X803254Y29591D02*
X846709Y29591D01*
X847090Y29210D02*
X858520Y29210D01*
X868680Y39370D01*
X775695Y57150D02*
X735556Y57150D01*
D29*
X881380Y91440D03*
D28*
X889000Y118110D02*
X910590Y118110D01*
X889000Y118110D02*
X881380Y110490D01*
X881380Y91440D01*
D29*
X770890Y66266D03*
D28*
X831710Y39370D02*
X843280Y39370D01*
X831710Y39370D02*
X821931Y49149D01*
X788007Y49149D02*
X770890Y66266D01*
X788007Y49149D02*
X821931Y49149D01*
X840740Y16510D02*
X746760Y16510D01*
X840740Y16510D02*
X843280Y19050D01*
D29*
X843280Y19050D03*
X1200150Y236220D03*
D28*
X1221740Y236220D01*
X1242060Y224765D02*
X1244144Y224765D01*
X1233195Y224765D02*
X1221740Y236220D01*
X1244144Y224765D02*
X1244144Y158775D01*
D30*
X1242060Y224765D02*
X1233195Y224765D01*
D29*
X1145822Y219710D03*
D28*
X1145822Y220269D01*
X1164146Y220269D01*
X1096010Y156210D02*
X1023620Y156210D01*
D29*
X1096010Y156210D03*
D27*
X214550Y29210D02*
X68326Y29210D01*
X214550Y29210D02*
X215318Y28442D01*
X289732Y28442D01*
X300400Y39110D01*
D28*
X25342Y212598D02*
X17780Y212598D01*
X78330Y159610D02*
X78330Y93570D01*
X78330Y159610D02*
X25342Y212598D01*
D32*
X78330Y93570D03*
X320040Y26670D03*
D28*
X79930Y76190D02*
X79930Y91970D01*
X78330Y93570D01*
X338760Y26670D02*
X351200Y39110D01*
X338760Y26670D02*
X320040Y26670D01*
X33274Y192786D02*
X17780Y192786D01*
X33274Y192786D02*
X73660Y152400D01*
X73660Y88900D01*
D32*
X73660Y88900D03*
X324710Y20730D03*
D28*
X74930Y76140D02*
X74930Y87630D01*
X73660Y88900D01*
D29*
X1102360Y143510D03*
D28*
X1101951Y143919D01*
X1101951Y166779D01*
X1023620Y245110D01*
X812800Y245110D01*
X811530Y243840D01*
D29*
X811530Y243840D03*
X717550Y190500D03*
X717550Y201775D03*
D28*
X717550Y200660D01*
D31*
X717550Y190500D01*
M02*
