G04 EAGLE Gerber RS-274X export*
G75*
%MOMM*%
%FSLAX34Y34*%
%LPD*%
%IN*%
%IPPOS*%
%AMOC8*
5,1,8,0,0,1.08239X$1,22.5*%
G01*
%ADD10C,0.254000*%


D10*
X0Y100000D02*
X404Y91263D01*
X1568Y82594D01*
X3484Y74060D01*
X6135Y65725D01*
X9503Y57653D01*
X13562Y49905D01*
X18281Y42540D01*
X23624Y35615D01*
X29549Y29182D01*
X36013Y23289D01*
X42966Y17983D01*
X50355Y13302D01*
X58124Y9284D01*
X66213Y5958D01*
X74562Y3349D01*
X83106Y1478D01*
X91781Y359D01*
X100520Y0D01*
X1175080Y0D01*
X1184027Y169D01*
X1192924Y1117D01*
X1201706Y2837D01*
X1210304Y5315D01*
X1218653Y8534D01*
X1226690Y12468D01*
X1234354Y17087D01*
X1241586Y22357D01*
X1248331Y28237D01*
X1254538Y34683D01*
X1260159Y41645D01*
X1265152Y49070D01*
X1269479Y56903D01*
X1273107Y65082D01*
X1276009Y73547D01*
X1278161Y82233D01*
X1279548Y91073D01*
X1280160Y100000D01*
X1280160Y255690D01*
X1279545Y264613D01*
X1278154Y273449D01*
X1275999Y282130D01*
X1273095Y290589D01*
X1269465Y298764D01*
X1265136Y306591D01*
X1260141Y314011D01*
X1254519Y320968D01*
X1248312Y327408D01*
X1241567Y333282D01*
X1234336Y338547D01*
X1226674Y343161D01*
X1218638Y347090D01*
X1210291Y350303D01*
X1201696Y352777D01*
X1192917Y354492D01*
X1184023Y355435D01*
X1175080Y355600D01*
X100520Y355600D01*
X91732Y355187D01*
X83013Y354011D01*
X74429Y352078D01*
X66047Y349405D01*
X57930Y346012D01*
X50139Y341924D01*
X42735Y337172D01*
X35772Y331793D01*
X29305Y325828D01*
X23382Y319322D01*
X18049Y312325D01*
X13346Y304889D01*
X9309Y297072D01*
X5969Y288933D01*
X3351Y280533D01*
X1475Y271937D01*
X355Y263211D01*
X0Y254420D01*
X0Y100000D01*
X82550Y305530D02*
X82479Y304451D01*
X82338Y303379D01*
X82127Y302319D01*
X81848Y301275D01*
X81500Y300251D01*
X81086Y299253D01*
X80608Y298283D01*
X80068Y297347D01*
X79467Y296448D01*
X78809Y295591D01*
X78097Y294778D01*
X77332Y294014D01*
X76519Y293301D01*
X75662Y292643D01*
X74763Y292042D01*
X73827Y291502D01*
X72857Y291024D01*
X71859Y290610D01*
X70835Y290262D01*
X69791Y289983D01*
X68731Y289772D01*
X67659Y289631D01*
X66580Y289560D01*
X65500Y289560D01*
X64421Y289631D01*
X63349Y289772D01*
X62289Y289983D01*
X61245Y290262D01*
X60221Y290610D01*
X59223Y291024D01*
X58253Y291502D01*
X57317Y292042D01*
X56418Y292643D01*
X55561Y293301D01*
X54748Y294014D01*
X53984Y294778D01*
X53271Y295591D01*
X52613Y296448D01*
X52012Y297347D01*
X51472Y298283D01*
X50994Y299253D01*
X50580Y300251D01*
X50232Y301275D01*
X49953Y302319D01*
X49742Y303379D01*
X49601Y304451D01*
X49530Y305530D01*
X49530Y306610D01*
X49601Y307689D01*
X49742Y308761D01*
X49953Y309821D01*
X50232Y310865D01*
X50580Y311889D01*
X50994Y312887D01*
X51472Y313857D01*
X52012Y314793D01*
X52613Y315692D01*
X53271Y316549D01*
X53984Y317362D01*
X54748Y318127D01*
X55561Y318839D01*
X56418Y319497D01*
X57317Y320098D01*
X58253Y320638D01*
X59223Y321116D01*
X60221Y321530D01*
X61245Y321878D01*
X62289Y322157D01*
X63349Y322368D01*
X64421Y322509D01*
X65500Y322580D01*
X66580Y322580D01*
X67659Y322509D01*
X68731Y322368D01*
X69791Y322157D01*
X70835Y321878D01*
X71859Y321530D01*
X72857Y321116D01*
X73827Y320638D01*
X74763Y320098D01*
X75662Y319497D01*
X76519Y318839D01*
X77332Y318127D01*
X78097Y317362D01*
X78809Y316549D01*
X79467Y315692D01*
X80068Y314793D01*
X80608Y313857D01*
X81086Y312887D01*
X81500Y311889D01*
X81848Y310865D01*
X82127Y309821D01*
X82338Y308761D01*
X82479Y307689D01*
X82550Y306610D01*
X82550Y305530D01*
X1202690Y305530D02*
X1202619Y304451D01*
X1202478Y303379D01*
X1202267Y302319D01*
X1201988Y301275D01*
X1201640Y300251D01*
X1201226Y299253D01*
X1200748Y298283D01*
X1200208Y297347D01*
X1199607Y296448D01*
X1198949Y295591D01*
X1198237Y294778D01*
X1197472Y294014D01*
X1196659Y293301D01*
X1195802Y292643D01*
X1194903Y292042D01*
X1193967Y291502D01*
X1192997Y291024D01*
X1191999Y290610D01*
X1190975Y290262D01*
X1189931Y289983D01*
X1188871Y289772D01*
X1187799Y289631D01*
X1186720Y289560D01*
X1185640Y289560D01*
X1184561Y289631D01*
X1183489Y289772D01*
X1182429Y289983D01*
X1181385Y290262D01*
X1180361Y290610D01*
X1179363Y291024D01*
X1178393Y291502D01*
X1177457Y292042D01*
X1176558Y292643D01*
X1175701Y293301D01*
X1174888Y294014D01*
X1174124Y294778D01*
X1173411Y295591D01*
X1172753Y296448D01*
X1172152Y297347D01*
X1171612Y298283D01*
X1171134Y299253D01*
X1170720Y300251D01*
X1170372Y301275D01*
X1170093Y302319D01*
X1169882Y303379D01*
X1169741Y304451D01*
X1169670Y305530D01*
X1169670Y306610D01*
X1169741Y307689D01*
X1169882Y308761D01*
X1170093Y309821D01*
X1170372Y310865D01*
X1170720Y311889D01*
X1171134Y312887D01*
X1171612Y313857D01*
X1172152Y314793D01*
X1172753Y315692D01*
X1173411Y316549D01*
X1174124Y317362D01*
X1174888Y318127D01*
X1175701Y318839D01*
X1176558Y319497D01*
X1177457Y320098D01*
X1178393Y320638D01*
X1179363Y321116D01*
X1180361Y321530D01*
X1181385Y321878D01*
X1182429Y322157D01*
X1183489Y322368D01*
X1184561Y322509D01*
X1185640Y322580D01*
X1186720Y322580D01*
X1187799Y322509D01*
X1188871Y322368D01*
X1189931Y322157D01*
X1190975Y321878D01*
X1191999Y321530D01*
X1192997Y321116D01*
X1193967Y320638D01*
X1194903Y320098D01*
X1195802Y319497D01*
X1196659Y318839D01*
X1197472Y318127D01*
X1198237Y317362D01*
X1198949Y316549D01*
X1199607Y315692D01*
X1200208Y314793D01*
X1200748Y313857D01*
X1201226Y312887D01*
X1201640Y311889D01*
X1201988Y310865D01*
X1202267Y309821D01*
X1202478Y308761D01*
X1202619Y307689D01*
X1202690Y306610D01*
X1202690Y305530D01*
M02*
