G04 EAGLE Gerber RS-274X export*
G75*
%MOMM*%
%FSLAX34Y34*%
%LPD*%
%INSilkscreen Bottom*%
%IPPOS*%
%AMOC8*
5,1,8,0,0,1.08239X$1,22.5*%
G01*
%ADD10C,0.254000*%
%ADD11C,0.127000*%
%ADD12C,0.101600*%
%ADD13C,0.152400*%
%ADD14C,0.203200*%
%ADD15C,0.508000*%
%ADD16C,0.076200*%
%ADD17C,0.050800*%

G36*
X774927Y254891D02*
X774927Y254891D01*
X774929Y254890D01*
X774972Y254910D01*
X775016Y254928D01*
X775016Y254930D01*
X775018Y254931D01*
X775051Y255016D01*
X775051Y257556D01*
X775050Y257558D01*
X775051Y257560D01*
X775031Y257603D01*
X775013Y257647D01*
X775011Y257647D01*
X775010Y257649D01*
X774925Y257682D01*
X771115Y257682D01*
X771113Y257681D01*
X771111Y257682D01*
X771068Y257662D01*
X771024Y257644D01*
X771024Y257642D01*
X771022Y257641D01*
X770989Y257556D01*
X770989Y255016D01*
X770990Y255014D01*
X770989Y255012D01*
X771009Y254969D01*
X771027Y254925D01*
X771029Y254925D01*
X771030Y254923D01*
X771115Y254890D01*
X774925Y254890D01*
X774927Y254891D01*
G37*
G36*
X650467Y190121D02*
X650467Y190121D01*
X650469Y190120D01*
X650512Y190140D01*
X650556Y190158D01*
X650556Y190160D01*
X650558Y190161D01*
X650591Y190246D01*
X650591Y192786D01*
X650590Y192788D01*
X650591Y192790D01*
X650571Y192833D01*
X650553Y192877D01*
X650551Y192877D01*
X650550Y192879D01*
X650465Y192912D01*
X646655Y192912D01*
X646653Y192911D01*
X646651Y192912D01*
X646608Y192892D01*
X646564Y192874D01*
X646564Y192872D01*
X646562Y192871D01*
X646529Y192786D01*
X646529Y190246D01*
X646530Y190244D01*
X646529Y190242D01*
X646549Y190199D01*
X646567Y190155D01*
X646569Y190155D01*
X646570Y190153D01*
X646655Y190120D01*
X650465Y190120D01*
X650467Y190121D01*
G37*
G36*
X742427Y174119D02*
X742427Y174119D01*
X742429Y174118D01*
X742472Y174138D01*
X742516Y174156D01*
X742516Y174158D01*
X742518Y174159D01*
X742551Y174244D01*
X742551Y176784D01*
X742550Y176786D01*
X742551Y176788D01*
X742531Y176831D01*
X742513Y176875D01*
X742511Y176875D01*
X742510Y176877D01*
X742425Y176910D01*
X738615Y176910D01*
X738613Y176909D01*
X738611Y176910D01*
X738568Y176890D01*
X738524Y176872D01*
X738524Y176870D01*
X738522Y176869D01*
X738489Y176784D01*
X738489Y174244D01*
X738490Y174242D01*
X738489Y174240D01*
X738509Y174197D01*
X738527Y174153D01*
X738529Y174153D01*
X738530Y174151D01*
X738615Y174118D01*
X742425Y174118D01*
X742427Y174119D01*
G37*
G36*
X617967Y109349D02*
X617967Y109349D01*
X617969Y109348D01*
X618012Y109368D01*
X618056Y109386D01*
X618056Y109388D01*
X618058Y109389D01*
X618091Y109474D01*
X618091Y112014D01*
X618090Y112016D01*
X618091Y112018D01*
X618071Y112061D01*
X618053Y112105D01*
X618051Y112105D01*
X618050Y112107D01*
X617965Y112140D01*
X614155Y112140D01*
X614153Y112139D01*
X614151Y112140D01*
X614108Y112120D01*
X614064Y112102D01*
X614064Y112100D01*
X614062Y112099D01*
X614029Y112014D01*
X614029Y109474D01*
X614030Y109472D01*
X614029Y109470D01*
X614049Y109427D01*
X614067Y109383D01*
X614069Y109383D01*
X614070Y109381D01*
X614155Y109348D01*
X617965Y109348D01*
X617967Y109349D01*
G37*
D10*
X414782Y51816D02*
X389382Y51816D01*
X363982Y51816D01*
X262382Y51816D01*
X236982Y51816D01*
X440182Y51816D02*
X440182Y125476D01*
X440182Y51816D02*
X465582Y51816D01*
X490982Y51816D01*
X516382Y51816D01*
X567182Y51816D01*
X617982Y51816D01*
X643382Y51816D01*
X414782Y305816D02*
X389382Y305816D01*
X363982Y305816D01*
X313182Y305816D01*
X262382Y305816D01*
X414782Y305816D02*
X440182Y305816D01*
X465582Y305816D01*
X490982Y305816D01*
X516382Y305816D01*
X541782Y305816D01*
X617982Y305816D01*
X643382Y305816D01*
X236982Y51816D02*
X236982Y8890D01*
X414782Y5080D02*
X414782Y51816D01*
X567182Y51816D02*
X567182Y5080D01*
X643382Y8890D02*
X643382Y51816D01*
X617982Y51816D02*
X617982Y125476D01*
X567182Y125476D02*
X567182Y51816D01*
X516382Y51816D02*
X516382Y125476D01*
X414782Y125476D02*
X414782Y51816D01*
X262382Y51816D02*
X262382Y125476D01*
X262382Y232156D02*
X262382Y305816D01*
X313182Y305816D02*
X313182Y232156D01*
X363982Y232156D02*
X363982Y305816D01*
X414782Y305816D02*
X414782Y232156D01*
X363982Y305816D02*
X363982Y352806D01*
X414782Y352806D02*
X414782Y305816D01*
X643382Y305816D02*
X643382Y347726D01*
X541782Y352806D02*
X541782Y305816D01*
X516382Y305816D02*
X516382Y232156D01*
X617982Y232156D02*
X617982Y305816D01*
X465582Y125476D02*
X465582Y51816D01*
X465582Y232156D02*
X465582Y305816D01*
D11*
X528710Y12917D02*
X528710Y6985D01*
X528710Y12917D02*
X525744Y15883D01*
X522778Y12917D01*
X522778Y6985D01*
X522778Y11434D02*
X528710Y11434D01*
X519354Y6985D02*
X516389Y6985D01*
X517871Y6985D02*
X517871Y15883D01*
X516389Y15883D02*
X519354Y15883D01*
X513118Y15883D02*
X513118Y6985D01*
X507186Y6985D02*
X513118Y15883D01*
X507186Y15883D02*
X507186Y6985D01*
X494407Y9951D02*
X491441Y6985D01*
X494407Y9951D02*
X494407Y12917D01*
X491441Y15883D01*
X488170Y12917D02*
X485205Y15883D01*
X485205Y6985D01*
X488170Y6985D02*
X482239Y6985D01*
X478815Y6985D02*
X478815Y8468D01*
X477332Y8468D01*
X477332Y6985D01*
X478815Y6985D01*
X474138Y14400D02*
X472655Y15883D01*
X469689Y15883D01*
X468206Y14400D01*
X468206Y12917D01*
X469689Y11434D01*
X468206Y9951D01*
X468206Y8468D01*
X469689Y6985D01*
X472655Y6985D01*
X474138Y8468D01*
X474138Y9951D01*
X472655Y11434D01*
X474138Y12917D01*
X474138Y14400D01*
X472655Y11434D02*
X469689Y11434D01*
X464782Y9951D02*
X464782Y15883D01*
X464782Y9951D02*
X461817Y6985D01*
X458851Y9951D01*
X458851Y15883D01*
X452461Y9951D02*
X455427Y6985D01*
X452461Y9951D02*
X452461Y12917D01*
X455427Y15883D01*
D12*
X525393Y348969D02*
X532511Y348969D01*
X525393Y348969D02*
X525393Y345410D01*
X526579Y344224D01*
X528952Y344224D01*
X530138Y345410D01*
X530138Y348969D01*
X530138Y346597D02*
X532511Y344224D01*
X525393Y337926D02*
X526579Y336740D01*
X525393Y337926D02*
X525393Y340299D01*
X526579Y341485D01*
X527766Y341485D01*
X528952Y340299D01*
X528952Y337926D01*
X530138Y336740D01*
X531325Y336740D01*
X532511Y337926D01*
X532511Y340299D01*
X531325Y341485D01*
X532511Y331628D02*
X525393Y331628D01*
X525393Y329256D02*
X525393Y334001D01*
D13*
X432943Y96286D02*
X425486Y96286D01*
X421757Y92557D01*
X425486Y88829D01*
X432943Y88829D01*
X427350Y88829D02*
X427350Y96286D01*
X427350Y84592D02*
X427350Y77135D01*
X423622Y80864D02*
X431079Y80864D01*
X458343Y88829D02*
X458343Y96286D01*
X450886Y88829D01*
X449022Y88829D01*
X447157Y90693D01*
X447157Y94422D01*
X449022Y96286D01*
X449022Y84592D02*
X456479Y84592D01*
X449022Y84592D02*
X447157Y82728D01*
X447157Y78999D01*
X449022Y77135D01*
X456479Y77135D01*
X458343Y78999D01*
X458343Y82728D01*
X456479Y84592D01*
X449022Y77135D01*
X472557Y102387D02*
X474422Y100523D01*
X472557Y102387D02*
X472557Y106116D01*
X474422Y107980D01*
X481879Y107980D01*
X483743Y106116D01*
X483743Y102387D01*
X481879Y100523D01*
X478150Y100523D01*
X478150Y104251D01*
X483743Y96286D02*
X472557Y96286D01*
X483743Y88829D01*
X472557Y88829D01*
X472557Y84592D02*
X483743Y84592D01*
X483743Y78999D01*
X481879Y77135D01*
X474422Y77135D01*
X472557Y78999D01*
X472557Y84592D01*
D11*
X498466Y115123D02*
X505245Y115123D01*
X508635Y111734D01*
X505245Y108344D01*
X498466Y108344D01*
X498466Y102904D02*
X498466Y99514D01*
X498466Y102904D02*
X500161Y104599D01*
X506940Y104599D01*
X508635Y102904D01*
X508635Y99514D01*
X506940Y97820D01*
X500161Y97820D01*
X498466Y99514D01*
X498466Y94074D02*
X506940Y94074D01*
X508635Y92379D01*
X508635Y88990D01*
X506940Y87295D01*
X498466Y87295D01*
X498466Y80160D02*
X508635Y80160D01*
X498466Y83550D02*
X498466Y76770D01*
X523866Y99514D02*
X525561Y97820D01*
X523866Y99514D02*
X523866Y102904D01*
X525561Y104599D01*
X527256Y104599D01*
X528951Y102904D01*
X528951Y99514D01*
X530645Y97820D01*
X532340Y97820D01*
X534035Y99514D01*
X534035Y102904D01*
X532340Y104599D01*
X534035Y94074D02*
X523866Y94074D01*
X534035Y94074D02*
X534035Y88990D01*
X532340Y87295D01*
X525561Y87295D01*
X523866Y88990D01*
X523866Y94074D01*
X527256Y83550D02*
X534035Y83550D01*
X527256Y83550D02*
X523866Y80160D01*
X527256Y76770D01*
X534035Y76770D01*
X528951Y76770D02*
X528951Y83550D01*
X549266Y99514D02*
X550961Y97820D01*
X549266Y99514D02*
X549266Y102904D01*
X550961Y104599D01*
X552656Y104599D01*
X554351Y102904D01*
X554351Y99514D01*
X556045Y97820D01*
X557740Y97820D01*
X559435Y99514D01*
X559435Y102904D01*
X557740Y104599D01*
X549266Y88990D02*
X550961Y87295D01*
X549266Y88990D02*
X549266Y92379D01*
X550961Y94074D01*
X557740Y94074D01*
X559435Y92379D01*
X559435Y88990D01*
X557740Y87295D01*
X559435Y83550D02*
X549266Y83550D01*
X559435Y83550D02*
X559435Y76770D01*
D13*
X574157Y92557D02*
X585343Y92557D01*
X574157Y88829D02*
X574157Y96286D01*
X574157Y84592D02*
X585343Y77135D01*
X585343Y84592D02*
X574157Y77135D01*
X599557Y96286D02*
X610743Y96286D01*
X599557Y96286D02*
X599557Y90693D01*
X601422Y88829D01*
X605150Y88829D01*
X607015Y90693D01*
X607015Y96286D01*
X607015Y92557D02*
X610743Y88829D01*
X610743Y77135D02*
X599557Y84592D01*
X599557Y77135D02*
X610743Y84592D01*
X636143Y88829D02*
X636143Y96286D01*
X628686Y88829D01*
X626822Y88829D01*
X624957Y90693D01*
X624957Y94422D01*
X626822Y96286D01*
X626822Y80864D02*
X624957Y77135D01*
X626822Y80864D02*
X630550Y84592D01*
X634279Y84592D01*
X636143Y82728D01*
X636143Y78999D01*
X634279Y77135D01*
X632415Y77135D01*
X630550Y78999D01*
X630550Y84592D01*
X398222Y100523D02*
X396357Y102387D01*
X396357Y106116D01*
X398222Y107980D01*
X405679Y107980D01*
X407543Y106116D01*
X407543Y102387D01*
X405679Y100523D01*
X401950Y100523D01*
X401950Y104251D01*
X407543Y96286D02*
X396357Y96286D01*
X407543Y88829D01*
X396357Y88829D01*
X396357Y84592D02*
X407543Y84592D01*
X407543Y78999D01*
X405679Y77135D01*
X398222Y77135D01*
X396357Y78999D01*
X396357Y84592D01*
D11*
X376551Y113607D02*
X376551Y120386D01*
X379940Y116996D02*
X373161Y116996D01*
X373161Y109861D02*
X371466Y108166D01*
X371466Y104777D01*
X373161Y103082D01*
X374856Y103082D01*
X376551Y104777D01*
X376551Y106472D01*
X376551Y104777D02*
X378245Y103082D01*
X379940Y103082D01*
X381635Y104777D01*
X381635Y108166D01*
X379940Y109861D01*
X379940Y99336D02*
X381635Y99336D01*
X379940Y99336D02*
X379940Y97642D01*
X381635Y97642D01*
X381635Y99336D01*
X373161Y94074D02*
X371466Y92379D01*
X371466Y88990D01*
X373161Y87295D01*
X374856Y87295D01*
X376551Y88990D01*
X376551Y90685D01*
X376551Y88990D02*
X378245Y87295D01*
X379940Y87295D01*
X381635Y88990D01*
X381635Y92379D01*
X379940Y94074D01*
X378245Y83550D02*
X371466Y83550D01*
X378245Y83550D02*
X381635Y80160D01*
X378245Y76770D01*
X371466Y76770D01*
D13*
X356743Y115776D02*
X345557Y115776D01*
X349286Y112047D01*
X345557Y108319D01*
X356743Y108319D01*
X345557Y102218D02*
X345557Y98489D01*
X345557Y102218D02*
X347422Y104082D01*
X354879Y104082D01*
X356743Y102218D01*
X356743Y98489D01*
X354879Y96625D01*
X347422Y96625D01*
X345557Y98489D01*
X345557Y86795D02*
X347422Y84931D01*
X345557Y86795D02*
X345557Y90524D01*
X347422Y92388D01*
X349286Y92388D01*
X351150Y90524D01*
X351150Y86795D01*
X353015Y84931D01*
X354879Y84931D01*
X356743Y86795D01*
X356743Y90524D01*
X354879Y92388D01*
X356743Y80694D02*
X356743Y76966D01*
X356743Y78830D02*
X345557Y78830D01*
X345557Y80694D02*
X345557Y76966D01*
X331343Y115776D02*
X320157Y115776D01*
X323886Y112047D01*
X320157Y108319D01*
X331343Y108319D01*
X331343Y104082D02*
X331343Y100354D01*
X331343Y102218D02*
X320157Y102218D01*
X320157Y104082D02*
X320157Y100354D01*
X320157Y90693D02*
X322022Y88829D01*
X320157Y90693D02*
X320157Y94422D01*
X322022Y96286D01*
X323886Y96286D01*
X325750Y94422D01*
X325750Y90693D01*
X327615Y88829D01*
X329479Y88829D01*
X331343Y90693D01*
X331343Y94422D01*
X329479Y96286D01*
X320157Y82728D02*
X320157Y78999D01*
X320157Y82728D02*
X322022Y84592D01*
X329479Y84592D01*
X331343Y82728D01*
X331343Y78999D01*
X329479Y77135D01*
X322022Y77135D01*
X320157Y78999D01*
D11*
X296961Y97820D02*
X295266Y99514D01*
X295266Y102904D01*
X296961Y104599D01*
X303740Y104599D01*
X305435Y102904D01*
X305435Y99514D01*
X303740Y97820D01*
X305435Y94074D02*
X295266Y94074D01*
X305435Y94074D02*
X305435Y87295D01*
X305435Y83550D02*
X295266Y83550D01*
X302045Y83550D02*
X295266Y76770D01*
X300351Y81855D02*
X305435Y76770D01*
D13*
X271222Y100523D02*
X269357Y102387D01*
X269357Y106116D01*
X271222Y107980D01*
X278679Y107980D01*
X280543Y106116D01*
X280543Y102387D01*
X278679Y100523D01*
X269357Y90693D02*
X271222Y88829D01*
X269357Y90693D02*
X269357Y94422D01*
X271222Y96286D01*
X273086Y96286D01*
X274950Y94422D01*
X274950Y90693D01*
X276815Y88829D01*
X278679Y88829D01*
X280543Y90693D01*
X280543Y94422D01*
X278679Y96286D01*
X278679Y84592D02*
X271222Y84592D01*
X269357Y82728D01*
X269357Y78999D01*
X271222Y77135D01*
X278679Y77135D01*
X280543Y78999D01*
X280543Y82728D01*
X278679Y84592D01*
X271222Y77135D01*
X245822Y96286D02*
X243957Y94422D01*
X243957Y90693D01*
X245822Y88829D01*
X247686Y88829D01*
X249550Y90693D01*
X251415Y88829D01*
X253279Y88829D01*
X255143Y90693D01*
X255143Y94422D01*
X253279Y96286D01*
X251415Y96286D01*
X249550Y94422D01*
X247686Y96286D01*
X245822Y96286D01*
X249550Y94422D02*
X249550Y90693D01*
X253279Y84592D02*
X255143Y82728D01*
X255143Y78999D01*
X253279Y77135D01*
X245822Y77135D01*
X243957Y78999D01*
X243957Y82728D01*
X245822Y84592D01*
X247686Y84592D01*
X249550Y82728D01*
X249550Y77135D01*
D11*
X228600Y119801D02*
X222668Y119801D01*
X219702Y116835D01*
X222668Y113869D01*
X228600Y113869D01*
X224151Y113869D02*
X224151Y119801D01*
X221185Y107480D02*
X219702Y104514D01*
X221185Y107480D02*
X224151Y110446D01*
X227117Y110446D01*
X228600Y108963D01*
X228600Y105997D01*
X227117Y104514D01*
X225634Y104514D01*
X224151Y105997D01*
X224151Y110446D01*
X228600Y101091D02*
X219702Y95159D01*
X221185Y91735D02*
X219702Y90253D01*
X219702Y87287D01*
X221185Y85804D01*
X222668Y85804D01*
X224151Y87287D01*
X225634Y85804D01*
X227117Y85804D01*
X228600Y87287D01*
X228600Y90253D01*
X227117Y91735D01*
X225634Y91735D01*
X224151Y90253D01*
X222668Y91735D01*
X221185Y91735D01*
X224151Y90253D02*
X224151Y87287D01*
X219702Y82380D02*
X219702Y76449D01*
X221185Y76449D01*
X227117Y82380D01*
X228600Y82380D01*
D13*
X497957Y344058D02*
X509143Y344058D01*
X503550Y349651D02*
X497957Y344058D01*
X503550Y342194D02*
X503550Y349651D01*
X509143Y332364D02*
X497957Y332364D01*
X503550Y337957D01*
X503550Y330500D01*
X483743Y344058D02*
X472557Y344058D01*
X478150Y349651D01*
X478150Y342194D01*
X474422Y334229D02*
X472557Y330500D01*
X474422Y334229D02*
X478150Y337957D01*
X481879Y337957D01*
X483743Y336093D01*
X483743Y332364D01*
X481879Y330500D01*
X480015Y330500D01*
X478150Y332364D01*
X478150Y337957D01*
X449022Y345922D02*
X447157Y342194D01*
X449022Y345922D02*
X452750Y349651D01*
X456479Y349651D01*
X458343Y347787D01*
X458343Y344058D01*
X456479Y342194D01*
X454615Y342194D01*
X452750Y344058D01*
X452750Y349651D01*
X458343Y332364D02*
X447157Y332364D01*
X452750Y337957D01*
X452750Y330500D01*
X432943Y344058D02*
X421757Y344058D01*
X427350Y349651D01*
X427350Y342194D01*
X421757Y337957D02*
X421757Y330500D01*
X423622Y330500D01*
X431079Y337957D01*
X432943Y337957D01*
X407543Y334228D02*
X396357Y334228D01*
X396357Y330500D02*
X396357Y337957D01*
X376550Y337957D02*
X376550Y330500D01*
X372822Y334228D02*
X380279Y334228D01*
X356743Y349651D02*
X345557Y349651D01*
X345557Y344058D01*
X347422Y342194D01*
X351150Y342194D01*
X353015Y344058D01*
X353015Y349651D01*
X356743Y337957D02*
X345557Y337957D01*
X345557Y332364D01*
X347422Y330500D01*
X349286Y330500D01*
X351150Y332364D01*
X353015Y330500D01*
X354879Y330500D01*
X356743Y332364D01*
X356743Y337957D01*
X351150Y337957D02*
X351150Y332364D01*
X320157Y342194D02*
X320157Y349651D01*
X325750Y349651D01*
X323886Y345922D01*
X323886Y344058D01*
X325750Y342194D01*
X329479Y342194D01*
X331343Y344058D01*
X331343Y347787D01*
X329479Y349651D01*
X331343Y337957D02*
X331343Y330500D01*
X331343Y337957D02*
X323886Y330500D01*
X322022Y330500D01*
X320157Y332364D01*
X320157Y336093D01*
X322022Y337957D01*
X296622Y345922D02*
X294757Y342194D01*
X296622Y345922D02*
X300350Y349651D01*
X304079Y349651D01*
X305943Y347787D01*
X305943Y344058D01*
X304079Y342194D01*
X302215Y342194D01*
X300350Y344058D01*
X300350Y349651D01*
X296622Y337957D02*
X304079Y337957D01*
X296622Y337957D02*
X294757Y336093D01*
X294757Y332364D01*
X296622Y330500D01*
X304079Y330500D01*
X305943Y332364D01*
X305943Y336093D01*
X304079Y337957D01*
X296622Y330500D01*
X269357Y342194D02*
X269357Y349651D01*
X274950Y349651D01*
X273086Y345922D01*
X273086Y344058D01*
X274950Y342194D01*
X278679Y342194D01*
X280543Y344058D01*
X280543Y347787D01*
X278679Y349651D01*
X269357Y337957D02*
X269357Y330500D01*
X271222Y330500D01*
X278679Y337957D01*
X280543Y337957D01*
D11*
X244466Y340660D02*
X244466Y347439D01*
X249551Y347439D01*
X247856Y344050D01*
X247856Y342355D01*
X249551Y340660D01*
X252940Y340660D01*
X254635Y342355D01*
X254635Y345744D01*
X252940Y347439D01*
X246161Y336915D02*
X244466Y335220D01*
X244466Y331830D01*
X246161Y330135D01*
X247856Y330135D01*
X249551Y331830D01*
X251245Y330135D01*
X252940Y330135D01*
X254635Y331830D01*
X254635Y335220D01*
X252940Y336915D01*
X251245Y336915D01*
X249551Y335220D01*
X247856Y336915D01*
X246161Y336915D01*
X249551Y335220D02*
X249551Y331830D01*
D13*
X193157Y312928D02*
X193157Y305471D01*
X193157Y312928D02*
X198750Y312928D01*
X196886Y309200D01*
X196886Y307335D01*
X198750Y305471D01*
X202479Y305471D01*
X204343Y307335D01*
X204343Y311064D01*
X202479Y312928D01*
X202479Y301234D02*
X204343Y299370D01*
X204343Y295641D01*
X202479Y293777D01*
X195022Y293777D01*
X193157Y295641D01*
X193157Y299370D01*
X195022Y301234D01*
X196886Y301234D01*
X198750Y299370D01*
X198750Y293777D01*
X548757Y330500D02*
X550622Y334228D01*
X554350Y337957D01*
X558079Y337957D01*
X559943Y336093D01*
X559943Y332364D01*
X558079Y330500D01*
X556215Y330500D01*
X554350Y332364D01*
X554350Y337957D01*
X574157Y336093D02*
X576022Y337957D01*
X574157Y336093D02*
X574157Y332364D01*
X576022Y330500D01*
X577886Y330500D01*
X579750Y332364D01*
X579750Y334228D01*
X579750Y332364D02*
X581615Y330500D01*
X583479Y330500D01*
X585343Y332364D01*
X585343Y336093D01*
X583479Y337957D01*
X610743Y337957D02*
X610743Y330500D01*
X610743Y337957D02*
X603286Y330500D01*
X601422Y330500D01*
X599557Y332364D01*
X599557Y336093D01*
X601422Y337957D01*
X624957Y337957D02*
X624957Y330500D01*
X624957Y337957D02*
X630550Y337957D01*
X628686Y334228D01*
X628686Y332364D01*
X630550Y330500D01*
X634279Y330500D01*
X636143Y332364D01*
X636143Y336093D01*
X634279Y337957D01*
D11*
X679868Y319405D02*
X685800Y319405D01*
X679868Y319405D02*
X676902Y316439D01*
X679868Y313473D01*
X685800Y313473D01*
X681351Y313473D02*
X681351Y319405D01*
X676902Y310050D02*
X676902Y304118D01*
X678385Y304118D01*
X684317Y310050D01*
X685800Y310050D01*
X682834Y300695D02*
X685800Y297729D01*
X682834Y300695D02*
X679868Y300695D01*
X676902Y297729D01*
X679868Y294458D02*
X676902Y291492D01*
X685800Y291492D01*
X685800Y294458D02*
X685800Y288526D01*
X685800Y285103D02*
X684317Y285103D01*
X684317Y283620D01*
X685800Y283620D01*
X685800Y285103D01*
X678385Y280425D02*
X676902Y278942D01*
X676902Y275976D01*
X678385Y274493D01*
X679868Y274493D01*
X681351Y275976D01*
X682834Y274493D01*
X684317Y274493D01*
X685800Y275976D01*
X685800Y278942D01*
X684317Y280425D01*
X682834Y280425D01*
X681351Y278942D01*
X679868Y280425D01*
X678385Y280425D01*
X681351Y278942D02*
X681351Y275976D01*
X685800Y271070D02*
X682834Y268104D01*
X679868Y268104D01*
X676902Y271070D01*
D10*
X668782Y305816D02*
X643382Y305816D01*
D11*
X228600Y281305D02*
X219702Y281305D01*
X219702Y276856D01*
X221185Y275373D01*
X224151Y275373D01*
X225634Y276856D01*
X225634Y281305D01*
X228600Y271950D02*
X219702Y271950D01*
X225634Y268984D02*
X228600Y271950D01*
X225634Y268984D02*
X228600Y266018D01*
X219702Y266018D01*
X219702Y262595D02*
X228600Y262595D01*
X222668Y259629D02*
X219702Y262595D01*
X222668Y259629D02*
X219702Y256663D01*
X228600Y256663D01*
X222668Y253239D02*
X219702Y250274D01*
X228600Y250274D01*
X228600Y253239D02*
X228600Y247308D01*
X228600Y243884D02*
X222668Y243884D01*
X219702Y240918D01*
X222668Y237953D01*
X228600Y237953D01*
X224151Y237953D02*
X224151Y243884D01*
D13*
X255143Y273721D02*
X255143Y281178D01*
X247686Y273721D01*
X245822Y273721D01*
X243957Y275585D01*
X243957Y279314D01*
X245822Y281178D01*
X245822Y269484D02*
X243957Y267620D01*
X243957Y263891D01*
X245822Y262027D01*
X247686Y262027D01*
X249550Y263891D01*
X249550Y265756D01*
X249550Y263891D02*
X251415Y262027D01*
X253279Y262027D01*
X255143Y263891D01*
X255143Y267620D01*
X253279Y269484D01*
X269357Y281178D02*
X280543Y281178D01*
X269357Y281178D02*
X269357Y275585D01*
X271222Y273721D01*
X274950Y273721D01*
X276815Y275585D01*
X276815Y281178D01*
X276815Y277450D02*
X280543Y273721D01*
X280543Y262027D02*
X269357Y269484D01*
X269357Y262027D02*
X280543Y269484D01*
X294757Y277450D02*
X305943Y277450D01*
X294757Y281178D02*
X294757Y273721D01*
X294757Y269484D02*
X305943Y262027D01*
X305943Y269484D02*
X294757Y262027D01*
D11*
X320666Y276221D02*
X322361Y274526D01*
X320666Y276221D02*
X320666Y279610D01*
X322361Y281305D01*
X324056Y281305D01*
X325751Y279610D01*
X325751Y276221D01*
X327445Y274526D01*
X329140Y274526D01*
X330835Y276221D01*
X330835Y279610D01*
X329140Y281305D01*
X320666Y265696D02*
X322361Y264001D01*
X320666Y265696D02*
X320666Y269086D01*
X322361Y270780D01*
X329140Y270780D01*
X330835Y269086D01*
X330835Y265696D01*
X329140Y264001D01*
X330835Y260256D02*
X320666Y260256D01*
X330835Y260256D02*
X330835Y253477D01*
X347761Y274526D02*
X346066Y276221D01*
X346066Y279610D01*
X347761Y281305D01*
X349456Y281305D01*
X351151Y279610D01*
X351151Y276221D01*
X352845Y274526D01*
X354540Y274526D01*
X356235Y276221D01*
X356235Y279610D01*
X354540Y281305D01*
X356235Y270780D02*
X346066Y270780D01*
X356235Y270780D02*
X356235Y265696D01*
X354540Y264001D01*
X347761Y264001D01*
X346066Y265696D01*
X346066Y270780D01*
X349456Y260256D02*
X356235Y260256D01*
X349456Y260256D02*
X346066Y256866D01*
X349456Y253477D01*
X356235Y253477D01*
X351151Y253477D02*
X351151Y260256D01*
D13*
X370957Y281178D02*
X378415Y281178D01*
X382143Y277450D01*
X378415Y273721D01*
X370957Y273721D01*
X370957Y267620D02*
X370957Y263891D01*
X370957Y267620D02*
X372822Y269484D01*
X380279Y269484D01*
X382143Y267620D01*
X382143Y263891D01*
X380279Y262027D01*
X372822Y262027D01*
X370957Y263891D01*
X370957Y257790D02*
X380279Y257790D01*
X382143Y255926D01*
X382143Y252197D01*
X380279Y250333D01*
X370957Y250333D01*
X370957Y242368D02*
X382143Y242368D01*
X370957Y246096D02*
X370957Y238639D01*
X398222Y273721D02*
X396357Y275585D01*
X396357Y279314D01*
X398222Y281178D01*
X405679Y281178D01*
X407543Y279314D01*
X407543Y275585D01*
X405679Y273721D01*
X401950Y273721D01*
X401950Y277450D01*
X407543Y269484D02*
X396357Y269484D01*
X407543Y262027D01*
X396357Y262027D01*
X396357Y257790D02*
X407543Y257790D01*
X407543Y252197D01*
X405679Y250333D01*
X398222Y250333D01*
X396357Y252197D01*
X396357Y257790D01*
X421757Y273721D02*
X423622Y277450D01*
X427350Y281178D01*
X431079Y281178D01*
X432943Y279314D01*
X432943Y275585D01*
X431079Y273721D01*
X429215Y273721D01*
X427350Y275585D01*
X427350Y281178D01*
X421757Y269484D02*
X421757Y262027D01*
X421757Y269484D02*
X427350Y269484D01*
X425486Y265756D01*
X425486Y263891D01*
X427350Y262027D01*
X431079Y262027D01*
X432943Y263891D01*
X432943Y267620D01*
X431079Y269484D01*
X458343Y273721D02*
X458343Y281178D01*
X450886Y273721D01*
X449022Y273721D01*
X447157Y275585D01*
X447157Y279314D01*
X449022Y281178D01*
X447157Y269484D02*
X447157Y262027D01*
X449022Y262027D01*
X456479Y269484D01*
X458343Y269484D01*
X472557Y275585D02*
X474422Y273721D01*
X472557Y275585D02*
X472557Y279314D01*
X474422Y281178D01*
X481879Y281178D01*
X483743Y279314D01*
X483743Y275585D01*
X481879Y273721D01*
X478150Y273721D01*
X478150Y277450D01*
X483743Y269484D02*
X472557Y269484D01*
X483743Y262027D01*
X472557Y262027D01*
X472557Y257790D02*
X483743Y257790D01*
X483743Y252197D01*
X481879Y250333D01*
X474422Y250333D01*
X472557Y252197D01*
X472557Y257790D01*
D11*
X503551Y274526D02*
X503551Y281305D01*
X506940Y277915D02*
X500161Y277915D01*
X500161Y270780D02*
X498466Y269086D01*
X498466Y265696D01*
X500161Y264001D01*
X501856Y264001D01*
X503551Y265696D01*
X503551Y267391D01*
X503551Y265696D02*
X505245Y264001D01*
X506940Y264001D01*
X508635Y265696D01*
X508635Y269086D01*
X506940Y270780D01*
X506940Y260256D02*
X508635Y260256D01*
X506940Y260256D02*
X506940Y258561D01*
X508635Y258561D01*
X508635Y260256D01*
X500161Y254994D02*
X498466Y253299D01*
X498466Y249909D01*
X500161Y248214D01*
X501856Y248214D01*
X503551Y249909D01*
X503551Y251604D01*
X503551Y249909D02*
X505245Y248214D01*
X506940Y248214D01*
X508635Y249909D01*
X508635Y253299D01*
X506940Y254994D01*
X505245Y244469D02*
X498466Y244469D01*
X505245Y244469D02*
X508635Y241079D01*
X505245Y237690D01*
X498466Y237690D01*
D13*
X523357Y281178D02*
X534543Y281178D01*
X527086Y277450D02*
X523357Y281178D01*
X527086Y277450D02*
X523357Y273721D01*
X534543Y273721D01*
X523357Y267620D02*
X523357Y263891D01*
X523357Y267620D02*
X525222Y269484D01*
X532679Y269484D01*
X534543Y267620D01*
X534543Y263891D01*
X532679Y262027D01*
X525222Y262027D01*
X523357Y263891D01*
X523357Y252197D02*
X525222Y250333D01*
X523357Y252197D02*
X523357Y255926D01*
X525222Y257790D01*
X527086Y257790D01*
X528950Y255926D01*
X528950Y252197D01*
X530815Y250333D01*
X532679Y250333D01*
X534543Y252197D01*
X534543Y255926D01*
X532679Y257790D01*
X534543Y246096D02*
X534543Y242368D01*
X534543Y244232D02*
X523357Y244232D01*
X523357Y246096D02*
X523357Y242368D01*
X548757Y281178D02*
X559943Y281178D01*
X552486Y277450D02*
X548757Y281178D01*
X552486Y277450D02*
X548757Y273721D01*
X559943Y273721D01*
X559943Y269484D02*
X559943Y265756D01*
X559943Y267620D02*
X548757Y267620D01*
X548757Y269484D02*
X548757Y265756D01*
X548757Y256095D02*
X550622Y254231D01*
X548757Y256095D02*
X548757Y259824D01*
X550622Y261688D01*
X552486Y261688D01*
X554350Y259824D01*
X554350Y256095D01*
X556215Y254231D01*
X558079Y254231D01*
X559943Y256095D01*
X559943Y259824D01*
X558079Y261688D01*
X548757Y248130D02*
X548757Y244401D01*
X548757Y248130D02*
X550622Y249994D01*
X558079Y249994D01*
X559943Y248130D01*
X559943Y244401D01*
X558079Y242537D01*
X550622Y242537D01*
X548757Y244401D01*
D11*
X576361Y274526D02*
X574666Y276221D01*
X574666Y279610D01*
X576361Y281305D01*
X583140Y281305D01*
X584835Y279610D01*
X584835Y276221D01*
X583140Y274526D01*
X584835Y270780D02*
X574666Y270780D01*
X584835Y270780D02*
X584835Y264001D01*
X584835Y260256D02*
X574666Y260256D01*
X581445Y260256D02*
X574666Y253477D01*
X579751Y258561D02*
X584835Y253477D01*
D13*
X601422Y273721D02*
X599557Y275585D01*
X599557Y279314D01*
X601422Y281178D01*
X608879Y281178D01*
X610743Y279314D01*
X610743Y275585D01*
X608879Y273721D01*
X599557Y263891D02*
X601422Y262027D01*
X599557Y263891D02*
X599557Y267620D01*
X601422Y269484D01*
X603286Y269484D01*
X605150Y267620D01*
X605150Y263891D01*
X607015Y262027D01*
X608879Y262027D01*
X610743Y263891D01*
X610743Y267620D01*
X608879Y269484D01*
X603286Y257790D02*
X599557Y254062D01*
X610743Y254062D01*
X610743Y257790D02*
X610743Y250333D01*
X624957Y275585D02*
X636143Y275585D01*
X630550Y281178D02*
X624957Y275585D01*
X630550Y273721D02*
X630550Y281178D01*
X624957Y269484D02*
X624957Y262027D01*
X624957Y269484D02*
X630550Y269484D01*
X628686Y265756D01*
X628686Y263891D01*
X630550Y262027D01*
X634279Y262027D01*
X636143Y263891D01*
X636143Y267620D01*
X634279Y269484D01*
D11*
X654468Y281305D02*
X660400Y281305D01*
X654468Y281305D02*
X651502Y278339D01*
X654468Y275373D01*
X660400Y275373D01*
X655951Y275373D02*
X655951Y281305D01*
X651502Y271950D02*
X651502Y266018D01*
X651502Y271950D02*
X655951Y271950D01*
X654468Y268984D01*
X654468Y267501D01*
X655951Y266018D01*
X658917Y266018D01*
X660400Y267501D01*
X660400Y270467D01*
X658917Y271950D01*
X660400Y262595D02*
X651502Y256663D01*
X652985Y253239D02*
X651502Y251757D01*
X651502Y248791D01*
X652985Y247308D01*
X654468Y247308D01*
X655951Y248791D01*
X657434Y247308D01*
X658917Y247308D01*
X660400Y248791D01*
X660400Y251757D01*
X658917Y253239D01*
X657434Y253239D01*
X655951Y251757D01*
X654468Y253239D01*
X652985Y253239D01*
X655951Y251757D02*
X655951Y248791D01*
X652985Y240918D02*
X651502Y237953D01*
X652985Y240918D02*
X655951Y243884D01*
X658917Y243884D01*
X660400Y242401D01*
X660400Y239435D01*
X658917Y237953D01*
X657434Y237953D01*
X655951Y239435D01*
X655951Y243884D01*
X244466Y27305D02*
X244466Y20526D01*
X244466Y27305D02*
X254635Y27305D01*
X254635Y20526D01*
X249551Y23915D02*
X249551Y27305D01*
X254635Y16780D02*
X244466Y16780D01*
X254635Y10001D01*
X244466Y10001D01*
D13*
X269357Y27178D02*
X276815Y27178D01*
X280543Y23450D01*
X276815Y19721D01*
X269357Y19721D01*
X269357Y15484D02*
X280543Y15484D01*
X269357Y15484D02*
X269357Y9891D01*
X271222Y8027D01*
X273086Y8027D01*
X274950Y9891D01*
X276815Y8027D01*
X278679Y8027D01*
X280543Y9891D01*
X280543Y15484D01*
X274950Y15484D02*
X274950Y9891D01*
X294757Y27178D02*
X302215Y27178D01*
X305943Y23450D01*
X302215Y19721D01*
X294757Y19721D01*
X305943Y15484D02*
X305943Y11756D01*
X305943Y13620D02*
X294757Y13620D01*
X294757Y15484D02*
X294757Y11756D01*
X325750Y19721D02*
X325750Y27178D01*
X351150Y27178D02*
X351150Y19721D01*
X347422Y23450D02*
X354879Y23450D01*
X382143Y23450D02*
X382143Y27178D01*
X382143Y25314D02*
X370957Y25314D01*
X370957Y27178D02*
X370957Y23450D01*
X370957Y19382D02*
X382143Y19382D01*
X382143Y13789D01*
X380279Y11925D01*
X372822Y11925D01*
X370957Y13789D01*
X370957Y19382D01*
D12*
X398393Y23873D02*
X399579Y22687D01*
X398393Y23873D02*
X398393Y26246D01*
X399579Y27432D01*
X404325Y27432D01*
X405511Y26246D01*
X405511Y23873D01*
X404325Y22687D01*
X401952Y22687D01*
X401952Y25059D01*
X405511Y19948D02*
X398393Y19948D01*
X405511Y15202D01*
X398393Y15202D01*
X398393Y12464D02*
X405511Y12464D01*
X405511Y8905D01*
X404325Y7718D01*
X399579Y7718D01*
X398393Y8905D01*
X398393Y12464D01*
D13*
X427350Y19721D02*
X427350Y27178D01*
X449022Y27178D02*
X456479Y27178D01*
X449022Y27178D02*
X447157Y25314D01*
X447157Y21585D01*
X449022Y19721D01*
X456479Y19721D01*
X458343Y21585D01*
X458343Y25314D01*
X456479Y27178D01*
X449022Y19721D01*
X472557Y23450D02*
X476286Y27178D01*
X472557Y23450D02*
X483743Y23450D01*
X483743Y27178D02*
X483743Y19721D01*
X509143Y19721D02*
X509143Y27178D01*
X501686Y19721D01*
X499822Y19721D01*
X497957Y21585D01*
X497957Y25314D01*
X499822Y27178D01*
X523357Y25314D02*
X525222Y27178D01*
X523357Y25314D02*
X523357Y21585D01*
X525222Y19721D01*
X527086Y19721D01*
X528950Y21585D01*
X528950Y23450D01*
X528950Y21585D02*
X530815Y19721D01*
X532679Y19721D01*
X534543Y21585D01*
X534543Y25314D01*
X532679Y27178D01*
X548757Y21585D02*
X559943Y21585D01*
X554350Y27178D02*
X548757Y21585D01*
X554350Y19721D02*
X554350Y27178D01*
X574157Y27178D02*
X574157Y19721D01*
X576022Y19721D01*
X583479Y27178D01*
X585343Y27178D01*
X599557Y21585D02*
X610743Y21585D01*
X605150Y27178D02*
X599557Y21585D01*
X605150Y19721D02*
X605150Y27178D01*
X624957Y23450D02*
X628686Y27178D01*
X624957Y23450D02*
X636143Y23450D01*
X636143Y27178D02*
X636143Y19721D01*
X676392Y87421D02*
X687578Y87421D01*
X676392Y87421D02*
X676392Y81828D01*
X678257Y79964D01*
X681985Y79964D01*
X683850Y81828D01*
X683850Y87421D01*
X680121Y75727D02*
X676392Y71999D01*
X687578Y71999D01*
X687578Y75727D02*
X687578Y68270D01*
X687578Y64033D02*
X685714Y64033D01*
X685714Y62169D01*
X687578Y62169D01*
X687578Y64033D01*
X680121Y58186D02*
X676392Y54458D01*
X687578Y54458D01*
X687578Y58186D02*
X687578Y50729D01*
X685714Y46492D02*
X678257Y46492D01*
X676392Y44628D01*
X676392Y40899D01*
X678257Y39035D01*
X685714Y39035D01*
X687578Y40899D01*
X687578Y44628D01*
X685714Y46492D01*
X678257Y39035D01*
D11*
X660400Y119801D02*
X651502Y119801D01*
X651502Y115352D01*
X652985Y113869D01*
X655951Y113869D01*
X657434Y115352D01*
X657434Y119801D01*
X660400Y110446D02*
X651502Y110446D01*
X657434Y107480D02*
X660400Y110446D01*
X657434Y107480D02*
X660400Y104514D01*
X651502Y104514D01*
X651502Y101091D02*
X660400Y101091D01*
X654468Y98125D02*
X651502Y101091D01*
X654468Y98125D02*
X651502Y95159D01*
X660400Y95159D01*
X658917Y91735D02*
X652985Y91735D01*
X651502Y90253D01*
X651502Y87287D01*
X652985Y85804D01*
X658917Y85804D01*
X660400Y87287D01*
X660400Y90253D01*
X658917Y91735D01*
X652985Y85804D01*
X654468Y82380D02*
X660400Y82380D01*
X654468Y82380D02*
X651502Y79414D01*
X654468Y76449D01*
X660400Y76449D01*
X655951Y76449D02*
X655951Y82380D01*
D13*
X201250Y73602D02*
X193792Y73602D01*
X201250Y73602D02*
X204978Y69873D01*
X201250Y66145D01*
X193792Y66145D01*
X204978Y61908D02*
X204978Y58180D01*
X204978Y60044D02*
X193792Y60044D01*
X193792Y61908D02*
X193792Y58180D01*
X193792Y54112D02*
X204978Y54112D01*
X204978Y46655D02*
X193792Y54112D01*
X193792Y46655D02*
X204978Y46655D01*
D11*
X621960Y15883D02*
X621960Y6985D01*
X621960Y15883D02*
X617512Y15883D01*
X616029Y14400D01*
X616029Y11434D01*
X617512Y9951D01*
X621960Y9951D01*
X612605Y6985D02*
X612605Y15883D01*
X608156Y15883D01*
X606673Y14400D01*
X606673Y11434D01*
X608156Y9951D01*
X612605Y9951D01*
X609639Y9951D02*
X606673Y6985D01*
X603250Y8468D02*
X603250Y15883D01*
X603250Y8468D02*
X601767Y6985D01*
X598801Y6985D01*
X597318Y8468D01*
X597318Y15883D01*
X593895Y14400D02*
X593895Y8468D01*
X593895Y14400D02*
X592412Y15883D01*
X589446Y15883D01*
X587963Y14400D01*
X587963Y8468D01*
X589446Y6985D01*
X592412Y6985D01*
X593895Y8468D01*
X587963Y14400D01*
X611165Y341630D02*
X611165Y350528D01*
X606717Y350528D01*
X605234Y349045D01*
X605234Y346079D01*
X606717Y344596D01*
X611165Y344596D01*
X601810Y341630D02*
X601810Y350528D01*
X597361Y350528D01*
X595878Y349045D01*
X595878Y346079D01*
X597361Y344596D01*
X601810Y344596D01*
X598844Y344596D02*
X595878Y341630D01*
X592455Y343113D02*
X592455Y350528D01*
X592455Y343113D02*
X590972Y341630D01*
X588006Y341630D01*
X586523Y343113D01*
X586523Y350528D01*
X583100Y349045D02*
X583100Y343113D01*
X583100Y349045D02*
X581617Y350528D01*
X578651Y350528D01*
X577168Y349045D01*
X577168Y343113D01*
X578651Y341630D01*
X581617Y341630D01*
X583100Y343113D01*
X577168Y349045D01*
X402018Y350528D02*
X402018Y341630D01*
X402018Y350528D02*
X397569Y350528D01*
X396086Y349045D01*
X396086Y347562D01*
X397569Y346079D01*
X396086Y344596D01*
X396086Y343113D01*
X397569Y341630D01*
X402018Y341630D01*
X402018Y346079D02*
X397569Y346079D01*
X392663Y347562D02*
X392663Y341630D01*
X392663Y347562D02*
X389697Y350528D01*
X386731Y347562D01*
X386731Y341630D01*
X386731Y346079D02*
X392663Y346079D01*
X380342Y341630D02*
X380342Y350528D01*
X383307Y350528D02*
X377376Y350528D01*
D10*
X668782Y305816D02*
X668782Y262636D01*
X668782Y232156D01*
X262382Y305816D02*
X236982Y305816D01*
X211582Y305816D01*
X211582Y51816D02*
X236982Y51816D01*
X211582Y51816D02*
X211582Y94996D01*
X211582Y125476D01*
X236982Y125476D02*
X262382Y125476D01*
X236982Y125476D02*
X211582Y125476D01*
X262382Y125476D02*
X363982Y125476D01*
X363982Y51816D01*
D11*
X298239Y119175D02*
X299722Y120658D01*
X302688Y120658D01*
X304171Y119175D01*
X304171Y117692D01*
X302688Y116209D01*
X299722Y116209D01*
X298239Y114726D01*
X298239Y113243D01*
X299722Y111760D01*
X302688Y111760D01*
X304171Y113243D01*
X294816Y111760D02*
X294816Y120658D01*
X290367Y120658D01*
X288884Y119175D01*
X288884Y116209D01*
X290367Y114726D01*
X294816Y114726D01*
X285461Y111760D02*
X282495Y111760D01*
X283978Y111760D02*
X283978Y120658D01*
X285461Y120658D02*
X282495Y120658D01*
X279224Y119175D02*
X279224Y113243D01*
X279224Y119175D02*
X277741Y120658D01*
X274775Y120658D01*
X273292Y119175D01*
X273292Y113243D01*
X274775Y111760D01*
X277741Y111760D01*
X279224Y113243D01*
X273292Y119175D01*
X359070Y15883D02*
X359070Y8468D01*
X357587Y6985D01*
X354622Y6985D01*
X353139Y8468D01*
X353139Y15883D01*
X345266Y15883D02*
X343783Y14400D01*
X345266Y15883D02*
X348232Y15883D01*
X349715Y14400D01*
X349715Y12917D01*
X348232Y11434D01*
X345266Y11434D01*
X343783Y9951D01*
X343783Y8468D01*
X345266Y6985D01*
X348232Y6985D01*
X349715Y8468D01*
X340360Y6985D02*
X340360Y15883D01*
X335911Y15883D01*
X334428Y14400D01*
X334428Y12917D01*
X335911Y11434D01*
X334428Y9951D01*
X334428Y8468D01*
X335911Y6985D01*
X340360Y6985D01*
X340360Y11434D02*
X335911Y11434D01*
X331005Y12917D02*
X328039Y15883D01*
X328039Y6985D01*
X331005Y6985D02*
X325073Y6985D01*
D10*
X389382Y125476D02*
X414782Y125476D01*
X389382Y125476D02*
X363982Y125476D01*
X414782Y125476D02*
X440182Y125476D01*
X465582Y125476D01*
X490982Y125476D01*
X516382Y125476D01*
X567182Y125476D01*
X617982Y125476D01*
X643382Y125476D01*
X668782Y125476D01*
X668782Y94996D02*
X668782Y51816D01*
X668782Y94996D02*
X668782Y125476D01*
X668782Y51816D02*
X643382Y51816D01*
X643382Y125476D01*
X668782Y94996D02*
X694182Y94996D01*
X694182Y42926D01*
D11*
X558171Y111760D02*
X555205Y111760D01*
X556688Y111760D02*
X556688Y120658D01*
X558171Y120658D02*
X555205Y120658D01*
X551934Y111760D02*
X546003Y111760D01*
X551934Y111760D02*
X546003Y117692D01*
X546003Y119175D01*
X547486Y120658D01*
X550452Y120658D01*
X551934Y119175D01*
X538130Y120658D02*
X536648Y119175D01*
X538130Y120658D02*
X541096Y120658D01*
X542579Y119175D01*
X542579Y113243D01*
X541096Y111760D01*
X538130Y111760D01*
X536648Y113243D01*
X533224Y111760D02*
X527292Y111760D01*
X533224Y111760D02*
X527292Y117692D01*
X527292Y119175D01*
X528775Y120658D01*
X531741Y120658D01*
X533224Y119175D01*
D10*
X211582Y94996D02*
X186182Y94996D01*
X186182Y42926D01*
D11*
X603674Y244270D02*
X605157Y245753D01*
X608123Y245753D01*
X609606Y244270D01*
X609606Y242787D01*
X608123Y241304D01*
X605157Y241304D01*
X603674Y239821D01*
X603674Y238338D01*
X605157Y236855D01*
X608123Y236855D01*
X609606Y238338D01*
X600251Y236855D02*
X600251Y245753D01*
X595802Y245753D01*
X594319Y244270D01*
X594319Y241304D01*
X595802Y239821D01*
X600251Y239821D01*
X590896Y236855D02*
X587930Y236855D01*
X589413Y236855D02*
X589413Y245753D01*
X590896Y245753D02*
X587930Y245753D01*
X584659Y242787D02*
X581693Y245753D01*
X581693Y236855D01*
X584659Y236855D02*
X578727Y236855D01*
D10*
X617982Y232156D02*
X516382Y232156D01*
X617982Y232156D02*
X643382Y232156D01*
X668782Y232156D01*
X490982Y232156D02*
X465582Y232156D01*
X490982Y232156D02*
X516382Y232156D01*
X440182Y232156D02*
X414782Y232156D01*
X440182Y232156D02*
X465582Y232156D01*
X389382Y232156D02*
X363982Y232156D01*
X389382Y232156D02*
X414782Y232156D01*
X363982Y232156D02*
X313182Y232156D01*
X262382Y232156D01*
X236982Y232156D02*
X211582Y232156D01*
X236982Y232156D02*
X262382Y232156D01*
X211582Y262636D02*
X211582Y305816D01*
X211582Y262636D02*
X211582Y232156D01*
X211582Y262636D02*
X186182Y262636D01*
X186182Y314706D01*
X516382Y305816D02*
X516382Y352806D01*
X236982Y125476D02*
X236982Y51816D01*
X643382Y232156D02*
X643382Y305816D01*
X490982Y305816D02*
X490982Y232156D01*
X440182Y232156D02*
X440182Y305816D01*
X389382Y305816D02*
X389382Y232156D01*
X236982Y232156D02*
X236982Y305816D01*
X668782Y262636D02*
X694182Y262636D01*
X694182Y314706D01*
D11*
X353066Y236855D02*
X350100Y236855D01*
X351583Y236855D02*
X351583Y245753D01*
X353066Y245753D02*
X350100Y245753D01*
X346829Y236855D02*
X340898Y236855D01*
X346829Y236855D02*
X340898Y242787D01*
X340898Y244270D01*
X342381Y245753D01*
X345347Y245753D01*
X346829Y244270D01*
X333025Y245753D02*
X331543Y244270D01*
X333025Y245753D02*
X335991Y245753D01*
X337474Y244270D01*
X337474Y238338D01*
X335991Y236855D01*
X333025Y236855D01*
X331543Y238338D01*
X328119Y242787D02*
X325153Y245753D01*
X325153Y236855D01*
X328119Y236855D02*
X322187Y236855D01*
X295740Y238338D02*
X295740Y245753D01*
X295740Y238338D02*
X294257Y236855D01*
X291291Y236855D01*
X289808Y238338D01*
X289808Y245753D01*
X281936Y245753D02*
X281936Y236855D01*
X286385Y241304D02*
X281936Y245753D01*
X280453Y241304D02*
X286385Y241304D01*
D14*
X705066Y117741D02*
X705066Y103251D01*
X705066Y117741D02*
X697821Y117741D01*
X695406Y115326D01*
X695406Y110496D01*
X697821Y108081D01*
X705066Y108081D01*
X689864Y112911D02*
X685034Y117741D01*
X685034Y103251D01*
X689864Y103251D02*
X680204Y103251D01*
X705066Y239776D02*
X705066Y254266D01*
X697821Y254266D01*
X695406Y251851D01*
X695406Y247021D01*
X697821Y244606D01*
X705066Y244606D01*
X689864Y239776D02*
X680204Y239776D01*
X689864Y239776D02*
X680204Y249436D01*
X680204Y251851D01*
X682619Y254266D01*
X687449Y254266D01*
X689864Y251851D01*
D10*
X490982Y125476D02*
X490982Y51816D01*
X389382Y51816D02*
X389382Y125476D01*
D11*
X601175Y120658D02*
X601175Y113243D01*
X599692Y111760D01*
X596726Y111760D01*
X595243Y113243D01*
X595243Y120658D01*
X591820Y119175D02*
X591820Y113243D01*
X591820Y119175D02*
X590337Y120658D01*
X587371Y120658D01*
X585888Y119175D01*
X585888Y113243D01*
X587371Y111760D01*
X590337Y111760D01*
X591820Y113243D01*
X585888Y119175D01*
D10*
X236982Y305816D02*
X236982Y326136D01*
D15*
X992378Y106680D02*
X992380Y106802D01*
X992386Y106924D01*
X992396Y107046D01*
X992409Y107167D01*
X992427Y107288D01*
X992448Y107408D01*
X992474Y107528D01*
X992503Y107646D01*
X992535Y107764D01*
X992572Y107881D01*
X992612Y107996D01*
X992656Y108110D01*
X992704Y108222D01*
X992755Y108333D01*
X992810Y108442D01*
X992868Y108550D01*
X992930Y108655D01*
X992995Y108758D01*
X993063Y108860D01*
X993135Y108959D01*
X993209Y109055D01*
X993287Y109150D01*
X993368Y109241D01*
X993451Y109331D01*
X993537Y109417D01*
X993627Y109500D01*
X993718Y109581D01*
X993813Y109659D01*
X993909Y109733D01*
X994008Y109805D01*
X994110Y109873D01*
X994213Y109938D01*
X994318Y110000D01*
X994426Y110058D01*
X994535Y110113D01*
X994646Y110164D01*
X994758Y110212D01*
X994872Y110256D01*
X994987Y110296D01*
X995104Y110333D01*
X995222Y110365D01*
X995340Y110394D01*
X995460Y110420D01*
X995580Y110441D01*
X995701Y110459D01*
X995822Y110472D01*
X995944Y110482D01*
X996066Y110488D01*
X996188Y110490D01*
X996310Y110488D01*
X996432Y110482D01*
X996554Y110472D01*
X996675Y110459D01*
X996796Y110441D01*
X996916Y110420D01*
X997036Y110394D01*
X997154Y110365D01*
X997272Y110333D01*
X997389Y110296D01*
X997504Y110256D01*
X997618Y110212D01*
X997730Y110164D01*
X997841Y110113D01*
X997950Y110058D01*
X998058Y110000D01*
X998163Y109938D01*
X998266Y109873D01*
X998368Y109805D01*
X998467Y109733D01*
X998563Y109659D01*
X998658Y109581D01*
X998749Y109500D01*
X998839Y109417D01*
X998925Y109331D01*
X999008Y109241D01*
X999089Y109150D01*
X999167Y109055D01*
X999241Y108959D01*
X999313Y108860D01*
X999381Y108758D01*
X999446Y108655D01*
X999508Y108550D01*
X999566Y108442D01*
X999621Y108333D01*
X999672Y108222D01*
X999720Y108110D01*
X999764Y107996D01*
X999804Y107881D01*
X999841Y107764D01*
X999873Y107646D01*
X999902Y107528D01*
X999928Y107408D01*
X999949Y107288D01*
X999967Y107167D01*
X999980Y107046D01*
X999990Y106924D01*
X999996Y106802D01*
X999998Y106680D01*
X999996Y106558D01*
X999990Y106436D01*
X999980Y106314D01*
X999967Y106193D01*
X999949Y106072D01*
X999928Y105952D01*
X999902Y105832D01*
X999873Y105714D01*
X999841Y105596D01*
X999804Y105479D01*
X999764Y105364D01*
X999720Y105250D01*
X999672Y105138D01*
X999621Y105027D01*
X999566Y104918D01*
X999508Y104810D01*
X999446Y104705D01*
X999381Y104602D01*
X999313Y104500D01*
X999241Y104401D01*
X999167Y104305D01*
X999089Y104210D01*
X999008Y104119D01*
X998925Y104029D01*
X998839Y103943D01*
X998749Y103860D01*
X998658Y103779D01*
X998563Y103701D01*
X998467Y103627D01*
X998368Y103555D01*
X998266Y103487D01*
X998163Y103422D01*
X998058Y103360D01*
X997950Y103302D01*
X997841Y103247D01*
X997730Y103196D01*
X997618Y103148D01*
X997504Y103104D01*
X997389Y103064D01*
X997272Y103027D01*
X997154Y102995D01*
X997036Y102966D01*
X996916Y102940D01*
X996796Y102919D01*
X996675Y102901D01*
X996554Y102888D01*
X996432Y102878D01*
X996310Y102872D01*
X996188Y102870D01*
X996066Y102872D01*
X995944Y102878D01*
X995822Y102888D01*
X995701Y102901D01*
X995580Y102919D01*
X995460Y102940D01*
X995340Y102966D01*
X995222Y102995D01*
X995104Y103027D01*
X994987Y103064D01*
X994872Y103104D01*
X994758Y103148D01*
X994646Y103196D01*
X994535Y103247D01*
X994426Y103302D01*
X994318Y103360D01*
X994213Y103422D01*
X994110Y103487D01*
X994008Y103555D01*
X993909Y103627D01*
X993813Y103701D01*
X993718Y103779D01*
X993627Y103860D01*
X993537Y103943D01*
X993451Y104029D01*
X993368Y104119D01*
X993287Y104210D01*
X993209Y104305D01*
X993135Y104401D01*
X993063Y104500D01*
X992995Y104602D01*
X992930Y104705D01*
X992868Y104810D01*
X992810Y104918D01*
X992755Y105027D01*
X992704Y105138D01*
X992656Y105250D01*
X992612Y105364D01*
X992572Y105479D01*
X992535Y105596D01*
X992503Y105714D01*
X992474Y105832D01*
X992448Y105952D01*
X992427Y106072D01*
X992409Y106193D01*
X992396Y106314D01*
X992386Y106436D01*
X992380Y106558D01*
X992378Y106680D01*
D13*
X722630Y194818D02*
X722630Y236982D01*
X803910Y236982D02*
X803910Y194818D01*
D16*
X803742Y186654D02*
X811708Y178689D01*
X811708Y186654D02*
X803742Y178689D01*
X807725Y178689D02*
X807725Y186654D01*
X803742Y182672D02*
X811708Y182672D01*
X815172Y217551D02*
X825129Y217551D01*
X815172Y217551D02*
X813181Y219542D01*
X813181Y223525D01*
X815172Y225516D01*
X825129Y225516D01*
X821146Y229245D02*
X825129Y233228D01*
X813181Y233228D01*
X813181Y237210D02*
X813181Y229245D01*
D13*
X598170Y172212D02*
X598170Y130048D01*
X679450Y130048D02*
X679450Y172212D01*
D16*
X679282Y121884D02*
X687248Y113919D01*
X687248Y121884D02*
X679282Y113919D01*
X683265Y113919D02*
X683265Y121884D01*
X679282Y117902D02*
X687248Y117902D01*
X691982Y138811D02*
X701939Y138811D01*
X691982Y138811D02*
X689991Y140802D01*
X689991Y144785D01*
X691982Y146776D01*
X701939Y146776D01*
X689991Y150505D02*
X689991Y158470D01*
X689991Y150505D02*
X697956Y158470D01*
X699948Y158470D01*
X701939Y156479D01*
X701939Y152496D01*
X699948Y150505D01*
D17*
X670476Y201384D02*
X669544Y202316D01*
X669544Y203249D01*
X670476Y204181D01*
X675137Y204181D01*
X675137Y203249D02*
X675137Y205113D01*
X675137Y206997D02*
X669544Y206997D01*
X675137Y206997D02*
X675137Y209794D01*
X674205Y210726D01*
X672340Y210726D01*
X671408Y209794D01*
X671408Y206997D01*
X673273Y212611D02*
X675137Y214475D01*
X669544Y214475D01*
X669544Y212611D02*
X669544Y216339D01*
D13*
X732790Y144780D02*
X732790Y119380D01*
X715010Y116840D02*
X714910Y116842D01*
X714811Y116848D01*
X714711Y116858D01*
X714613Y116871D01*
X714514Y116889D01*
X714417Y116910D01*
X714321Y116935D01*
X714225Y116964D01*
X714131Y116997D01*
X714038Y117033D01*
X713947Y117073D01*
X713857Y117117D01*
X713769Y117164D01*
X713683Y117214D01*
X713599Y117268D01*
X713517Y117325D01*
X713438Y117385D01*
X713360Y117449D01*
X713286Y117515D01*
X713214Y117584D01*
X713145Y117656D01*
X713079Y117730D01*
X713015Y117808D01*
X712955Y117887D01*
X712898Y117969D01*
X712844Y118053D01*
X712794Y118139D01*
X712747Y118227D01*
X712703Y118317D01*
X712663Y118408D01*
X712627Y118501D01*
X712594Y118595D01*
X712565Y118691D01*
X712540Y118787D01*
X712519Y118884D01*
X712501Y118983D01*
X712488Y119081D01*
X712478Y119181D01*
X712472Y119280D01*
X712470Y119380D01*
X712470Y144780D02*
X712472Y144880D01*
X712478Y144979D01*
X712488Y145079D01*
X712501Y145177D01*
X712519Y145276D01*
X712540Y145373D01*
X712565Y145469D01*
X712594Y145565D01*
X712627Y145659D01*
X712663Y145752D01*
X712703Y145843D01*
X712747Y145933D01*
X712794Y146021D01*
X712844Y146107D01*
X712898Y146191D01*
X712955Y146273D01*
X713015Y146352D01*
X713079Y146430D01*
X713145Y146504D01*
X713214Y146576D01*
X713286Y146645D01*
X713360Y146711D01*
X713438Y146775D01*
X713517Y146835D01*
X713599Y146892D01*
X713683Y146946D01*
X713769Y146996D01*
X713857Y147043D01*
X713947Y147087D01*
X714038Y147127D01*
X714131Y147163D01*
X714225Y147196D01*
X714321Y147225D01*
X714417Y147250D01*
X714514Y147271D01*
X714613Y147289D01*
X714711Y147302D01*
X714811Y147312D01*
X714910Y147318D01*
X715010Y147320D01*
X730250Y147320D02*
X730350Y147318D01*
X730449Y147312D01*
X730549Y147302D01*
X730647Y147289D01*
X730746Y147271D01*
X730843Y147250D01*
X730939Y147225D01*
X731035Y147196D01*
X731129Y147163D01*
X731222Y147127D01*
X731313Y147087D01*
X731403Y147043D01*
X731491Y146996D01*
X731577Y146946D01*
X731661Y146892D01*
X731743Y146835D01*
X731822Y146775D01*
X731900Y146711D01*
X731974Y146645D01*
X732046Y146576D01*
X732115Y146504D01*
X732181Y146430D01*
X732245Y146352D01*
X732305Y146273D01*
X732362Y146191D01*
X732416Y146107D01*
X732466Y146021D01*
X732513Y145933D01*
X732557Y145843D01*
X732597Y145752D01*
X732633Y145659D01*
X732666Y145565D01*
X732695Y145469D01*
X732720Y145373D01*
X732741Y145276D01*
X732759Y145177D01*
X732772Y145079D01*
X732782Y144979D01*
X732788Y144880D01*
X732790Y144780D01*
X732790Y119380D02*
X732788Y119280D01*
X732782Y119181D01*
X732772Y119081D01*
X732759Y118983D01*
X732741Y118884D01*
X732720Y118787D01*
X732695Y118691D01*
X732666Y118595D01*
X732633Y118501D01*
X732597Y118408D01*
X732557Y118317D01*
X732513Y118227D01*
X732466Y118139D01*
X732416Y118053D01*
X732362Y117969D01*
X732305Y117887D01*
X732245Y117808D01*
X732181Y117730D01*
X732115Y117656D01*
X732046Y117584D01*
X731974Y117515D01*
X731900Y117449D01*
X731822Y117385D01*
X731743Y117325D01*
X731661Y117268D01*
X731577Y117214D01*
X731491Y117164D01*
X731403Y117117D01*
X731313Y117073D01*
X731222Y117033D01*
X731129Y116997D01*
X731035Y116964D01*
X730939Y116935D01*
X730843Y116910D01*
X730746Y116889D01*
X730647Y116871D01*
X730549Y116858D01*
X730449Y116848D01*
X730350Y116842D01*
X730250Y116840D01*
X715010Y116840D01*
X715010Y147320D02*
X730250Y147320D01*
X712470Y144780D02*
X712470Y119380D01*
D11*
X706544Y124295D02*
X705739Y125100D01*
X705739Y125905D01*
X706544Y126710D01*
X710569Y126710D01*
X710569Y125905D02*
X710569Y127515D01*
X710569Y129908D02*
X705739Y129908D01*
X710569Y129908D02*
X710569Y132323D01*
X709764Y133128D01*
X708154Y133128D01*
X707349Y132323D01*
X707349Y129908D01*
X705739Y135522D02*
X705739Y138742D01*
X705739Y135522D02*
X708959Y138742D01*
X709764Y138742D01*
X710569Y137937D01*
X710569Y136327D01*
X709764Y135522D01*
D17*
X796206Y271234D02*
X795274Y272166D01*
X795274Y273099D01*
X796206Y274031D01*
X800867Y274031D01*
X800867Y273099D02*
X800867Y274963D01*
X800867Y276847D02*
X795274Y276847D01*
X800867Y276847D02*
X800867Y279644D01*
X799935Y280576D01*
X798070Y280576D01*
X797138Y279644D01*
X797138Y276847D01*
X799935Y282461D02*
X800867Y283393D01*
X800867Y285257D01*
X799935Y286189D01*
X799003Y286189D01*
X798070Y285257D01*
X798070Y284325D01*
X798070Y285257D02*
X797138Y286189D01*
X796206Y286189D01*
X795274Y285257D01*
X795274Y283393D01*
X796206Y282461D01*
D13*
X838200Y195580D02*
X838200Y170180D01*
X820420Y167640D02*
X820320Y167642D01*
X820221Y167648D01*
X820121Y167658D01*
X820023Y167671D01*
X819924Y167689D01*
X819827Y167710D01*
X819731Y167735D01*
X819635Y167764D01*
X819541Y167797D01*
X819448Y167833D01*
X819357Y167873D01*
X819267Y167917D01*
X819179Y167964D01*
X819093Y168014D01*
X819009Y168068D01*
X818927Y168125D01*
X818848Y168185D01*
X818770Y168249D01*
X818696Y168315D01*
X818624Y168384D01*
X818555Y168456D01*
X818489Y168530D01*
X818425Y168608D01*
X818365Y168687D01*
X818308Y168769D01*
X818254Y168853D01*
X818204Y168939D01*
X818157Y169027D01*
X818113Y169117D01*
X818073Y169208D01*
X818037Y169301D01*
X818004Y169395D01*
X817975Y169491D01*
X817950Y169587D01*
X817929Y169684D01*
X817911Y169783D01*
X817898Y169881D01*
X817888Y169981D01*
X817882Y170080D01*
X817880Y170180D01*
X817880Y195580D02*
X817882Y195680D01*
X817888Y195779D01*
X817898Y195879D01*
X817911Y195977D01*
X817929Y196076D01*
X817950Y196173D01*
X817975Y196269D01*
X818004Y196365D01*
X818037Y196459D01*
X818073Y196552D01*
X818113Y196643D01*
X818157Y196733D01*
X818204Y196821D01*
X818254Y196907D01*
X818308Y196991D01*
X818365Y197073D01*
X818425Y197152D01*
X818489Y197230D01*
X818555Y197304D01*
X818624Y197376D01*
X818696Y197445D01*
X818770Y197511D01*
X818848Y197575D01*
X818927Y197635D01*
X819009Y197692D01*
X819093Y197746D01*
X819179Y197796D01*
X819267Y197843D01*
X819357Y197887D01*
X819448Y197927D01*
X819541Y197963D01*
X819635Y197996D01*
X819731Y198025D01*
X819827Y198050D01*
X819924Y198071D01*
X820023Y198089D01*
X820121Y198102D01*
X820221Y198112D01*
X820320Y198118D01*
X820420Y198120D01*
X835660Y198120D02*
X835760Y198118D01*
X835859Y198112D01*
X835959Y198102D01*
X836057Y198089D01*
X836156Y198071D01*
X836253Y198050D01*
X836349Y198025D01*
X836445Y197996D01*
X836539Y197963D01*
X836632Y197927D01*
X836723Y197887D01*
X836813Y197843D01*
X836901Y197796D01*
X836987Y197746D01*
X837071Y197692D01*
X837153Y197635D01*
X837232Y197575D01*
X837310Y197511D01*
X837384Y197445D01*
X837456Y197376D01*
X837525Y197304D01*
X837591Y197230D01*
X837655Y197152D01*
X837715Y197073D01*
X837772Y196991D01*
X837826Y196907D01*
X837876Y196821D01*
X837923Y196733D01*
X837967Y196643D01*
X838007Y196552D01*
X838043Y196459D01*
X838076Y196365D01*
X838105Y196269D01*
X838130Y196173D01*
X838151Y196076D01*
X838169Y195977D01*
X838182Y195879D01*
X838192Y195779D01*
X838198Y195680D01*
X838200Y195580D01*
X838200Y170180D02*
X838198Y170080D01*
X838192Y169981D01*
X838182Y169881D01*
X838169Y169783D01*
X838151Y169684D01*
X838130Y169587D01*
X838105Y169491D01*
X838076Y169395D01*
X838043Y169301D01*
X838007Y169208D01*
X837967Y169117D01*
X837923Y169027D01*
X837876Y168939D01*
X837826Y168853D01*
X837772Y168769D01*
X837715Y168687D01*
X837655Y168608D01*
X837591Y168530D01*
X837525Y168456D01*
X837456Y168384D01*
X837384Y168315D01*
X837310Y168249D01*
X837232Y168185D01*
X837153Y168125D01*
X837071Y168068D01*
X836987Y168014D01*
X836901Y167964D01*
X836813Y167917D01*
X836723Y167873D01*
X836632Y167833D01*
X836539Y167797D01*
X836445Y167764D01*
X836349Y167735D01*
X836253Y167710D01*
X836156Y167689D01*
X836057Y167671D01*
X835959Y167658D01*
X835859Y167648D01*
X835760Y167642D01*
X835660Y167640D01*
X820420Y167640D01*
X820420Y198120D02*
X835660Y198120D01*
X817880Y195580D02*
X817880Y170180D01*
D11*
X840105Y165740D02*
X840910Y164935D01*
X840105Y165740D02*
X840105Y166545D01*
X840910Y167350D01*
X844935Y167350D01*
X844935Y166545D02*
X844935Y168155D01*
X844935Y170548D02*
X840105Y170548D01*
X844935Y170548D02*
X844935Y172964D01*
X844130Y173769D01*
X842520Y173769D01*
X841715Y172964D01*
X841715Y170548D01*
X840105Y178577D02*
X844935Y178577D01*
X842520Y176162D01*
X842520Y179382D01*
D15*
X17780Y114046D02*
X17902Y114044D01*
X18024Y114038D01*
X18146Y114028D01*
X18267Y114015D01*
X18388Y113997D01*
X18508Y113976D01*
X18628Y113950D01*
X18746Y113921D01*
X18864Y113889D01*
X18981Y113852D01*
X19096Y113812D01*
X19210Y113768D01*
X19322Y113720D01*
X19433Y113669D01*
X19542Y113614D01*
X19650Y113556D01*
X19755Y113494D01*
X19858Y113429D01*
X19960Y113361D01*
X20059Y113289D01*
X20155Y113215D01*
X20250Y113137D01*
X20341Y113056D01*
X20431Y112973D01*
X20517Y112887D01*
X20600Y112797D01*
X20681Y112706D01*
X20759Y112611D01*
X20833Y112515D01*
X20905Y112416D01*
X20973Y112314D01*
X21038Y112211D01*
X21100Y112106D01*
X21158Y111998D01*
X21213Y111889D01*
X21264Y111778D01*
X21312Y111666D01*
X21356Y111552D01*
X21396Y111437D01*
X21433Y111320D01*
X21465Y111202D01*
X21494Y111084D01*
X21520Y110964D01*
X21541Y110844D01*
X21559Y110723D01*
X21572Y110602D01*
X21582Y110480D01*
X21588Y110358D01*
X21590Y110236D01*
X21588Y110114D01*
X21582Y109992D01*
X21572Y109870D01*
X21559Y109749D01*
X21541Y109628D01*
X21520Y109508D01*
X21494Y109388D01*
X21465Y109270D01*
X21433Y109152D01*
X21396Y109035D01*
X21356Y108920D01*
X21312Y108806D01*
X21264Y108694D01*
X21213Y108583D01*
X21158Y108474D01*
X21100Y108366D01*
X21038Y108261D01*
X20973Y108158D01*
X20905Y108056D01*
X20833Y107957D01*
X20759Y107861D01*
X20681Y107766D01*
X20600Y107675D01*
X20517Y107585D01*
X20431Y107499D01*
X20341Y107416D01*
X20250Y107335D01*
X20155Y107257D01*
X20059Y107183D01*
X19960Y107111D01*
X19858Y107043D01*
X19755Y106978D01*
X19650Y106916D01*
X19542Y106858D01*
X19433Y106803D01*
X19322Y106752D01*
X19210Y106704D01*
X19096Y106660D01*
X18981Y106620D01*
X18864Y106583D01*
X18746Y106551D01*
X18628Y106522D01*
X18508Y106496D01*
X18388Y106475D01*
X18267Y106457D01*
X18146Y106444D01*
X18024Y106434D01*
X17902Y106428D01*
X17780Y106426D01*
X17658Y106428D01*
X17536Y106434D01*
X17414Y106444D01*
X17293Y106457D01*
X17172Y106475D01*
X17052Y106496D01*
X16932Y106522D01*
X16814Y106551D01*
X16696Y106583D01*
X16579Y106620D01*
X16464Y106660D01*
X16350Y106704D01*
X16238Y106752D01*
X16127Y106803D01*
X16018Y106858D01*
X15910Y106916D01*
X15805Y106978D01*
X15702Y107043D01*
X15600Y107111D01*
X15501Y107183D01*
X15405Y107257D01*
X15310Y107335D01*
X15219Y107416D01*
X15129Y107499D01*
X15043Y107585D01*
X14960Y107675D01*
X14879Y107766D01*
X14801Y107861D01*
X14727Y107957D01*
X14655Y108056D01*
X14587Y108158D01*
X14522Y108261D01*
X14460Y108366D01*
X14402Y108474D01*
X14347Y108583D01*
X14296Y108694D01*
X14248Y108806D01*
X14204Y108920D01*
X14164Y109035D01*
X14127Y109152D01*
X14095Y109270D01*
X14066Y109388D01*
X14040Y109508D01*
X14019Y109628D01*
X14001Y109749D01*
X13988Y109870D01*
X13978Y109992D01*
X13972Y110114D01*
X13970Y110236D01*
X13972Y110358D01*
X13978Y110480D01*
X13988Y110602D01*
X14001Y110723D01*
X14019Y110844D01*
X14040Y110964D01*
X14066Y111084D01*
X14095Y111202D01*
X14127Y111320D01*
X14164Y111437D01*
X14204Y111552D01*
X14248Y111666D01*
X14296Y111778D01*
X14347Y111889D01*
X14402Y111998D01*
X14460Y112106D01*
X14522Y112211D01*
X14587Y112314D01*
X14655Y112416D01*
X14727Y112515D01*
X14801Y112611D01*
X14879Y112706D01*
X14960Y112797D01*
X15043Y112887D01*
X15129Y112973D01*
X15219Y113056D01*
X15310Y113137D01*
X15405Y113215D01*
X15501Y113289D01*
X15600Y113361D01*
X15702Y113429D01*
X15805Y113494D01*
X15910Y113556D01*
X16018Y113614D01*
X16127Y113669D01*
X16238Y113720D01*
X16350Y113768D01*
X16464Y113812D01*
X16579Y113852D01*
X16696Y113889D01*
X16814Y113921D01*
X16932Y113950D01*
X17052Y113976D01*
X17172Y113997D01*
X17293Y114015D01*
X17414Y114028D01*
X17536Y114038D01*
X17658Y114044D01*
X17780Y114046D01*
D17*
X1157745Y116243D02*
X1158677Y115310D01*
X1158677Y113446D01*
X1157745Y112514D01*
X1154016Y112514D01*
X1153084Y113446D01*
X1153084Y115310D01*
X1154016Y116243D01*
X1153084Y118127D02*
X1153084Y121856D01*
X1153084Y118127D02*
X1156813Y121856D01*
X1157745Y121856D01*
X1158677Y120923D01*
X1158677Y119059D01*
X1157745Y118127D01*
D13*
X1113790Y139700D02*
X1080770Y139700D01*
X1080770Y172720D02*
X1113790Y172720D01*
D16*
X1126526Y168742D02*
X1134491Y176708D01*
X1126526Y176708D02*
X1134491Y168742D01*
X1134491Y172725D02*
X1126526Y172725D01*
X1130508Y168742D02*
X1130508Y176708D01*
D17*
X1102146Y111841D02*
X1101214Y110909D01*
X1102146Y111841D02*
X1104010Y111841D01*
X1104942Y110909D01*
X1104942Y107180D01*
X1104010Y106248D01*
X1102146Y106248D01*
X1101214Y107180D01*
X1099329Y109977D02*
X1097465Y111841D01*
X1097465Y106248D01*
X1099329Y106248D02*
X1095601Y106248D01*
X1065611Y98004D02*
X1064679Y98936D01*
X1065611Y98004D02*
X1065611Y96140D01*
X1064679Y95208D01*
X1060950Y95208D01*
X1060018Y96140D01*
X1060018Y98004D01*
X1060950Y98936D01*
X1064679Y100821D02*
X1065611Y101753D01*
X1065611Y103617D01*
X1064679Y104549D01*
X1063747Y104549D01*
X1062814Y103617D01*
X1062814Y102685D01*
X1062814Y103617D02*
X1061882Y104549D01*
X1060950Y104549D01*
X1060018Y103617D01*
X1060018Y101753D01*
X1060950Y100821D01*
X1179754Y122674D02*
X1185347Y122674D01*
X1185347Y125470D01*
X1184415Y126403D01*
X1182550Y126403D01*
X1181618Y125470D01*
X1181618Y122674D01*
X1181618Y124538D02*
X1179754Y126403D01*
X1183483Y128287D02*
X1185347Y130151D01*
X1179754Y130151D01*
X1179754Y128287D02*
X1179754Y132016D01*
X1084366Y222331D02*
X1083434Y221399D01*
X1084366Y222331D02*
X1086230Y222331D01*
X1087162Y221399D01*
X1087162Y217670D01*
X1086230Y216738D01*
X1084366Y216738D01*
X1083434Y217670D01*
X1081549Y222331D02*
X1077821Y222331D01*
X1081549Y222331D02*
X1081549Y219534D01*
X1079685Y220467D01*
X1078753Y220467D01*
X1077821Y219534D01*
X1077821Y217670D01*
X1078753Y216738D01*
X1080617Y216738D01*
X1081549Y217670D01*
X1117168Y212048D02*
X1122761Y212048D01*
X1122761Y214844D01*
X1121829Y215776D01*
X1119964Y215776D01*
X1119032Y214844D01*
X1119032Y212048D01*
X1119032Y213912D02*
X1117168Y215776D01*
X1117168Y217661D02*
X1117168Y221389D01*
X1117168Y217661D02*
X1120897Y221389D01*
X1121829Y221389D01*
X1122761Y220457D01*
X1122761Y218593D01*
X1121829Y217661D01*
X1096052Y189311D02*
X1096052Y183718D01*
X1096052Y189311D02*
X1093256Y189311D01*
X1092324Y188379D01*
X1092324Y186514D01*
X1093256Y185582D01*
X1096052Y185582D01*
X1094188Y185582D02*
X1092324Y183718D01*
X1087643Y189311D02*
X1086711Y188379D01*
X1087643Y189311D02*
X1089507Y189311D01*
X1090439Y188379D01*
X1090439Y184650D01*
X1089507Y183718D01*
X1087643Y183718D01*
X1086711Y184650D01*
X1086711Y186514D01*
X1088575Y186514D01*
D15*
X974852Y303530D02*
X974850Y303652D01*
X974844Y303774D01*
X974834Y303896D01*
X974821Y304017D01*
X974803Y304138D01*
X974782Y304258D01*
X974756Y304378D01*
X974727Y304496D01*
X974695Y304614D01*
X974658Y304731D01*
X974618Y304846D01*
X974574Y304960D01*
X974526Y305072D01*
X974475Y305183D01*
X974420Y305292D01*
X974362Y305400D01*
X974300Y305505D01*
X974235Y305608D01*
X974167Y305710D01*
X974095Y305809D01*
X974021Y305905D01*
X973943Y306000D01*
X973862Y306091D01*
X973779Y306181D01*
X973693Y306267D01*
X973603Y306350D01*
X973512Y306431D01*
X973417Y306509D01*
X973321Y306583D01*
X973222Y306655D01*
X973120Y306723D01*
X973017Y306788D01*
X972912Y306850D01*
X972804Y306908D01*
X972695Y306963D01*
X972584Y307014D01*
X972472Y307062D01*
X972358Y307106D01*
X972243Y307146D01*
X972126Y307183D01*
X972008Y307215D01*
X971890Y307244D01*
X971770Y307270D01*
X971650Y307291D01*
X971529Y307309D01*
X971408Y307322D01*
X971286Y307332D01*
X971164Y307338D01*
X971042Y307340D01*
X970920Y307338D01*
X970798Y307332D01*
X970676Y307322D01*
X970555Y307309D01*
X970434Y307291D01*
X970314Y307270D01*
X970194Y307244D01*
X970076Y307215D01*
X969958Y307183D01*
X969841Y307146D01*
X969726Y307106D01*
X969612Y307062D01*
X969500Y307014D01*
X969389Y306963D01*
X969280Y306908D01*
X969172Y306850D01*
X969067Y306788D01*
X968964Y306723D01*
X968862Y306655D01*
X968763Y306583D01*
X968667Y306509D01*
X968572Y306431D01*
X968481Y306350D01*
X968391Y306267D01*
X968305Y306181D01*
X968222Y306091D01*
X968141Y306000D01*
X968063Y305905D01*
X967989Y305809D01*
X967917Y305710D01*
X967849Y305608D01*
X967784Y305505D01*
X967722Y305400D01*
X967664Y305292D01*
X967609Y305183D01*
X967558Y305072D01*
X967510Y304960D01*
X967466Y304846D01*
X967426Y304731D01*
X967389Y304614D01*
X967357Y304496D01*
X967328Y304378D01*
X967302Y304258D01*
X967281Y304138D01*
X967263Y304017D01*
X967250Y303896D01*
X967240Y303774D01*
X967234Y303652D01*
X967232Y303530D01*
X967234Y303408D01*
X967240Y303286D01*
X967250Y303164D01*
X967263Y303043D01*
X967281Y302922D01*
X967302Y302802D01*
X967328Y302682D01*
X967357Y302564D01*
X967389Y302446D01*
X967426Y302329D01*
X967466Y302214D01*
X967510Y302100D01*
X967558Y301988D01*
X967609Y301877D01*
X967664Y301768D01*
X967722Y301660D01*
X967784Y301555D01*
X967849Y301452D01*
X967917Y301350D01*
X967989Y301251D01*
X968063Y301155D01*
X968141Y301060D01*
X968222Y300969D01*
X968305Y300879D01*
X968391Y300793D01*
X968481Y300710D01*
X968572Y300629D01*
X968667Y300551D01*
X968763Y300477D01*
X968862Y300405D01*
X968964Y300337D01*
X969067Y300272D01*
X969172Y300210D01*
X969280Y300152D01*
X969389Y300097D01*
X969500Y300046D01*
X969612Y299998D01*
X969726Y299954D01*
X969841Y299914D01*
X969958Y299877D01*
X970076Y299845D01*
X970194Y299816D01*
X970314Y299790D01*
X970434Y299769D01*
X970555Y299751D01*
X970676Y299738D01*
X970798Y299728D01*
X970920Y299722D01*
X971042Y299720D01*
X971164Y299722D01*
X971286Y299728D01*
X971408Y299738D01*
X971529Y299751D01*
X971650Y299769D01*
X971770Y299790D01*
X971890Y299816D01*
X972008Y299845D01*
X972126Y299877D01*
X972243Y299914D01*
X972358Y299954D01*
X972472Y299998D01*
X972584Y300046D01*
X972695Y300097D01*
X972804Y300152D01*
X972912Y300210D01*
X973017Y300272D01*
X973120Y300337D01*
X973222Y300405D01*
X973321Y300477D01*
X973417Y300551D01*
X973512Y300629D01*
X973603Y300710D01*
X973693Y300793D01*
X973779Y300879D01*
X973862Y300969D01*
X973943Y301060D01*
X974021Y301155D01*
X974095Y301251D01*
X974167Y301350D01*
X974235Y301452D01*
X974300Y301555D01*
X974362Y301660D01*
X974420Y301768D01*
X974475Y301877D01*
X974526Y301988D01*
X974574Y302100D01*
X974618Y302214D01*
X974658Y302329D01*
X974695Y302446D01*
X974727Y302564D01*
X974756Y302682D01*
X974782Y302802D01*
X974803Y302922D01*
X974821Y303043D01*
X974834Y303164D01*
X974844Y303286D01*
X974850Y303408D01*
X974852Y303530D01*
D17*
X193586Y53256D02*
X192654Y52324D01*
X191721Y52324D01*
X190789Y53256D01*
X190789Y57917D01*
X191721Y57917D02*
X189857Y57917D01*
X187973Y57917D02*
X187973Y52324D01*
X187973Y57917D02*
X185176Y57917D01*
X184244Y56985D01*
X184244Y55120D01*
X185176Y54188D01*
X187973Y54188D01*
X182359Y57917D02*
X178631Y57917D01*
X178631Y56985D01*
X182359Y53256D01*
X182359Y52324D01*
D13*
X112776Y86868D02*
X112776Y106172D01*
X125984Y106172D02*
X133096Y106172D01*
X146304Y106172D02*
X146304Y86868D01*
D16*
X145120Y83022D02*
X153086Y75057D01*
X153086Y83022D02*
X145120Y75057D01*
X149103Y75057D02*
X149103Y83022D01*
X145120Y79040D02*
X153086Y79040D01*
D17*
X131547Y127710D02*
X130615Y128643D01*
X131547Y127710D02*
X131547Y125846D01*
X130615Y124914D01*
X126886Y124914D01*
X125954Y125846D01*
X125954Y127710D01*
X126886Y128643D01*
X130615Y132391D02*
X131547Y134256D01*
X130615Y132391D02*
X128750Y130527D01*
X126886Y130527D01*
X125954Y131459D01*
X125954Y133323D01*
X126886Y134256D01*
X127818Y134256D01*
X128750Y133323D01*
X128750Y130527D01*
X152205Y128643D02*
X153137Y127710D01*
X153137Y125846D01*
X152205Y124914D01*
X148476Y124914D01*
X147544Y125846D01*
X147544Y127710D01*
X148476Y128643D01*
X153137Y130527D02*
X153137Y134256D01*
X152205Y134256D01*
X148476Y130527D01*
X147544Y130527D01*
X120769Y49706D02*
X121701Y48774D01*
X121701Y46910D01*
X120769Y45978D01*
X117040Y45978D01*
X116108Y46910D01*
X116108Y48774D01*
X117040Y49706D01*
X120769Y51591D02*
X121701Y52523D01*
X121701Y54387D01*
X120769Y55319D01*
X119837Y55319D01*
X118904Y54387D01*
X117972Y55319D01*
X117040Y55319D01*
X116108Y54387D01*
X116108Y52523D01*
X117040Y51591D01*
X117972Y51591D01*
X118904Y52523D01*
X119837Y51591D01*
X120769Y51591D01*
X118904Y52523D02*
X118904Y54387D01*
X149979Y42086D02*
X150911Y41154D01*
X150911Y39290D01*
X149979Y38358D01*
X146250Y38358D01*
X145318Y39290D01*
X145318Y41154D01*
X146250Y42086D01*
X146250Y43971D02*
X145318Y44903D01*
X145318Y46767D01*
X146250Y47699D01*
X149979Y47699D01*
X150911Y46767D01*
X150911Y44903D01*
X149979Y43971D01*
X149047Y43971D01*
X148114Y44903D01*
X148114Y47699D01*
X108387Y96004D02*
X102794Y96004D01*
X108387Y96004D02*
X108387Y98800D01*
X107455Y99733D01*
X105590Y99733D01*
X104658Y98800D01*
X104658Y96004D01*
X104658Y97868D02*
X102794Y99733D01*
X102794Y104413D02*
X108387Y104413D01*
X105590Y101617D01*
X105590Y105346D01*
M02*
