G04 EAGLE Gerber RS-274X export*
G75*
%MOMM*%
%FSLAX34Y34*%
%LPD*%
%INSilkscreen Top*%
%IPPOS*%
%AMOC8*
5,1,8,0,0,1.08239X$1,22.5*%
G01*
%ADD10C,0.152400*%
%ADD11C,0.000000*%
%ADD12C,0.203200*%
%ADD13C,0.254000*%
%ADD14C,0.500000*%
%ADD15C,0.101600*%
%ADD16C,0.127000*%
%ADD17C,0.508000*%
%ADD18C,0.076200*%
%ADD19C,0.050800*%


D10*
X505464Y86621D02*
X502583Y86621D01*
X501142Y85181D01*
X501142Y79419D01*
X502583Y77978D01*
X505464Y77978D01*
X506904Y79419D01*
X506904Y85181D01*
X505464Y86621D01*
X514819Y86621D02*
X516259Y85181D01*
X514819Y86621D02*
X511938Y86621D01*
X510497Y85181D01*
X510497Y83740D01*
X511938Y82300D01*
X514819Y82300D01*
X516259Y80859D01*
X516259Y79419D01*
X514819Y77978D01*
X511938Y77978D01*
X510497Y79419D01*
X519852Y77978D02*
X519852Y86621D01*
X519852Y77978D02*
X524174Y77978D01*
X525615Y79419D01*
X525615Y85181D01*
X524174Y86621D01*
X519852Y86621D01*
X529208Y85181D02*
X530648Y86621D01*
X533529Y86621D01*
X534970Y85181D01*
X534970Y83740D01*
X533529Y82300D01*
X532089Y82300D01*
X533529Y82300D02*
X534970Y80859D01*
X534970Y79419D01*
X533529Y77978D01*
X530648Y77978D01*
X529208Y79419D01*
X538563Y85181D02*
X540003Y86621D01*
X542884Y86621D01*
X544325Y85181D01*
X544325Y83740D01*
X542884Y82300D01*
X541444Y82300D01*
X542884Y82300D02*
X544325Y80859D01*
X544325Y79419D01*
X542884Y77978D01*
X540003Y77978D01*
X538563Y79419D01*
X547918Y86621D02*
X553680Y86621D01*
X547918Y86621D02*
X547918Y82300D01*
X550799Y83740D01*
X552240Y83740D01*
X553680Y82300D01*
X553680Y79419D01*
X552240Y77978D01*
X549359Y77978D01*
X547918Y79419D01*
X557273Y85181D02*
X558714Y86621D01*
X561595Y86621D01*
X563035Y85181D01*
X563035Y83740D01*
X561595Y82300D01*
X563035Y80859D01*
X563035Y79419D01*
X561595Y77978D01*
X558714Y77978D01*
X557273Y79419D01*
X557273Y80859D01*
X558714Y82300D01*
X557273Y83740D01*
X557273Y85181D01*
X558714Y82300D02*
X561595Y82300D01*
D11*
X615100Y353810D02*
X265100Y353810D01*
X262684Y353781D01*
X260269Y353693D01*
X257857Y353547D01*
X255449Y353343D01*
X253046Y353081D01*
X250651Y352761D01*
X248264Y352383D01*
X245887Y351947D01*
X243522Y351454D01*
X241168Y350904D01*
X238829Y350298D01*
X236505Y349635D01*
X234198Y348916D01*
X231909Y348141D01*
X229640Y347312D01*
X227391Y346427D01*
X225164Y345489D01*
X222960Y344497D01*
X220781Y343453D01*
X218628Y342356D01*
X216502Y341207D01*
X214404Y340007D01*
X212336Y338757D01*
X210299Y337457D01*
X208294Y336108D01*
X206321Y334712D01*
X204384Y333268D01*
X202481Y331777D01*
X200616Y330242D01*
X198788Y328661D01*
X196998Y327037D01*
X195249Y325370D01*
X193540Y323661D01*
X191873Y321912D01*
X190249Y320122D01*
X188668Y318294D01*
X187133Y316429D01*
X185642Y314526D01*
X184198Y312589D01*
X182802Y310616D01*
X181453Y308611D01*
X180153Y306574D01*
X178903Y304506D01*
X177703Y302408D01*
X176554Y300282D01*
X175457Y298129D01*
X174413Y295950D01*
X173421Y293746D01*
X172483Y291519D01*
X171598Y289270D01*
X170769Y287001D01*
X169994Y284712D01*
X169275Y282405D01*
X168612Y280081D01*
X168006Y277742D01*
X167456Y275388D01*
X166963Y273023D01*
X166527Y270646D01*
X166149Y268259D01*
X165829Y265864D01*
X165567Y263461D01*
X165363Y261053D01*
X165217Y258641D01*
X165129Y256226D01*
X165100Y253810D01*
X165100Y103810D01*
X165129Y101394D01*
X165217Y98979D01*
X165363Y96567D01*
X165567Y94159D01*
X165829Y91756D01*
X166149Y89361D01*
X166527Y86974D01*
X166963Y84597D01*
X167456Y82232D01*
X168006Y79878D01*
X168612Y77539D01*
X169275Y75215D01*
X169994Y72908D01*
X170769Y70619D01*
X171598Y68350D01*
X172483Y66101D01*
X173421Y63874D01*
X174413Y61670D01*
X175457Y59491D01*
X176554Y57338D01*
X177703Y55212D01*
X178903Y53114D01*
X180153Y51046D01*
X181453Y49009D01*
X182802Y47004D01*
X184198Y45031D01*
X185642Y43094D01*
X187133Y41191D01*
X188668Y39326D01*
X190249Y37498D01*
X191873Y35708D01*
X193540Y33959D01*
X195249Y32250D01*
X196998Y30583D01*
X198788Y28959D01*
X200616Y27378D01*
X202481Y25843D01*
X204384Y24352D01*
X206321Y22908D01*
X208294Y21512D01*
X210299Y20163D01*
X212336Y18863D01*
X214404Y17613D01*
X216502Y16413D01*
X218628Y15264D01*
X220781Y14167D01*
X222960Y13123D01*
X225164Y12131D01*
X227391Y11193D01*
X229640Y10308D01*
X231909Y9479D01*
X234198Y8704D01*
X236505Y7985D01*
X238829Y7322D01*
X241168Y6716D01*
X243522Y6166D01*
X245887Y5673D01*
X248264Y5237D01*
X250651Y4859D01*
X253046Y4539D01*
X255449Y4277D01*
X257857Y4073D01*
X260269Y3927D01*
X262684Y3839D01*
X265100Y3810D01*
X615100Y3810D01*
X617516Y3839D01*
X619931Y3927D01*
X622343Y4073D01*
X624751Y4277D01*
X627154Y4539D01*
X629549Y4859D01*
X631936Y5237D01*
X634313Y5673D01*
X636678Y6166D01*
X639032Y6716D01*
X641371Y7322D01*
X643695Y7985D01*
X646002Y8704D01*
X648291Y9479D01*
X650560Y10308D01*
X652809Y11193D01*
X655036Y12131D01*
X657240Y13123D01*
X659419Y14167D01*
X661572Y15264D01*
X663698Y16413D01*
X665796Y17613D01*
X667864Y18863D01*
X669901Y20163D01*
X671906Y21512D01*
X673879Y22908D01*
X675816Y24352D01*
X677719Y25843D01*
X679584Y27378D01*
X681412Y28959D01*
X683202Y30583D01*
X684951Y32250D01*
X686660Y33959D01*
X688327Y35708D01*
X689951Y37498D01*
X691532Y39326D01*
X693067Y41191D01*
X694558Y43094D01*
X696002Y45031D01*
X697398Y47004D01*
X698747Y49009D01*
X700047Y51046D01*
X701297Y53114D01*
X702497Y55212D01*
X703646Y57338D01*
X704743Y59491D01*
X705787Y61670D01*
X706779Y63874D01*
X707717Y66101D01*
X708602Y68350D01*
X709431Y70619D01*
X710206Y72908D01*
X710925Y75215D01*
X711588Y77539D01*
X712194Y79878D01*
X712744Y82232D01*
X713237Y84597D01*
X713673Y86974D01*
X714051Y89361D01*
X714371Y91756D01*
X714633Y94159D01*
X714837Y96567D01*
X714983Y98979D01*
X715071Y101394D01*
X715100Y103810D01*
X715100Y253810D01*
X715071Y256226D01*
X714983Y258641D01*
X714837Y261053D01*
X714633Y263461D01*
X714371Y265864D01*
X714051Y268259D01*
X713673Y270646D01*
X713237Y273023D01*
X712744Y275388D01*
X712194Y277742D01*
X711588Y280081D01*
X710925Y282405D01*
X710206Y284712D01*
X709431Y287001D01*
X708602Y289270D01*
X707717Y291519D01*
X706779Y293746D01*
X705787Y295950D01*
X704743Y298129D01*
X703646Y300282D01*
X702497Y302408D01*
X701297Y304506D01*
X700047Y306574D01*
X698747Y308611D01*
X697398Y310616D01*
X696002Y312589D01*
X694558Y314526D01*
X693067Y316429D01*
X691532Y318294D01*
X689951Y320122D01*
X688327Y321912D01*
X686660Y323661D01*
X684951Y325370D01*
X683202Y327037D01*
X681412Y328661D01*
X679584Y330242D01*
X677719Y331777D01*
X675816Y333268D01*
X673879Y334712D01*
X671906Y336108D01*
X669901Y337457D01*
X667864Y338757D01*
X665796Y340007D01*
X663698Y341207D01*
X661572Y342356D01*
X659419Y343453D01*
X657240Y344497D01*
X655036Y345489D01*
X652809Y346427D01*
X650560Y347312D01*
X648291Y348141D01*
X646002Y348916D01*
X643695Y349635D01*
X641371Y350298D01*
X639032Y350904D01*
X636678Y351454D01*
X634313Y351947D01*
X631936Y352383D01*
X629549Y352761D01*
X627154Y353081D01*
X624751Y353343D01*
X622343Y353547D01*
X619931Y353693D01*
X617516Y353781D01*
X615100Y353810D01*
D12*
X329131Y347989D02*
X329131Y337312D01*
X329131Y347989D02*
X334469Y347989D01*
X336249Y346210D01*
X336249Y342651D01*
X334469Y340871D01*
X329131Y340871D01*
X342604Y337312D02*
X346163Y337312D01*
X347943Y339092D01*
X347943Y342651D01*
X346163Y344430D01*
X342604Y344430D01*
X340825Y342651D01*
X340825Y339092D01*
X342604Y337312D01*
X354298Y344430D02*
X359637Y344430D01*
X354298Y344430D02*
X352519Y342651D01*
X352519Y339092D01*
X354298Y337312D01*
X359637Y337312D01*
X364212Y337312D02*
X364212Y347989D01*
X364212Y340871D02*
X369551Y337312D01*
X364212Y340871D02*
X369551Y344430D01*
X375737Y337312D02*
X379296Y337312D01*
X375737Y337312D02*
X373957Y339092D01*
X373957Y342651D01*
X375737Y344430D01*
X379296Y344430D01*
X381076Y342651D01*
X381076Y340871D01*
X373957Y340871D01*
X387431Y339092D02*
X387431Y346210D01*
X387431Y339092D02*
X389210Y337312D01*
X389210Y344430D02*
X385651Y344430D01*
X393447Y347989D02*
X393447Y337312D01*
X393447Y347989D02*
X398786Y347989D01*
X400565Y346210D01*
X400565Y344430D01*
X398786Y342651D01*
X400565Y340871D01*
X400565Y339092D01*
X398786Y337312D01*
X393447Y337312D01*
X393447Y342651D02*
X398786Y342651D01*
X406921Y337312D02*
X410480Y337312D01*
X406921Y337312D02*
X405141Y339092D01*
X405141Y342651D01*
X406921Y344430D01*
X410480Y344430D01*
X412259Y342651D01*
X412259Y340871D01*
X405141Y340871D01*
X418615Y344430D02*
X422174Y344430D01*
X423953Y342651D01*
X423953Y337312D01*
X418615Y337312D01*
X416835Y339092D01*
X418615Y340871D01*
X423953Y340871D01*
X432088Y333753D02*
X433868Y333753D01*
X435647Y335533D01*
X435647Y344430D01*
X430309Y344430D01*
X428529Y342651D01*
X428529Y339092D01*
X430309Y337312D01*
X435647Y337312D01*
X440223Y347989D02*
X442003Y347989D01*
X442003Y337312D01*
X443782Y337312D02*
X440223Y337312D01*
X449799Y337312D02*
X453358Y337312D01*
X449799Y337312D02*
X448019Y339092D01*
X448019Y342651D01*
X449799Y344430D01*
X453358Y344430D01*
X455137Y342651D01*
X455137Y340871D01*
X448019Y340871D01*
X471407Y337312D02*
X471407Y347989D01*
X476746Y347989D01*
X478525Y346210D01*
X478525Y342651D01*
X476746Y340871D01*
X471407Y340871D01*
X474966Y340871D02*
X478525Y337312D01*
X484881Y337312D02*
X488440Y337312D01*
X484881Y337312D02*
X483101Y339092D01*
X483101Y342651D01*
X484881Y344430D01*
X488440Y344430D01*
X490219Y342651D01*
X490219Y340871D01*
X483101Y340871D01*
X494795Y344430D02*
X498354Y337312D01*
X501913Y344430D01*
X518183Y344430D02*
X518183Y337312D01*
X518183Y344430D02*
X521742Y347989D01*
X525301Y344430D01*
X525301Y337312D01*
X525301Y342651D02*
X518183Y342651D01*
X529877Y337312D02*
X536995Y337312D01*
X529877Y337312D02*
X536995Y344430D01*
X536995Y346210D01*
X535216Y347989D01*
X531657Y347989D01*
X529877Y346210D01*
X543350Y344430D02*
X546910Y344430D01*
X548689Y342651D01*
X548689Y337312D01*
X543350Y337312D01*
X541571Y339092D01*
X543350Y340871D01*
X548689Y340871D01*
X322309Y23885D02*
X322309Y13208D01*
X327648Y13208D01*
X329427Y14988D01*
X329427Y18547D01*
X327648Y20326D01*
X322309Y20326D01*
X335783Y13208D02*
X339342Y13208D01*
X335783Y13208D02*
X334003Y14988D01*
X334003Y18547D01*
X335783Y20326D01*
X339342Y20326D01*
X341121Y18547D01*
X341121Y16767D01*
X334003Y16767D01*
X347477Y20326D02*
X351036Y20326D01*
X352815Y18547D01*
X352815Y13208D01*
X347477Y13208D01*
X345697Y14988D01*
X347477Y16767D01*
X352815Y16767D01*
X360950Y9649D02*
X362730Y9649D01*
X364509Y11429D01*
X364509Y20326D01*
X359170Y20326D01*
X357391Y18547D01*
X357391Y14988D01*
X359170Y13208D01*
X364509Y13208D01*
X369085Y23885D02*
X370864Y23885D01*
X370864Y13208D01*
X369085Y13208D02*
X372644Y13208D01*
X378660Y13208D02*
X382219Y13208D01*
X378660Y13208D02*
X376881Y14988D01*
X376881Y18547D01*
X378660Y20326D01*
X382219Y20326D01*
X383999Y18547D01*
X383999Y16767D01*
X376881Y16767D01*
X388575Y13208D02*
X388575Y23885D01*
X388575Y13208D02*
X393913Y13208D01*
X395693Y14988D01*
X395693Y18547D01*
X393913Y20326D01*
X388575Y20326D01*
X402048Y13208D02*
X405607Y13208D01*
X407387Y14988D01*
X407387Y18547D01*
X405607Y20326D01*
X402048Y20326D01*
X400269Y18547D01*
X400269Y14988D01*
X402048Y13208D01*
X413742Y20326D02*
X417301Y20326D01*
X419081Y18547D01*
X419081Y13208D01*
X413742Y13208D01*
X411963Y14988D01*
X413742Y16767D01*
X419081Y16767D01*
X423657Y13208D02*
X423657Y20326D01*
X423657Y16767D02*
X427216Y20326D01*
X428995Y20326D01*
X440520Y23885D02*
X440520Y13208D01*
X435181Y13208D01*
X433402Y14988D01*
X433402Y18547D01*
X435181Y20326D01*
X440520Y20326D01*
X445096Y14988D02*
X445096Y13208D01*
X445096Y14988D02*
X446875Y14988D01*
X446875Y13208D01*
X445096Y13208D01*
X452722Y13208D02*
X456281Y13208D01*
X458061Y14988D01*
X458061Y18547D01*
X456281Y20326D01*
X452722Y20326D01*
X450943Y18547D01*
X450943Y14988D01*
X452722Y13208D01*
X462637Y13208D02*
X462637Y20326D01*
X462637Y16767D02*
X466196Y20326D01*
X467975Y20326D01*
X475941Y9649D02*
X477720Y9649D01*
X479500Y11429D01*
X479500Y20326D01*
X474161Y20326D01*
X472382Y18547D01*
X472382Y14988D01*
X474161Y13208D01*
X479500Y13208D01*
X484076Y13208D02*
X491194Y23885D01*
X495770Y20326D02*
X495770Y9649D01*
X495770Y20326D02*
X501108Y20326D01*
X502888Y18547D01*
X502888Y14988D01*
X501108Y13208D01*
X495770Y13208D01*
X509243Y13208D02*
X512802Y13208D01*
X514582Y14988D01*
X514582Y18547D01*
X512802Y20326D01*
X509243Y20326D01*
X507464Y18547D01*
X507464Y14988D01*
X509243Y13208D01*
X520937Y20326D02*
X526276Y20326D01*
X520937Y20326D02*
X519158Y18547D01*
X519158Y14988D01*
X520937Y13208D01*
X526276Y13208D01*
X530851Y13208D02*
X530851Y23885D01*
X530851Y16767D02*
X536190Y13208D01*
X530851Y16767D02*
X536190Y20326D01*
X542376Y13208D02*
X545935Y13208D01*
X542376Y13208D02*
X540596Y14988D01*
X540596Y18547D01*
X542376Y20326D01*
X545935Y20326D01*
X547715Y18547D01*
X547715Y16767D01*
X540596Y16767D01*
X554070Y14988D02*
X554070Y22106D01*
X554070Y14988D02*
X555849Y13208D01*
X555849Y20326D02*
X552290Y20326D01*
D13*
X338582Y27432D02*
X338582Y73914D01*
X338582Y284988D02*
X338582Y331470D01*
X465582Y73914D02*
X465582Y27432D01*
X592582Y27432D02*
X592582Y73914D01*
X465582Y284988D02*
X465582Y331470D01*
X592582Y331470D02*
X592582Y284988D01*
D12*
X249466Y23888D02*
X249466Y9398D01*
X249466Y23888D02*
X256711Y23888D01*
X259126Y21473D01*
X259126Y16643D01*
X256711Y14228D01*
X249466Y14228D01*
X264668Y19058D02*
X269498Y23888D01*
X269498Y9398D01*
X264668Y9398D02*
X274328Y9398D01*
X250736Y333756D02*
X250736Y348246D01*
X257981Y348246D01*
X260396Y345831D01*
X260396Y341001D01*
X257981Y338586D01*
X250736Y338586D01*
X265938Y333756D02*
X275598Y333756D01*
X265938Y333756D02*
X275598Y343416D01*
X275598Y345831D01*
X273183Y348246D01*
X268353Y348246D01*
X265938Y345831D01*
D13*
X218440Y88900D02*
X210820Y88900D01*
X233680Y88900D02*
X241300Y88900D01*
X195580Y88900D02*
X187960Y88900D01*
X256540Y88900D02*
X264160Y88900D01*
D14*
X490964Y72390D02*
X490966Y72474D01*
X490972Y72558D01*
X490982Y72642D01*
X490995Y72725D01*
X491013Y72807D01*
X491035Y72889D01*
X491060Y72969D01*
X491089Y73048D01*
X491122Y73126D01*
X491158Y73202D01*
X491198Y73276D01*
X491241Y73348D01*
X491287Y73418D01*
X491337Y73486D01*
X491390Y73552D01*
X491446Y73615D01*
X491505Y73675D01*
X491567Y73732D01*
X491631Y73787D01*
X491698Y73838D01*
X491767Y73886D01*
X491838Y73931D01*
X491911Y73973D01*
X491986Y74011D01*
X492063Y74045D01*
X492141Y74076D01*
X492221Y74103D01*
X492302Y74127D01*
X492384Y74146D01*
X492467Y74162D01*
X492550Y74174D01*
X492634Y74182D01*
X492718Y74186D01*
X492802Y74186D01*
X492886Y74182D01*
X492970Y74174D01*
X493053Y74162D01*
X493136Y74146D01*
X493218Y74127D01*
X493299Y74103D01*
X493379Y74076D01*
X493457Y74045D01*
X493534Y74011D01*
X493609Y73973D01*
X493682Y73931D01*
X493753Y73886D01*
X493822Y73838D01*
X493889Y73787D01*
X493953Y73732D01*
X494015Y73675D01*
X494074Y73615D01*
X494130Y73552D01*
X494183Y73486D01*
X494233Y73418D01*
X494279Y73348D01*
X494322Y73276D01*
X494362Y73202D01*
X494398Y73126D01*
X494431Y73048D01*
X494460Y72969D01*
X494485Y72889D01*
X494507Y72807D01*
X494525Y72725D01*
X494538Y72642D01*
X494548Y72558D01*
X494554Y72474D01*
X494556Y72390D01*
X494554Y72306D01*
X494548Y72222D01*
X494538Y72138D01*
X494525Y72055D01*
X494507Y71973D01*
X494485Y71891D01*
X494460Y71811D01*
X494431Y71732D01*
X494398Y71654D01*
X494362Y71578D01*
X494322Y71504D01*
X494279Y71432D01*
X494233Y71362D01*
X494183Y71294D01*
X494130Y71228D01*
X494074Y71165D01*
X494015Y71105D01*
X493953Y71048D01*
X493889Y70993D01*
X493822Y70942D01*
X493753Y70894D01*
X493682Y70849D01*
X493609Y70807D01*
X493534Y70769D01*
X493457Y70735D01*
X493379Y70704D01*
X493299Y70677D01*
X493218Y70653D01*
X493136Y70634D01*
X493053Y70618D01*
X492970Y70606D01*
X492886Y70598D01*
X492802Y70594D01*
X492718Y70594D01*
X492634Y70598D01*
X492550Y70606D01*
X492467Y70618D01*
X492384Y70634D01*
X492302Y70653D01*
X492221Y70677D01*
X492141Y70704D01*
X492063Y70735D01*
X491986Y70769D01*
X491911Y70807D01*
X491838Y70849D01*
X491767Y70894D01*
X491698Y70942D01*
X491631Y70993D01*
X491567Y71048D01*
X491505Y71105D01*
X491446Y71165D01*
X491390Y71228D01*
X491337Y71294D01*
X491287Y71362D01*
X491241Y71432D01*
X491198Y71504D01*
X491158Y71578D01*
X491122Y71654D01*
X491089Y71732D01*
X491060Y71811D01*
X491035Y71891D01*
X491013Y71973D01*
X490995Y72055D01*
X490982Y72138D01*
X490972Y72222D01*
X490966Y72306D01*
X490964Y72390D01*
D15*
X225199Y27438D02*
X222826Y25065D01*
X225199Y27438D02*
X225199Y20320D01*
X227571Y20320D02*
X222826Y20320D01*
X221556Y330200D02*
X226301Y330200D01*
X221556Y330200D02*
X226301Y334945D01*
X226301Y336132D01*
X225115Y337318D01*
X222742Y337318D01*
X221556Y336132D01*
X669798Y321146D02*
X670984Y322332D01*
X673357Y322332D01*
X674543Y321146D01*
X674543Y319959D01*
X673357Y318773D01*
X672171Y318773D01*
X673357Y318773D02*
X674543Y317587D01*
X674543Y316400D01*
X673357Y315214D01*
X670984Y315214D01*
X669798Y316400D01*
X679655Y321146D02*
X682028Y322332D01*
X679655Y321146D02*
X677282Y318773D01*
X677282Y316400D01*
X678469Y315214D01*
X680841Y315214D01*
X682028Y316400D01*
X682028Y317587D01*
X680841Y318773D01*
X677282Y318773D01*
X670984Y42932D02*
X669798Y41746D01*
X670984Y42932D02*
X673357Y42932D01*
X674543Y41746D01*
X674543Y40559D01*
X673357Y39373D01*
X672171Y39373D01*
X673357Y39373D02*
X674543Y38187D01*
X674543Y37000D01*
X673357Y35814D01*
X670984Y35814D01*
X669798Y37000D01*
X677282Y42932D02*
X682028Y42932D01*
X677282Y42932D02*
X677282Y39373D01*
X679655Y40559D01*
X680841Y40559D01*
X682028Y39373D01*
X682028Y37000D01*
X680841Y35814D01*
X678469Y35814D01*
X677282Y37000D01*
X669798Y295746D02*
X670984Y296932D01*
X673357Y296932D01*
X674543Y295746D01*
X674543Y294559D01*
X673357Y293373D01*
X672171Y293373D01*
X673357Y293373D02*
X674543Y292187D01*
X674543Y291000D01*
X673357Y289814D01*
X670984Y289814D01*
X669798Y291000D01*
X677282Y296932D02*
X682028Y296932D01*
X677282Y296932D02*
X677282Y293373D01*
X679655Y294559D01*
X680841Y294559D01*
X682028Y293373D01*
X682028Y291000D01*
X680841Y289814D01*
X678469Y289814D01*
X677282Y291000D01*
X670984Y68332D02*
X669798Y67146D01*
X670984Y68332D02*
X673357Y68332D01*
X674543Y67146D01*
X674543Y65959D01*
X673357Y64773D01*
X672171Y64773D01*
X673357Y64773D02*
X674543Y63587D01*
X674543Y62400D01*
X673357Y61214D01*
X670984Y61214D01*
X669798Y62400D01*
X679655Y67146D02*
X682028Y68332D01*
X679655Y67146D02*
X677282Y64773D01*
X677282Y62400D01*
X678469Y61214D01*
X680841Y61214D01*
X682028Y62400D01*
X682028Y63587D01*
X680841Y64773D01*
X677282Y64773D01*
X226301Y76708D02*
X221556Y76708D01*
X226301Y81453D01*
X226301Y82640D01*
X225115Y83826D01*
X222742Y83826D01*
X221556Y82640D01*
X221556Y279065D02*
X223929Y281438D01*
X223929Y274320D01*
X226301Y274320D02*
X221556Y274320D01*
D13*
X215900Y274320D02*
X215900Y281940D01*
D16*
X66730Y77390D02*
X66730Y67390D01*
X83130Y67390D02*
X83130Y77390D01*
X84130Y78590D02*
X84132Y78621D01*
X84138Y78652D01*
X84148Y78682D01*
X84161Y78710D01*
X84178Y78737D01*
X84198Y78761D01*
X84221Y78783D01*
X84246Y78801D01*
X84274Y78816D01*
X84303Y78828D01*
X84333Y78836D01*
X84364Y78840D01*
X84396Y78840D01*
X84427Y78836D01*
X84457Y78828D01*
X84486Y78816D01*
X84514Y78801D01*
X84539Y78783D01*
X84562Y78761D01*
X84582Y78737D01*
X84599Y78710D01*
X84612Y78682D01*
X84622Y78652D01*
X84628Y78621D01*
X84630Y78590D01*
X84628Y78559D01*
X84622Y78528D01*
X84612Y78498D01*
X84599Y78470D01*
X84582Y78443D01*
X84562Y78419D01*
X84539Y78397D01*
X84514Y78379D01*
X84486Y78364D01*
X84457Y78352D01*
X84427Y78344D01*
X84396Y78340D01*
X84364Y78340D01*
X84333Y78344D01*
X84303Y78352D01*
X84274Y78364D01*
X84246Y78379D01*
X84221Y78397D01*
X84198Y78419D01*
X84178Y78443D01*
X84161Y78470D01*
X84148Y78498D01*
X84138Y78528D01*
X84132Y78559D01*
X84130Y78590D01*
X87243Y72027D02*
X92963Y72027D01*
X94107Y73171D01*
X94107Y75459D01*
X92963Y76603D01*
X87243Y76603D01*
X88387Y79511D02*
X87243Y80655D01*
X87243Y82943D01*
X88387Y84087D01*
X89531Y84087D01*
X90675Y82943D01*
X90675Y81799D01*
X90675Y82943D02*
X91819Y84087D01*
X92963Y84087D01*
X94107Y82943D01*
X94107Y80655D01*
X92963Y79511D01*
X9647Y40907D02*
X8503Y39763D01*
X8503Y37475D01*
X9647Y36331D01*
X14223Y36331D01*
X15367Y37475D01*
X15367Y39763D01*
X14223Y40907D01*
X15367Y47247D02*
X8503Y47247D01*
X11935Y43815D01*
X11935Y48391D01*
X63349Y92787D02*
X70213Y92787D01*
X63349Y92787D02*
X63349Y97363D01*
X66781Y95075D02*
X66781Y92787D01*
X70213Y100271D02*
X63349Y100271D01*
X63349Y103703D01*
X64493Y104847D01*
X65637Y104847D01*
X66781Y103703D01*
X67925Y104847D01*
X69069Y104847D01*
X70213Y103703D01*
X70213Y100271D01*
X66781Y100271D02*
X66781Y103703D01*
X70213Y107755D02*
X70213Y112331D01*
X70213Y107755D02*
X65637Y112331D01*
X64493Y112331D01*
X63349Y111187D01*
X63349Y108899D01*
X64493Y107755D01*
D10*
X766572Y98806D02*
X1046988Y98806D01*
X766572Y98806D02*
X766572Y5334D01*
X1046988Y5334D01*
X1046988Y98806D01*
D17*
X999998Y106680D02*
X999996Y106802D01*
X999990Y106924D01*
X999980Y107046D01*
X999967Y107167D01*
X999949Y107288D01*
X999928Y107408D01*
X999902Y107528D01*
X999873Y107646D01*
X999841Y107764D01*
X999804Y107881D01*
X999764Y107996D01*
X999720Y108110D01*
X999672Y108222D01*
X999621Y108333D01*
X999566Y108442D01*
X999508Y108550D01*
X999446Y108655D01*
X999381Y108758D01*
X999313Y108860D01*
X999241Y108959D01*
X999167Y109055D01*
X999089Y109150D01*
X999008Y109241D01*
X998925Y109331D01*
X998839Y109417D01*
X998749Y109500D01*
X998658Y109581D01*
X998563Y109659D01*
X998467Y109733D01*
X998368Y109805D01*
X998266Y109873D01*
X998163Y109938D01*
X998058Y110000D01*
X997950Y110058D01*
X997841Y110113D01*
X997730Y110164D01*
X997618Y110212D01*
X997504Y110256D01*
X997389Y110296D01*
X997272Y110333D01*
X997154Y110365D01*
X997036Y110394D01*
X996916Y110420D01*
X996796Y110441D01*
X996675Y110459D01*
X996554Y110472D01*
X996432Y110482D01*
X996310Y110488D01*
X996188Y110490D01*
X996066Y110488D01*
X995944Y110482D01*
X995822Y110472D01*
X995701Y110459D01*
X995580Y110441D01*
X995460Y110420D01*
X995340Y110394D01*
X995222Y110365D01*
X995104Y110333D01*
X994987Y110296D01*
X994872Y110256D01*
X994758Y110212D01*
X994646Y110164D01*
X994535Y110113D01*
X994426Y110058D01*
X994318Y110000D01*
X994213Y109938D01*
X994110Y109873D01*
X994008Y109805D01*
X993909Y109733D01*
X993813Y109659D01*
X993718Y109581D01*
X993627Y109500D01*
X993537Y109417D01*
X993451Y109331D01*
X993368Y109241D01*
X993287Y109150D01*
X993209Y109055D01*
X993135Y108959D01*
X993063Y108860D01*
X992995Y108758D01*
X992930Y108655D01*
X992868Y108550D01*
X992810Y108442D01*
X992755Y108333D01*
X992704Y108222D01*
X992656Y108110D01*
X992612Y107996D01*
X992572Y107881D01*
X992535Y107764D01*
X992503Y107646D01*
X992474Y107528D01*
X992448Y107408D01*
X992427Y107288D01*
X992409Y107167D01*
X992396Y107046D01*
X992386Y106924D01*
X992380Y106802D01*
X992378Y106680D01*
X992380Y106558D01*
X992386Y106436D01*
X992396Y106314D01*
X992409Y106193D01*
X992427Y106072D01*
X992448Y105952D01*
X992474Y105832D01*
X992503Y105714D01*
X992535Y105596D01*
X992572Y105479D01*
X992612Y105364D01*
X992656Y105250D01*
X992704Y105138D01*
X992755Y105027D01*
X992810Y104918D01*
X992868Y104810D01*
X992930Y104705D01*
X992995Y104602D01*
X993063Y104500D01*
X993135Y104401D01*
X993209Y104305D01*
X993287Y104210D01*
X993368Y104119D01*
X993451Y104029D01*
X993537Y103943D01*
X993627Y103860D01*
X993718Y103779D01*
X993813Y103701D01*
X993909Y103627D01*
X994008Y103555D01*
X994110Y103487D01*
X994213Y103422D01*
X994318Y103360D01*
X994426Y103302D01*
X994535Y103247D01*
X994646Y103196D01*
X994758Y103148D01*
X994872Y103104D01*
X994987Y103064D01*
X995104Y103027D01*
X995222Y102995D01*
X995340Y102966D01*
X995460Y102940D01*
X995580Y102919D01*
X995701Y102901D01*
X995822Y102888D01*
X995944Y102878D01*
X996066Y102872D01*
X996188Y102870D01*
X996310Y102872D01*
X996432Y102878D01*
X996554Y102888D01*
X996675Y102901D01*
X996796Y102919D01*
X996916Y102940D01*
X997036Y102966D01*
X997154Y102995D01*
X997272Y103027D01*
X997389Y103064D01*
X997504Y103104D01*
X997618Y103148D01*
X997730Y103196D01*
X997841Y103247D01*
X997950Y103302D01*
X998058Y103360D01*
X998163Y103422D01*
X998266Y103487D01*
X998368Y103555D01*
X998467Y103627D01*
X998563Y103701D01*
X998658Y103779D01*
X998749Y103860D01*
X998839Y103943D01*
X998925Y104029D01*
X999008Y104119D01*
X999089Y104210D01*
X999167Y104305D01*
X999241Y104401D01*
X999313Y104500D01*
X999381Y104602D01*
X999446Y104705D01*
X999508Y104810D01*
X999566Y104918D01*
X999621Y105027D01*
X999672Y105138D01*
X999720Y105250D01*
X999764Y105364D01*
X999804Y105479D01*
X999841Y105596D01*
X999873Y105714D01*
X999902Y105832D01*
X999928Y105952D01*
X999949Y106072D01*
X999967Y106193D01*
X999980Y106314D01*
X999990Y106436D01*
X999996Y106558D01*
X999998Y106680D01*
D15*
X943287Y136548D02*
X943287Y148242D01*
X939389Y148242D02*
X947185Y148242D01*
X951083Y138497D02*
X951083Y136548D01*
X951083Y138497D02*
X953032Y138497D01*
X953032Y136548D01*
X951083Y136548D01*
X956930Y136548D02*
X956930Y144344D01*
X960828Y148242D01*
X964726Y144344D01*
X964726Y136548D01*
X964726Y142395D02*
X956930Y142395D01*
X968624Y138497D02*
X968624Y136548D01*
X968624Y138497D02*
X970573Y138497D01*
X970573Y136548D01*
X968624Y136548D01*
X974471Y148242D02*
X982267Y148242D01*
X974471Y148242D02*
X974471Y142395D01*
X978369Y144344D01*
X980318Y144344D01*
X982267Y142395D01*
X982267Y138497D01*
X980318Y136548D01*
X976420Y136548D01*
X974471Y138497D01*
X942017Y129192D02*
X942017Y117498D01*
X938119Y129192D02*
X945915Y129192D01*
X949813Y119447D02*
X949813Y117498D01*
X949813Y119447D02*
X951762Y119447D01*
X951762Y117498D01*
X949813Y117498D01*
X955660Y117498D02*
X955660Y129192D01*
X961507Y129192D01*
X963456Y127243D01*
X963456Y125294D01*
X961507Y123345D01*
X963456Y121396D01*
X963456Y119447D01*
X961507Y117498D01*
X955660Y117498D01*
X955660Y123345D02*
X961507Y123345D01*
X967354Y119447D02*
X967354Y117498D01*
X967354Y119447D02*
X969303Y119447D01*
X969303Y117498D01*
X967354Y117498D01*
X973201Y129192D02*
X980997Y129192D01*
X973201Y129192D02*
X973201Y123345D01*
X977099Y125294D01*
X979048Y125294D01*
X980997Y123345D01*
X980997Y119447D01*
X979048Y117498D01*
X975150Y117498D01*
X973201Y119447D01*
X861519Y131168D02*
X861519Y142862D01*
X857621Y142862D02*
X865417Y142862D01*
X869315Y133117D02*
X869315Y131168D01*
X869315Y133117D02*
X871264Y133117D01*
X871264Y131168D01*
X869315Y131168D01*
X881009Y142862D02*
X882958Y140913D01*
X881009Y142862D02*
X877111Y142862D01*
X875162Y140913D01*
X875162Y133117D01*
X877111Y131168D01*
X881009Y131168D01*
X882958Y133117D01*
X886856Y133117D02*
X886856Y131168D01*
X886856Y133117D02*
X888805Y133117D01*
X888805Y131168D01*
X886856Y131168D01*
X892703Y142862D02*
X900499Y142862D01*
X892703Y142862D02*
X892703Y137015D01*
X896601Y138964D01*
X898550Y138964D01*
X900499Y137015D01*
X900499Y133117D01*
X898550Y131168D01*
X894652Y131168D01*
X892703Y133117D01*
X861519Y123812D02*
X861519Y112118D01*
X857621Y123812D02*
X865417Y123812D01*
X869315Y114067D02*
X869315Y112118D01*
X869315Y114067D02*
X871264Y114067D01*
X871264Y112118D01*
X869315Y112118D01*
X875162Y112118D02*
X875162Y123812D01*
X875162Y112118D02*
X881009Y112118D01*
X882958Y114067D01*
X882958Y121863D01*
X881009Y123812D01*
X875162Y123812D01*
X886856Y114067D02*
X886856Y112118D01*
X886856Y114067D02*
X888805Y114067D01*
X888805Y112118D01*
X886856Y112118D01*
X892703Y123812D02*
X900499Y123812D01*
X892703Y123812D02*
X892703Y117965D01*
X896601Y119914D01*
X898550Y119914D01*
X900499Y117965D01*
X900499Y114067D01*
X898550Y112118D01*
X894652Y112118D01*
X892703Y114067D01*
X704527Y22512D02*
X704527Y10818D01*
X700629Y22512D02*
X708425Y22512D01*
X712323Y12767D02*
X712323Y10818D01*
X712323Y12767D02*
X714272Y12767D01*
X714272Y10818D01*
X712323Y10818D01*
X718170Y10818D02*
X718170Y22512D01*
X718170Y10818D02*
X725966Y10818D01*
X729864Y10818D02*
X729864Y12767D01*
X731813Y12767D01*
X731813Y10818D01*
X729864Y10818D01*
X735711Y22512D02*
X743507Y22512D01*
X735711Y22512D02*
X735711Y16665D01*
X739609Y18614D01*
X741558Y18614D01*
X743507Y16665D01*
X743507Y12767D01*
X741558Y10818D01*
X737660Y10818D01*
X735711Y12767D01*
X703257Y31138D02*
X703257Y42832D01*
X699359Y42832D02*
X707155Y42832D01*
X711053Y33087D02*
X711053Y31138D01*
X711053Y33087D02*
X713002Y33087D01*
X713002Y31138D01*
X711053Y31138D01*
X718849Y42832D02*
X722747Y42832D01*
X718849Y42832D02*
X716900Y40883D01*
X716900Y33087D01*
X718849Y31138D01*
X722747Y31138D01*
X724696Y33087D01*
X724696Y40883D01*
X722747Y42832D01*
X728594Y33087D02*
X728594Y31138D01*
X728594Y33087D02*
X730543Y33087D01*
X730543Y31138D01*
X728594Y31138D01*
X734441Y42832D02*
X742237Y42832D01*
X734441Y42832D02*
X734441Y36985D01*
X738339Y38934D01*
X740288Y38934D01*
X742237Y36985D01*
X742237Y33087D01*
X740288Y31138D01*
X736390Y31138D01*
X734441Y33087D01*
X864547Y156868D02*
X864547Y168562D01*
X860649Y168562D02*
X868445Y168562D01*
X872343Y158817D02*
X872343Y156868D01*
X872343Y158817D02*
X874292Y158817D01*
X874292Y156868D01*
X872343Y156868D01*
X884037Y168562D02*
X885986Y166613D01*
X884037Y168562D02*
X880139Y168562D01*
X878190Y166613D01*
X878190Y158817D01*
X880139Y156868D01*
X884037Y156868D01*
X885986Y158817D01*
X889884Y156868D02*
X889884Y168562D01*
X889884Y156868D02*
X897680Y156868D01*
X901578Y156868D02*
X901578Y158817D01*
X903527Y158817D01*
X903527Y156868D01*
X901578Y156868D01*
X907425Y168562D02*
X915221Y168562D01*
X907425Y168562D02*
X907425Y162715D01*
X911323Y164664D01*
X913272Y164664D01*
X915221Y162715D01*
X915221Y158817D01*
X913272Y156868D01*
X909374Y156868D01*
X907425Y158817D01*
X776917Y139352D02*
X776917Y127658D01*
X773019Y139352D02*
X780815Y139352D01*
X784713Y129607D02*
X784713Y127658D01*
X784713Y129607D02*
X786662Y129607D01*
X786662Y127658D01*
X784713Y127658D01*
X790560Y127658D02*
X790560Y139352D01*
X796407Y139352D01*
X798356Y137403D01*
X798356Y133505D01*
X796407Y131556D01*
X790560Y131556D01*
X794458Y131556D02*
X798356Y127658D01*
X802254Y135454D02*
X806152Y139352D01*
X806152Y127658D01*
X802254Y127658D02*
X810050Y127658D01*
X813948Y127658D02*
X813948Y129607D01*
X815897Y129607D01*
X815897Y127658D01*
X813948Y127658D01*
X819795Y139352D02*
X827591Y139352D01*
X819795Y139352D02*
X819795Y133505D01*
X823693Y135454D01*
X825642Y135454D01*
X827591Y133505D01*
X827591Y129607D01*
X825642Y127658D01*
X821744Y127658D01*
X819795Y129607D01*
X765487Y141628D02*
X765487Y153322D01*
X761589Y153322D02*
X769385Y153322D01*
X773283Y143577D02*
X773283Y141628D01*
X773283Y143577D02*
X775232Y143577D01*
X775232Y141628D01*
X773283Y141628D01*
X779130Y141628D02*
X779130Y153322D01*
X784977Y153322D01*
X786926Y151373D01*
X786926Y149424D01*
X784977Y147475D01*
X786926Y145526D01*
X786926Y143577D01*
X784977Y141628D01*
X779130Y141628D01*
X779130Y147475D02*
X784977Y147475D01*
X790824Y149424D02*
X794722Y153322D01*
X794722Y141628D01*
X790824Y141628D02*
X798620Y141628D01*
X802518Y141628D02*
X802518Y143577D01*
X804467Y143577D01*
X804467Y141628D01*
X802518Y141628D01*
X808365Y153322D02*
X816161Y153322D01*
X808365Y153322D02*
X808365Y147475D01*
X812263Y149424D01*
X814212Y149424D01*
X816161Y147475D01*
X816161Y143577D01*
X814212Y141628D01*
X810314Y141628D01*
X808365Y143577D01*
X755327Y155598D02*
X755327Y167292D01*
X751429Y167292D02*
X759225Y167292D01*
X763123Y157547D02*
X763123Y155598D01*
X763123Y157547D02*
X765072Y157547D01*
X765072Y155598D01*
X763123Y155598D01*
X774817Y167292D02*
X776766Y165343D01*
X774817Y167292D02*
X770919Y167292D01*
X768970Y165343D01*
X768970Y157547D01*
X770919Y155598D01*
X774817Y155598D01*
X776766Y157547D01*
X776766Y161445D01*
X772868Y161445D01*
X780664Y163394D02*
X784562Y167292D01*
X784562Y155598D01*
X780664Y155598D02*
X788460Y155598D01*
X792358Y155598D02*
X792358Y157547D01*
X794307Y157547D01*
X794307Y155598D01*
X792358Y155598D01*
X798205Y167292D02*
X806001Y167292D01*
X798205Y167292D02*
X798205Y161445D01*
X802103Y163394D01*
X804052Y163394D01*
X806001Y161445D01*
X806001Y157547D01*
X804052Y155598D01*
X800154Y155598D01*
X798205Y157547D01*
X669485Y128892D02*
X669485Y117198D01*
X665587Y128892D02*
X673383Y128892D01*
X677281Y119147D02*
X677281Y117198D01*
X677281Y119147D02*
X679230Y119147D01*
X679230Y117198D01*
X677281Y117198D01*
X683128Y117198D02*
X683128Y128892D01*
X688975Y128892D01*
X690924Y126943D01*
X690924Y123045D01*
X688975Y121096D01*
X683128Y121096D01*
X687026Y121096D02*
X690924Y117198D01*
X694822Y117198D02*
X702618Y117198D01*
X694822Y117198D02*
X702618Y124994D01*
X702618Y126943D01*
X700669Y128892D01*
X696771Y128892D01*
X694822Y126943D01*
X706516Y119147D02*
X706516Y117198D01*
X706516Y119147D02*
X708465Y119147D01*
X708465Y117198D01*
X706516Y117198D01*
X712363Y128892D02*
X720159Y128892D01*
X712363Y128892D02*
X712363Y123045D01*
X716261Y124994D01*
X718210Y124994D01*
X720159Y123045D01*
X720159Y119147D01*
X718210Y117198D01*
X714312Y117198D01*
X712363Y119147D01*
X670755Y137518D02*
X670755Y149212D01*
X666857Y149212D02*
X674653Y149212D01*
X678551Y139467D02*
X678551Y137518D01*
X678551Y139467D02*
X680500Y139467D01*
X680500Y137518D01*
X678551Y137518D01*
X684398Y137518D02*
X684398Y149212D01*
X690245Y149212D01*
X692194Y147263D01*
X692194Y145314D01*
X690245Y143365D01*
X692194Y141416D01*
X692194Y139467D01*
X690245Y137518D01*
X684398Y137518D01*
X684398Y143365D02*
X690245Y143365D01*
X696092Y137518D02*
X703888Y137518D01*
X696092Y137518D02*
X703888Y145314D01*
X703888Y147263D01*
X701939Y149212D01*
X698041Y149212D01*
X696092Y147263D01*
X707786Y139467D02*
X707786Y137518D01*
X707786Y139467D02*
X709735Y139467D01*
X709735Y137518D01*
X707786Y137518D01*
X713633Y149212D02*
X721429Y149212D01*
X713633Y149212D02*
X713633Y143365D01*
X717531Y145314D01*
X719480Y145314D01*
X721429Y143365D01*
X721429Y139467D01*
X719480Y137518D01*
X715582Y137518D01*
X713633Y139467D01*
X668215Y155298D02*
X668215Y166992D01*
X664317Y166992D02*
X672113Y166992D01*
X676011Y157247D02*
X676011Y155298D01*
X676011Y157247D02*
X677960Y157247D01*
X677960Y155298D01*
X676011Y155298D01*
X687705Y166992D02*
X689654Y165043D01*
X687705Y166992D02*
X683807Y166992D01*
X681858Y165043D01*
X681858Y157247D01*
X683807Y155298D01*
X687705Y155298D01*
X689654Y157247D01*
X689654Y161145D01*
X685756Y161145D01*
X693552Y155298D02*
X701348Y155298D01*
X693552Y155298D02*
X701348Y163094D01*
X701348Y165043D01*
X699399Y166992D01*
X695501Y166992D01*
X693552Y165043D01*
X705246Y157247D02*
X705246Y155298D01*
X705246Y157247D02*
X707195Y157247D01*
X707195Y155298D01*
X705246Y155298D01*
X711093Y166992D02*
X718889Y166992D01*
X711093Y166992D02*
X711093Y161145D01*
X714991Y163094D01*
X716940Y163094D01*
X718889Y161145D01*
X718889Y157247D01*
X716940Y155298D01*
X713042Y155298D01*
X711093Y157247D01*
X118569Y281028D02*
X118569Y292722D01*
X114671Y292722D02*
X122467Y292722D01*
X126365Y282977D02*
X126365Y281028D01*
X126365Y282977D02*
X128314Y282977D01*
X128314Y281028D01*
X126365Y281028D01*
X132212Y281028D02*
X132212Y288824D01*
X136110Y292722D01*
X140008Y288824D01*
X140008Y281028D01*
X140008Y286875D02*
X132212Y286875D01*
X143906Y282977D02*
X143906Y281028D01*
X143906Y282977D02*
X145855Y282977D01*
X145855Y281028D01*
X143906Y281028D01*
X149753Y290773D02*
X151702Y292722D01*
X155600Y292722D01*
X157549Y290773D01*
X157549Y288824D01*
X155600Y286875D01*
X153651Y286875D01*
X155600Y286875D02*
X157549Y284926D01*
X157549Y282977D01*
X155600Y281028D01*
X151702Y281028D01*
X149753Y282977D01*
X118569Y298808D02*
X118569Y310502D01*
X114671Y310502D02*
X122467Y310502D01*
X126365Y300757D02*
X126365Y298808D01*
X126365Y300757D02*
X128314Y300757D01*
X128314Y298808D01*
X126365Y298808D01*
X132212Y298808D02*
X132212Y310502D01*
X138059Y310502D01*
X140008Y308553D01*
X140008Y306604D01*
X138059Y304655D01*
X140008Y302706D01*
X140008Y300757D01*
X138059Y298808D01*
X132212Y298808D01*
X132212Y304655D02*
X138059Y304655D01*
X143906Y300757D02*
X143906Y298808D01*
X143906Y300757D02*
X145855Y300757D01*
X145855Y298808D01*
X143906Y298808D01*
X149753Y308553D02*
X151702Y310502D01*
X155600Y310502D01*
X157549Y308553D01*
X157549Y306604D01*
X155600Y304655D01*
X153651Y304655D01*
X155600Y304655D02*
X157549Y302706D01*
X157549Y300757D01*
X155600Y298808D01*
X151702Y298808D01*
X149753Y300757D01*
X118569Y316588D02*
X118569Y328282D01*
X114671Y328282D02*
X122467Y328282D01*
X126365Y318537D02*
X126365Y316588D01*
X126365Y318537D02*
X128314Y318537D01*
X128314Y316588D01*
X126365Y316588D01*
X138059Y328282D02*
X140008Y326333D01*
X138059Y328282D02*
X134161Y328282D01*
X132212Y326333D01*
X132212Y318537D01*
X134161Y316588D01*
X138059Y316588D01*
X140008Y318537D01*
X143906Y318537D02*
X143906Y316588D01*
X143906Y318537D02*
X145855Y318537D01*
X145855Y316588D01*
X143906Y316588D01*
X149753Y326333D02*
X151702Y328282D01*
X155600Y328282D01*
X157549Y326333D01*
X157549Y324384D01*
X155600Y322435D01*
X153651Y322435D01*
X155600Y322435D02*
X157549Y320486D01*
X157549Y318537D01*
X155600Y316588D01*
X151702Y316588D01*
X149753Y318537D01*
X118569Y335638D02*
X118569Y347332D01*
X114671Y347332D02*
X122467Y347332D01*
X126365Y337587D02*
X126365Y335638D01*
X126365Y337587D02*
X128314Y337587D01*
X128314Y335638D01*
X126365Y335638D01*
X132212Y335638D02*
X132212Y347332D01*
X132212Y335638D02*
X138059Y335638D01*
X140008Y337587D01*
X140008Y345383D01*
X138059Y347332D01*
X132212Y347332D01*
X143906Y337587D02*
X143906Y335638D01*
X143906Y337587D02*
X145855Y337587D01*
X145855Y335638D01*
X143906Y335638D01*
X149753Y345383D02*
X151702Y347332D01*
X155600Y347332D01*
X157549Y345383D01*
X157549Y343434D01*
X155600Y341485D01*
X153651Y341485D01*
X155600Y341485D02*
X157549Y339536D01*
X157549Y337587D01*
X155600Y335638D01*
X151702Y335638D01*
X149753Y337587D01*
X630379Y341988D02*
X630379Y353682D01*
X626481Y353682D02*
X634277Y353682D01*
X638175Y343937D02*
X638175Y341988D01*
X638175Y343937D02*
X640124Y343937D01*
X640124Y341988D01*
X638175Y341988D01*
X644022Y341988D02*
X644022Y353682D01*
X644022Y341988D02*
X651818Y341988D01*
X655716Y341988D02*
X655716Y343937D01*
X657665Y343937D01*
X657665Y341988D01*
X655716Y341988D01*
X661563Y351733D02*
X663512Y353682D01*
X667410Y353682D01*
X669359Y351733D01*
X669359Y349784D01*
X667410Y347835D01*
X665461Y347835D01*
X667410Y347835D02*
X669359Y345886D01*
X669359Y343937D01*
X667410Y341988D01*
X663512Y341988D01*
X661563Y343937D01*
X658807Y340012D02*
X658807Y328318D01*
X654909Y340012D02*
X662705Y340012D01*
X666603Y330267D02*
X666603Y328318D01*
X666603Y330267D02*
X668552Y330267D01*
X668552Y328318D01*
X666603Y328318D01*
X674399Y340012D02*
X678297Y340012D01*
X674399Y340012D02*
X672450Y338063D01*
X672450Y330267D01*
X674399Y328318D01*
X678297Y328318D01*
X680246Y330267D01*
X680246Y338063D01*
X678297Y340012D01*
X684144Y330267D02*
X684144Y328318D01*
X684144Y330267D02*
X686093Y330267D01*
X686093Y328318D01*
X684144Y328318D01*
X689991Y338063D02*
X691940Y340012D01*
X695838Y340012D01*
X697787Y338063D01*
X697787Y336114D01*
X695838Y334165D01*
X693889Y334165D01*
X695838Y334165D02*
X697787Y332216D01*
X697787Y330267D01*
X695838Y328318D01*
X691940Y328318D01*
X689991Y330267D01*
X795215Y267322D02*
X795215Y255628D01*
X791317Y267322D02*
X799113Y267322D01*
X803011Y257577D02*
X803011Y255628D01*
X803011Y257577D02*
X804960Y257577D01*
X804960Y255628D01*
X803011Y255628D01*
X814705Y267322D02*
X816654Y265373D01*
X814705Y267322D02*
X810807Y267322D01*
X808858Y265373D01*
X808858Y257577D01*
X810807Y255628D01*
X814705Y255628D01*
X816654Y257577D01*
X820552Y255628D02*
X820552Y267322D01*
X820552Y255628D02*
X828348Y255628D01*
X832246Y255628D02*
X832246Y257577D01*
X834195Y257577D01*
X834195Y255628D01*
X832246Y255628D01*
X838093Y265373D02*
X840042Y267322D01*
X843940Y267322D01*
X845889Y265373D01*
X845889Y263424D01*
X843940Y261475D01*
X841991Y261475D01*
X843940Y261475D02*
X845889Y259526D01*
X845889Y257577D01*
X843940Y255628D01*
X840042Y255628D01*
X838093Y257577D01*
X773107Y306728D02*
X773107Y318422D01*
X769209Y318422D02*
X777005Y318422D01*
X780903Y308677D02*
X780903Y306728D01*
X780903Y308677D02*
X782852Y308677D01*
X782852Y306728D01*
X780903Y306728D01*
X786750Y306728D02*
X786750Y318422D01*
X792597Y318422D01*
X794546Y316473D01*
X794546Y312575D01*
X792597Y310626D01*
X786750Y310626D01*
X790648Y310626D02*
X794546Y306728D01*
X798444Y314524D02*
X802342Y318422D01*
X802342Y306728D01*
X798444Y306728D02*
X806240Y306728D01*
X810138Y306728D02*
X810138Y308677D01*
X812087Y308677D01*
X812087Y306728D01*
X810138Y306728D01*
X815985Y316473D02*
X817934Y318422D01*
X821832Y318422D01*
X823781Y316473D01*
X823781Y314524D01*
X821832Y312575D01*
X819883Y312575D01*
X821832Y312575D02*
X823781Y310626D01*
X823781Y308677D01*
X821832Y306728D01*
X817934Y306728D01*
X815985Y308677D01*
X760407Y321968D02*
X760407Y333662D01*
X756509Y333662D02*
X764305Y333662D01*
X768203Y323917D02*
X768203Y321968D01*
X768203Y323917D02*
X770152Y323917D01*
X770152Y321968D01*
X768203Y321968D01*
X774050Y321968D02*
X774050Y333662D01*
X779897Y333662D01*
X781846Y331713D01*
X781846Y329764D01*
X779897Y327815D01*
X781846Y325866D01*
X781846Y323917D01*
X779897Y321968D01*
X774050Y321968D01*
X774050Y327815D02*
X779897Y327815D01*
X785744Y329764D02*
X789642Y333662D01*
X789642Y321968D01*
X785744Y321968D02*
X793540Y321968D01*
X797438Y321968D02*
X797438Y323917D01*
X799387Y323917D01*
X799387Y321968D01*
X797438Y321968D01*
X803285Y331713D02*
X805234Y333662D01*
X809132Y333662D01*
X811081Y331713D01*
X811081Y329764D01*
X809132Y327815D01*
X807183Y327815D01*
X809132Y327815D02*
X811081Y325866D01*
X811081Y323917D01*
X809132Y321968D01*
X805234Y321968D01*
X803285Y323917D01*
X747707Y335938D02*
X747707Y347632D01*
X743809Y347632D02*
X751605Y347632D01*
X755503Y337887D02*
X755503Y335938D01*
X755503Y337887D02*
X757452Y337887D01*
X757452Y335938D01*
X755503Y335938D01*
X767197Y347632D02*
X769146Y345683D01*
X767197Y347632D02*
X763299Y347632D01*
X761350Y345683D01*
X761350Y337887D01*
X763299Y335938D01*
X767197Y335938D01*
X769146Y337887D01*
X769146Y341785D01*
X765248Y341785D01*
X773044Y343734D02*
X776942Y347632D01*
X776942Y335938D01*
X773044Y335938D02*
X780840Y335938D01*
X784738Y335938D02*
X784738Y337887D01*
X786687Y337887D01*
X786687Y335938D01*
X784738Y335938D01*
X790585Y345683D02*
X792534Y347632D01*
X796432Y347632D01*
X798381Y345683D01*
X798381Y343734D01*
X796432Y341785D01*
X794483Y341785D01*
X796432Y341785D02*
X798381Y339836D01*
X798381Y337887D01*
X796432Y335938D01*
X792534Y335938D01*
X790585Y337887D01*
X687265Y286372D02*
X687265Y274678D01*
X683367Y286372D02*
X691163Y286372D01*
X695061Y276627D02*
X695061Y274678D01*
X695061Y276627D02*
X697010Y276627D01*
X697010Y274678D01*
X695061Y274678D01*
X700908Y274678D02*
X700908Y286372D01*
X706755Y286372D01*
X708704Y284423D01*
X708704Y280525D01*
X706755Y278576D01*
X700908Y278576D01*
X704806Y278576D02*
X708704Y274678D01*
X712602Y274678D02*
X720398Y274678D01*
X712602Y274678D02*
X720398Y282474D01*
X720398Y284423D01*
X718449Y286372D01*
X714551Y286372D01*
X712602Y284423D01*
X724296Y276627D02*
X724296Y274678D01*
X724296Y276627D02*
X726245Y276627D01*
X726245Y274678D01*
X724296Y274678D01*
X730143Y284423D02*
X732092Y286372D01*
X735990Y286372D01*
X737939Y284423D01*
X737939Y282474D01*
X735990Y280525D01*
X734041Y280525D01*
X735990Y280525D02*
X737939Y278576D01*
X737939Y276627D01*
X735990Y274678D01*
X732092Y274678D01*
X730143Y276627D01*
X672025Y302618D02*
X672025Y314312D01*
X668127Y314312D02*
X675923Y314312D01*
X679821Y304567D02*
X679821Y302618D01*
X679821Y304567D02*
X681770Y304567D01*
X681770Y302618D01*
X679821Y302618D01*
X685668Y302618D02*
X685668Y314312D01*
X691515Y314312D01*
X693464Y312363D01*
X693464Y310414D01*
X691515Y308465D01*
X693464Y306516D01*
X693464Y304567D01*
X691515Y302618D01*
X685668Y302618D01*
X685668Y308465D02*
X691515Y308465D01*
X697362Y302618D02*
X705158Y302618D01*
X697362Y302618D02*
X705158Y310414D01*
X705158Y312363D01*
X703209Y314312D01*
X699311Y314312D01*
X697362Y312363D01*
X709056Y304567D02*
X709056Y302618D01*
X709056Y304567D02*
X711005Y304567D01*
X711005Y302618D01*
X709056Y302618D01*
X714903Y312363D02*
X716852Y314312D01*
X720750Y314312D01*
X722699Y312363D01*
X722699Y310414D01*
X720750Y308465D01*
X718801Y308465D01*
X720750Y308465D02*
X722699Y306516D01*
X722699Y304567D01*
X720750Y302618D01*
X716852Y302618D01*
X714903Y304567D01*
X685995Y320398D02*
X685995Y332092D01*
X682097Y332092D02*
X689893Y332092D01*
X693791Y322347D02*
X693791Y320398D01*
X693791Y322347D02*
X695740Y322347D01*
X695740Y320398D01*
X693791Y320398D01*
X705485Y332092D02*
X707434Y330143D01*
X705485Y332092D02*
X701587Y332092D01*
X699638Y330143D01*
X699638Y322347D01*
X701587Y320398D01*
X705485Y320398D01*
X707434Y322347D01*
X707434Y326245D01*
X703536Y326245D01*
X711332Y320398D02*
X719128Y320398D01*
X711332Y320398D02*
X719128Y328194D01*
X719128Y330143D01*
X717179Y332092D01*
X713281Y332092D01*
X711332Y330143D01*
X723026Y322347D02*
X723026Y320398D01*
X723026Y322347D02*
X724975Y322347D01*
X724975Y320398D01*
X723026Y320398D01*
X728873Y330143D02*
X730822Y332092D01*
X734720Y332092D01*
X736669Y330143D01*
X736669Y328194D01*
X734720Y326245D01*
X732771Y326245D01*
X734720Y326245D02*
X736669Y324296D01*
X736669Y322347D01*
X734720Y320398D01*
X730822Y320398D01*
X728873Y322347D01*
D10*
X148844Y277622D02*
X148844Y128016D01*
X148844Y277622D02*
X59690Y277622D01*
X3810Y277622D02*
X3810Y128016D01*
X29972Y128016D01*
X59690Y128016D02*
X148844Y128016D01*
X29972Y277622D02*
X3810Y277622D01*
D17*
X17780Y114046D02*
X17902Y114044D01*
X18024Y114038D01*
X18146Y114028D01*
X18267Y114015D01*
X18388Y113997D01*
X18508Y113976D01*
X18628Y113950D01*
X18746Y113921D01*
X18864Y113889D01*
X18981Y113852D01*
X19096Y113812D01*
X19210Y113768D01*
X19322Y113720D01*
X19433Y113669D01*
X19542Y113614D01*
X19650Y113556D01*
X19755Y113494D01*
X19858Y113429D01*
X19960Y113361D01*
X20059Y113289D01*
X20155Y113215D01*
X20250Y113137D01*
X20341Y113056D01*
X20431Y112973D01*
X20517Y112887D01*
X20600Y112797D01*
X20681Y112706D01*
X20759Y112611D01*
X20833Y112515D01*
X20905Y112416D01*
X20973Y112314D01*
X21038Y112211D01*
X21100Y112106D01*
X21158Y111998D01*
X21213Y111889D01*
X21264Y111778D01*
X21312Y111666D01*
X21356Y111552D01*
X21396Y111437D01*
X21433Y111320D01*
X21465Y111202D01*
X21494Y111084D01*
X21520Y110964D01*
X21541Y110844D01*
X21559Y110723D01*
X21572Y110602D01*
X21582Y110480D01*
X21588Y110358D01*
X21590Y110236D01*
X21588Y110114D01*
X21582Y109992D01*
X21572Y109870D01*
X21559Y109749D01*
X21541Y109628D01*
X21520Y109508D01*
X21494Y109388D01*
X21465Y109270D01*
X21433Y109152D01*
X21396Y109035D01*
X21356Y108920D01*
X21312Y108806D01*
X21264Y108694D01*
X21213Y108583D01*
X21158Y108474D01*
X21100Y108366D01*
X21038Y108261D01*
X20973Y108158D01*
X20905Y108056D01*
X20833Y107957D01*
X20759Y107861D01*
X20681Y107766D01*
X20600Y107675D01*
X20517Y107585D01*
X20431Y107499D01*
X20341Y107416D01*
X20250Y107335D01*
X20155Y107257D01*
X20059Y107183D01*
X19960Y107111D01*
X19858Y107043D01*
X19755Y106978D01*
X19650Y106916D01*
X19542Y106858D01*
X19433Y106803D01*
X19322Y106752D01*
X19210Y106704D01*
X19096Y106660D01*
X18981Y106620D01*
X18864Y106583D01*
X18746Y106551D01*
X18628Y106522D01*
X18508Y106496D01*
X18388Y106475D01*
X18267Y106457D01*
X18146Y106444D01*
X18024Y106434D01*
X17902Y106428D01*
X17780Y106426D01*
X17658Y106428D01*
X17536Y106434D01*
X17414Y106444D01*
X17293Y106457D01*
X17172Y106475D01*
X17052Y106496D01*
X16932Y106522D01*
X16814Y106551D01*
X16696Y106583D01*
X16579Y106620D01*
X16464Y106660D01*
X16350Y106704D01*
X16238Y106752D01*
X16127Y106803D01*
X16018Y106858D01*
X15910Y106916D01*
X15805Y106978D01*
X15702Y107043D01*
X15600Y107111D01*
X15501Y107183D01*
X15405Y107257D01*
X15310Y107335D01*
X15219Y107416D01*
X15129Y107499D01*
X15043Y107585D01*
X14960Y107675D01*
X14879Y107766D01*
X14801Y107861D01*
X14727Y107957D01*
X14655Y108056D01*
X14587Y108158D01*
X14522Y108261D01*
X14460Y108366D01*
X14402Y108474D01*
X14347Y108583D01*
X14296Y108694D01*
X14248Y108806D01*
X14204Y108920D01*
X14164Y109035D01*
X14127Y109152D01*
X14095Y109270D01*
X14066Y109388D01*
X14040Y109508D01*
X14019Y109628D01*
X14001Y109749D01*
X13988Y109870D01*
X13978Y109992D01*
X13972Y110114D01*
X13970Y110236D01*
X13972Y110358D01*
X13978Y110480D01*
X13988Y110602D01*
X14001Y110723D01*
X14019Y110844D01*
X14040Y110964D01*
X14066Y111084D01*
X14095Y111202D01*
X14127Y111320D01*
X14164Y111437D01*
X14204Y111552D01*
X14248Y111666D01*
X14296Y111778D01*
X14347Y111889D01*
X14402Y111998D01*
X14460Y112106D01*
X14522Y112211D01*
X14587Y112314D01*
X14655Y112416D01*
X14727Y112515D01*
X14801Y112611D01*
X14879Y112706D01*
X14960Y112797D01*
X15043Y112887D01*
X15129Y112973D01*
X15219Y113056D01*
X15310Y113137D01*
X15405Y113215D01*
X15501Y113289D01*
X15600Y113361D01*
X15702Y113429D01*
X15805Y113494D01*
X15910Y113556D01*
X16018Y113614D01*
X16127Y113669D01*
X16238Y113720D01*
X16350Y113768D01*
X16464Y113812D01*
X16579Y113852D01*
X16696Y113889D01*
X16814Y113921D01*
X16932Y113950D01*
X17052Y113976D01*
X17172Y113997D01*
X17293Y114015D01*
X17414Y114028D01*
X17536Y114038D01*
X17658Y114044D01*
X17780Y114046D01*
D10*
X1280414Y223012D02*
X1305306Y223012D01*
X1305306Y160528D01*
X1280414Y160528D01*
X1280414Y155448D01*
X1257046Y155448D01*
X1152906Y155448D02*
X1152906Y157226D01*
X1152906Y228092D02*
X1154684Y228092D01*
X1280414Y228092D02*
X1280414Y223012D01*
X1152906Y214122D02*
X1152906Y204470D01*
X1152906Y155448D02*
X1154684Y155448D01*
X1152906Y169418D02*
X1152906Y179070D01*
X1173734Y228092D02*
X1231392Y228092D01*
X1152906Y228092D02*
X1152906Y226314D01*
X1257046Y228092D02*
X1280414Y228092D01*
X1231392Y155448D02*
X1173734Y155448D01*
X1126236Y81280D02*
X1113536Y81280D01*
X1119886Y87630D02*
X1119886Y74930D01*
X1127506Y81280D02*
X1127521Y80068D01*
X1127565Y78856D01*
X1127639Y77646D01*
X1127742Y76438D01*
X1127875Y75233D01*
X1128037Y74031D01*
X1128228Y72834D01*
X1128448Y71642D01*
X1128697Y70455D01*
X1128975Y69275D01*
X1129282Y68102D01*
X1129617Y66937D01*
X1129980Y65781D01*
X1130372Y64633D01*
X1130791Y63496D01*
X1131238Y62369D01*
X1131712Y61253D01*
X1132213Y60149D01*
X1132741Y59057D01*
X1133295Y57979D01*
X1133876Y56915D01*
X1134482Y55865D01*
X1135114Y54830D01*
X1135770Y53811D01*
X1136451Y52808D01*
X1137157Y51822D01*
X1137886Y50853D01*
X1138639Y49903D01*
X1139414Y48971D01*
X1140212Y48058D01*
X1141032Y47165D01*
X1141874Y46292D01*
X1142736Y45440D01*
X1143619Y44610D01*
X1144522Y43800D01*
X1145445Y43014D01*
X1146386Y42250D01*
X1147345Y41509D01*
X1148323Y40791D01*
X1149317Y40098D01*
X1150328Y39429D01*
X1151356Y38785D01*
X1152398Y38166D01*
X1153455Y37572D01*
X1154527Y37005D01*
X1155612Y36464D01*
X1156709Y35949D01*
X1157819Y35461D01*
X1158941Y35001D01*
X1160073Y34568D01*
X1161216Y34162D01*
X1162368Y33785D01*
X1163529Y33436D01*
X1164698Y33115D01*
X1165875Y32822D01*
X1167058Y32559D01*
X1168247Y32324D01*
X1169442Y32118D01*
X1170642Y31942D01*
X1171845Y31795D01*
X1173052Y31677D01*
X1174261Y31588D01*
X1175472Y31529D01*
X1176684Y31500D01*
X1177896Y31500D01*
X1179108Y31529D01*
X1180319Y31588D01*
X1181528Y31677D01*
X1182735Y31795D01*
X1183938Y31942D01*
X1185138Y32118D01*
X1186333Y32324D01*
X1187522Y32559D01*
X1188705Y32822D01*
X1189882Y33115D01*
X1191051Y33436D01*
X1192212Y33785D01*
X1193364Y34162D01*
X1194507Y34568D01*
X1195639Y35001D01*
X1196761Y35461D01*
X1197871Y35949D01*
X1198968Y36464D01*
X1200053Y37005D01*
X1201125Y37572D01*
X1202182Y38166D01*
X1203224Y38785D01*
X1204252Y39429D01*
X1205263Y40098D01*
X1206257Y40791D01*
X1207235Y41509D01*
X1208194Y42250D01*
X1209135Y43014D01*
X1210058Y43800D01*
X1210961Y44610D01*
X1211844Y45440D01*
X1212706Y46292D01*
X1213548Y47165D01*
X1214368Y48058D01*
X1215166Y48971D01*
X1215941Y49903D01*
X1216694Y50853D01*
X1217423Y51822D01*
X1218129Y52808D01*
X1218810Y53811D01*
X1219466Y54830D01*
X1220098Y55865D01*
X1220704Y56915D01*
X1221285Y57979D01*
X1221839Y59057D01*
X1222367Y60149D01*
X1222868Y61253D01*
X1223342Y62369D01*
X1223789Y63496D01*
X1224208Y64633D01*
X1224600Y65781D01*
X1224963Y66937D01*
X1225298Y68102D01*
X1225605Y69275D01*
X1225883Y70455D01*
X1226132Y71642D01*
X1226352Y72834D01*
X1226543Y74031D01*
X1226705Y75233D01*
X1226838Y76438D01*
X1226941Y77646D01*
X1227015Y78856D01*
X1227059Y80068D01*
X1227074Y81280D01*
X1227059Y82492D01*
X1227015Y83704D01*
X1226941Y84914D01*
X1226838Y86122D01*
X1226705Y87327D01*
X1226543Y88529D01*
X1226352Y89726D01*
X1226132Y90918D01*
X1225883Y92105D01*
X1225605Y93285D01*
X1225298Y94458D01*
X1224963Y95623D01*
X1224600Y96779D01*
X1224208Y97927D01*
X1223789Y99064D01*
X1223342Y100191D01*
X1222868Y101307D01*
X1222367Y102411D01*
X1221839Y103503D01*
X1221285Y104581D01*
X1220704Y105645D01*
X1220098Y106695D01*
X1219466Y107730D01*
X1218810Y108749D01*
X1218129Y109752D01*
X1217423Y110738D01*
X1216694Y111707D01*
X1215941Y112657D01*
X1215166Y113589D01*
X1214368Y114502D01*
X1213548Y115395D01*
X1212706Y116268D01*
X1211844Y117120D01*
X1210961Y117950D01*
X1210058Y118760D01*
X1209135Y119546D01*
X1208194Y120310D01*
X1207235Y121051D01*
X1206257Y121769D01*
X1205263Y122462D01*
X1204252Y123131D01*
X1203224Y123775D01*
X1202182Y124394D01*
X1201125Y124988D01*
X1200053Y125555D01*
X1198968Y126096D01*
X1197871Y126611D01*
X1196761Y127099D01*
X1195639Y127559D01*
X1194507Y127992D01*
X1193364Y128398D01*
X1192212Y128775D01*
X1191051Y129124D01*
X1189882Y129445D01*
X1188705Y129738D01*
X1187522Y130001D01*
X1186333Y130236D01*
X1185138Y130442D01*
X1183938Y130618D01*
X1182735Y130765D01*
X1181528Y130883D01*
X1180319Y130972D01*
X1179108Y131031D01*
X1177896Y131060D01*
X1176684Y131060D01*
X1175472Y131031D01*
X1174261Y130972D01*
X1173052Y130883D01*
X1171845Y130765D01*
X1170642Y130618D01*
X1169442Y130442D01*
X1168247Y130236D01*
X1167058Y130001D01*
X1165875Y129738D01*
X1164698Y129445D01*
X1163529Y129124D01*
X1162368Y128775D01*
X1161216Y128398D01*
X1160073Y127992D01*
X1158941Y127559D01*
X1157819Y127099D01*
X1156709Y126611D01*
X1155612Y126096D01*
X1154527Y125555D01*
X1153455Y124988D01*
X1152398Y124394D01*
X1151356Y123775D01*
X1150328Y123131D01*
X1149317Y122462D01*
X1148323Y121769D01*
X1147345Y121051D01*
X1146386Y120310D01*
X1145445Y119546D01*
X1144522Y118760D01*
X1143619Y117950D01*
X1142736Y117120D01*
X1141874Y116268D01*
X1141032Y115395D01*
X1140212Y114502D01*
X1139414Y113589D01*
X1138639Y112657D01*
X1137886Y111707D01*
X1137157Y110738D01*
X1136451Y109752D01*
X1135770Y108749D01*
X1135114Y107730D01*
X1134482Y106695D01*
X1133876Y105645D01*
X1133295Y104581D01*
X1132741Y103503D01*
X1132213Y102411D01*
X1131712Y101307D01*
X1131238Y100191D01*
X1130791Y99064D01*
X1130372Y97927D01*
X1129980Y96779D01*
X1129617Y95623D01*
X1129282Y94458D01*
X1128975Y93285D01*
X1128697Y92105D01*
X1128448Y90918D01*
X1128228Y89726D01*
X1128037Y88529D01*
X1127875Y87327D01*
X1127742Y86122D01*
X1127639Y84914D01*
X1127565Y83704D01*
X1127521Y82492D01*
X1127506Y81280D01*
D18*
X1122045Y185252D02*
X1122045Y195209D01*
X1122045Y185252D02*
X1120054Y183261D01*
X1116071Y183261D01*
X1114080Y185252D01*
X1114080Y195209D01*
X1110351Y195209D02*
X1102386Y195209D01*
X1110351Y195209D02*
X1110351Y189235D01*
X1106368Y191226D01*
X1104377Y191226D01*
X1102386Y189235D01*
X1102386Y185252D01*
X1104377Y183261D01*
X1108360Y183261D01*
X1110351Y185252D01*
D10*
X953262Y354838D02*
X850900Y354838D01*
X850900Y262382D01*
X953262Y262382D01*
X953262Y354838D01*
D17*
X967232Y303530D02*
X967234Y303652D01*
X967240Y303774D01*
X967250Y303896D01*
X967263Y304017D01*
X967281Y304138D01*
X967302Y304258D01*
X967328Y304378D01*
X967357Y304496D01*
X967389Y304614D01*
X967426Y304731D01*
X967466Y304846D01*
X967510Y304960D01*
X967558Y305072D01*
X967609Y305183D01*
X967664Y305292D01*
X967722Y305400D01*
X967784Y305505D01*
X967849Y305608D01*
X967917Y305710D01*
X967989Y305809D01*
X968063Y305905D01*
X968141Y306000D01*
X968222Y306091D01*
X968305Y306181D01*
X968391Y306267D01*
X968481Y306350D01*
X968572Y306431D01*
X968667Y306509D01*
X968763Y306583D01*
X968862Y306655D01*
X968964Y306723D01*
X969067Y306788D01*
X969172Y306850D01*
X969280Y306908D01*
X969389Y306963D01*
X969500Y307014D01*
X969612Y307062D01*
X969726Y307106D01*
X969841Y307146D01*
X969958Y307183D01*
X970076Y307215D01*
X970194Y307244D01*
X970314Y307270D01*
X970434Y307291D01*
X970555Y307309D01*
X970676Y307322D01*
X970798Y307332D01*
X970920Y307338D01*
X971042Y307340D01*
X971164Y307338D01*
X971286Y307332D01*
X971408Y307322D01*
X971529Y307309D01*
X971650Y307291D01*
X971770Y307270D01*
X971890Y307244D01*
X972008Y307215D01*
X972126Y307183D01*
X972243Y307146D01*
X972358Y307106D01*
X972472Y307062D01*
X972584Y307014D01*
X972695Y306963D01*
X972804Y306908D01*
X972912Y306850D01*
X973017Y306788D01*
X973120Y306723D01*
X973222Y306655D01*
X973321Y306583D01*
X973417Y306509D01*
X973512Y306431D01*
X973603Y306350D01*
X973693Y306267D01*
X973779Y306181D01*
X973862Y306091D01*
X973943Y306000D01*
X974021Y305905D01*
X974095Y305809D01*
X974167Y305710D01*
X974235Y305608D01*
X974300Y305505D01*
X974362Y305400D01*
X974420Y305292D01*
X974475Y305183D01*
X974526Y305072D01*
X974574Y304960D01*
X974618Y304846D01*
X974658Y304731D01*
X974695Y304614D01*
X974727Y304496D01*
X974756Y304378D01*
X974782Y304258D01*
X974803Y304138D01*
X974821Y304017D01*
X974834Y303896D01*
X974844Y303774D01*
X974850Y303652D01*
X974852Y303530D01*
X974850Y303408D01*
X974844Y303286D01*
X974834Y303164D01*
X974821Y303043D01*
X974803Y302922D01*
X974782Y302802D01*
X974756Y302682D01*
X974727Y302564D01*
X974695Y302446D01*
X974658Y302329D01*
X974618Y302214D01*
X974574Y302100D01*
X974526Y301988D01*
X974475Y301877D01*
X974420Y301768D01*
X974362Y301660D01*
X974300Y301555D01*
X974235Y301452D01*
X974167Y301350D01*
X974095Y301251D01*
X974021Y301155D01*
X973943Y301060D01*
X973862Y300969D01*
X973779Y300879D01*
X973693Y300793D01*
X973603Y300710D01*
X973512Y300629D01*
X973417Y300551D01*
X973321Y300477D01*
X973222Y300405D01*
X973120Y300337D01*
X973017Y300272D01*
X972912Y300210D01*
X972804Y300152D01*
X972695Y300097D01*
X972584Y300046D01*
X972472Y299998D01*
X972358Y299954D01*
X972243Y299914D01*
X972126Y299877D01*
X972008Y299845D01*
X971890Y299816D01*
X971770Y299790D01*
X971650Y299769D01*
X971529Y299751D01*
X971408Y299738D01*
X971286Y299728D01*
X971164Y299722D01*
X971042Y299720D01*
X970920Y299722D01*
X970798Y299728D01*
X970676Y299738D01*
X970555Y299751D01*
X970434Y299769D01*
X970314Y299790D01*
X970194Y299816D01*
X970076Y299845D01*
X969958Y299877D01*
X969841Y299914D01*
X969726Y299954D01*
X969612Y299998D01*
X969500Y300046D01*
X969389Y300097D01*
X969280Y300152D01*
X969172Y300210D01*
X969067Y300272D01*
X968964Y300337D01*
X968862Y300405D01*
X968763Y300477D01*
X968667Y300551D01*
X968572Y300629D01*
X968481Y300710D01*
X968391Y300793D01*
X968305Y300879D01*
X968222Y300969D01*
X968141Y301060D01*
X968063Y301155D01*
X967989Y301251D01*
X967917Y301350D01*
X967849Y301452D01*
X967784Y301555D01*
X967722Y301660D01*
X967664Y301768D01*
X967609Y301877D01*
X967558Y301988D01*
X967510Y302100D01*
X967466Y302214D01*
X967426Y302329D01*
X967389Y302446D01*
X967357Y302564D01*
X967328Y302682D01*
X967302Y302802D01*
X967281Y302922D01*
X967263Y303043D01*
X967250Y303164D01*
X967240Y303286D01*
X967234Y303408D01*
X967232Y303530D01*
D10*
X1013460Y168910D02*
X1013460Y143510D01*
X1031240Y140970D02*
X1031340Y140972D01*
X1031439Y140978D01*
X1031539Y140988D01*
X1031637Y141001D01*
X1031736Y141019D01*
X1031833Y141040D01*
X1031929Y141065D01*
X1032025Y141094D01*
X1032119Y141127D01*
X1032212Y141163D01*
X1032303Y141203D01*
X1032393Y141247D01*
X1032481Y141294D01*
X1032567Y141344D01*
X1032651Y141398D01*
X1032733Y141455D01*
X1032812Y141515D01*
X1032890Y141579D01*
X1032964Y141645D01*
X1033036Y141714D01*
X1033105Y141786D01*
X1033171Y141860D01*
X1033235Y141938D01*
X1033295Y142017D01*
X1033352Y142099D01*
X1033406Y142183D01*
X1033456Y142269D01*
X1033503Y142357D01*
X1033547Y142447D01*
X1033587Y142538D01*
X1033623Y142631D01*
X1033656Y142725D01*
X1033685Y142821D01*
X1033710Y142917D01*
X1033731Y143014D01*
X1033749Y143113D01*
X1033762Y143211D01*
X1033772Y143311D01*
X1033778Y143410D01*
X1033780Y143510D01*
X1033780Y168910D02*
X1033778Y169010D01*
X1033772Y169109D01*
X1033762Y169209D01*
X1033749Y169307D01*
X1033731Y169406D01*
X1033710Y169503D01*
X1033685Y169599D01*
X1033656Y169695D01*
X1033623Y169789D01*
X1033587Y169882D01*
X1033547Y169973D01*
X1033503Y170063D01*
X1033456Y170151D01*
X1033406Y170237D01*
X1033352Y170321D01*
X1033295Y170403D01*
X1033235Y170482D01*
X1033171Y170560D01*
X1033105Y170634D01*
X1033036Y170706D01*
X1032964Y170775D01*
X1032890Y170841D01*
X1032812Y170905D01*
X1032733Y170965D01*
X1032651Y171022D01*
X1032567Y171076D01*
X1032481Y171126D01*
X1032393Y171173D01*
X1032303Y171217D01*
X1032212Y171257D01*
X1032119Y171293D01*
X1032025Y171326D01*
X1031929Y171355D01*
X1031833Y171380D01*
X1031736Y171401D01*
X1031637Y171419D01*
X1031539Y171432D01*
X1031439Y171442D01*
X1031340Y171448D01*
X1031240Y171450D01*
X1016000Y171450D02*
X1015900Y171448D01*
X1015801Y171442D01*
X1015701Y171432D01*
X1015603Y171419D01*
X1015504Y171401D01*
X1015407Y171380D01*
X1015311Y171355D01*
X1015215Y171326D01*
X1015121Y171293D01*
X1015028Y171257D01*
X1014937Y171217D01*
X1014847Y171173D01*
X1014759Y171126D01*
X1014673Y171076D01*
X1014589Y171022D01*
X1014507Y170965D01*
X1014428Y170905D01*
X1014350Y170841D01*
X1014276Y170775D01*
X1014204Y170706D01*
X1014135Y170634D01*
X1014069Y170560D01*
X1014005Y170482D01*
X1013945Y170403D01*
X1013888Y170321D01*
X1013834Y170237D01*
X1013784Y170151D01*
X1013737Y170063D01*
X1013693Y169973D01*
X1013653Y169882D01*
X1013617Y169789D01*
X1013584Y169695D01*
X1013555Y169599D01*
X1013530Y169503D01*
X1013509Y169406D01*
X1013491Y169307D01*
X1013478Y169209D01*
X1013468Y169109D01*
X1013462Y169010D01*
X1013460Y168910D01*
X1013460Y143510D02*
X1013462Y143410D01*
X1013468Y143311D01*
X1013478Y143211D01*
X1013491Y143113D01*
X1013509Y143014D01*
X1013530Y142917D01*
X1013555Y142821D01*
X1013584Y142725D01*
X1013617Y142631D01*
X1013653Y142538D01*
X1013693Y142447D01*
X1013737Y142357D01*
X1013784Y142269D01*
X1013834Y142183D01*
X1013888Y142099D01*
X1013945Y142017D01*
X1014005Y141938D01*
X1014069Y141860D01*
X1014135Y141786D01*
X1014204Y141714D01*
X1014276Y141645D01*
X1014350Y141579D01*
X1014428Y141515D01*
X1014507Y141455D01*
X1014589Y141398D01*
X1014673Y141344D01*
X1014759Y141294D01*
X1014847Y141247D01*
X1014937Y141203D01*
X1015028Y141163D01*
X1015121Y141127D01*
X1015215Y141094D01*
X1015311Y141065D01*
X1015407Y141040D01*
X1015504Y141019D01*
X1015603Y141001D01*
X1015701Y140988D01*
X1015801Y140978D01*
X1015900Y140972D01*
X1016000Y140970D01*
X1031240Y140970D01*
X1031240Y171450D02*
X1016000Y171450D01*
X1033780Y168910D02*
X1033780Y143510D01*
D16*
X1039706Y148425D02*
X1040511Y149230D01*
X1040511Y150035D01*
X1039706Y150840D01*
X1035681Y150840D01*
X1035681Y150035D02*
X1035681Y151645D01*
X1035681Y154038D02*
X1040511Y154038D01*
X1035681Y154038D02*
X1035681Y156453D01*
X1036486Y157258D01*
X1038096Y157258D01*
X1038901Y156453D01*
X1038901Y154038D01*
X1035681Y159652D02*
X1035681Y162872D01*
X1035681Y159652D02*
X1038096Y159652D01*
X1037291Y161262D01*
X1037291Y162067D01*
X1038096Y162872D01*
X1039706Y162872D01*
X1040511Y162067D01*
X1040511Y160457D01*
X1039706Y159652D01*
D19*
X42234Y37084D02*
X41302Y38016D01*
X42234Y37084D02*
X43166Y37084D01*
X44098Y38016D01*
X44098Y42677D01*
X43166Y42677D02*
X45030Y42677D01*
X46915Y42677D02*
X46915Y37084D01*
X46915Y42677D02*
X49711Y42677D01*
X50643Y41745D01*
X50643Y39880D01*
X49711Y38948D01*
X46915Y38948D01*
X52528Y38016D02*
X52528Y37084D01*
X52528Y38016D02*
X53460Y38016D01*
X53460Y37084D01*
X52528Y37084D01*
X55334Y38016D02*
X55334Y42677D01*
X55334Y38016D02*
X56266Y37084D01*
X58131Y37084D01*
X59063Y38016D01*
X59063Y42677D01*
X63744Y42677D02*
X64676Y41745D01*
X63744Y42677D02*
X61879Y42677D01*
X60947Y41745D01*
X60947Y40813D01*
X61879Y39880D01*
X63744Y39880D01*
X64676Y38948D01*
X64676Y38016D01*
X63744Y37084D01*
X61879Y37084D01*
X60947Y38016D01*
X66560Y37084D02*
X66560Y42677D01*
X69357Y42677D01*
X70289Y41745D01*
X70289Y40813D01*
X69357Y39880D01*
X70289Y38948D01*
X70289Y38016D01*
X69357Y37084D01*
X66560Y37084D01*
X66560Y39880D02*
X69357Y39880D01*
X72174Y38016D02*
X72174Y37084D01*
X72174Y38016D02*
X73106Y38016D01*
X73106Y37084D01*
X72174Y37084D01*
X74980Y37084D02*
X74980Y42677D01*
X74980Y37084D02*
X77776Y37084D01*
X78709Y38016D01*
X78709Y41745D01*
X77776Y42677D01*
X74980Y42677D01*
X83390Y42677D02*
X84322Y41745D01*
X83390Y42677D02*
X81525Y42677D01*
X80593Y41745D01*
X80593Y38016D01*
X81525Y37084D01*
X83390Y37084D01*
X84322Y38016D01*
M02*
