G04 EAGLE Gerber RS-274X export*
G75*
%MOMM*%
%FSLAX34Y34*%
%LPD*%
%INSoldermask Bottom*%
%IPPOS*%
%AMOC8*
5,1,8,0,0,1.08239X$1,22.5*%
G01*
%ADD10C,3.505200*%
%ADD11R,1.727200X1.727200*%
%ADD12P,1.869504X8X22.500000*%
%ADD13C,1.701800*%
%ADD14R,0.558800X1.676400*%
%ADD15R,1.473200X0.965200*%
%ADD16R,1.473200X0.838200*%
%ADD17C,1.625600*%
%ADD18C,3.530600*%
%ADD19C,1.993900*%
%ADD20C,1.422400*%
%ADD21C,1.219200*%
%ADD22R,1.653200X1.353200*%
%ADD23R,1.625600X0.482600*%
%ADD24R,1.353200X1.653200*%
%ADD25R,1.503200X1.103200*%
%ADD26R,1.103200X1.503200*%
%ADD27C,2.146300*%
%ADD28R,0.965200X1.473200*%
%ADD29R,0.703200X1.208800*%
%ADD30R,1.203200X1.153200*%
%ADD31R,2.003200X1.353200*%
%ADD32C,0.728200*%
%ADD33C,0.609600*%


D10*
X66040Y306070D03*
X1186180Y306070D03*
D11*
X224200Y39110D03*
D12*
X224200Y64510D03*
X249600Y39110D03*
X249600Y64510D03*
X275000Y39110D03*
X275000Y64510D03*
X300400Y39110D03*
X300400Y64510D03*
X325800Y39110D03*
X325800Y64510D03*
X351200Y39110D03*
X351200Y64510D03*
X376600Y39110D03*
X376600Y64510D03*
X402000Y39110D03*
X402000Y64510D03*
X427400Y39110D03*
X427400Y64510D03*
X452800Y39110D03*
X452800Y64510D03*
X478200Y39110D03*
X478200Y64510D03*
X503600Y39110D03*
X503600Y64510D03*
X529000Y39110D03*
X529000Y64510D03*
X554400Y39110D03*
X554400Y64510D03*
X579800Y39110D03*
X579800Y64510D03*
X605200Y39110D03*
X605200Y64510D03*
X630600Y39110D03*
X630600Y64510D03*
X656000Y39110D03*
X656000Y64510D03*
D11*
X224200Y293110D03*
D12*
X224200Y318510D03*
X249600Y293110D03*
X249600Y318510D03*
X275000Y293110D03*
X275000Y318510D03*
X300400Y293110D03*
X300400Y318510D03*
X325800Y293110D03*
X325800Y318510D03*
X351200Y293110D03*
X351200Y318510D03*
X376600Y293110D03*
X376600Y318510D03*
X402000Y293110D03*
X402000Y318510D03*
X427400Y293110D03*
X427400Y318510D03*
X452800Y293110D03*
X452800Y318510D03*
X478200Y293110D03*
X478200Y318510D03*
X503600Y293110D03*
X503600Y318510D03*
X529000Y293110D03*
X529000Y318510D03*
X554400Y293110D03*
X554400Y318510D03*
X579800Y293110D03*
X579800Y318510D03*
X605200Y293110D03*
X605200Y318510D03*
X630600Y293110D03*
X630600Y318510D03*
X656000Y293110D03*
X656000Y318510D03*
D13*
X995680Y64770D03*
X995680Y39370D03*
X970280Y64770D03*
X970280Y39370D03*
X944880Y64770D03*
X944880Y39370D03*
X919480Y64770D03*
X919480Y39370D03*
X894080Y64770D03*
X894080Y39370D03*
X868680Y64770D03*
X868680Y39370D03*
X843280Y64770D03*
X843280Y39370D03*
X817880Y64770D03*
X817880Y39370D03*
D14*
X799020Y186690D03*
X792520Y186690D03*
X786020Y186690D03*
X779520Y186690D03*
X773020Y186690D03*
X766520Y186690D03*
X760020Y186690D03*
X753520Y186690D03*
X747020Y186690D03*
X740520Y186690D03*
X734020Y186690D03*
X727520Y186690D03*
X727520Y245110D03*
X734020Y245110D03*
X740520Y245110D03*
X747020Y245110D03*
X753520Y245110D03*
X760020Y245110D03*
X766520Y245110D03*
X773020Y245110D03*
X779520Y245110D03*
X786020Y245110D03*
X792520Y245110D03*
X799020Y245110D03*
X674560Y121920D03*
X668060Y121920D03*
X661560Y121920D03*
X655060Y121920D03*
X648560Y121920D03*
X642060Y121920D03*
X635560Y121920D03*
X629060Y121920D03*
X622560Y121920D03*
X616060Y121920D03*
X609560Y121920D03*
X603060Y121920D03*
X603060Y180340D03*
X609560Y180340D03*
X616060Y180340D03*
X622560Y180340D03*
X629060Y180340D03*
X635560Y180340D03*
X642060Y180340D03*
X648560Y180340D03*
X655060Y180340D03*
X661560Y180340D03*
X668060Y180340D03*
X674560Y180340D03*
D15*
X661670Y204724D03*
X661670Y214376D03*
D16*
X722630Y140208D03*
X722630Y132080D03*
X722630Y123952D03*
D15*
X787400Y274574D03*
X787400Y284226D03*
D16*
X828040Y191008D03*
X828040Y182880D03*
X828040Y174752D03*
D17*
X17780Y172720D03*
X17780Y192786D03*
X17780Y212598D03*
X17780Y232664D03*
D18*
X44958Y136906D03*
X44958Y268478D03*
D19*
X1259078Y191770D03*
X1189228Y191770D03*
D20*
X1156208Y188214D03*
X1156208Y195326D03*
X1167638Y163322D03*
X1160780Y163322D03*
X1167638Y220218D03*
X1160780Y220218D03*
X1247648Y224790D03*
X1240790Y224790D03*
X1247648Y158750D03*
X1240790Y158750D03*
D21*
X1164590Y61214D03*
X1189990Y61214D03*
D22*
X1143000Y115460D03*
X1143000Y133460D03*
D23*
X1118997Y166210D03*
X1118997Y161210D03*
X1118997Y156210D03*
X1118997Y151210D03*
X1118997Y146210D03*
X1075563Y146210D03*
X1075563Y151210D03*
X1075563Y156210D03*
X1075563Y161210D03*
X1075563Y166210D03*
D24*
X1097170Y121920D03*
X1115170Y121920D03*
D22*
X1075690Y102980D03*
X1075690Y84980D03*
D25*
X1169670Y125120D03*
X1169670Y144120D03*
D24*
X1079390Y232410D03*
X1097390Y232410D03*
D25*
X1132840Y220320D03*
X1132840Y201320D03*
D26*
X1087780Y199390D03*
X1106780Y199390D03*
D27*
X927100Y303530D03*
X877062Y303530D03*
D28*
X190246Y44450D03*
X180594Y44450D03*
D29*
X139040Y82992D03*
X129540Y82992D03*
X120040Y82992D03*
X120040Y110048D03*
X139040Y110048D03*
D30*
X118110Y129160D03*
X118110Y145160D03*
X139700Y129160D03*
X139700Y145160D03*
D31*
X129540Y29450D03*
X129540Y59450D03*
D30*
X158750Y44830D03*
X158750Y28830D03*
D25*
X92710Y98450D03*
X92710Y117450D03*
D32*
X229870Y193040D03*
X229870Y157480D03*
X318770Y157480D03*
X377190Y201930D03*
X453390Y203200D03*
X461010Y142240D03*
X535940Y139700D03*
X612140Y147320D03*
X656590Y147320D03*
X618490Y201930D03*
X688340Y201930D03*
X692150Y177800D03*
X727710Y104140D03*
X742950Y91440D03*
X800100Y43180D03*
X777240Y26670D03*
X889000Y16510D03*
X961390Y17780D03*
X1027430Y20320D03*
X1102360Y20320D03*
X1069340Y48260D03*
X1243330Y71120D03*
X1250950Y118110D03*
X1036320Y118110D03*
X966470Y175260D03*
X965200Y218440D03*
X1010920Y219710D03*
X1007110Y308610D03*
X1116330Y309880D03*
X1115060Y218440D03*
X1238250Y267970D03*
X1198880Y271780D03*
X1150620Y271780D03*
X1082040Y270510D03*
X831850Y308610D03*
X811530Y276860D03*
X847090Y213360D03*
X95250Y317500D03*
X92710Y204470D03*
X107950Y43180D03*
X104140Y73660D03*
X33020Y43180D03*
X60960Y49530D03*
X58420Y80010D03*
X38100Y167640D03*
X708660Y261620D03*
X722630Y269240D03*
X775970Y227330D03*
X200660Y53340D03*
X86360Y59690D03*
X993140Y147320D03*
X709930Y293370D03*
X717550Y339090D03*
X521970Y255496D03*
X474980Y254000D03*
X1009650Y27940D03*
X740410Y170180D03*
X762000Y201930D03*
X716280Y81958D03*
X784860Y60960D03*
X773430Y43180D03*
X840740Y124460D03*
X840740Y95024D03*
X826770Y147320D03*
X769620Y73830D03*
X869950Y90170D03*
X781050Y80010D03*
X744220Y201930D03*
X753745Y209452D03*
X770890Y207010D03*
X778510Y203200D03*
X920750Y193040D03*
X843280Y190500D03*
X773738Y113338D03*
X800100Y299720D03*
X708660Y213360D03*
X768310Y271203D03*
X701040Y219710D03*
X760422Y277822D03*
X697596Y212456D03*
X753110Y288290D03*
X746491Y270779D03*
X737657Y273050D03*
X726818Y302638D03*
X721360Y71346D03*
X881380Y91440D03*
X770890Y66266D03*
X843280Y19050D03*
X1200150Y236220D03*
X1145822Y219710D03*
X1096010Y156210D03*
D33*
X78330Y93570D03*
X320040Y26670D03*
X73660Y88900D03*
X324710Y20730D03*
D32*
X1102360Y143510D03*
X811530Y243840D03*
X717550Y190500D03*
X717550Y201775D03*
M02*
