M48
;GenerationSoftware,Autodesk,EAGLE,9.6.2*%
;CreationDate,2024-02-03T18:23:52Z*%
FMAT,2
ICI,OFF
METRIC,TZ,000.000
T11C0.254
T10C0.350
T9C0.508
T8C0.813
T7C0.889
T6C0.914
T5C0.991
T4C1.194
T3C1.295
T2C2.311
T1C3.302
%
G90
M71
T1
X118618Y30607
X6604Y30607
T2
X4496Y26848
X4496Y13691
T3
X87706Y30353
X92710Y30353
T4
X118923Y19177
X125908Y19177
T5
X81788Y3937
X81788Y6477
X84328Y3937
X84328Y6477
X86868Y3937
X86868Y6477
X89408Y3937
X89408Y6477
X91948Y3937
X91948Y6477
X94488Y3937
X94488Y6477
X97028Y3937
X97028Y6477
X99568Y3937
X99568Y6477
T6
X1778Y23266
X1778Y21260
X1778Y19279
X1778Y17272
T7
X27500Y3911
X45280Y6451
X35120Y3911
X32580Y6451
X32580Y3911
X30040Y6451
X30040Y3911
X27500Y6451
X35120Y6451
X24960Y6451
X24960Y3911
X22420Y6451
X22420Y3911
X37660Y3911
X65600Y31851
X65600Y29311
X63060Y31851
X63060Y29311
X60520Y31851
X60520Y29311
X57980Y31851
X57980Y29311
X55440Y31851
X55440Y29311
X52900Y31851
X52900Y29311
X50360Y31851
X50360Y29311
X47820Y31851
X47820Y29311
X45280Y31851
X45280Y29311
X42740Y31851
X42740Y29311
X40200Y31851
X40200Y29311
X37660Y31851
X37660Y29311
X35120Y31851
X35120Y29311
X32580Y31851
X32580Y29311
X30040Y31851
X30040Y29311
X27500Y31851
X27500Y29311
X24960Y31851
X24960Y29311
X22420Y31851
X22420Y29311
X65600Y6451
X65600Y3911
X63060Y6451
X63060Y3911
X60520Y6451
X60520Y3911
X57980Y6451
X57980Y3911
X55440Y6451
X55440Y3911
X52900Y6451
X52900Y3911
X50360Y6451
X50360Y3911
X47820Y6451
X47820Y3911
X45280Y3911
X42740Y6451
X42740Y3911
X40200Y6451
X40200Y3911
X37660Y6451
T8
X115621Y18821
X115621Y19533
X116764Y16332
X116078Y16332
X116764Y22022
X116078Y22022
X124765Y22479
X124079Y22479
X124765Y15875
X124079Y15875
T9
X116459Y6121
X118999Y6121
T10
X111633Y30988
X101092Y21971
X100711Y30861
X71755Y20178
X71755Y19050
X81153Y24384
X110236Y14351
X22987Y19304
X111506Y21844
X22987Y15748
X123825Y26797
X119888Y27178
X109601Y15621
X114582Y21971
X120015Y23622
X84328Y1905
X77089Y6627
X88138Y9144
X72136Y7135
X72682Y30264
X73766Y27305
X74649Y27078
X75311Y28829
X69760Y21246
X76042Y27782
X70104Y21971
X76831Y27120
X70866Y21336
X80010Y29972
X77374Y11334
X84328Y19050
X92075Y19304
X77851Y20320
X77089Y20701
X75375Y20945
X74422Y20193
X78105Y8001
X86995Y9017
X76962Y7383
X82677Y14732
X84074Y9502
X84074Y12446
X77343Y4318
X78486Y6096
X71628Y8196
X76200Y20193
X74041Y17018
X100965Y2794
X47498Y25400
X52197Y25550
X71755Y33909
X70993Y29337
X99314Y14732
X8636Y5969
X20066Y5334
X77597Y22733
X72263Y26924
X70866Y26162
X3810Y16764
X5842Y8001
X6096Y4953
X96520Y21844
X96647Y17526
X103632Y11811
X125095Y11811
X124333Y7112
X106934Y4826
X110236Y2032
X102743Y2032
X96139Y1778
X88900Y1651
X77724Y2667
X80010Y4318
X74295Y9144
X72771Y10414
X69215Y17780
X68834Y20193
X61849Y20193
X65659Y14732
X61214Y14732
X53594Y13970
X46101Y14224
X45339Y20320
X37719Y20193
X31877Y15748
X3302Y4318
X10414Y7366
X10795Y4318
X9271Y20447
X9525Y31750
X84709Y21336
X81153Y27686
X83185Y30861
X108204Y27051
X115062Y27178
T11
X7833Y9357
X32004Y2667
X7366Y8890
X32471Y2073
M30